<?xml version="1.0" encoding="UTF-8" standalone="no"?>
<!DOCTYPE svg PUBLIC "-//W3C//DTD SVG 1.1//EN"
 "http://www.w3.org/Graphics/SVG/1.1/DTD/svg11.dtd">
<!-- Generated by graphviz version 10.0.1 (20240210.2158)
 -->
<!-- Title: /Users/st1123/CLionProjects/advanced&#45;programming&#45;group&#45;linear&#45;regression/src/Image/Image.cpp Pages: 1 -->
<svg width="543pt" height="172pt"
 viewBox="0.00 0.00 543.00 171.50" xmlns="http://www.w3.org/2000/svg" xmlns:xlink="http://www.w3.org/1999/xlink">
<g id="graph0" class="graph" transform="scale(1 1) rotate(0) translate(4 167.5)">
<title>/Users/st1123/CLionProjects/advanced&#45;programming&#45;group&#45;linear&#45;regression/src/Image/Image.cpp</title>
<!-- Node1 -->
<g id="Node000001" class="node">
<title>Node1</title>
<g id="a_Node000001"><a xlink:title="Image class implementation file, which contains the implementation of the Image class and its member ...">
<polygon fill="#999999" stroke="#666666" points="294.38,-163.5 147.12,-163.5 147.12,-110.5 294.38,-110.5 294.38,-163.5"/>
<text text-anchor="start" x="155.12" y="-150" font-family="Helvetica,sans-Serif" font-size="10.00">/Users/st1123/CLionProjects</text>
<text text-anchor="start" x="155.12" y="-138.75" font-family="Helvetica,sans-Serif" font-size="10.00">/advanced&#45;programming&#45;group</text>
<text text-anchor="start" x="155.12" y="-127.5" font-family="Helvetica,sans-Serif" font-size="10.00">&#45;linear&#45;regression/src/Image</text>
<text text-anchor="middle" x="220.75" y="-116.25" font-family="Helvetica,sans-Serif" font-size="10.00">/Image.cpp</text>
</a>
</g>
</g>
<!-- Node2 -->
<g id="Node000002" class="node">
<title>Node2</title>
<g id="a_Node000002"><a xlink:href="_image_8h.html" target="_top" xlink:title="this header file contains all required functions and definitions for the Image class,...">
<polygon fill="white" stroke="#666666" points="246.38,-74.5 195.12,-74.5 195.12,-55.25 246.38,-55.25 246.38,-74.5"/>
<text text-anchor="middle" x="220.75" y="-61" font-family="Helvetica,sans-Serif" font-size="10.00">Image.h</text>
</a>
</g>
</g>
<!-- Node1&#45;&gt;Node2 -->
<g id="edge1_Node000001_Node000002" class="edge">
<title>Node1&#45;&gt;Node2</title>
<g id="a_edge1_Node000001_Node000002"><a xlink:title=" ">
<path fill="none" stroke="#63b8ff" d="M220.75,-110.29C220.75,-102.37 220.75,-93.77 220.75,-86.27"/>
<polygon fill="#63b8ff" stroke="#63b8ff" points="224.25,-86.5 220.75,-76.5 217.25,-86.5 224.25,-86.5"/>
</a>
</g>
</g>
<!-- Node3 -->
<g id="Node000003" class="node">
<title>Node3</title>
<g id="a_Node000003"><a xlink:title=" ">
<polygon fill="#e0e0e0" stroke="#999999" points="53.5,-19.25 0,-19.25 0,0 53.5,0 53.5,-19.25"/>
<text text-anchor="middle" x="26.75" y="-5.75" font-family="Helvetica,sans-Serif" font-size="10.00">iostream</text>
</a>
</g>
</g>
<!-- Node2&#45;&gt;Node3 -->
<g id="edge2_Node000002_Node000003" class="edge">
<title>Node2&#45;&gt;Node3</title>
<g id="a_edge2_Node000002_Node000003"><a xlink:title=" ">
<path fill="none" stroke="#63b8ff" d="M194.99,-56.8C161.59,-47.64 103.09,-31.58 64.63,-21.02"/>
<polygon fill="#63b8ff" stroke="#63b8ff" points="65.9,-17.74 55.33,-18.47 64.04,-24.49 65.9,-17.74"/>
</a>
</g>
</g>
<!-- Node4 -->
<g id="Node000004" class="node">
<title>Node4</title>
<g id="a_Node000004"><a xlink:title=" ">
<polygon fill="#e0e0e0" stroke="#999999" points="111.75,-19.25 71.75,-19.25 71.75,0 111.75,0 111.75,-19.25"/>
<text text-anchor="middle" x="91.75" y="-5.75" font-family="Helvetica,sans-Serif" font-size="10.00">string</text>
</a>
</g>
</g>
<!-- Node2&#45;&gt;Node4 -->
<g id="edge3_Node000002_Node000004" class="edge">
<title>Node2&#45;&gt;Node4</title>
<g id="a_edge3_Node000002_Node000004"><a xlink:title=" ">
<path fill="none" stroke="#63b8ff" d="M198.87,-54.84C177.89,-46.18 146.03,-33.03 122.51,-23.32"/>
<polygon fill="#63b8ff" stroke="#63b8ff" points="124.02,-20.16 113.44,-19.58 121.34,-26.63 124.02,-20.16"/>
</a>
</g>
</g>
<!-- Node5 -->
<g id="Node000005" class="node">
<title>Node5</title>
<g id="a_Node000005"><a xlink:title=" ">
<polygon fill="#e0e0e0" stroke="#999999" points="173.25,-19.25 130.25,-19.25 130.25,0 173.25,0 173.25,-19.25"/>
<text text-anchor="middle" x="151.75" y="-5.75" font-family="Helvetica,sans-Serif" font-size="10.00">vector</text>
</a>
</g>
</g>
<!-- Node2&#45;&gt;Node5 -->
<g id="edge4_Node000002_Node000005" class="edge">
<title>Node2&#45;&gt;Node5</title>
<g id="a_edge4_Node000002_Node000005"><a xlink:title=" ">
<path fill="none" stroke="#63b8ff" d="M209.05,-54.84C198.97,-47.07 184.21,-35.67 172.19,-26.4"/>
<polygon fill="#63b8ff" stroke="#63b8ff" points="174.54,-23.79 164.48,-20.45 170.26,-29.33 174.54,-23.79"/>
</a>
</g>
</g>
<!-- Node6 -->
<g id="Node000006" class="node">
<title>Node6</title>
<g id="a_Node000006"><a xlink:title=" ">
<polygon fill="#e0e0e0" stroke="#999999" points="250.12,-19.25 191.38,-19.25 191.38,0 250.12,0 250.12,-19.25"/>
<text text-anchor="middle" x="220.75" y="-5.75" font-family="Helvetica,sans-Serif" font-size="10.00">stdexcept</text>
</a>
</g>
</g>
<!-- Node2&#45;&gt;Node6 -->
<g id="edge5_Node000002_Node000006" class="edge">
<title>Node2&#45;&gt;Node6</title>
<g id="a_edge5_Node000002_Node000006"><a xlink:title=" ">
<path fill="none" stroke="#63b8ff" d="M220.75,-55.08C220.75,-48.57 220.75,-39.42 220.75,-31.12"/>
<polygon fill="#63b8ff" stroke="#63b8ff" points="224.25,-31.12 220.75,-21.12 217.25,-31.12 224.25,-31.12"/>
</a>
</g>
</g>
<!-- Node7 -->
<g id="Node000007" class="node">
<title>Node7</title>
<g id="a_Node000007"><a xlink:title=" ">
<polygon fill="#e0e0e0" stroke="#999999" points="316.88,-19.25 268.62,-19.25 268.62,0 316.88,0 316.88,-19.25"/>
<text text-anchor="middle" x="292.75" y="-5.75" font-family="Helvetica,sans-Serif" font-size="10.00">cassert</text>
</a>
</g>
</g>
<!-- Node2&#45;&gt;Node7 -->
<g id="edge6_Node000002_Node000007" class="edge">
<title>Node2&#45;&gt;Node7</title>
<g id="a_edge6_Node000002_Node000007"><a xlink:title=" ">
<path fill="none" stroke="#63b8ff" d="M232.96,-54.84C243.58,-46.99 259.19,-35.45 271.79,-26.12"/>
<polygon fill="#63b8ff" stroke="#63b8ff" points="273.54,-29.19 279.5,-20.42 269.38,-23.56 273.54,-29.19"/>
</a>
</g>
</g>
<!-- Node8 -->
<g id="Node000008" class="node">
<title>Node8</title>
<g id="a_Node000008"><a xlink:title=" ">
<polygon fill="#e0e0e0" stroke="#999999" points="412.88,-19.25 334.62,-19.25 334.62,0 412.88,0 412.88,-19.25"/>
<text text-anchor="middle" x="373.75" y="-5.75" font-family="Helvetica,sans-Serif" font-size="10.00">../stb_image.h</text>
</a>
</g>
</g>
<!-- Node2&#45;&gt;Node8 -->
<g id="edge7_Node000002_Node000008" class="edge">
<title>Node2&#45;&gt;Node8</title>
<g id="a_edge7_Node000002_Node000008"><a xlink:title=" ">
<path fill="none" stroke="#63b8ff" d="M246.7,-54.84C271.54,-46.2 309.25,-33.07 337.13,-23.37"/>
<polygon fill="#63b8ff" stroke="#63b8ff" points="337.94,-26.79 346.24,-20.2 335.64,-20.18 337.94,-26.79"/>
</a>
</g>
</g>
<!-- Node9 -->
<g id="Node000009" class="node">
<title>Node9</title>
<g id="a_Node000009"><a xlink:title=" ">
<polygon fill="#e0e0e0" stroke="#999999" points="535,-19.25 430.5,-19.25 430.5,0 535,0 535,-19.25"/>
<text text-anchor="middle" x="482.75" y="-5.75" font-family="Helvetica,sans-Serif" font-size="10.00">../stb_image_write.h</text>
</a>
</g>
</g>
<!-- Node2&#45;&gt;Node9 -->
<g id="edge8_Node000002_Node000009" class="edge">
<title>Node2&#45;&gt;Node9</title>
<g id="a_edge8_Node000002_Node000009"><a xlink:title=" ">
<path fill="none" stroke="#63b8ff" d="M246.83,-58.57C288.61,-50.08 371.47,-33.24 427.01,-21.95"/>
<polygon fill="#63b8ff" stroke="#63b8ff" points="427.49,-25.43 436.59,-20.01 426.1,-18.57 427.49,-25.43"/>
</a>
</g>
</g>
</g>
</svg>
