<?xml version="1.0" encoding="UTF-8" standalone="no"?>
<!DOCTYPE svg PUBLIC "-//W3C//DTD SVG 1.1//EN"
 "http://www.w3.org/Graphics/SVG/1.1/DTD/svg11.dtd">
<!-- Generated by graphviz version 10.0.1 (20240210.2158)
 -->
<!-- Title: /Users/st1123/CLionProjects/advanced&#45;programming&#45;group&#45;linear&#45;regression/src/Image/Image.h Pages: 1 -->
<svg width="913pt" height="406pt"
 viewBox="0.00 0.00 913.38 405.75" xmlns="http://www.w3.org/2000/svg" xmlns:xlink="http://www.w3.org/1999/xlink">
<g id="graph0" class="graph" transform="scale(1 1) rotate(0) translate(4 401.75)">
<title>/Users/st1123/CLionProjects/advanced&#45;programming&#45;group&#45;linear&#45;regression/src/Image/Image.h</title>
<!-- Node1 -->
<g id="Node000001" class="node">
<title>Node1</title>
<g id="a_Node000001"><a xlink:title="this header file contains all required functions and definitions for the Image class,...">
<polygon fill="#999999" stroke="#666666" points="486.12,-397.75 311.12,-397.75 311.12,-356 486.12,-356 486.12,-397.75"/>
<text text-anchor="start" x="319.12" y="-384.25" font-family="Helvetica,sans-Serif" font-size="10.00">/Users/st1123/CLionProjects</text>
<text text-anchor="start" x="319.12" y="-373" font-family="Helvetica,sans-Serif" font-size="10.00">/advanced&#45;programming&#45;group</text>
<text text-anchor="middle" x="398.62" y="-361.75" font-family="Helvetica,sans-Serif" font-size="10.00">&#45;linear&#45;regression/src/Image/Image.h</text>
</a>
</g>
</g>
<!-- Node2 -->
<g id="Node000002" class="node">
<title>Node2</title>
<g id="a_Node000002"><a xlink:href="_image_8cpp.html" target="_top" xlink:title="Image class implementation file, which contains the implementation of the Image class and its member ...">
<polygon fill="white" stroke="#666666" points="147.25,-320 0,-320 0,-267 147.25,-267 147.25,-320"/>
<text text-anchor="start" x="8" y="-306.5" font-family="Helvetica,sans-Serif" font-size="10.00">/Users/st1123/CLionProjects</text>
<text text-anchor="start" x="8" y="-295.25" font-family="Helvetica,sans-Serif" font-size="10.00">/advanced&#45;programming&#45;group</text>
<text text-anchor="start" x="8" y="-284" font-family="Helvetica,sans-Serif" font-size="10.00">&#45;linear&#45;regression/src/Image</text>
<text text-anchor="middle" x="73.62" y="-272.75" font-family="Helvetica,sans-Serif" font-size="10.00">/Image.cpp</text>
</a>
</g>
</g>
<!-- Node1&#45;&gt;Node2 -->
<g id="edge1_Node000001_Node000002" class="edge">
<title>Node1&#45;&gt;Node2</title>
<g id="a_edge1_Node000001_Node000002"><a xlink:title=" ">
<path fill="none" stroke="#63b8ff" d="M299.9,-353.77C257.25,-343.92 206.86,-331.88 161.62,-320 157.01,-318.79 152.27,-317.51 147.49,-316.2"/>
<polygon fill="#63b8ff" stroke="#63b8ff" points="298.85,-357.12 309.38,-355.95 300.42,-350.3 298.85,-357.12"/>
</a>
</g>
</g>
<!-- Node3 -->
<g id="Node000003" class="node">
<title>Node3</title>
<g id="a_Node000003"><a xlink:href="filter_8h.html" target="_top" xlink:title="this header file will contain all the filters (2D / 3D) that can be applied to the image and volume d...">
<polygon fill="white" stroke="#666666" points="390.25,-231 243,-231 243,-178 390.25,-178 390.25,-231"/>
<text text-anchor="start" x="251" y="-217.5" font-family="Helvetica,sans-Serif" font-size="10.00">/Users/st1123/CLionProjects</text>
<text text-anchor="start" x="251" y="-206.25" font-family="Helvetica,sans-Serif" font-size="10.00">/advanced&#45;programming&#45;group</text>
<text text-anchor="start" x="251" y="-195" font-family="Helvetica,sans-Serif" font-size="10.00">&#45;linear&#45;regression/src/filter</text>
<text text-anchor="middle" x="316.62" y="-183.75" font-family="Helvetica,sans-Serif" font-size="10.00">/filter.h</text>
</a>
</g>
</g>
<!-- Node1&#45;&gt;Node3 -->
<g id="edge2_Node000001_Node000003" class="edge">
<title>Node1&#45;&gt;Node3</title>
<g id="a_edge2_Node000001_Node000003"><a xlink:title=" ">
<path fill="none" stroke="#63b8ff" d="M383.95,-345.39C368.29,-312.84 343.74,-261.84 329.01,-231.24"/>
<polygon fill="#63b8ff" stroke="#63b8ff" points="380.75,-346.81 388.24,-354.3 387.06,-343.77 380.75,-346.81"/>
</a>
</g>
</g>
<!-- Node5 -->
<g id="Node000005" class="node">
<title>Node5</title>
<g id="a_Node000005"><a xlink:href="main_8cpp.html" target="_top" xlink:title=" ">
<polygon fill="white" stroke="#666666" points="454.38,-47.38 304.88,-47.38 304.88,-5.62 454.38,-5.62 454.38,-47.38"/>
<text text-anchor="start" x="312.88" y="-33.88" font-family="Helvetica,sans-Serif" font-size="10.00">/Users/st1123/CLionProjects</text>
<text text-anchor="start" x="312.88" y="-22.62" font-family="Helvetica,sans-Serif" font-size="10.00">/advanced&#45;programming&#45;group</text>
<text text-anchor="middle" x="379.62" y="-11.38" font-family="Helvetica,sans-Serif" font-size="10.00">&#45;linear&#45;regression/src/main.cpp</text>
</a>
</g>
</g>
<!-- Node1&#45;&gt;Node5 -->
<g id="edge9_Node000001_Node000005" class="edge">
<title>Node1&#45;&gt;Node5</title>
<g id="a_edge9_Node000001_Node000005"><a xlink:title=" ">
<path fill="none" stroke="#63b8ff" d="M353.13,-349.55C312.99,-324.08 255.7,-281.92 221.62,-231 198.64,-196.65 200.69,-182.89 194.62,-142 191.17,-118.7 180.84,-108.1 194.62,-89 219.67,-54.28 265.14,-38.85 304.73,-32.13"/>
<polygon fill="#63b8ff" stroke="#63b8ff" points="351.07,-352.39 361.41,-354.7 354.77,-346.45 351.07,-352.39"/>
</a>
</g>
</g>
<!-- Node9 -->
<g id="Node000009" class="node">
<title>Node9</title>
<g id="a_Node000009"><a xlink:href="projection_8h.html" target="_top" xlink:title="this header file contains all the declarations of projections methods that can be applied to a volume...">
<polygon fill="white" stroke="#666666" points="725.5,-231 573.75,-231 573.75,-178 725.5,-178 725.5,-231"/>
<text text-anchor="start" x="581.75" y="-217.5" font-family="Helvetica,sans-Serif" font-size="10.00">/Users/st1123/CLionProjects</text>
<text text-anchor="start" x="581.75" y="-206.25" font-family="Helvetica,sans-Serif" font-size="10.00">/advanced&#45;programming&#45;group</text>
<text text-anchor="start" x="581.75" y="-195" font-family="Helvetica,sans-Serif" font-size="10.00">&#45;linear&#45;regression/src/projection</text>
<text text-anchor="middle" x="649.62" y="-183.75" font-family="Helvetica,sans-Serif" font-size="10.00">/projection.h</text>
</a>
</g>
</g>
<!-- Node1&#45;&gt;Node9 -->
<g id="edge10_Node000001_Node000009" class="edge">
<title>Node1&#45;&gt;Node9</title>
<g id="a_edge10_Node000001_Node000009"><a xlink:title=" ">
<path fill="none" stroke="#63b8ff" d="M485.56,-351.69C507.21,-343.52 529.63,-333.06 548.62,-320 583.79,-295.82 614.67,-256.77 632.75,-231.11"/>
<polygon fill="#63b8ff" stroke="#63b8ff" points="484.64,-348.3 476.44,-355.01 487.03,-354.88 484.64,-348.3"/>
</a>
</g>
</g>
<!-- Node10 -->
<g id="Node000010" class="node">
<title>Node10</title>
<g id="a_Node000010"><a xlink:href="slice_8h.html" target="_top" xlink:title="this header file contains all the declarations of slicing methods that can be applied to a volume.">
<polygon fill="white" stroke="#666666" points="905.38,-225.38 743.88,-225.38 743.88,-183.62 905.38,-183.62 905.38,-225.38"/>
<text text-anchor="start" x="751.88" y="-211.88" font-family="Helvetica,sans-Serif" font-size="10.00">/Users/st1123/CLionProjects</text>
<text text-anchor="start" x="751.88" y="-200.62" font-family="Helvetica,sans-Serif" font-size="10.00">/advanced&#45;programming&#45;group</text>
<text text-anchor="middle" x="824.62" y="-189.38" font-family="Helvetica,sans-Serif" font-size="10.00">&#45;linear&#45;regression/src/slice/slice.h</text>
</a>
</g>
</g>
<!-- Node1&#45;&gt;Node10 -->
<g id="edge13_Node000001_Node000010" class="edge">
<title>Node1&#45;&gt;Node10</title>
<g id="a_edge13_Node000001_Node000010"><a xlink:title=" ">
<path fill="none" stroke="#63b8ff" d="M490.69,-352.55C522.72,-343.53 558.63,-332.38 590.62,-320 662.75,-292.1 742.93,-250.38 788.22,-225.76"/>
<polygon fill="#63b8ff" stroke="#63b8ff" points="490.14,-349.07 481.45,-355.12 492.02,-355.81 490.14,-349.07"/>
</a>
</g>
</g>
<!-- Node12 -->
<g id="Node000012" class="node">
<title>Node12</title>
<g id="a_Node000012"><a xlink:href="volume_8h.html" target="_top" xlink:title="this header file contains the declarations of the Volume class that handles a collection of images as...">
<polygon fill="white" stroke="#666666" points="539.25,-320 392,-320 392,-267 539.25,-267 539.25,-320"/>
<text text-anchor="start" x="400" y="-306.5" font-family="Helvetica,sans-Serif" font-size="10.00">/Users/st1123/CLionProjects</text>
<text text-anchor="start" x="400" y="-295.25" font-family="Helvetica,sans-Serif" font-size="10.00">/advanced&#45;programming&#45;group</text>
<text text-anchor="start" x="400" y="-284" font-family="Helvetica,sans-Serif" font-size="10.00">&#45;linear&#45;regression/src/volume</text>
<text text-anchor="middle" x="465.62" y="-272.75" font-family="Helvetica,sans-Serif" font-size="10.00">/volume.h</text>
</a>
</g>
</g>
<!-- Node1&#45;&gt;Node12 -->
<g id="edge16_Node000001_Node000012" class="edge">
<title>Node1&#45;&gt;Node12</title>
<g id="a_edge16_Node000001_Node000012"><a xlink:title=" ">
<path fill="none" stroke="#63b8ff" d="M422.38,-347.02C429.58,-338.28 437.43,-328.75 444.44,-320.23"/>
<polygon fill="#63b8ff" stroke="#63b8ff" points="419.8,-344.65 416.15,-354.59 425.21,-349.1 419.8,-344.65"/>
</a>
</g>
</g>
<!-- Node4 -->
<g id="Node000004" class="node">
<title>Node4</title>
<g id="a_Node000004"><a xlink:href="filter_8cpp.html" target="_top" xlink:title="this file will contain all the filters (2D / 3D) that can be applied to the image and volume data">
<polygon fill="white" stroke="#666666" points="351.25,-142 204,-142 204,-89 351.25,-89 351.25,-142"/>
<text text-anchor="start" x="212" y="-128.5" font-family="Helvetica,sans-Serif" font-size="10.00">/Users/st1123/CLionProjects</text>
<text text-anchor="start" x="212" y="-117.25" font-family="Helvetica,sans-Serif" font-size="10.00">/advanced&#45;programming&#45;group</text>
<text text-anchor="start" x="212" y="-106" font-family="Helvetica,sans-Serif" font-size="10.00">&#45;linear&#45;regression/src/filter</text>
<text text-anchor="middle" x="277.62" y="-94.75" font-family="Helvetica,sans-Serif" font-size="10.00">/filter.cpp</text>
</a>
</g>
</g>
<!-- Node3&#45;&gt;Node4 -->
<g id="edge3_Node000003_Node000004" class="edge">
<title>Node3&#45;&gt;Node4</title>
<g id="a_edge3_Node000003_Node000004"><a xlink:title=" ">
<path fill="none" stroke="#63b8ff" d="M300.47,-167.46C296.68,-159 292.71,-150.15 289.17,-142.25"/>
<polygon fill="#63b8ff" stroke="#63b8ff" points="297.23,-168.79 304.52,-176.49 303.62,-165.93 297.23,-168.79"/>
</a>
</g>
</g>
<!-- Node3&#45;&gt;Node5 -->
<g id="edge4_Node000003_Node000005" class="edge">
<title>Node3&#45;&gt;Node5</title>
<g id="a_edge4_Node000003_Node000005"><a xlink:title=" ">
<path fill="none" stroke="#63b8ff" d="M345.91,-168.3C351.56,-160.08 356.87,-151.07 360.62,-142 373.58,-110.72 377.71,-71.19 379.03,-47.7"/>
<polygon fill="#63b8ff" stroke="#63b8ff" points="343.14,-166.17 340.1,-176.32 348.81,-170.28 343.14,-166.17"/>
</a>
</g>
</g>
<!-- Node6 -->
<g id="Node000006" class="node">
<title>Node6</title>
<g id="a_Node000006"><a xlink:href="projection_8cpp.html" target="_top" xlink:title="this file contains the implementation of all the projections methods that can be applied to a volume.">
<polygon fill="white" stroke="#666666" points="559.5,-142 407.75,-142 407.75,-89 559.5,-89 559.5,-142"/>
<text text-anchor="start" x="415.75" y="-128.5" font-family="Helvetica,sans-Serif" font-size="10.00">/Users/st1123/CLionProjects</text>
<text text-anchor="start" x="415.75" y="-117.25" font-family="Helvetica,sans-Serif" font-size="10.00">/advanced&#45;programming&#45;group</text>
<text text-anchor="start" x="415.75" y="-106" font-family="Helvetica,sans-Serif" font-size="10.00">&#45;linear&#45;regression/src/projection</text>
<text text-anchor="middle" x="483.62" y="-94.75" font-family="Helvetica,sans-Serif" font-size="10.00">/projection.cpp</text>
</a>
</g>
</g>
<!-- Node3&#45;&gt;Node6 -->
<g id="edge5_Node000003_Node000006" class="edge">
<title>Node3&#45;&gt;Node6</title>
<g id="a_edge5_Node000003_Node000006"><a xlink:title=" ">
<path fill="none" stroke="#63b8ff" d="M376.26,-172.43C395.13,-162.6 415.77,-151.85 433.87,-142.42"/>
<polygon fill="#63b8ff" stroke="#63b8ff" points="374.87,-169.21 367.62,-176.93 378.11,-175.42 374.87,-169.21"/>
</a>
</g>
</g>
<!-- Node7 -->
<g id="Node000007" class="node">
<title>Node7</title>
<g id="a_Node000007"><a xlink:href="utility_8h.html" target="_top" xlink:title="this header file contains the declarations of the Utility class that is used to help build the UI int...">
<polygon fill="white" stroke="#666666" points="725.25,-142 578,-142 578,-89 725.25,-89 725.25,-142"/>
<text text-anchor="start" x="586" y="-128.5" font-family="Helvetica,sans-Serif" font-size="10.00">/Users/st1123/CLionProjects</text>
<text text-anchor="start" x="586" y="-117.25" font-family="Helvetica,sans-Serif" font-size="10.00">/advanced&#45;programming&#45;group</text>
<text text-anchor="start" x="586" y="-106" font-family="Helvetica,sans-Serif" font-size="10.00">&#45;linear&#45;regression/src/utility</text>
<text text-anchor="middle" x="651.62" y="-94.75" font-family="Helvetica,sans-Serif" font-size="10.00">/utility.h</text>
</a>
</g>
</g>
<!-- Node3&#45;&gt;Node7 -->
<g id="edge6_Node000003_Node000007" class="edge">
<title>Node3&#45;&gt;Node7</title>
<g id="a_edge6_Node000003_Node000007"><a xlink:title=" ">
<path fill="none" stroke="#63b8ff" d="M401.5,-177.35C475.31,-158.72 497.22,-160.49 568.62,-142 571.54,-141.24 574.51,-140.45 577.51,-139.63"/>
<polygon fill="#63b8ff" stroke="#63b8ff" points="401.01,-173.86 392.2,-179.74 402.76,-180.64 401.01,-173.86"/>
</a>
</g>
</g>
<!-- Node7&#45;&gt;Node5 -->
<g id="edge7_Node000007_Node000005" class="edge">
<title>Node7&#45;&gt;Node5</title>
<g id="a_edge7_Node000007_Node000005"><a xlink:title=" ">
<path fill="none" stroke="#63b8ff" d="M566.84,-87.38C526.8,-74.58 479.84,-59.55 442.96,-47.76"/>
<polygon fill="#63b8ff" stroke="#63b8ff" points="565.63,-90.67 576.22,-90.38 567.76,-84 565.63,-90.67"/>
</a>
</g>
</g>
<!-- Node8 -->
<g id="Node000008" class="node">
<title>Node8</title>
<g id="a_Node000008"><a xlink:href="utility_8cpp.html" target="_top" xlink:title=" ">
<polygon fill="white" stroke="#666666" points="725.25,-53 578,-53 578,0 725.25,0 725.25,-53"/>
<text text-anchor="start" x="586" y="-39.5" font-family="Helvetica,sans-Serif" font-size="10.00">/Users/st1123/CLionProjects</text>
<text text-anchor="start" x="586" y="-28.25" font-family="Helvetica,sans-Serif" font-size="10.00">/advanced&#45;programming&#45;group</text>
<text text-anchor="start" x="586" y="-17" font-family="Helvetica,sans-Serif" font-size="10.00">&#45;linear&#45;regression/src/utility</text>
<text text-anchor="middle" x="651.62" y="-5.75" font-family="Helvetica,sans-Serif" font-size="10.00">/utility.cpp</text>
</a>
</g>
</g>
<!-- Node7&#45;&gt;Node8 -->
<g id="edge8_Node000007_Node000008" class="edge">
<title>Node7&#45;&gt;Node8</title>
<g id="a_edge8_Node000007_Node000008"><a xlink:title=" ">
<path fill="none" stroke="#63b8ff" d="M651.62,-77.61C651.62,-69.41 651.62,-60.89 651.62,-53.25"/>
<polygon fill="#63b8ff" stroke="#63b8ff" points="648.13,-77.35 651.63,-87.35 655.13,-77.35 648.13,-77.35"/>
</a>
</g>
</g>
<!-- Node9&#45;&gt;Node6 -->
<g id="edge11_Node000009_Node000006" class="edge">
<title>Node9&#45;&gt;Node6</title>
<g id="a_edge11_Node000009_Node000006"><a xlink:title=" ">
<path fill="none" stroke="#63b8ff" d="M590.09,-172.3C571.4,-162.5 550.99,-151.8 533.08,-142.42"/>
<polygon fill="#63b8ff" stroke="#63b8ff" points="588.45,-175.39 598.93,-176.93 591.7,-169.19 588.45,-175.39"/>
</a>
</g>
</g>
<!-- Node9&#45;&gt;Node7 -->
<g id="edge12_Node000009_Node000007" class="edge">
<title>Node9&#45;&gt;Node7</title>
<g id="a_edge12_Node000009_Node000007"><a xlink:title=" ">
<path fill="none" stroke="#63b8ff" d="M650.47,-166.61C650.66,-158.41 650.86,-149.89 651.03,-142.25"/>
<polygon fill="#63b8ff" stroke="#63b8ff" points="646.98,-166.28 650.25,-176.35 653.98,-166.44 646.98,-166.28"/>
</a>
</g>
</g>
<!-- Node10&#45;&gt;Node7 -->
<g id="edge15_Node000010_Node000007" class="edge">
<title>Node10&#45;&gt;Node7</title>
<g id="a_edge15_Node000010_Node000007"><a xlink:title=" ">
<path fill="none" stroke="#63b8ff" d="M774.5,-178.29C752.06,-167.01 725.62,-153.71 703.03,-142.35"/>
<polygon fill="#63b8ff" stroke="#63b8ff" points="772.64,-181.28 783.15,-182.64 775.79,-175.02 772.64,-181.28"/>
</a>
</g>
</g>
<!-- Node11 -->
<g id="Node000011" class="node">
<title>Node11</title>
<g id="a_Node000011"><a xlink:href="slice_8cpp.html" target="_top" xlink:title="this header file contains all the implementations of slicing methods that can be applied to a volume.">
<polygon fill="white" stroke="#666666" points="898.25,-142 751,-142 751,-89 898.25,-89 898.25,-142"/>
<text text-anchor="start" x="759" y="-128.5" font-family="Helvetica,sans-Serif" font-size="10.00">/Users/st1123/CLionProjects</text>
<text text-anchor="start" x="759" y="-117.25" font-family="Helvetica,sans-Serif" font-size="10.00">/advanced&#45;programming&#45;group</text>
<text text-anchor="start" x="759" y="-106" font-family="Helvetica,sans-Serif" font-size="10.00">&#45;linear&#45;regression/src/slice</text>
<text text-anchor="middle" x="824.62" y="-94.75" font-family="Helvetica,sans-Serif" font-size="10.00">/slice.cpp</text>
</a>
</g>
</g>
<!-- Node10&#45;&gt;Node11 -->
<g id="edge14_Node000010_Node000011" class="edge">
<title>Node10&#45;&gt;Node11</title>
<g id="a_edge14_Node000010_Node000011"><a xlink:title=" ">
<path fill="none" stroke="#63b8ff" d="M824.62,-171.97C824.62,-162.19 824.62,-151.53 824.62,-142.19"/>
<polygon fill="#63b8ff" stroke="#63b8ff" points="821.13,-171.81 824.63,-181.81 828.13,-171.81 821.13,-171.81"/>
</a>
</g>
</g>
<!-- Node12&#45;&gt;Node3 -->
<g id="edge18_Node000012_Node000003" class="edge">
<title>Node12&#45;&gt;Node3</title>
<g id="a_edge18_Node000012_Node000003"><a xlink:title=" ">
<path fill="none" stroke="#63b8ff" d="M411.72,-261.03C395.08,-251.31 376.94,-240.72 361.01,-231.42"/>
<polygon fill="#63b8ff" stroke="#63b8ff" points="409.62,-263.85 420.02,-265.87 413.15,-257.8 409.62,-263.85"/>
</a>
</g>
</g>
<!-- Node12&#45;&gt;Node4 -->
<g id="edge17_Node000012_Node000004" class="edge">
<title>Node12&#45;&gt;Node4</title>
<g id="a_edge17_Node000012_Node000004"><a xlink:title=" ">
<path fill="none" stroke="#63b8ff" d="M380.58,-280.94C322.09,-271.04 251.8,-254.62 233.62,-231 213.11,-204.33 234.68,-166.97 254.2,-142.27"/>
<polygon fill="#63b8ff" stroke="#63b8ff" points="379.8,-284.36 390.23,-282.53 380.93,-277.45 379.8,-284.36"/>
</a>
</g>
</g>
<!-- Node12&#45;&gt;Node9 -->
<g id="edge19_Node000012_Node000009" class="edge">
<title>Node12&#45;&gt;Node9</title>
<g id="a_edge19_Node000012_Node000009"><a xlink:title=" ">
<path fill="none" stroke="#63b8ff" d="M530.46,-261.84C551.49,-251.9 574.59,-240.98 594.81,-231.42"/>
<polygon fill="#63b8ff" stroke="#63b8ff" points="529.25,-258.55 521.7,-265.99 532.24,-264.88 529.25,-258.55"/>
</a>
</g>
</g>
<!-- Node12&#45;&gt;Node10 -->
<g id="edge20_Node000012_Node000010" class="edge">
<title>Node12&#45;&gt;Node10</title>
<g id="a_edge20_Node000012_Node000010"><a xlink:title=" ">
<path fill="none" stroke="#63b8ff" d="M550.58,-274.25C603.65,-262.56 673.31,-246.68 734.62,-231 741.08,-229.35 747.77,-227.57 754.46,-225.76"/>
<polygon fill="#63b8ff" stroke="#63b8ff" points="550.01,-270.79 540.99,-276.35 551.51,-277.63 550.01,-270.79"/>
</a>
</g>
</g>
<!-- Node13 -->
<g id="Node000013" class="node">
<title>Node13</title>
<g id="a_Node000013"><a xlink:href="volume_8cpp.html" target="_top" xlink:title="this header file contains the implementation of the Volume class that handles a collection of images ...">
<polygon fill="white" stroke="#666666" points="555.25,-231 408,-231 408,-178 555.25,-178 555.25,-231"/>
<text text-anchor="start" x="416" y="-217.5" font-family="Helvetica,sans-Serif" font-size="10.00">/Users/st1123/CLionProjects</text>
<text text-anchor="start" x="416" y="-206.25" font-family="Helvetica,sans-Serif" font-size="10.00">/advanced&#45;programming&#45;group</text>
<text text-anchor="start" x="416" y="-195" font-family="Helvetica,sans-Serif" font-size="10.00">&#45;linear&#45;regression/src/volume</text>
<text text-anchor="middle" x="481.62" y="-183.75" font-family="Helvetica,sans-Serif" font-size="10.00">/volume.cpp</text>
</a>
</g>
</g>
<!-- Node12&#45;&gt;Node13 -->
<g id="edge21_Node000012_Node000013" class="edge">
<title>Node12&#45;&gt;Node13</title>
<g id="a_edge21_Node000012_Node000013"><a xlink:title=" ">
<path fill="none" stroke="#63b8ff" d="M472.41,-255.61C473.92,-247.41 475.48,-238.89 476.89,-231.25"/>
<polygon fill="#63b8ff" stroke="#63b8ff" points="468.98,-254.91 470.61,-265.38 475.86,-256.18 468.98,-254.91"/>
</a>
</g>
</g>
</g>
</svg>
