<?xml version="1.0" encoding="UTF-8" standalone="no"?>
<!DOCTYPE svg PUBLIC "-//W3C//DTD SVG 1.1//EN"
 "http://www.w3.org/Graphics/SVG/1.1/DTD/svg11.dtd">
<!-- Generated by graphviz version 10.0.1 (20240210.2158)
 -->
<!-- Title: /Users/st1123/CLionProjects/advanced&#45;programming&#45;group&#45;linear&#45;regression/src/Image/Image.h Pages: 1 -->
<svg width="1063pt" height="406pt"
 viewBox="0.00 0.00 1063.25 405.75" xmlns="http://www.w3.org/2000/svg" xmlns:xlink="http://www.w3.org/1999/xlink">
<g id="graph0" class="graph" transform="scale(1 1) rotate(0) translate(4 401.75)">
<title>/Users/st1123/CLionProjects/advanced&#45;programming&#45;group&#45;linear&#45;regression/src/Image/Image.h</title>
<!-- Node1 -->
<g id="Node000001" class="node">
<title>Node1</title>
<g id="a_Node000001"><a xlink:title="this header file contains all required functions and definitions for the Image class,...">
<polygon fill="#999999" stroke="#666666" points="495.12,-397.75 320.12,-397.75 320.12,-356 495.12,-356 495.12,-397.75"/>
<text text-anchor="start" x="328.12" y="-384.25" font-family="Helvetica,sans-Serif" font-size="10.00">/Users/st1123/CLionProjects</text>
<text text-anchor="start" x="328.12" y="-373" font-family="Helvetica,sans-Serif" font-size="10.00">/advanced&#45;programming&#45;group</text>
<text text-anchor="middle" x="407.62" y="-361.75" font-family="Helvetica,sans-Serif" font-size="10.00">&#45;linear&#45;regression/src/Image/Image.h</text>
</a>
</g>
</g>
<!-- Node2 -->
<g id="Node000002" class="node">
<title>Node2</title>
<g id="a_Node000002"><a xlink:href="_image_8cpp.html" target="_top" xlink:title="Image class implementation file, which contains the implementation of the Image class and its member ...">
<polygon fill="white" stroke="#666666" points="147.25,-320 0,-320 0,-267 147.25,-267 147.25,-320"/>
<text text-anchor="start" x="8" y="-306.5" font-family="Helvetica,sans-Serif" font-size="10.00">/Users/st1123/CLionProjects</text>
<text text-anchor="start" x="8" y="-295.25" font-family="Helvetica,sans-Serif" font-size="10.00">/advanced&#45;programming&#45;group</text>
<text text-anchor="start" x="8" y="-284" font-family="Helvetica,sans-Serif" font-size="10.00">&#45;linear&#45;regression/src/Image</text>
<text text-anchor="middle" x="73.62" y="-272.75" font-family="Helvetica,sans-Serif" font-size="10.00">/Image.cpp</text>
</a>
</g>
</g>
<!-- Node1&#45;&gt;Node2 -->
<g id="edge1_Node000001_Node000002" class="edge">
<title>Node1&#45;&gt;Node2</title>
<g id="a_edge1_Node000001_Node000002"><a xlink:title=" ">
<path fill="none" stroke="#63b8ff" d="M308.42,-354.73C263.46,-344.8 209.71,-332.42 161.62,-320 157,-318.81 152.26,-317.54 147.48,-316.24"/>
<polygon fill="#63b8ff" stroke="#63b8ff" points="307.66,-358.15 318.18,-356.88 309.16,-351.31 307.66,-358.15"/>
</a>
</g>
</g>
<!-- Node3 -->
<g id="Node000003" class="node">
<title>Node3</title>
<g id="a_Node000003"><a xlink:href="filter_8h.html" target="_top" xlink:title="this header file will contain all the filters (2D / 3D) that can be applied to the image and volume d...">
<polygon fill="white" stroke="#666666" points="630.25,-231 483,-231 483,-178 630.25,-178 630.25,-231"/>
<text text-anchor="start" x="491" y="-217.5" font-family="Helvetica,sans-Serif" font-size="10.00">/Users/st1123/CLionProjects</text>
<text text-anchor="start" x="491" y="-206.25" font-family="Helvetica,sans-Serif" font-size="10.00">/advanced&#45;programming&#45;group</text>
<text text-anchor="start" x="491" y="-195" font-family="Helvetica,sans-Serif" font-size="10.00">&#45;linear&#45;regression/src/filter</text>
<text text-anchor="middle" x="556.62" y="-183.75" font-family="Helvetica,sans-Serif" font-size="10.00">/filter.h</text>
</a>
</g>
</g>
<!-- Node1&#45;&gt;Node3 -->
<g id="edge2_Node000001_Node000003" class="edge">
<title>Node1&#45;&gt;Node3</title>
<g id="a_edge2_Node000001_Node000003"><a xlink:title=" ">
<path fill="none" stroke="#63b8ff" d="M454.62,-349.61C467.23,-341.2 480.24,-331.13 490.62,-320 515.35,-293.49 534.7,-256.09 545.88,-231.34"/>
<polygon fill="#63b8ff" stroke="#63b8ff" points="452.91,-346.56 446.38,-354.9 456.68,-352.45 452.91,-346.56"/>
</a>
</g>
</g>
<!-- Node5 -->
<g id="Node000005" class="node">
<title>Node5</title>
<g id="a_Node000005"><a xlink:href="main_8cpp.html" target="_top" xlink:title=" ">
<polygon fill="white" stroke="#666666" points="619.38,-47.38 469.88,-47.38 469.88,-5.62 619.38,-5.62 619.38,-47.38"/>
<text text-anchor="start" x="477.88" y="-33.88" font-family="Helvetica,sans-Serif" font-size="10.00">/Users/st1123/CLionProjects</text>
<text text-anchor="start" x="477.88" y="-22.62" font-family="Helvetica,sans-Serif" font-size="10.00">/advanced&#45;programming&#45;group</text>
<text text-anchor="middle" x="544.62" y="-11.38" font-family="Helvetica,sans-Serif" font-size="10.00">&#45;linear&#45;regression/src/main.cpp</text>
</a>
</g>
</g>
<!-- Node1&#45;&gt;Node5 -->
<g id="edge10_Node000001_Node000005" class="edge">
<title>Node1&#45;&gt;Node5</title>
<g id="a_edge10_Node000001_Node000005"><a xlink:title=" ">
<path fill="none" stroke="#63b8ff" d="M332.16,-350.84C315.48,-342.84 298.86,-332.68 285.62,-320 205.93,-243.67 123.67,-173.51 194.62,-89 229.04,-48.01 377.57,-34.33 469.73,-29.77"/>
<polygon fill="#63b8ff" stroke="#63b8ff" points="330.59,-353.97 341.14,-354.91 333.48,-347.59 330.59,-353.97"/>
</a>
</g>
</g>
<!-- Node7 -->
<g id="Node000007" class="node">
<title>Node7</title>
<g id="a_Node000007"><a xlink:href="test_8cpp.html" target="_top" xlink:title=" ">
<polygon fill="white" stroke="#666666" points="516.25,-136.38 369,-136.38 369,-94.62 516.25,-94.62 516.25,-136.38"/>
<text text-anchor="start" x="377" y="-122.88" font-family="Helvetica,sans-Serif" font-size="10.00">/Users/st1123/CLionProjects</text>
<text text-anchor="start" x="377" y="-111.62" font-family="Helvetica,sans-Serif" font-size="10.00">/advanced&#45;programming&#45;group</text>
<text text-anchor="middle" x="442.62" y="-100.38" font-family="Helvetica,sans-Serif" font-size="10.00">&#45;linear&#45;regression/src/test.cpp</text>
</a>
</g>
</g>
<!-- Node1&#45;&gt;Node7 -->
<g id="edge18_Node000001_Node000007" class="edge">
<title>Node1&#45;&gt;Node7</title>
<g id="a_edge18_Node000001_Node000007"><a xlink:title=" ">
<path fill="none" stroke="#63b8ff" d="M356.98,-349.53C345.05,-341.39 333.3,-331.49 324.62,-320 285.82,-268.59 259.93,-231.62 295.62,-178 301.14,-169.71 346.97,-151.29 386,-136.75"/>
<polygon fill="#63b8ff" stroke="#63b8ff" points="354.95,-352.39 365.26,-354.86 358.74,-346.51 354.95,-352.39"/>
</a>
</g>
</g>
<!-- Node10 -->
<g id="Node000010" class="node">
<title>Node10</title>
<g id="a_Node000010"><a xlink:href="projection_8h.html" target="_top" xlink:title="this header file contains all the declarations of projections methods that can be applied to a volume...">
<polygon fill="white" stroke="#666666" points="800.5,-231 648.75,-231 648.75,-178 800.5,-178 800.5,-231"/>
<text text-anchor="start" x="656.75" y="-217.5" font-family="Helvetica,sans-Serif" font-size="10.00">/Users/st1123/CLionProjects</text>
<text text-anchor="start" x="656.75" y="-206.25" font-family="Helvetica,sans-Serif" font-size="10.00">/advanced&#45;programming&#45;group</text>
<text text-anchor="start" x="656.75" y="-195" font-family="Helvetica,sans-Serif" font-size="10.00">&#45;linear&#45;regression/src/projection</text>
<text text-anchor="middle" x="724.62" y="-183.75" font-family="Helvetica,sans-Serif" font-size="10.00">/projection.h</text>
</a>
</g>
</g>
<!-- Node1&#45;&gt;Node10 -->
<g id="edge11_Node000001_Node000010" class="edge">
<title>Node1&#45;&gt;Node10</title>
<g id="a_edge11_Node000001_Node000010"><a xlink:title=" ">
<path fill="none" stroke="#63b8ff" d="M461.79,-350.73C481.42,-341.38 503.66,-330.48 523.62,-320 578.74,-291.07 640.8,-255.2 681.19,-231.4"/>
<polygon fill="#63b8ff" stroke="#63b8ff" points="460.4,-347.52 452.86,-354.97 463.4,-353.85 460.4,-347.52"/>
</a>
</g>
</g>
<!-- Node11 -->
<g id="Node000011" class="node">
<title>Node11</title>
<g id="a_Node000011"><a xlink:href="slice_8h.html" target="_top" xlink:title="this header file contains all the declarations of slicing methods that can be applied to a volume.">
<polygon fill="white" stroke="#666666" points="980.38,-225.38 818.88,-225.38 818.88,-183.62 980.38,-183.62 980.38,-225.38"/>
<text text-anchor="start" x="826.88" y="-211.88" font-family="Helvetica,sans-Serif" font-size="10.00">/Users/st1123/CLionProjects</text>
<text text-anchor="start" x="826.88" y="-200.62" font-family="Helvetica,sans-Serif" font-size="10.00">/advanced&#45;programming&#45;group</text>
<text text-anchor="middle" x="899.62" y="-189.38" font-family="Helvetica,sans-Serif" font-size="10.00">&#45;linear&#45;regression/src/slice/slice.h</text>
</a>
</g>
</g>
<!-- Node1&#45;&gt;Node11 -->
<g id="edge15_Node000001_Node000011" class="edge">
<title>Node1&#45;&gt;Node11</title>
<g id="a_edge15_Node000001_Node000011"><a xlink:title=" ">
<path fill="none" stroke="#63b8ff" d="M485.46,-352.28C516.7,-342.6 552.97,-331.07 585.62,-320 677.81,-288.74 784.01,-249.29 846.27,-225.8"/>
<polygon fill="#63b8ff" stroke="#63b8ff" points="484.6,-348.89 476.08,-355.18 486.67,-355.57 484.6,-348.89"/>
</a>
</g>
</g>
<!-- Node13 -->
<g id="Node000013" class="node">
<title>Node13</title>
<g id="a_Node000013"><a xlink:href="volume_8h.html" target="_top" xlink:title="this header file contains the declarations of the Volume class that handles a collection of images as...">
<polygon fill="white" stroke="#666666" points="481.25,-320 334,-320 334,-267 481.25,-267 481.25,-320"/>
<text text-anchor="start" x="342" y="-306.5" font-family="Helvetica,sans-Serif" font-size="10.00">/Users/st1123/CLionProjects</text>
<text text-anchor="start" x="342" y="-295.25" font-family="Helvetica,sans-Serif" font-size="10.00">/advanced&#45;programming&#45;group</text>
<text text-anchor="start" x="342" y="-284" font-family="Helvetica,sans-Serif" font-size="10.00">&#45;linear&#45;regression/src/volume</text>
<text text-anchor="middle" x="407.62" y="-272.75" font-family="Helvetica,sans-Serif" font-size="10.00">/volume.h</text>
</a>
</g>
</g>
<!-- Node1&#45;&gt;Node13 -->
<g id="edge19_Node000001_Node000013" class="edge">
<title>Node1&#45;&gt;Node13</title>
<g id="a_edge19_Node000001_Node000013"><a xlink:title=" ">
<path fill="none" stroke="#63b8ff" d="M407.62,-344.52C407.62,-336.49 407.62,-327.94 407.62,-320.23"/>
<polygon fill="#63b8ff" stroke="#63b8ff" points="404.13,-344.25 407.63,-354.25 411.13,-344.25 404.13,-344.25"/>
</a>
</g>
</g>
<!-- Node4 -->
<g id="Node000004" class="node">
<title>Node4</title>
<g id="a_Node000004"><a xlink:href="filter_8cpp.html" target="_top" xlink:title="this file will contain all the filters (2D / 3D) that can be applied to the image and volume data">
<polygon fill="white" stroke="#666666" points="351.25,-142 204,-142 204,-89 351.25,-89 351.25,-142"/>
<text text-anchor="start" x="212" y="-128.5" font-family="Helvetica,sans-Serif" font-size="10.00">/Users/st1123/CLionProjects</text>
<text text-anchor="start" x="212" y="-117.25" font-family="Helvetica,sans-Serif" font-size="10.00">/advanced&#45;programming&#45;group</text>
<text text-anchor="start" x="212" y="-106" font-family="Helvetica,sans-Serif" font-size="10.00">&#45;linear&#45;regression/src/filter</text>
<text text-anchor="middle" x="277.62" y="-94.75" font-family="Helvetica,sans-Serif" font-size="10.00">/filter.cpp</text>
</a>
</g>
</g>
<!-- Node3&#45;&gt;Node4 -->
<g id="edge3_Node000003_Node000004" class="edge">
<title>Node3&#45;&gt;Node4</title>
<g id="a_edge3_Node000003_Node000004"><a xlink:title=" ">
<path fill="none" stroke="#63b8ff" d="M471.94,-177.09C433.54,-165.12 388.54,-151.09 351.52,-139.54"/>
<polygon fill="#63b8ff" stroke="#63b8ff" points="470.56,-180.33 481.15,-179.96 472.64,-173.65 470.56,-180.33"/>
</a>
</g>
</g>
<!-- Node3&#45;&gt;Node5 -->
<g id="edge4_Node000003_Node000005" class="edge">
<title>Node3&#45;&gt;Node5</title>
<g id="a_edge4_Node000003_Node000005"><a xlink:title=" ">
<path fill="none" stroke="#63b8ff" d="M554.1,-166.47C551.64,-130.36 547.98,-76.76 546.01,-47.82"/>
<polygon fill="#63b8ff" stroke="#63b8ff" points="550.58,-166.28 554.75,-176.02 557.56,-165.81 550.58,-166.28"/>
</a>
</g>
</g>
<!-- Node6 -->
<g id="Node000006" class="node">
<title>Node6</title>
<g id="a_Node000006"><a xlink:href="projection_8cpp.html" target="_top" xlink:title="this file contains the implementation of all the projections methods that can be applied to a volume.">
<polygon fill="white" stroke="#666666" points="724.5,-142 572.75,-142 572.75,-89 724.5,-89 724.5,-142"/>
<text text-anchor="start" x="580.75" y="-128.5" font-family="Helvetica,sans-Serif" font-size="10.00">/Users/st1123/CLionProjects</text>
<text text-anchor="start" x="580.75" y="-117.25" font-family="Helvetica,sans-Serif" font-size="10.00">/advanced&#45;programming&#45;group</text>
<text text-anchor="start" x="580.75" y="-106" font-family="Helvetica,sans-Serif" font-size="10.00">&#45;linear&#45;regression/src/projection</text>
<text text-anchor="middle" x="648.62" y="-94.75" font-family="Helvetica,sans-Serif" font-size="10.00">/projection.cpp</text>
</a>
</g>
</g>
<!-- Node3&#45;&gt;Node6 -->
<g id="edge5_Node000003_Node000006" class="edge">
<title>Node3&#45;&gt;Node6</title>
<g id="a_edge5_Node000003_Node000006"><a xlink:title=" ">
<path fill="none" stroke="#63b8ff" d="M592.07,-169.99C601.8,-160.78 612.2,-150.94 621.4,-142.25"/>
<polygon fill="#63b8ff" stroke="#63b8ff" points="589.69,-167.41 584.83,-176.83 594.5,-172.5 589.69,-167.41"/>
</a>
</g>
</g>
<!-- Node3&#45;&gt;Node7 -->
<g id="edge6_Node000003_Node000007" class="edge">
<title>Node3&#45;&gt;Node7</title>
<g id="a_edge6_Node000003_Node000007"><a xlink:title=" ">
<path fill="none" stroke="#63b8ff" d="M513.6,-170.67C498.6,-159.22 482.21,-146.71 468.97,-136.61"/>
<polygon fill="#63b8ff" stroke="#63b8ff" points="511.45,-173.43 521.53,-176.71 515.7,-167.87 511.45,-173.43"/>
</a>
</g>
</g>
<!-- Node8 -->
<g id="Node000008" class="node">
<title>Node8</title>
<g id="a_Node000008"><a xlink:href="utility_8h.html" target="_top" xlink:title="this header file contains the declarations of the Utility class that is used to help build the UI int...">
<polygon fill="white" stroke="#666666" points="890.25,-142 743,-142 743,-89 890.25,-89 890.25,-142"/>
<text text-anchor="start" x="751" y="-128.5" font-family="Helvetica,sans-Serif" font-size="10.00">/Users/st1123/CLionProjects</text>
<text text-anchor="start" x="751" y="-117.25" font-family="Helvetica,sans-Serif" font-size="10.00">/advanced&#45;programming&#45;group</text>
<text text-anchor="start" x="751" y="-106" font-family="Helvetica,sans-Serif" font-size="10.00">&#45;linear&#45;regression/src/utility</text>
<text text-anchor="middle" x="816.62" y="-94.75" font-family="Helvetica,sans-Serif" font-size="10.00">/utility.h</text>
</a>
</g>
</g>
<!-- Node3&#45;&gt;Node8 -->
<g id="edge7_Node000003_Node000008" class="edge">
<title>Node3&#45;&gt;Node8</title>
<g id="a_edge7_Node000003_Node000008"><a xlink:title=" ">
<path fill="none" stroke="#63b8ff" d="M641.33,-175.15C674.01,-164.22 711.05,-151.83 742.63,-141.26"/>
<polygon fill="#63b8ff" stroke="#63b8ff" points="640.24,-171.83 631.87,-178.32 642.46,-178.47 640.24,-171.83"/>
</a>
</g>
</g>
<!-- Node8&#45;&gt;Node5 -->
<g id="edge8_Node000008_Node000005" class="edge">
<title>Node8&#45;&gt;Node5</title>
<g id="a_edge8_Node000008_Node000005"><a xlink:title=" ">
<path fill="none" stroke="#63b8ff" d="M731.84,-87.38C691.8,-74.58 644.84,-59.55 607.96,-47.76"/>
<polygon fill="#63b8ff" stroke="#63b8ff" points="730.63,-90.67 741.22,-90.38 732.76,-84 730.63,-90.67"/>
</a>
</g>
</g>
<!-- Node9 -->
<g id="Node000009" class="node">
<title>Node9</title>
<g id="a_Node000009"><a xlink:href="utility_8cpp.html" target="_top" xlink:title=" ">
<polygon fill="white" stroke="#666666" points="890.25,-53 743,-53 743,0 890.25,0 890.25,-53"/>
<text text-anchor="start" x="751" y="-39.5" font-family="Helvetica,sans-Serif" font-size="10.00">/Users/st1123/CLionProjects</text>
<text text-anchor="start" x="751" y="-28.25" font-family="Helvetica,sans-Serif" font-size="10.00">/advanced&#45;programming&#45;group</text>
<text text-anchor="start" x="751" y="-17" font-family="Helvetica,sans-Serif" font-size="10.00">&#45;linear&#45;regression/src/utility</text>
<text text-anchor="middle" x="816.62" y="-5.75" font-family="Helvetica,sans-Serif" font-size="10.00">/utility.cpp</text>
</a>
</g>
</g>
<!-- Node8&#45;&gt;Node9 -->
<g id="edge9_Node000008_Node000009" class="edge">
<title>Node8&#45;&gt;Node9</title>
<g id="a_edge9_Node000008_Node000009"><a xlink:title=" ">
<path fill="none" stroke="#63b8ff" d="M816.62,-77.61C816.62,-69.41 816.62,-60.89 816.62,-53.25"/>
<polygon fill="#63b8ff" stroke="#63b8ff" points="813.13,-77.35 816.63,-87.35 820.13,-77.35 813.13,-77.35"/>
</a>
</g>
</g>
<!-- Node10&#45;&gt;Node6 -->
<g id="edge12_Node000010_Node000006" class="edge">
<title>Node10&#45;&gt;Node6</title>
<g id="a_edge12_Node000010_Node000006"><a xlink:title=" ">
<path fill="none" stroke="#63b8ff" d="M694.86,-169.43C686.96,-160.38 678.56,-150.77 671.12,-142.25"/>
<polygon fill="#63b8ff" stroke="#63b8ff" points="692.02,-171.5 701.24,-176.73 697.29,-166.89 692.02,-171.5"/>
</a>
</g>
</g>
<!-- Node10&#45;&gt;Node7 -->
<g id="edge13_Node000010_Node000007" class="edge">
<title>Node10&#45;&gt;Node7</title>
<g id="a_edge13_Node000010_Node000007"><a xlink:title=" ">
<path fill="none" stroke="#63b8ff" d="M637.35,-176.58C595.77,-163.75 546.86,-148.66 508.46,-136.81"/>
<polygon fill="#63b8ff" stroke="#63b8ff" points="636.28,-179.91 646.87,-179.51 638.34,-173.22 636.28,-179.91"/>
</a>
</g>
</g>
<!-- Node10&#45;&gt;Node8 -->
<g id="edge14_Node000010_Node000008" class="edge">
<title>Node10&#45;&gt;Node8</title>
<g id="a_edge14_Node000010_Node000008"><a xlink:title=" ">
<path fill="none" stroke="#63b8ff" d="M760.07,-169.99C769.8,-160.78 780.2,-150.94 789.4,-142.25"/>
<polygon fill="#63b8ff" stroke="#63b8ff" points="757.69,-167.41 752.83,-176.83 762.5,-172.5 757.69,-167.41"/>
</a>
</g>
</g>
<!-- Node11&#45;&gt;Node8 -->
<g id="edge17_Node000011_Node000008" class="edge">
<title>Node11&#45;&gt;Node8</title>
<g id="a_edge17_Node000011_Node000008"><a xlink:title=" ">
<path fill="none" stroke="#63b8ff" d="M872.59,-175.16C862.46,-164.55 851.02,-152.55 841.13,-142.19"/>
<polygon fill="#63b8ff" stroke="#63b8ff" points="869.89,-177.41 879.33,-182.23 874.96,-172.58 869.89,-177.41"/>
</a>
</g>
</g>
<!-- Node12 -->
<g id="Node000012" class="node">
<title>Node12</title>
<g id="a_Node000012"><a xlink:href="slice_8cpp.html" target="_top" xlink:title="this header file contains all the implementations of slicing methods that can be applied to a volume.">
<polygon fill="white" stroke="#666666" points="1055.25,-142 908,-142 908,-89 1055.25,-89 1055.25,-142"/>
<text text-anchor="start" x="916" y="-128.5" font-family="Helvetica,sans-Serif" font-size="10.00">/Users/st1123/CLionProjects</text>
<text text-anchor="start" x="916" y="-117.25" font-family="Helvetica,sans-Serif" font-size="10.00">/advanced&#45;programming&#45;group</text>
<text text-anchor="start" x="916" y="-106" font-family="Helvetica,sans-Serif" font-size="10.00">&#45;linear&#45;regression/src/slice</text>
<text text-anchor="middle" x="981.62" y="-94.75" font-family="Helvetica,sans-Serif" font-size="10.00">/slice.cpp</text>
</a>
</g>
</g>
<!-- Node11&#45;&gt;Node12 -->
<g id="edge16_Node000011_Node000012" class="edge">
<title>Node11&#45;&gt;Node12</title>
<g id="a_edge16_Node000011_Node000012"><a xlink:title=" ">
<path fill="none" stroke="#63b8ff" d="M926.34,-175.16C936.34,-164.55 947.64,-152.55 957.41,-142.19"/>
<polygon fill="#63b8ff" stroke="#63b8ff" points="923.99,-172.54 919.68,-182.22 929.09,-177.34 923.99,-172.54"/>
</a>
</g>
</g>
<!-- Node13&#45;&gt;Node3 -->
<g id="edge21_Node000013_Node000003" class="edge">
<title>Node13&#45;&gt;Node3</title>
<g id="a_edge21_Node000013_Node000003"><a xlink:title=" ">
<path fill="none" stroke="#63b8ff" d="M461.53,-261.03C478.17,-251.31 496.31,-240.72 512.24,-231.42"/>
<polygon fill="#63b8ff" stroke="#63b8ff" points="460.1,-257.8 453.23,-265.87 463.63,-263.85 460.1,-257.8"/>
</a>
</g>
</g>
<!-- Node13&#45;&gt;Node4 -->
<g id="edge20_Node000013_Node000004" class="edge">
<title>Node13&#45;&gt;Node4</title>
<g id="a_edge20_Node000013_Node000004"><a xlink:title=" ">
<path fill="none" stroke="#63b8ff" d="M327.65,-260.71C315.33,-252.68 303.96,-242.86 295.62,-231 277.24,-204.82 274.75,-166.99 275.5,-142.08"/>
<polygon fill="#63b8ff" stroke="#63b8ff" points="325.57,-263.54 335.93,-265.73 329.2,-257.56 325.57,-263.54"/>
</a>
</g>
</g>
<!-- Node13&#45;&gt;Node7 -->
<g id="edge24_Node000013_Node000007" class="edge">
<title>Node13&#45;&gt;Node7</title>
<g id="a_edge24_Node000013_Node000007"><a xlink:title=" ">
<path fill="none" stroke="#63b8ff" d="M335.51,-260.31C324.73,-252.3 315.08,-242.61 308.62,-231 297.18,-210.41 295.91,-197.83 308.62,-178 317.5,-164.16 351.23,-148.72 382.62,-136.77"/>
<polygon fill="#63b8ff" stroke="#63b8ff" points="333.31,-263.04 343.54,-265.78 337.25,-257.26 333.31,-263.04"/>
</a>
</g>
</g>
<!-- Node13&#45;&gt;Node10 -->
<g id="edge22_Node000013_Node000010" class="edge">
<title>Node13&#45;&gt;Node10</title>
<g id="a_edge22_Node000013_Node000010"><a xlink:title=" ">
<path fill="none" stroke="#63b8ff" d="M492.66,-270.66C536.62,-259.19 591.11,-244.7 639.62,-231 642.59,-230.16 645.61,-229.3 648.66,-228.42"/>
<polygon fill="#63b8ff" stroke="#63b8ff" points="491.97,-267.22 483.18,-273.13 493.74,-274 491.97,-267.22"/>
</a>
</g>
</g>
<!-- Node13&#45;&gt;Node11 -->
<g id="edge23_Node000013_Node000011" class="edge">
<title>Node13&#45;&gt;Node11</title>
<g id="a_edge23_Node000013_Node000011"><a xlink:title=" ">
<path fill="none" stroke="#63b8ff" d="M492.71,-282.6C574.47,-272.36 701.23,-254.55 809.62,-231 816.77,-229.45 824.18,-227.65 831.54,-225.75"/>
<polygon fill="#63b8ff" stroke="#63b8ff" points="492.48,-279.1 482.99,-283.81 493.34,-286.05 492.48,-279.1"/>
</a>
</g>
</g>
<!-- Node14 -->
<g id="Node000014" class="node">
<title>Node14</title>
<g id="a_Node000014"><a xlink:href="volume_8cpp.html" target="_top" xlink:title="this header file contains the implementation of the Volume class that handles a collection of images ...">
<polygon fill="white" stroke="#666666" points="465.25,-231 318,-231 318,-178 465.25,-178 465.25,-231"/>
<text text-anchor="start" x="326" y="-217.5" font-family="Helvetica,sans-Serif" font-size="10.00">/Users/st1123/CLionProjects</text>
<text text-anchor="start" x="326" y="-206.25" font-family="Helvetica,sans-Serif" font-size="10.00">/advanced&#45;programming&#45;group</text>
<text text-anchor="start" x="326" y="-195" font-family="Helvetica,sans-Serif" font-size="10.00">&#45;linear&#45;regression/src/volume</text>
<text text-anchor="middle" x="391.62" y="-183.75" font-family="Helvetica,sans-Serif" font-size="10.00">/volume.cpp</text>
</a>
</g>
</g>
<!-- Node13&#45;&gt;Node14 -->
<g id="edge25_Node000013_Node000014" class="edge">
<title>Node13&#45;&gt;Node14</title>
<g id="a_edge25_Node000013_Node000014"><a xlink:title=" ">
<path fill="none" stroke="#63b8ff" d="M400.84,-255.61C399.33,-247.41 397.77,-238.89 396.36,-231.25"/>
<polygon fill="#63b8ff" stroke="#63b8ff" points="397.39,-256.18 402.64,-265.38 404.27,-254.91 397.39,-256.18"/>
</a>
</g>
</g>
</g>
</svg>
