<?xml version="1.0" encoding="UTF-8" standalone="no"?>
<!DOCTYPE svg PUBLIC "-//W3C//DTD SVG 1.1//EN"
 "http://www.w3.org/Graphics/SVG/1.1/DTD/svg11.dtd">
<!-- Generated by graphviz version 10.0.1 (20240210.2158)
 -->
<!-- Title: /Users/st1123/CLionProjects/advanced&#45;programming&#45;group&#45;linear&#45;regression/src/Image/Image.h Pages: 1 -->
<svg width="543pt" height="105pt"
 viewBox="0.00 0.00 543.00 105.00" xmlns="http://www.w3.org/2000/svg" xmlns:xlink="http://www.w3.org/1999/xlink">
<g id="graph0" class="graph" transform="scale(1 1) rotate(0) translate(4 101)">
<title>/Users/st1123/CLionProjects/advanced&#45;programming&#45;group&#45;linear&#45;regression/src/Image/Image.h</title>
<!-- Node1 -->
<g id="Node000001" class="node">
<title>Node1</title>
<g id="a_Node000001"><a xlink:title="this header file contains all required functions and definitions for the Image class,...">
<polygon fill="#999999" stroke="#666666" points="308.25,-97 133.25,-97 133.25,-55.25 308.25,-55.25 308.25,-97"/>
<text text-anchor="start" x="141.25" y="-83.5" font-family="Helvetica,sans-Serif" font-size="10.00">/Users/st1123/CLionProjects</text>
<text text-anchor="start" x="141.25" y="-72.25" font-family="Helvetica,sans-Serif" font-size="10.00">/advanced&#45;programming&#45;group</text>
<text text-anchor="middle" x="220.75" y="-61" font-family="Helvetica,sans-Serif" font-size="10.00">&#45;linear&#45;regression/src/Image/Image.h</text>
</a>
</g>
</g>
<!-- Node2 -->
<g id="Node000002" class="node">
<title>Node2</title>
<g id="a_Node000002"><a xlink:title=" ">
<polygon fill="#e0e0e0" stroke="#999999" points="53.5,-19.25 0,-19.25 0,0 53.5,0 53.5,-19.25"/>
<text text-anchor="middle" x="26.75" y="-5.75" font-family="Helvetica,sans-Serif" font-size="10.00">iostream</text>
</a>
</g>
</g>
<!-- Node1&#45;&gt;Node2 -->
<g id="edge1_Node000001_Node000002" class="edge">
<title>Node1&#45;&gt;Node2</title>
<g id="a_edge1_Node000001_Node000002"><a xlink:title=" ">
<path fill="none" stroke="#63b8ff" d="M159.63,-54.81C128.54,-44.47 91.71,-32.22 64.72,-23.25"/>
<polygon fill="#63b8ff" stroke="#63b8ff" points="65.83,-19.93 55.24,-20.1 63.62,-26.57 65.83,-19.93"/>
</a>
</g>
</g>
<!-- Node3 -->
<g id="Node000003" class="node">
<title>Node3</title>
<g id="a_Node000003"><a xlink:title=" ">
<polygon fill="#e0e0e0" stroke="#999999" points="111.75,-19.25 71.75,-19.25 71.75,0 111.75,0 111.75,-19.25"/>
<text text-anchor="middle" x="91.75" y="-5.75" font-family="Helvetica,sans-Serif" font-size="10.00">string</text>
</a>
</g>
</g>
<!-- Node1&#45;&gt;Node3 -->
<g id="edge2_Node000001_Node000003" class="edge">
<title>Node1&#45;&gt;Node3</title>
<g id="a_edge2_Node000001_Node000003"><a xlink:title=" ">
<path fill="none" stroke="#63b8ff" d="M180.29,-54.89C160.71,-45.1 137.68,-33.59 120.01,-24.76"/>
<polygon fill="#63b8ff" stroke="#63b8ff" points="121.65,-21.66 111.14,-20.32 118.52,-27.92 121.65,-21.66"/>
</a>
</g>
</g>
<!-- Node4 -->
<g id="Node000004" class="node">
<title>Node4</title>
<g id="a_Node000004"><a xlink:title=" ">
<polygon fill="#e0e0e0" stroke="#999999" points="173.25,-19.25 130.25,-19.25 130.25,0 173.25,0 173.25,-19.25"/>
<text text-anchor="middle" x="151.75" y="-5.75" font-family="Helvetica,sans-Serif" font-size="10.00">vector</text>
</a>
</g>
</g>
<!-- Node1&#45;&gt;Node4 -->
<g id="edge3_Node000001_Node000004" class="edge">
<title>Node1&#45;&gt;Node4</title>
<g id="a_edge3_Node000001_Node000004"><a xlink:title=" ">
<path fill="none" stroke="#63b8ff" d="M199.3,-55.07C189.8,-46.19 178.76,-35.87 169.71,-27.41"/>
<polygon fill="#63b8ff" stroke="#63b8ff" points="172.25,-25 162.56,-20.73 167.47,-30.11 172.25,-25"/>
</a>
</g>
</g>
<!-- Node5 -->
<g id="Node000005" class="node">
<title>Node5</title>
<g id="a_Node000005"><a xlink:title=" ">
<polygon fill="#e0e0e0" stroke="#999999" points="250.12,-19.25 191.38,-19.25 191.38,0 250.12,0 250.12,-19.25"/>
<text text-anchor="middle" x="220.75" y="-5.75" font-family="Helvetica,sans-Serif" font-size="10.00">stdexcept</text>
</a>
</g>
</g>
<!-- Node1&#45;&gt;Node5 -->
<g id="edge4_Node000001_Node000005" class="edge">
<title>Node1&#45;&gt;Node5</title>
<g id="a_edge4_Node000001_Node000005"><a xlink:title=" ">
<path fill="none" stroke="#63b8ff" d="M220.75,-55.07C220.75,-47.4 220.75,-38.64 220.75,-30.95"/>
<polygon fill="#63b8ff" stroke="#63b8ff" points="224.25,-31.21 220.75,-21.21 217.25,-31.21 224.25,-31.21"/>
</a>
</g>
</g>
<!-- Node6 -->
<g id="Node000006" class="node">
<title>Node6</title>
<g id="a_Node000006"><a xlink:title=" ">
<polygon fill="#e0e0e0" stroke="#999999" points="316.88,-19.25 268.62,-19.25 268.62,0 316.88,0 316.88,-19.25"/>
<text text-anchor="middle" x="292.75" y="-5.75" font-family="Helvetica,sans-Serif" font-size="10.00">cassert</text>
</a>
</g>
</g>
<!-- Node1&#45;&gt;Node6 -->
<g id="edge5_Node000001_Node000006" class="edge">
<title>Node1&#45;&gt;Node6</title>
<g id="a_edge5_Node000001_Node000006"><a xlink:title=" ">
<path fill="none" stroke="#63b8ff" d="M243.14,-55.07C253.15,-46.1 264.8,-35.66 274.3,-27.15"/>
<polygon fill="#63b8ff" stroke="#63b8ff" points="276.38,-29.98 281.5,-20.71 271.71,-24.77 276.38,-29.98"/>
</a>
</g>
</g>
<!-- Node7 -->
<g id="Node000007" class="node">
<title>Node7</title>
<g id="a_Node000007"><a xlink:title=" ">
<polygon fill="#e0e0e0" stroke="#999999" points="412.88,-19.25 334.62,-19.25 334.62,0 412.88,0 412.88,-19.25"/>
<text text-anchor="middle" x="373.75" y="-5.75" font-family="Helvetica,sans-Serif" font-size="10.00">../stb_image.h</text>
</a>
</g>
</g>
<!-- Node1&#45;&gt;Node7 -->
<g id="edge6_Node000001_Node000007" class="edge">
<title>Node1&#45;&gt;Node7</title>
<g id="a_edge6_Node000001_Node000007"><a xlink:title=" ">
<path fill="none" stroke="#63b8ff" d="M268.74,-54.89C292.62,-44.83 320.83,-32.94 341.99,-24.01"/>
<polygon fill="#63b8ff" stroke="#63b8ff" points="343.11,-27.34 350.96,-20.23 340.39,-20.89 343.11,-27.34"/>
</a>
</g>
</g>
<!-- Node8 -->
<g id="Node000008" class="node">
<title>Node8</title>
<g id="a_Node000008"><a xlink:title=" ">
<polygon fill="#e0e0e0" stroke="#999999" points="535,-19.25 430.5,-19.25 430.5,0 535,0 535,-19.25"/>
<text text-anchor="middle" x="482.75" y="-5.75" font-family="Helvetica,sans-Serif" font-size="10.00">../stb_image_write.h</text>
</a>
</g>
</g>
<!-- Node1&#45;&gt;Node8 -->
<g id="edge7_Node000001_Node000008" class="edge">
<title>Node1&#45;&gt;Node8</title>
<g id="a_edge7_Node000001_Node000008"><a xlink:title=" ">
<path fill="none" stroke="#63b8ff" d="M303.29,-54.81C346.65,-44.13 398.26,-31.42 434.98,-22.39"/>
<polygon fill="#63b8ff" stroke="#63b8ff" points="435.53,-25.85 444.4,-20.07 433.85,-19.06 435.53,-25.85"/>
</a>
</g>
</g>
</g>
</svg>
