<?xml version="1.0" encoding="UTF-8" standalone="no"?>
<!DOCTYPE svg PUBLIC "-//W3C//DTD SVG 1.1//EN"
 "http://www.w3.org/Graphics/SVG/1.1/DTD/svg11.dtd">
<!-- Generated by graphviz version 10.0.1 (20240210.2158)
 -->
<!-- Title: /Users/st1123/CLionProjects/advanced&#45;programming&#45;group&#45;linear&#45;regression/src Pages: 1 -->
<svg width="209pt" height="336pt"
 viewBox="0.00 0.00 209.00 335.50" xmlns="http://www.w3.org/2000/svg" xmlns:xlink="http://www.w3.org/1999/xlink">
<g id="graph0" class="graph" transform="scale(1 1) rotate(0) translate(4 331.5)">
<title>/Users/st1123/CLionProjects/advanced&#45;programming&#45;group&#45;linear&#45;regression/src</title>
<g id="clust1" class="cluster">
<title>clusterdir_68267d1309a1af8e8297ef4c3efbcdba</title>
<g id="a_clust1"><a xlink:href="dir_68267d1309a1af8e8297ef4c3efbcdba.html" target="_top">
<polygon fill="#edf0f7" stroke="#404040" stroke-width="2" points="8,-8 8,-319.5 193,-319.5 193,-8 8,-8"/>
</a>
</g>
</g>
<!-- dir_68267d1309a1af8e8297ef4c3efbcdba -->
<g id="node1" class="node">
<title>dir_68267d1309a1af8e8297ef4c3efbcdba</title>
<text text-anchor="middle" x="88" y="-298" font-family="Helvetica,sans-Serif" font-size="10.00">src</text>
</g>
<!-- dir_8681a82a265081a91d191144ff606af9 -->
<g id="node2" class="node">
<title>dir_8681a82a265081a91d191144ff606af9</title>
<g id="a_node2"><a xlink:href="dir_8681a82a265081a91d191144ff606af9.html" target="_top" xlink:title="filter">
<polygon fill="#a2b4d6" stroke="#404040" points="70.38,-145.75 35.62,-145.75 35.62,-126.5 70.38,-126.5 70.38,-145.75"/>
<text text-anchor="middle" x="53" y="-132.25" font-family="Helvetica,sans-Serif" font-size="10.00">filter</text>
</a>
</g>
</g>
<!-- dir_68267d1309a1af8e8297ef4c3efbcdba&#45;&gt;dir_8681a82a265081a91d191144ff606af9 -->
<g id="edge3" class="edge">
<title>dir_68267d1309a1af8e8297ef4c3efbcdba&#45;&gt;dir_8681a82a265081a91d191144ff606af9</title>
<g id="a_edge3"><a xlink:href="dir_000004_000000.html" target="_top">
<path fill="none" stroke="#63b8ff" d="M80.48,-292.37C73.49,-283.88 63.5,-270.14 59,-256.25 48.18,-222.85 49.06,-181.45 50.89,-157.29"/>
<polygon fill="#63b8ff" stroke="#63b8ff" points="54.35,-157.86 51.77,-147.58 47.38,-157.23 54.35,-157.86"/>
</a>
</g>
<g id="a_edge3&#45;headlabel"><a xlink:href="dir_000004_000000.html" target="_top" xlink:title="4">
<text text-anchor="middle" x="56.99" y="-156.31" font-family="Helvetica,sans-Serif" font-size="10.00" fill="#63b8ff">4</text>
</a>
</g>
</g>
<!-- dir_fdbdd9841f9a730f284bb666ff3d8cfe -->
<g id="node3" class="node">
<title>dir_fdbdd9841f9a730f284bb666ff3d8cfe</title>
<g id="a_node3"><a xlink:href="dir_fdbdd9841f9a730f284bb666ff3d8cfe.html" target="_top" xlink:title="Image">
<polygon fill="#a2b4d6" stroke="#404040" points="97.5,-35.25 54.5,-35.25 54.5,-16 97.5,-16 97.5,-35.25"/>
<text text-anchor="middle" x="76" y="-21.75" font-family="Helvetica,sans-Serif" font-size="10.00">Image</text>
</a>
</g>
</g>
<!-- dir_68267d1309a1af8e8297ef4c3efbcdba&#45;&gt;dir_fdbdd9841f9a730f284bb666ff3d8cfe -->
<g id="edge5" class="edge">
<title>dir_68267d1309a1af8e8297ef4c3efbcdba&#45;&gt;dir_fdbdd9841f9a730f284bb666ff3d8cfe</title>
<g id="a_edge5"><a xlink:href="dir_000004_000001.html" target="_top">
<path fill="none" stroke="#63b8ff" d="M77.22,-292.29C57.35,-275.43 17,-235.82 17,-192.38 17,-192.38 17,-192.38 17,-135.12 17,-99.4 41.99,-64.22 59.44,-44.01"/>
<polygon fill="#63b8ff" stroke="#63b8ff" points="61.93,-46.48 66.03,-36.71 56.73,-41.79 61.93,-46.48"/>
</a>
</g>
<g id="a_edge5&#45;headlabel"><a xlink:href="dir_000004_000001.html" target="_top" xlink:title="6">
<text text-anchor="middle" x="62.64" y="-46.05" font-family="Helvetica,sans-Serif" font-size="10.00" fill="#63b8ff">6</text>
</a>
</g>
</g>
<!-- dir_20e2e5c646da9cb3f6786270068b9bb5 -->
<g id="node4" class="node">
<title>dir_20e2e5c646da9cb3f6786270068b9bb5</title>
<g id="a_node4"><a xlink:href="dir_20e2e5c646da9cb3f6786270068b9bb5.html" target="_top" xlink:title="projection">
<polygon fill="#a2b4d6" stroke="#404040" points="165,-201 107,-201 107,-181.75 165,-181.75 165,-201"/>
<text text-anchor="middle" x="136" y="-187.5" font-family="Helvetica,sans-Serif" font-size="10.00">projection</text>
</a>
</g>
</g>
<!-- dir_68267d1309a1af8e8297ef4c3efbcdba&#45;&gt;dir_20e2e5c646da9cb3f6786270068b9bb5 -->
<g id="edge2" class="edge">
<title>dir_68267d1309a1af8e8297ef4c3efbcdba&#45;&gt;dir_20e2e5c646da9cb3f6786270068b9bb5</title>
<g id="a_edge2"><a xlink:href="dir_000004_000002.html" target="_top">
<path fill="none" stroke="#63b8ff" d="M94.56,-292.42C101.02,-283.75 110.8,-269.67 117,-256.25 123.54,-242.08 128.47,-225.11 131.66,-212.22"/>
<polygon fill="#63b8ff" stroke="#63b8ff" points="134.99,-213.35 133.85,-202.82 128.17,-211.77 134.99,-213.35"/>
</a>
</g>
<g id="a_edge2&#45;headlabel"><a xlink:href="dir_000004_000002.html" target="_top" xlink:title="2">
<text text-anchor="middle" x="137.29" y="-212.15" font-family="Helvetica,sans-Serif" font-size="10.00" fill="#63b8ff">2</text>
</a>
</g>
</g>
<!-- dir_0619a8f54b4fad7043a6de45be8fde0b -->
<g id="node6" class="node">
<title>dir_0619a8f54b4fad7043a6de45be8fde0b</title>
<g id="a_node6"><a xlink:href="dir_0619a8f54b4fad7043a6de45be8fde0b.html" target="_top" xlink:title="utility">
<polygon fill="#a2b4d6" stroke="#404040" points="107.62,-256.25 68.38,-256.25 68.38,-237 107.62,-237 107.62,-256.25"/>
<text text-anchor="middle" x="88" y="-242.75" font-family="Helvetica,sans-Serif" font-size="10.00">utility</text>
</a>
</g>
</g>
<!-- dir_68267d1309a1af8e8297ef4c3efbcdba&#45;&gt;dir_0619a8f54b4fad7043a6de45be8fde0b -->
<g id="edge1" class="edge">
<title>dir_68267d1309a1af8e8297ef4c3efbcdba&#45;&gt;dir_0619a8f54b4fad7043a6de45be8fde0b</title>
<g id="a_edge1"><a xlink:href="dir_000004_000005.html" target="_top">
<path fill="none" stroke="#63b8ff" d="M88,-292.55C88,-285.95 88,-276.44 88,-267.86"/>
<polygon fill="#63b8ff" stroke="#63b8ff" points="91.5,-267.93 88,-257.93 84.5,-267.93 91.5,-267.93"/>
</a>
</g>
<g id="a_edge1&#45;headlabel"><a xlink:href="dir_000004_000005.html" target="_top" xlink:title="1">
<text text-anchor="middle" x="94.34" y="-266.14" font-family="Helvetica,sans-Serif" font-size="10.00" fill="#63b8ff">1</text>
</a>
</g>
</g>
<!-- dir_8d31eb490be1a258106c1adacd8c239c -->
<g id="node7" class="node">
<title>dir_8d31eb490be1a258106c1adacd8c239c</title>
<g id="a_node7"><a xlink:href="dir_8d31eb490be1a258106c1adacd8c239c.html" target="_top" xlink:title="volume">
<polygon fill="#a2b4d6" stroke="#404040" points="142.75,-90.5 95.25,-90.5 95.25,-71.25 142.75,-71.25 142.75,-90.5"/>
<text text-anchor="middle" x="119" y="-77" font-family="Helvetica,sans-Serif" font-size="10.00">volume</text>
</a>
</g>
</g>
<!-- dir_68267d1309a1af8e8297ef4c3efbcdba&#45;&gt;dir_8d31eb490be1a258106c1adacd8c239c -->
<g id="edge4" class="edge">
<title>dir_68267d1309a1af8e8297ef4c3efbcdba&#45;&gt;dir_8d31eb490be1a258106c1adacd8c239c</title>
<g id="a_edge4"><a xlink:href="dir_000004_000006.html" target="_top">
<path fill="none" stroke="#63b8ff" d="M99.5,-292.26C119.25,-276.66 158.95,-241.54 174,-201 187.8,-163.84 157.42,-122.15 136.55,-99.27"/>
<polygon fill="#63b8ff" stroke="#63b8ff" points="139.09,-96.85 129.65,-92.03 134.02,-101.68 139.09,-96.85"/>
</a>
</g>
<g id="a_edge4&#45;headlabel"><a xlink:href="dir_000004_000006.html" target="_top" xlink:title="5">
<text text-anchor="middle" x="142.58" y="-92.52" font-family="Helvetica,sans-Serif" font-size="10.00" fill="#63b8ff">5</text>
</a>
</g>
</g>
<!-- dir_8681a82a265081a91d191144ff606af9&#45;&gt;dir_fdbdd9841f9a730f284bb666ff3d8cfe -->
<g id="edge7" class="edge">
<title>dir_8681a82a265081a91d191144ff606af9&#45;&gt;dir_fdbdd9841f9a730f284bb666ff3d8cfe</title>
<g id="a_edge7"><a xlink:href="dir_000000_000001.html" target="_top">
<path fill="none" stroke="#63b8ff" d="M54.88,-126.25C58.54,-109 66.68,-70.58 71.72,-46.81"/>
<polygon fill="#63b8ff" stroke="#63b8ff" points="75.13,-47.62 73.78,-37.11 68.28,-46.16 75.13,-47.62"/>
</a>
</g>
<g id="a_edge7&#45;headlabel"><a xlink:href="dir_000000_000001.html" target="_top" xlink:title="1">
<text text-anchor="middle" x="77.47" y="-46.37" font-family="Helvetica,sans-Serif" font-size="10.00" fill="#63b8ff">1</text>
</a>
</g>
</g>
<!-- dir_8681a82a265081a91d191144ff606af9&#45;&gt;dir_8d31eb490be1a258106c1adacd8c239c -->
<g id="edge6" class="edge">
<title>dir_8681a82a265081a91d191144ff606af9&#45;&gt;dir_8d31eb490be1a258106c1adacd8c239c</title>
<g id="a_edge6"><a xlink:href="dir_000000_000006.html" target="_top">
<path fill="none" stroke="#63b8ff" d="M64.2,-126.09C73.74,-118.4 87.67,-107.15 99.11,-97.93"/>
<polygon fill="#63b8ff" stroke="#63b8ff" points="101.21,-100.73 106.79,-91.73 96.81,-95.28 101.21,-100.73"/>
</a>
</g>
<g id="a_edge6&#45;headlabel"><a xlink:href="dir_000000_000006.html" target="_top" xlink:title="2">
<text text-anchor="middle" x="101.37" y="-100.37" font-family="Helvetica,sans-Serif" font-size="10.00" fill="#63b8ff">2</text>
</a>
</g>
</g>
<!-- dir_20e2e5c646da9cb3f6786270068b9bb5&#45;&gt;dir_8681a82a265081a91d191144ff606af9 -->
<g id="edge8" class="edge">
<title>dir_20e2e5c646da9cb3f6786270068b9bb5&#45;&gt;dir_8681a82a265081a91d191144ff606af9</title>
<g id="a_edge8"><a xlink:href="dir_000002_000000.html" target="_top">
<path fill="none" stroke="#63b8ff" d="M121.92,-181.34C109.52,-173.39 91.21,-161.64 76.57,-152.25"/>
<polygon fill="#63b8ff" stroke="#63b8ff" points="78.73,-149.47 68.42,-147.02 74.95,-155.37 78.73,-149.47"/>
</a>
</g>
<g id="a_edge8&#45;headlabel"><a xlink:href="dir_000002_000000.html" target="_top" xlink:title="1">
<text text-anchor="middle" x="82.01" y="-144.33" font-family="Helvetica,sans-Serif" font-size="10.00" fill="#63b8ff">1</text>
</a>
</g>
</g>
<!-- dir_20e2e5c646da9cb3f6786270068b9bb5&#45;&gt;dir_fdbdd9841f9a730f284bb666ff3d8cfe -->
<g id="edge10" class="edge">
<title>dir_20e2e5c646da9cb3f6786270068b9bb5&#45;&gt;dir_fdbdd9841f9a730f284bb666ff3d8cfe</title>
<g id="a_edge10"><a xlink:href="dir_000002_000001.html" target="_top">
<path fill="none" stroke="#63b8ff" d="M140.78,-181.28C151.09,-160.33 172.84,-107.65 152,-71.25 142.52,-54.69 124.25,-43.68 107.99,-36.73"/>
<polygon fill="#63b8ff" stroke="#63b8ff" points="109.72,-33.65 99.13,-33.29 107.18,-40.17 109.72,-33.65"/>
</a>
</g>
<g id="a_edge10&#45;headlabel"><a xlink:href="dir_000002_000001.html" target="_top" xlink:title="1">
<text text-anchor="middle" x="112.68" y="-27.88" font-family="Helvetica,sans-Serif" font-size="10.00" fill="#63b8ff">1</text>
</a>
</g>
</g>
<!-- dir_20e2e5c646da9cb3f6786270068b9bb5&#45;&gt;dir_8d31eb490be1a258106c1adacd8c239c -->
<g id="edge9" class="edge">
<title>dir_20e2e5c646da9cb3f6786270068b9bb5&#45;&gt;dir_8d31eb490be1a258106c1adacd8c239c</title>
<g id="a_edge9"><a xlink:href="dir_000002_000006.html" target="_top">
<path fill="none" stroke="#63b8ff" d="M136.53,-181.61C137.1,-169.23 137.49,-145.94 134,-126.5 132.5,-118.16 129.76,-109.25 127.02,-101.61"/>
<polygon fill="#63b8ff" stroke="#63b8ff" points="130.3,-100.39 123.45,-92.31 123.77,-102.9 130.3,-100.39"/>
</a>
</g>
<g id="a_edge9&#45;headlabel"><a xlink:href="dir_000002_000006.html" target="_top" xlink:title="1">
<text text-anchor="middle" x="133.7" y="-97.44" font-family="Helvetica,sans-Serif" font-size="10.00" fill="#63b8ff">1</text>
</a>
</g>
</g>
<!-- dir_82cb5c3c972df2a38613cd00b42aa05b -->
<g id="node5" class="node">
<title>dir_82cb5c3c972df2a38613cd00b42aa05b</title>
<g id="a_node5"><a xlink:href="dir_82cb5c3c972df2a38613cd00b42aa05b.html" target="_top" xlink:title="slice">
<polygon fill="#a2b4d6" stroke="#404040" points="125.12,-145.75 88.88,-145.75 88.88,-126.5 125.12,-126.5 125.12,-145.75"/>
<text text-anchor="middle" x="107" y="-132.25" font-family="Helvetica,sans-Serif" font-size="10.00">slice</text>
</a>
</g>
</g>
<!-- dir_82cb5c3c972df2a38613cd00b42aa05b&#45;&gt;dir_fdbdd9841f9a730f284bb666ff3d8cfe -->
<g id="edge12" class="edge">
<title>dir_82cb5c3c972df2a38613cd00b42aa05b&#45;&gt;dir_fdbdd9841f9a730f284bb666ff3d8cfe</title>
<g id="a_edge12"><a xlink:href="dir_000003_000001.html" target="_top">
<path fill="none" stroke="#63b8ff" d="M101.87,-126.2C97.04,-117.4 89.97,-103.43 86,-90.5 81.61,-76.17 79.08,-59.42 77.66,-46.66"/>
<polygon fill="#63b8ff" stroke="#63b8ff" points="81.17,-46.61 76.73,-36.99 74.2,-47.28 81.17,-46.61"/>
</a>
</g>
<g id="a_edge12&#45;headlabel"><a xlink:href="dir_000003_000001.html" target="_top" xlink:title="1">
<text text-anchor="middle" x="84.2" y="-44.53" font-family="Helvetica,sans-Serif" font-size="10.00" fill="#63b8ff">1</text>
</a>
</g>
</g>
<!-- dir_82cb5c3c972df2a38613cd00b42aa05b&#45;&gt;dir_8d31eb490be1a258106c1adacd8c239c -->
<g id="edge11" class="edge">
<title>dir_82cb5c3c972df2a38613cd00b42aa05b&#45;&gt;dir_8d31eb490be1a258106c1adacd8c239c</title>
<g id="a_edge11"><a xlink:href="dir_000003_000006.html" target="_top">
<path fill="none" stroke="#63b8ff" d="M108.98,-126.33C110.47,-119.74 112.56,-110.46 114.45,-102.07"/>
<polygon fill="#63b8ff" stroke="#63b8ff" points="117.86,-102.86 116.64,-92.34 111.03,-101.32 117.86,-102.86"/>
</a>
</g>
<g id="a_edge11&#45;headlabel"><a xlink:href="dir_000003_000006.html" target="_top" xlink:title="1">
<text text-anchor="middle" x="120.17" y="-101.64" font-family="Helvetica,sans-Serif" font-size="10.00" fill="#63b8ff">1</text>
</a>
</g>
</g>
<!-- dir_0619a8f54b4fad7043a6de45be8fde0b&#45;&gt;dir_8681a82a265081a91d191144ff606af9 -->
<g id="edge15" class="edge">
<title>dir_0619a8f54b4fad7043a6de45be8fde0b&#45;&gt;dir_8681a82a265081a91d191144ff606af9</title>
<g id="a_edge15"><a xlink:href="dir_000005_000000.html" target="_top">
<path fill="none" stroke="#63b8ff" d="M85.14,-236.75C79.55,-219.42 67.07,-180.73 59.41,-156.99"/>
<polygon fill="#63b8ff" stroke="#63b8ff" points="62.77,-156.01 56.37,-147.57 56.11,-158.16 62.77,-156.01"/>
</a>
</g>
<g id="a_edge15&#45;headlabel"><a xlink:href="dir_000005_000000.html" target="_top" xlink:title="1">
<text text-anchor="middle" x="66.11" y="-153.24" font-family="Helvetica,sans-Serif" font-size="10.00" fill="#63b8ff">1</text>
</a>
</g>
</g>
<!-- dir_0619a8f54b4fad7043a6de45be8fde0b&#45;&gt;dir_20e2e5c646da9cb3f6786270068b9bb5 -->
<g id="edge13" class="edge">
<title>dir_0619a8f54b4fad7043a6de45be8fde0b&#45;&gt;dir_20e2e5c646da9cb3f6786270068b9bb5</title>
<g id="a_edge13"><a xlink:href="dir_000005_000002.html" target="_top">
<path fill="none" stroke="#63b8ff" d="M95.93,-236.83C102.56,-229.48 112.22,-218.76 120.39,-209.69"/>
<polygon fill="#63b8ff" stroke="#63b8ff" points="122.79,-212.25 126.89,-202.48 117.59,-207.57 122.79,-212.25"/>
</a>
</g>
<g id="a_edge13&#45;headlabel"><a xlink:href="dir_000005_000002.html" target="_top" xlink:title="1">
<text text-anchor="middle" x="123.51" y="-211.83" font-family="Helvetica,sans-Serif" font-size="10.00" fill="#63b8ff">1</text>
</a>
</g>
</g>
<!-- dir_0619a8f54b4fad7043a6de45be8fde0b&#45;&gt;dir_82cb5c3c972df2a38613cd00b42aa05b -->
<g id="edge14" class="edge">
<title>dir_0619a8f54b4fad7043a6de45be8fde0b&#45;&gt;dir_82cb5c3c972df2a38613cd00b42aa05b</title>
<g id="a_edge14"><a xlink:href="dir_000005_000003.html" target="_top">
<path fill="none" stroke="#63b8ff" d="M89.3,-236.51C91.1,-224.09 94.52,-201.2 98,-181.75 99.45,-173.68 101.2,-164.82 102.77,-157.14"/>
<polygon fill="#63b8ff" stroke="#63b8ff" points="106.17,-157.98 104.78,-147.48 99.32,-156.55 106.17,-157.98"/>
</a>
</g>
<g id="a_edge14&#45;headlabel"><a xlink:href="dir_000005_000003.html" target="_top" xlink:title="1">
<text text-anchor="middle" x="108.52" y="-156.72" font-family="Helvetica,sans-Serif" font-size="10.00" fill="#63b8ff">1</text>
</a>
</g>
</g>
<!-- dir_8d31eb490be1a258106c1adacd8c239c&#45;&gt;dir_fdbdd9841f9a730f284bb666ff3d8cfe -->
<g id="edge16" class="edge">
<title>dir_8d31eb490be1a258106c1adacd8c239c&#45;&gt;dir_fdbdd9841f9a730f284bb666ff3d8cfe</title>
<g id="a_edge16"><a xlink:href="dir_000006_000001.html" target="_top">
<path fill="none" stroke="#63b8ff" d="M111.9,-71.08C106.08,-63.88 97.67,-53.46 90.44,-44.51"/>
<polygon fill="#63b8ff" stroke="#63b8ff" points="93.21,-42.37 84.21,-36.79 87.77,-46.77 93.21,-42.37"/>
</a>
</g>
<g id="a_edge16&#45;headlabel"><a xlink:href="dir_000006_000001.html" target="_top" xlink:title="1">
<text text-anchor="middle" x="96.73" y="-38.33" font-family="Helvetica,sans-Serif" font-size="10.00" fill="#63b8ff">1</text>
</a>
</g>
</g>
</g>
</svg>
