<?xml version="1.0" encoding="UTF-8" standalone="no"?>
<!DOCTYPE svg PUBLIC "-//W3C//DTD SVG 1.1//EN"
 "http://www.w3.org/Graphics/SVG/1.1/DTD/svg11.dtd">
<!-- Generated by graphviz version 10.0.1 (20240210.2158)
 -->
<!-- Title: /Users/st1123/CLionProjects/advanced&#45;programming&#45;group&#45;linear&#45;regression/src Pages: 1 -->
<svg width="188pt" height="336pt"
 viewBox="0.00 0.00 188.00 335.50" xmlns="http://www.w3.org/2000/svg" xmlns:xlink="http://www.w3.org/1999/xlink">
<g id="graph0" class="graph" transform="scale(1 1) rotate(0) translate(4 331.5)">
<title>/Users/st1123/CLionProjects/advanced&#45;programming&#45;group&#45;linear&#45;regression/src</title>
<g id="clust1" class="cluster">
<title>clusterdir_68267d1309a1af8e8297ef4c3efbcdba</title>
<g id="a_clust1"><a xlink:href="dir_68267d1309a1af8e8297ef4c3efbcdba.html" target="_top">
<polygon fill="#edf0f7" stroke="#404040" stroke-width="2" points="8,-8 8,-319.5 172,-319.5 172,-8 8,-8"/>
</a>
</g>
</g>
<!-- dir_68267d1309a1af8e8297ef4c3efbcdba -->
<g id="node1" class="node">
<title>dir_68267d1309a1af8e8297ef4c3efbcdba</title>
<text text-anchor="middle" x="95" y="-298" font-family="Helvetica,sans-Serif" font-size="10.00">src</text>
</g>
<!-- dir_8681a82a265081a91d191144ff606af9 -->
<g id="node2" class="node">
<title>dir_8681a82a265081a91d191144ff606af9</title>
<g id="a_node2"><a xlink:href="dir_8681a82a265081a91d191144ff606af9.html" target="_top" xlink:title="filter">
<polygon fill="#a2b4d6" stroke="#404040" points="164.38,-145.75 129.62,-145.75 129.62,-126.5 164.38,-126.5 164.38,-145.75"/>
<text text-anchor="middle" x="147" y="-132.25" font-family="Helvetica,sans-Serif" font-size="10.00">filter</text>
</a>
</g>
</g>
<!-- dir_68267d1309a1af8e8297ef4c3efbcdba&#45;&gt;dir_8681a82a265081a91d191144ff606af9 -->
<g id="edge2" class="edge">
<title>dir_68267d1309a1af8e8297ef4c3efbcdba&#45;&gt;dir_8681a82a265081a91d191144ff606af9</title>
<g id="a_edge2"><a xlink:href="dir_000004_000000.html" target="_top">
<path fill="none" stroke="#63b8ff" d="M101.53,-292.4C107.98,-283.73 117.74,-269.64 124,-256.25 134.88,-232.98 135.99,-226.2 141,-201 143.9,-186.42 145.4,-169.67 146.18,-156.99"/>
<polygon fill="#63b8ff" stroke="#63b8ff" points="149.66,-157.56 146.67,-147.4 142.67,-157.21 149.66,-157.56"/>
</a>
</g>
<g id="a_edge2&#45;headlabel"><a xlink:href="dir_000004_000000.html" target="_top" xlink:title="3">
<text text-anchor="middle" x="152.39" y="-155.91" font-family="Helvetica,sans-Serif" font-size="10.00" fill="#63b8ff">3</text>
</a>
</g>
</g>
<!-- dir_fdbdd9841f9a730f284bb666ff3d8cfe -->
<g id="node3" class="node">
<title>dir_fdbdd9841f9a730f284bb666ff3d8cfe</title>
<g id="a_node3"><a xlink:href="dir_fdbdd9841f9a730f284bb666ff3d8cfe.html" target="_top" xlink:title="Image">
<polygon fill="#a2b4d6" stroke="#404040" points="101.5,-35.25 58.5,-35.25 58.5,-16 101.5,-16 101.5,-35.25"/>
<text text-anchor="middle" x="80" y="-21.75" font-family="Helvetica,sans-Serif" font-size="10.00">Image</text>
</a>
</g>
</g>
<!-- dir_68267d1309a1af8e8297ef4c3efbcdba&#45;&gt;dir_fdbdd9841f9a730f284bb666ff3d8cfe -->
<g id="edge3" class="edge">
<title>dir_68267d1309a1af8e8297ef4c3efbcdba&#45;&gt;dir_fdbdd9841f9a730f284bb666ff3d8cfe</title>
<g id="a_edge3"><a xlink:href="dir_000004_000001.html" target="_top">
<path fill="none" stroke="#63b8ff" d="M82.81,-292.27C60.88,-275.68 17,-236.92 17,-192.38 17,-192.38 17,-192.38 17,-135.12 17,-104.95 24.53,-97.16 40,-71.25 45.97,-61.25 54.36,-51.47 61.92,-43.63"/>
<polygon fill="#63b8ff" stroke="#63b8ff" points="64.22,-46.28 68.85,-36.75 59.28,-41.31 64.22,-46.28"/>
</a>
</g>
<g id="a_edge3&#45;headlabel"><a xlink:href="dir_000004_000001.html" target="_top" xlink:title="5">
<text text-anchor="middle" x="64.74" y="-45.88" font-family="Helvetica,sans-Serif" font-size="10.00" fill="#63b8ff">5</text>
</a>
</g>
</g>
<!-- dir_0619a8f54b4fad7043a6de45be8fde0b -->
<g id="node6" class="node">
<title>dir_0619a8f54b4fad7043a6de45be8fde0b</title>
<g id="a_node6"><a xlink:href="dir_0619a8f54b4fad7043a6de45be8fde0b.html" target="_top" xlink:title="utility">
<polygon fill="#a2b4d6" stroke="#404040" points="114.62,-256.25 75.38,-256.25 75.38,-237 114.62,-237 114.62,-256.25"/>
<text text-anchor="middle" x="95" y="-242.75" font-family="Helvetica,sans-Serif" font-size="10.00">utility</text>
</a>
</g>
</g>
<!-- dir_68267d1309a1af8e8297ef4c3efbcdba&#45;&gt;dir_0619a8f54b4fad7043a6de45be8fde0b -->
<g id="edge1" class="edge">
<title>dir_68267d1309a1af8e8297ef4c3efbcdba&#45;&gt;dir_0619a8f54b4fad7043a6de45be8fde0b</title>
<g id="a_edge1"><a xlink:href="dir_000004_000005.html" target="_top">
<path fill="none" stroke="#63b8ff" d="M95,-292.55C95,-285.95 95,-276.44 95,-267.86"/>
<polygon fill="#63b8ff" stroke="#63b8ff" points="98.5,-267.93 95,-257.93 91.5,-267.93 98.5,-267.93"/>
</a>
</g>
<g id="a_edge1&#45;headlabel"><a xlink:href="dir_000004_000005.html" target="_top" xlink:title="1">
<text text-anchor="middle" x="101.34" y="-266.14" font-family="Helvetica,sans-Serif" font-size="10.00" fill="#63b8ff">1</text>
</a>
</g>
</g>
<!-- dir_8681a82a265081a91d191144ff606af9&#45;&gt;dir_fdbdd9841f9a730f284bb666ff3d8cfe -->
<g id="edge5" class="edge">
<title>dir_8681a82a265081a91d191144ff606af9&#45;&gt;dir_fdbdd9841f9a730f284bb666ff3d8cfe</title>
<g id="a_edge5"><a xlink:href="dir_000000_000001.html" target="_top">
<path fill="none" stroke="#63b8ff" d="M145.87,-126.26C143.91,-113.33 138.98,-88.94 128,-71.25 121.16,-60.23 110.89,-50.17 101.61,-42.41"/>
<polygon fill="#63b8ff" stroke="#63b8ff" points="104.02,-39.85 94,-36.4 99.68,-45.35 104.02,-39.85"/>
</a>
</g>
<g id="a_edge5&#45;headlabel"><a xlink:href="dir_000000_000001.html" target="_top" xlink:title="1">
<text text-anchor="middle" x="107.41" y="-35.04" font-family="Helvetica,sans-Serif" font-size="10.00" fill="#63b8ff">1</text>
</a>
</g>
</g>
<!-- dir_8d31eb490be1a258106c1adacd8c239c -->
<g id="node7" class="node">
<title>dir_8d31eb490be1a258106c1adacd8c239c</title>
<g id="a_node7"><a xlink:href="dir_8d31eb490be1a258106c1adacd8c239c.html" target="_top" xlink:title="volume">
<polygon fill="#a2b4d6" stroke="#404040" points="103.75,-90.5 56.25,-90.5 56.25,-71.25 103.75,-71.25 103.75,-90.5"/>
<text text-anchor="middle" x="80" y="-77" font-family="Helvetica,sans-Serif" font-size="10.00">volume</text>
</a>
</g>
</g>
<!-- dir_8681a82a265081a91d191144ff606af9&#45;&gt;dir_8d31eb490be1a258106c1adacd8c239c -->
<g id="edge4" class="edge">
<title>dir_8681a82a265081a91d191144ff606af9&#45;&gt;dir_8d31eb490be1a258106c1adacd8c239c</title>
<g id="a_edge4"><a xlink:href="dir_000000_000006.html" target="_top">
<path fill="none" stroke="#63b8ff" d="M135.63,-126.09C125.95,-118.4 111.8,-107.15 100.19,-97.93"/>
<polygon fill="#63b8ff" stroke="#63b8ff" points="102.39,-95.2 92.38,-91.72 98.03,-100.68 102.39,-95.2"/>
</a>
</g>
<g id="a_edge4&#45;headlabel"><a xlink:href="dir_000000_000006.html" target="_top" xlink:title="2">
<text text-anchor="middle" x="105.78" y="-90.4" font-family="Helvetica,sans-Serif" font-size="10.00" fill="#63b8ff">2</text>
</a>
</g>
</g>
<!-- dir_20e2e5c646da9cb3f6786270068b9bb5 -->
<g id="node4" class="node">
<title>dir_20e2e5c646da9cb3f6786270068b9bb5</title>
<g id="a_node4"><a xlink:href="dir_20e2e5c646da9cb3f6786270068b9bb5.html" target="_top" xlink:title="projection">
<polygon fill="#a2b4d6" stroke="#404040" points="124,-201 66,-201 66,-181.75 124,-181.75 124,-201"/>
<text text-anchor="middle" x="95" y="-187.5" font-family="Helvetica,sans-Serif" font-size="10.00">projection</text>
</a>
</g>
</g>
<!-- dir_20e2e5c646da9cb3f6786270068b9bb5&#45;&gt;dir_8681a82a265081a91d191144ff606af9 -->
<g id="edge6" class="edge">
<title>dir_20e2e5c646da9cb3f6786270068b9bb5&#45;&gt;dir_8681a82a265081a91d191144ff606af9</title>
<g id="a_edge6"><a xlink:href="dir_000002_000000.html" target="_top">
<path fill="none" stroke="#63b8ff" d="M103.59,-181.58C110.84,-174.15 121.45,-163.29 130.37,-154.16"/>
<polygon fill="#63b8ff" stroke="#63b8ff" points="132.69,-156.79 137.17,-147.19 127.68,-151.9 132.69,-156.79"/>
</a>
</g>
<g id="a_edge6&#45;headlabel"><a xlink:href="dir_000002_000000.html" target="_top" xlink:title="1">
<text text-anchor="middle" x="133.26" y="-156.39" font-family="Helvetica,sans-Serif" font-size="10.00" fill="#63b8ff">1</text>
</a>
</g>
</g>
<!-- dir_20e2e5c646da9cb3f6786270068b9bb5&#45;&gt;dir_fdbdd9841f9a730f284bb666ff3d8cfe -->
<g id="edge8" class="edge">
<title>dir_20e2e5c646da9cb3f6786270068b9bb5&#45;&gt;dir_fdbdd9841f9a730f284bb666ff3d8cfe</title>
<g id="a_edge8"><a xlink:href="dir_000002_000001.html" target="_top">
<path fill="none" stroke="#63b8ff" d="M99.09,-181.47C107.74,-161.34 126.09,-110.98 113,-71.25 109.7,-61.23 103.18,-51.62 96.81,-43.9"/>
<polygon fill="#63b8ff" stroke="#63b8ff" points="99.61,-41.78 90.34,-36.65 94.39,-46.44 99.61,-41.78"/>
</a>
</g>
<g id="a_edge8&#45;headlabel"><a xlink:href="dir_000002_000001.html" target="_top" xlink:title="1">
<text text-anchor="middle" x="103.11" y="-37.56" font-family="Helvetica,sans-Serif" font-size="10.00" fill="#63b8ff">1</text>
</a>
</g>
</g>
<!-- dir_20e2e5c646da9cb3f6786270068b9bb5&#45;&gt;dir_8d31eb490be1a258106c1adacd8c239c -->
<g id="edge7" class="edge">
<title>dir_20e2e5c646da9cb3f6786270068b9bb5&#45;&gt;dir_8d31eb490be1a258106c1adacd8c239c</title>
<g id="a_edge7"><a xlink:href="dir_000002_000006.html" target="_top">
<path fill="none" stroke="#63b8ff" d="M93.77,-181.5C91.39,-164.25 86.08,-125.83 82.79,-102.06"/>
<polygon fill="#63b8ff" stroke="#63b8ff" points="86.29,-101.8 81.45,-92.38 79.35,-102.76 86.29,-101.8"/>
</a>
</g>
<g id="a_edge7&#45;headlabel"><a xlink:href="dir_000002_000006.html" target="_top" xlink:title="1">
<text text-anchor="middle" x="89.39" y="-99.6" font-family="Helvetica,sans-Serif" font-size="10.00" fill="#63b8ff">1</text>
</a>
</g>
</g>
<!-- dir_82cb5c3c972df2a38613cd00b42aa05b -->
<g id="node5" class="node">
<title>dir_82cb5c3c972df2a38613cd00b42aa05b</title>
<g id="a_node5"><a xlink:href="dir_82cb5c3c972df2a38613cd00b42aa05b.html" target="_top" xlink:title="slice">
<polygon fill="#a2b4d6" stroke="#404040" points="72.12,-145.75 35.88,-145.75 35.88,-126.5 72.12,-126.5 72.12,-145.75"/>
<text text-anchor="middle" x="54" y="-132.25" font-family="Helvetica,sans-Serif" font-size="10.00">slice</text>
</a>
</g>
</g>
<!-- dir_82cb5c3c972df2a38613cd00b42aa05b&#45;&gt;dir_fdbdd9841f9a730f284bb666ff3d8cfe -->
<g id="edge10" class="edge">
<title>dir_82cb5c3c972df2a38613cd00b42aa05b&#45;&gt;dir_fdbdd9841f9a730f284bb666ff3d8cfe</title>
<g id="a_edge10"><a xlink:href="dir_000003_000001.html" target="_top">
<path fill="none" stroke="#63b8ff" d="M50.72,-126.2C46.6,-113.62 40.78,-90.11 47,-71.25 50.3,-61.23 56.82,-51.62 63.19,-43.9"/>
<polygon fill="#63b8ff" stroke="#63b8ff" points="65.61,-46.44 69.66,-36.65 60.39,-41.78 65.61,-46.44"/>
</a>
</g>
<g id="a_edge10&#45;headlabel"><a xlink:href="dir_000003_000001.html" target="_top" xlink:title="1">
<text text-anchor="middle" x="66.35" y="-46.01" font-family="Helvetica,sans-Serif" font-size="10.00" fill="#63b8ff">1</text>
</a>
</g>
</g>
<!-- dir_82cb5c3c972df2a38613cd00b42aa05b&#45;&gt;dir_8d31eb490be1a258106c1adacd8c239c -->
<g id="edge9" class="edge">
<title>dir_82cb5c3c972df2a38613cd00b42aa05b&#45;&gt;dir_8d31eb490be1a258106c1adacd8c239c</title>
<g id="a_edge9"><a xlink:href="dir_000003_000006.html" target="_top">
<path fill="none" stroke="#63b8ff" d="M58.29,-126.33C61.62,-119.51 66.36,-109.81 70.56,-101.2"/>
<polygon fill="#63b8ff" stroke="#63b8ff" points="73.71,-102.74 74.95,-92.22 67.42,-99.67 73.71,-102.74"/>
</a>
</g>
<g id="a_edge9&#45;headlabel"><a xlink:href="dir_000003_000006.html" target="_top" xlink:title="1">
<text text-anchor="middle" x="75.35" y="-101.98" font-family="Helvetica,sans-Serif" font-size="10.00" fill="#63b8ff">1</text>
</a>
</g>
</g>
<!-- dir_0619a8f54b4fad7043a6de45be8fde0b&#45;&gt;dir_8681a82a265081a91d191144ff606af9 -->
<g id="edge13" class="edge">
<title>dir_0619a8f54b4fad7043a6de45be8fde0b&#45;&gt;dir_8681a82a265081a91d191144ff606af9</title>
<g id="a_edge13"><a xlink:href="dir_000005_000000.html" target="_top">
<path fill="none" stroke="#63b8ff" d="M104.97,-236.7C113.7,-228.34 126.03,-215.04 133,-201 139.81,-187.27 143.33,-170.26 145.14,-157.24"/>
<polygon fill="#63b8ff" stroke="#63b8ff" points="148.61,-157.67 146.26,-147.34 141.66,-156.88 148.61,-157.67"/>
</a>
</g>
<g id="a_edge13&#45;headlabel"><a xlink:href="dir_000005_000000.html" target="_top" xlink:title="1">
<text text-anchor="middle" x="151.2" y="-156.18" font-family="Helvetica,sans-Serif" font-size="10.00" fill="#63b8ff">1</text>
</a>
</g>
</g>
<!-- dir_0619a8f54b4fad7043a6de45be8fde0b&#45;&gt;dir_20e2e5c646da9cb3f6786270068b9bb5 -->
<g id="edge11" class="edge">
<title>dir_0619a8f54b4fad7043a6de45be8fde0b&#45;&gt;dir_20e2e5c646da9cb3f6786270068b9bb5</title>
<g id="a_edge11"><a xlink:href="dir_000005_000002.html" target="_top">
<path fill="none" stroke="#63b8ff" d="M95,-236.83C95,-230.32 95,-221.17 95,-212.87"/>
<polygon fill="#63b8ff" stroke="#63b8ff" points="98.5,-212.87 95,-202.87 91.5,-212.87 98.5,-212.87"/>
</a>
</g>
<g id="a_edge11&#45;headlabel"><a xlink:href="dir_000005_000002.html" target="_top" xlink:title="1">
<text text-anchor="middle" x="101.34" y="-211.08" font-family="Helvetica,sans-Serif" font-size="10.00" fill="#63b8ff">1</text>
</a>
</g>
</g>
<!-- dir_0619a8f54b4fad7043a6de45be8fde0b&#45;&gt;dir_82cb5c3c972df2a38613cd00b42aa05b -->
<g id="edge12" class="edge">
<title>dir_0619a8f54b4fad7043a6de45be8fde0b&#45;&gt;dir_82cb5c3c972df2a38613cd00b42aa05b</title>
<g id="a_edge12"><a xlink:href="dir_000005_000003.html" target="_top">
<path fill="none" stroke="#63b8ff" d="M84.09,-236.64C75.01,-228.42 62.68,-215.39 57,-201 51.56,-187.22 50.97,-170.44 51.66,-157.54"/>
<polygon fill="#63b8ff" stroke="#63b8ff" points="55.14,-157.95 52.51,-147.69 48.17,-157.35 55.14,-157.95"/>
</a>
</g>
<g id="a_edge12&#45;headlabel"><a xlink:href="dir_000005_000003.html" target="_top" xlink:title="1">
<text text-anchor="middle" x="57.79" y="-156.4" font-family="Helvetica,sans-Serif" font-size="10.00" fill="#63b8ff">1</text>
</a>
</g>
</g>
<!-- dir_8d31eb490be1a258106c1adacd8c239c&#45;&gt;dir_fdbdd9841f9a730f284bb666ff3d8cfe -->
<g id="edge14" class="edge">
<title>dir_8d31eb490be1a258106c1adacd8c239c&#45;&gt;dir_fdbdd9841f9a730f284bb666ff3d8cfe</title>
<g id="a_edge14"><a xlink:href="dir_000006_000001.html" target="_top">
<path fill="none" stroke="#63b8ff" d="M80,-71.08C80,-64.57 80,-55.42 80,-47.12"/>
<polygon fill="#63b8ff" stroke="#63b8ff" points="83.5,-47.12 80,-37.12 76.5,-47.12 83.5,-47.12"/>
</a>
</g>
<g id="a_edge14&#45;headlabel"><a xlink:href="dir_000006_000001.html" target="_top" xlink:title="1">
<text text-anchor="middle" x="86.34" y="-45.33" font-family="Helvetica,sans-Serif" font-size="10.00" fill="#63b8ff">1</text>
</a>
</g>
</g>
</g>
</svg>
