<?xml version="1.0" encoding="UTF-8" standalone="no"?>
<!DOCTYPE svg PUBLIC "-//W3C//DTD SVG 1.1//EN"
 "http://www.w3.org/Graphics/SVG/1.1/DTD/svg11.dtd">
<!-- Generated by graphviz version 10.0.1 (20240210.2158)
 -->
<!-- Title: /Users/st1123/CLionProjects/advanced&#45;programming&#45;group&#45;linear&#45;regression/src/filter/filter.cpp Pages: 1 -->
<svg width="545pt" height="282pt"
 viewBox="0.00 0.00 545.38 282.00" xmlns="http://www.w3.org/2000/svg" xmlns:xlink="http://www.w3.org/1999/xlink">
<g id="graph0" class="graph" transform="scale(1 1) rotate(0) translate(4 278)">
<title>/Users/st1123/CLionProjects/advanced&#45;programming&#45;group&#45;linear&#45;regression/src/filter/filter.cpp</title>
<!-- Node1 -->
<g id="Node000001" class="node">
<title>Node1</title>
<g id="a_Node000001"><a xlink:title="this file will contain all the filters (2D / 3D) that can be applied to the image and volume data">
<polygon fill="#999999" stroke="#666666" points="287.62,-274 140.38,-274 140.38,-221 287.62,-221 287.62,-274"/>
<text text-anchor="start" x="148.38" y="-260.5" font-family="Helvetica,sans-Serif" font-size="10.00">/Users/st1123/CLionProjects</text>
<text text-anchor="start" x="148.38" y="-249.25" font-family="Helvetica,sans-Serif" font-size="10.00">/advanced&#45;programming&#45;group</text>
<text text-anchor="start" x="148.38" y="-238" font-family="Helvetica,sans-Serif" font-size="10.00">&#45;linear&#45;regression/src/filter</text>
<text text-anchor="middle" x="214" y="-226.75" font-family="Helvetica,sans-Serif" font-size="10.00">/filter.cpp</text>
</a>
</g>
</g>
<!-- Node2 -->
<g id="Node000002" class="node">
<title>Node2</title>
<g id="a_Node000002"><a xlink:href="filter_8h.html" target="_top" xlink:title="this header file will contain all the filters (2D / 3D) that can be applied to the image and volume d...">
<polygon fill="white" stroke="#666666" points="353.12,-185 310.88,-185 310.88,-165.75 353.12,-165.75 353.12,-185"/>
<text text-anchor="middle" x="332" y="-171.5" font-family="Helvetica,sans-Serif" font-size="10.00">filter.h</text>
</a>
</g>
</g>
<!-- Node1&#45;&gt;Node2 -->
<g id="edge1_Node000001_Node000002" class="edge">
<title>Node1&#45;&gt;Node2</title>
<g id="a_edge1_Node000001_Node000002"><a xlink:title=" ">
<path fill="none" stroke="#63b8ff" d="M257.6,-220.59C274.3,-210.67 292.76,-199.69 307.12,-191.16"/>
<polygon fill="#63b8ff" stroke="#63b8ff" points="308.65,-194.32 315.46,-186.2 305.07,-188.3 308.65,-194.32"/>
</a>
</g>
</g>
<!-- Node15 -->
<g id="Node000015" class="node">
<title>Node15</title>
<g id="a_Node000015"><a xlink:href="volume_8h.html" target="_top" xlink:title="this header file contains the declarations of the Volume class that handles a collection of images as...">
<polygon fill="white" stroke="#666666" points="145.62,-129.75 46.38,-129.75 46.38,-110.5 145.62,-110.5 145.62,-129.75"/>
<text text-anchor="middle" x="96" y="-116.25" font-family="Helvetica,sans-Serif" font-size="10.00">../volume/volume.h</text>
</a>
</g>
</g>
<!-- Node1&#45;&gt;Node15 -->
<g id="edge24_Node000001_Node000015" class="edge">
<title>Node1&#45;&gt;Node15</title>
<g id="a_edge24_Node000001_Node000015"><a xlink:title=" ">
<path fill="none" stroke="#63b8ff" d="M189.55,-220.52C166.38,-195.91 132.24,-159.63 112.24,-138.38"/>
<polygon fill="#63b8ff" stroke="#63b8ff" points="114.82,-136.01 105.42,-131.13 109.72,-140.81 114.82,-136.01"/>
</a>
</g>
</g>
<!-- Node3 -->
<g id="Node000003" class="node">
<title>Node3</title>
<g id="a_Node000003"><a xlink:title=" ">
<polygon fill="#e0e0e0" stroke="#999999" points="537.38,-19.25 478.62,-19.25 478.62,0 537.38,0 537.38,-19.25"/>
<text text-anchor="middle" x="508" y="-5.75" font-family="Helvetica,sans-Serif" font-size="10.00">stdexcept</text>
</a>
</g>
</g>
<!-- Node2&#45;&gt;Node3 -->
<g id="edge2_Node000002_Node000003" class="edge">
<title>Node2&#45;&gt;Node3</title>
<g id="a_edge2_Node000002_Node000003"><a xlink:title=" ">
<path fill="none" stroke="#63b8ff" d="M353.48,-172.64C382.09,-169.22 432.61,-159.16 463,-129.75 490.85,-102.8 501.66,-56.89 505.71,-30.64"/>
<polygon fill="#63b8ff" stroke="#63b8ff" points="509.14,-31.37 507,-20.99 502.2,-30.44 509.14,-31.37"/>
</a>
</g>
</g>
<!-- Node4 -->
<g id="Node000004" class="node">
<title>Node4</title>
<g id="a_Node000004"><a xlink:title=" ">
<polygon fill="#e0e0e0" stroke="#999999" points="219.88,-129.75 164.12,-129.75 164.12,-110.5 219.88,-110.5 219.88,-129.75"/>
<text text-anchor="middle" x="192" y="-116.25" font-family="Helvetica,sans-Serif" font-size="10.00">algorithm</text>
</a>
</g>
</g>
<!-- Node2&#45;&gt;Node4 -->
<g id="edge3_Node000002_Node000004" class="edge">
<title>Node2&#45;&gt;Node4</title>
<g id="a_edge3_Node000002_Node000004"><a xlink:title=" ">
<path fill="none" stroke="#63b8ff" d="M310.43,-166.17C288.02,-157.65 252.6,-144.18 226.33,-134.18"/>
<polygon fill="#63b8ff" stroke="#63b8ff" points="227.71,-130.96 217.12,-130.68 225.22,-137.5 227.71,-130.96"/>
</a>
</g>
</g>
<!-- Node5 -->
<g id="Node000005" class="node">
<title>Node5</title>
<g id="a_Node000005"><a xlink:title=" ">
<polygon fill="#e0e0e0" stroke="#999999" points="457.5,-19.25 414.5,-19.25 414.5,0 457.5,0 457.5,-19.25"/>
<text text-anchor="middle" x="436" y="-5.75" font-family="Helvetica,sans-Serif" font-size="10.00">vector</text>
</a>
</g>
</g>
<!-- Node2&#45;&gt;Node5 -->
<g id="edge4_Node000002_Node000005" class="edge">
<title>Node2&#45;&gt;Node5</title>
<g id="a_edge4_Node000002_Node000005"><a xlink:title=" ">
<path fill="none" stroke="#63b8ff" d="M353.46,-172.86C380.09,-169.69 424.48,-159.92 445,-129.75 465.34,-99.85 453.79,-55.41 444.36,-30.11"/>
<polygon fill="#63b8ff" stroke="#63b8ff" points="447.71,-29.05 440.74,-21.07 441.21,-31.66 447.71,-29.05"/>
</a>
</g>
</g>
<!-- Node6 -->
<g id="Node000006" class="node">
<title>Node6</title>
<g id="a_Node000006"><a xlink:title=" ">
<polygon fill="#e0e0e0" stroke="#999999" points="289.62,-129.75 238.38,-129.75 238.38,-110.5 289.62,-110.5 289.62,-129.75"/>
<text text-anchor="middle" x="264" y="-116.25" font-family="Helvetica,sans-Serif" font-size="10.00">memory</text>
</a>
</g>
</g>
<!-- Node2&#45;&gt;Node6 -->
<g id="edge5_Node000002_Node000006" class="edge">
<title>Node2&#45;&gt;Node6</title>
<g id="a_edge5_Node000002_Node000006"><a xlink:title=" ">
<path fill="none" stroke="#63b8ff" d="M320.46,-165.34C310.54,-157.57 295.99,-146.17 284.14,-136.9"/>
<polygon fill="#63b8ff" stroke="#63b8ff" points="286.59,-134.37 276.56,-130.96 282.27,-139.88 286.59,-134.37"/>
</a>
</g>
</g>
<!-- Node7 -->
<g id="Node000007" class="node">
<title>Node7</title>
<g id="a_Node000007"><a xlink:title=" ">
<polygon fill="#e0e0e0" stroke="#999999" points="356.12,-129.75 307.88,-129.75 307.88,-110.5 356.12,-110.5 356.12,-129.75"/>
<text text-anchor="middle" x="332" y="-116.25" font-family="Helvetica,sans-Serif" font-size="10.00">random</text>
</a>
</g>
</g>
<!-- Node2&#45;&gt;Node7 -->
<g id="edge6_Node000002_Node000007" class="edge">
<title>Node2&#45;&gt;Node7</title>
<g id="a_edge6_Node000002_Node000007"><a xlink:title=" ">
<path fill="none" stroke="#63b8ff" d="M332,-165.58C332,-159.07 332,-149.92 332,-141.62"/>
<polygon fill="#63b8ff" stroke="#63b8ff" points="335.5,-141.62 332,-131.62 328.5,-141.62 335.5,-141.62"/>
</a>
</g>
</g>
<!-- Node8 -->
<g id="Node000008" class="node">
<title>Node8</title>
<g id="a_Node000008"><a xlink:title=" ">
<polygon fill="#e0e0e0" stroke="#999999" points="419.62,-129.75 374.38,-129.75 374.38,-110.5 419.62,-110.5 419.62,-129.75"/>
<text text-anchor="middle" x="397" y="-116.25" font-family="Helvetica,sans-Serif" font-size="10.00">cstring</text>
</a>
</g>
</g>
<!-- Node2&#45;&gt;Node8 -->
<g id="edge7_Node000002_Node000008" class="edge">
<title>Node2&#45;&gt;Node8</title>
<g id="a_edge7_Node000002_Node000008"><a xlink:title=" ">
<path fill="none" stroke="#63b8ff" d="M343.03,-165.34C352.42,-157.65 366.15,-146.4 377.41,-137.18"/>
<polygon fill="#63b8ff" stroke="#63b8ff" points="379.45,-140.03 384.97,-130.98 375.01,-134.61 379.45,-140.03"/>
</a>
</g>
</g>
<!-- Node9 -->
<g id="Node000009" class="node">
<title>Node9</title>
<g id="a_Node000009"><a xlink:href="_image_8h.html" target="_top" xlink:title="this header file contains all required functions and definitions for the Image class,...">
<polygon fill="white" stroke="#666666" points="359.12,-74.5 268.88,-74.5 268.88,-55.25 359.12,-55.25 359.12,-74.5"/>
<text text-anchor="middle" x="314" y="-61" font-family="Helvetica,sans-Serif" font-size="10.00">../Image/Image.h</text>
</a>
</g>
</g>
<!-- Node2&#45;&gt;Node9 -->
<g id="edge8_Node000002_Node000009" class="edge">
<title>Node2&#45;&gt;Node9</title>
<g id="a_edge8_Node000002_Node000009"><a xlink:title=" ">
<path fill="none" stroke="#63b8ff" d="M353.43,-169.87C388.06,-161.57 450.41,-141.78 429,-110.5 415.7,-91.07 392.62,-80.1 370.61,-73.91"/>
<polygon fill="#63b8ff" stroke="#63b8ff" points="371.61,-70.55 361.06,-71.53 369.92,-77.34 371.61,-70.55"/>
</a>
</g>
</g>
<!-- Node2&#45;&gt;Node15 -->
<g id="edge16_Node000002_Node000015" class="edge">
<title>Node2&#45;&gt;Node15</title>
<g id="a_edge16_Node000002_Node000015"><a xlink:title=" ">
<path fill="none" stroke="#63b8ff" d="M310.64,-169.56C274.04,-161.3 198.35,-144.22 147.36,-132.71"/>
<polygon fill="#63b8ff" stroke="#63b8ff" points="148.24,-129.32 137.72,-130.54 146.7,-136.15 148.24,-129.32"/>
</a>
</g>
</g>
<!-- Node9&#45;&gt;Node3 -->
<g id="edge12_Node000009_Node000003" class="edge">
<title>Node9&#45;&gt;Node3</title>
<g id="a_edge12_Node000009_Node000003"><a xlink:title=" ">
<path fill="none" stroke="#63b8ff" d="M346.91,-54.84C380.17,-45.71 431.64,-31.59 467.41,-21.77"/>
<polygon fill="#63b8ff" stroke="#63b8ff" points="468.26,-25.16 476.97,-19.14 466.4,-18.41 468.26,-25.16"/>
</a>
</g>
</g>
<!-- Node9&#45;&gt;Node5 -->
<g id="edge11_Node000009_Node000005" class="edge">
<title>Node9&#45;&gt;Node5</title>
<g id="a_edge11_Node000009_Node000005"><a xlink:title=" ">
<path fill="none" stroke="#63b8ff" d="M334.7,-54.84C353.89,-46.47 382.71,-33.88 404.72,-24.28"/>
<polygon fill="#63b8ff" stroke="#63b8ff" points="406.05,-27.52 413.82,-20.31 403.25,-21.1 406.05,-27.52"/>
</a>
</g>
</g>
<!-- Node10 -->
<g id="Node000010" class="node">
<title>Node10</title>
<g id="a_Node000010"><a xlink:title=" ">
<polygon fill="#e0e0e0" stroke="#999999" points="329.75,-19.25 276.25,-19.25 276.25,0 329.75,0 329.75,-19.25"/>
<text text-anchor="middle" x="303" y="-5.75" font-family="Helvetica,sans-Serif" font-size="10.00">iostream</text>
</a>
</g>
</g>
<!-- Node9&#45;&gt;Node10 -->
<g id="edge9_Node000009_Node000010" class="edge">
<title>Node9&#45;&gt;Node10</title>
<g id="a_edge9_Node000009_Node000010"><a xlink:title=" ">
<path fill="none" stroke="#63b8ff" d="M312.18,-55.08C310.82,-48.49 308.9,-39.21 307.17,-30.82"/>
<polygon fill="#63b8ff" stroke="#63b8ff" points="310.61,-30.18 305.16,-21.09 303.76,-31.59 310.61,-30.18"/>
</a>
</g>
</g>
<!-- Node11 -->
<g id="Node000011" class="node">
<title>Node11</title>
<g id="a_Node000011"><a xlink:title=" ">
<polygon fill="#e0e0e0" stroke="#999999" points="40,-19.25 0,-19.25 0,0 40,0 40,-19.25"/>
<text text-anchor="middle" x="20" y="-5.75" font-family="Helvetica,sans-Serif" font-size="10.00">string</text>
</a>
</g>
</g>
<!-- Node9&#45;&gt;Node11 -->
<g id="edge10_Node000009_Node000011" class="edge">
<title>Node9&#45;&gt;Node11</title>
<g id="a_edge10_Node000009_Node000011"><a xlink:title=" ">
<path fill="none" stroke="#63b8ff" d="M268.44,-56.51C205.06,-46.23 94,-28.05 51.32,-19.39"/>
<polygon fill="#63b8ff" stroke="#63b8ff" points="52.19,-15.99 41.68,-17.3 50.71,-22.84 52.19,-15.99"/>
</a>
</g>
</g>
<!-- Node12 -->
<g id="Node000012" class="node">
<title>Node12</title>
<g id="a_Node000012"><a xlink:title=" ">
<polygon fill="#e0e0e0" stroke="#999999" points="396.12,-19.25 347.88,-19.25 347.88,0 396.12,0 396.12,-19.25"/>
<text text-anchor="middle" x="372" y="-5.75" font-family="Helvetica,sans-Serif" font-size="10.00">cassert</text>
</a>
</g>
</g>
<!-- Node9&#45;&gt;Node12 -->
<g id="edge13_Node000009_Node000012" class="edge">
<title>Node9&#45;&gt;Node12</title>
<g id="a_edge13_Node000009_Node000012"><a xlink:title=" ">
<path fill="none" stroke="#63b8ff" d="M323.84,-54.84C332.05,-47.3 343.98,-36.35 353.91,-27.23"/>
<polygon fill="#63b8ff" stroke="#63b8ff" points="356.19,-29.89 361.19,-20.55 351.46,-24.73 356.19,-29.89"/>
</a>
</g>
</g>
<!-- Node13 -->
<g id="Node000013" class="node">
<title>Node13</title>
<g id="a_Node000013"><a xlink:title=" ">
<polygon fill="#e0e0e0" stroke="#999999" points="136.12,-19.25 57.88,-19.25 57.88,0 136.12,0 136.12,-19.25"/>
<text text-anchor="middle" x="97" y="-5.75" font-family="Helvetica,sans-Serif" font-size="10.00">../stb_image.h</text>
</a>
</g>
</g>
<!-- Node9&#45;&gt;Node13 -->
<g id="edge14_Node000009_Node000013" class="edge">
<title>Node9&#45;&gt;Node13</title>
<g id="a_edge14_Node000009_Node000013"><a xlink:title=" ">
<path fill="none" stroke="#63b8ff" d="M277.19,-54.84C240.79,-45.91 184.92,-32.2 145.04,-22.41"/>
<polygon fill="#63b8ff" stroke="#63b8ff" points="146.01,-19.05 135.46,-20.06 144.34,-25.85 146.01,-19.05"/>
</a>
</g>
</g>
<!-- Node14 -->
<g id="Node000014" class="node">
<title>Node14</title>
<g id="a_Node000014"><a xlink:title=" ">
<polygon fill="#e0e0e0" stroke="#999999" points="258.25,-19.25 153.75,-19.25 153.75,0 258.25,0 258.25,-19.25"/>
<text text-anchor="middle" x="206" y="-5.75" font-family="Helvetica,sans-Serif" font-size="10.00">../stb_image_write.h</text>
</a>
</g>
</g>
<!-- Node9&#45;&gt;Node14 -->
<g id="edge15_Node000009_Node000014" class="edge">
<title>Node9&#45;&gt;Node14</title>
<g id="a_edge15_Node000009_Node000014"><a xlink:title=" ">
<path fill="none" stroke="#63b8ff" d="M295.68,-54.84C278.92,-46.58 253.87,-34.23 234.5,-24.68"/>
<polygon fill="#63b8ff" stroke="#63b8ff" points="236.28,-21.65 225.77,-20.37 233.19,-27.93 236.28,-21.65"/>
</a>
</g>
</g>
<!-- Node15&#45;&gt;Node5 -->
<g id="edge20_Node000015_Node000005" class="edge">
<title>Node15&#45;&gt;Node5</title>
<g id="a_edge20_Node000015_Node000005"><a xlink:title=" ">
<path fill="none" stroke="#63b8ff" d="M146.1,-111.68C221.93,-100.29 358.13,-79.37 368,-74.5 390.16,-63.56 410.06,-42.97 422.52,-28.12"/>
<polygon fill="#63b8ff" stroke="#63b8ff" points="425.09,-30.51 428.64,-20.53 419.64,-26.12 425.09,-30.51"/>
</a>
</g>
</g>
<!-- Node15&#45;&gt;Node9 -->
<g id="edge19_Node000015_Node000009" class="edge">
<title>Node15&#45;&gt;Node9</title>
<g id="a_edge19_Node000015_Node000009"><a xlink:title=" ">
<path fill="none" stroke="#63b8ff" d="M132.98,-110.09C169.54,-101.16 225.68,-87.45 265.74,-77.66"/>
<polygon fill="#63b8ff" stroke="#63b8ff" points="266.48,-81.08 275.37,-75.31 264.82,-74.28 266.48,-81.08"/>
</a>
</g>
</g>
<!-- Node15&#45;&gt;Node10 -->
<g id="edge23_Node000015_Node000010" class="edge">
<title>Node15&#45;&gt;Node10</title>
<g id="a_edge23_Node000015_Node000010"><a xlink:title=" ">
<path fill="none" stroke="#63b8ff" d="M105.8,-110.22C120.97,-96.8 151.48,-71.28 181,-55.25 207.81,-40.69 240.35,-29.06 265.08,-21.32"/>
<polygon fill="#63b8ff" stroke="#63b8ff" points="265.85,-24.75 274.4,-18.49 263.82,-18.05 265.85,-24.75"/>
</a>
</g>
</g>
<!-- Node15&#45;&gt;Node11 -->
<g id="edge21_Node000015_Node000011" class="edge">
<title>Node15&#45;&gt;Node11</title>
<g id="a_edge21_Node000015_Node000011"><a xlink:title=" ">
<path fill="none" stroke="#63b8ff" d="M89.78,-110.25C77.37,-92.52 49.29,-52.44 32.79,-28.88"/>
<polygon fill="#63b8ff" stroke="#63b8ff" points="35.78,-27.05 27.17,-20.87 30.04,-31.06 35.78,-27.05"/>
</a>
</g>
</g>
<!-- Node15&#45;&gt;Node13 -->
<g id="edge17_Node000015_Node000013" class="edge">
<title>Node15&#45;&gt;Node13</title>
<g id="a_edge17_Node000015_Node000013"><a xlink:title=" ">
<path fill="none" stroke="#63b8ff" d="M96.08,-110.25C96.24,-93 96.59,-54.58 96.81,-30.81"/>
<polygon fill="#63b8ff" stroke="#63b8ff" points="100.31,-31.17 96.9,-21.14 93.31,-31.11 100.31,-31.17"/>
</a>
</g>
</g>
<!-- Node15&#45;&gt;Node14 -->
<g id="edge18_Node000015_Node000014" class="edge">
<title>Node15&#45;&gt;Node14</title>
<g id="a_edge18_Node000015_Node000014"><a xlink:title=" ">
<path fill="none" stroke="#63b8ff" d="M101.98,-110.29C110.92,-97.41 128.7,-73.07 147,-55.25 157.96,-44.58 171.49,-34.17 182.83,-26.1"/>
<polygon fill="#63b8ff" stroke="#63b8ff" points="184.65,-29.1 190.87,-20.52 180.66,-23.35 184.65,-29.1"/>
</a>
</g>
</g>
<!-- Node16 -->
<g id="Node000016" class="node">
<title>Node16</title>
<g id="a_Node000016"><a xlink:title=" ">
<polygon fill="#e0e0e0" stroke="#999999" points="250.5,-74.5 189.5,-74.5 189.5,-55.25 250.5,-55.25 250.5,-74.5"/>
<text text-anchor="middle" x="220" y="-61" font-family="Helvetica,sans-Serif" font-size="10.00">filesystem</text>
</a>
</g>
</g>
<!-- Node15&#45;&gt;Node16 -->
<g id="edge22_Node000015_Node000016" class="edge">
<title>Node15&#45;&gt;Node16</title>
<g id="a_edge22_Node000015_Node000016"><a xlink:title=" ">
<path fill="none" stroke="#63b8ff" d="M117.03,-110.09C136.63,-101.68 166.11,-89.02 188.51,-79.4"/>
<polygon fill="#63b8ff" stroke="#63b8ff" points="189.66,-82.71 197.47,-75.55 186.9,-76.28 189.66,-82.71"/>
</a>
</g>
</g>
</g>
</svg>
