<?xml version="1.0" encoding="UTF-8" standalone="no"?>
<!DOCTYPE svg PUBLIC "-//W3C//DTD SVG 1.1//EN"
 "http://www.w3.org/Graphics/SVG/1.1/DTD/svg11.dtd">
<!-- Generated by graphviz version 10.0.1 (20240210.2158)
 -->
<!-- Title: /Users/st1123/CLionProjects/advanced&#45;programming&#45;group&#45;linear&#45;regression/src/filter/filter.h Pages: 1 -->
<svg width="694pt" height="239pt"
 viewBox="0.00 0.00 694.25 239.00" xmlns="http://www.w3.org/2000/svg" xmlns:xlink="http://www.w3.org/1999/xlink">
<g id="graph0" class="graph" transform="scale(1 1) rotate(0) translate(4 235)">
<title>/Users/st1123/CLionProjects/advanced&#45;programming&#45;group&#45;linear&#45;regression/src/filter/filter.h</title>
<!-- Node1 -->
<g id="Node000001" class="node">
<title>Node1</title>
<g id="a_Node000001"><a xlink:title="this header file will contain all the filters (2D / 3D) that can be applied to the image and volume d...">
<polygon fill="#999999" stroke="#666666" points="353.25,-231 206,-231 206,-178 353.25,-178 353.25,-231"/>
<text text-anchor="start" x="214" y="-217.5" font-family="Helvetica,sans-Serif" font-size="10.00">/Users/st1123/CLionProjects</text>
<text text-anchor="start" x="214" y="-206.25" font-family="Helvetica,sans-Serif" font-size="10.00">/advanced&#45;programming&#45;group</text>
<text text-anchor="start" x="214" y="-195" font-family="Helvetica,sans-Serif" font-size="10.00">&#45;linear&#45;regression/src/filter</text>
<text text-anchor="middle" x="279.62" y="-183.75" font-family="Helvetica,sans-Serif" font-size="10.00">/filter.h</text>
</a>
</g>
</g>
<!-- Node2 -->
<g id="Node000002" class="node">
<title>Node2</title>
<g id="a_Node000002"><a xlink:href="filter_8cpp.html" target="_top" xlink:title="this file will contain all the filters (2D / 3D) that can be applied to the image and volume data">
<polygon fill="white" stroke="#666666" points="147.25,-142 0,-142 0,-89 147.25,-89 147.25,-142"/>
<text text-anchor="start" x="8" y="-128.5" font-family="Helvetica,sans-Serif" font-size="10.00">/Users/st1123/CLionProjects</text>
<text text-anchor="start" x="8" y="-117.25" font-family="Helvetica,sans-Serif" font-size="10.00">/advanced&#45;programming&#45;group</text>
<text text-anchor="start" x="8" y="-106" font-family="Helvetica,sans-Serif" font-size="10.00">&#45;linear&#45;regression/src/filter</text>
<text text-anchor="middle" x="73.62" y="-94.75" font-family="Helvetica,sans-Serif" font-size="10.00">/filter.cpp</text>
</a>
</g>
</g>
<!-- Node1&#45;&gt;Node2 -->
<g id="edge1_Node000001_Node000002" class="edge">
<title>Node1&#45;&gt;Node2</title>
<g id="a_edge1_Node000001_Node000002"><a xlink:title=" ">
<path fill="none" stroke="#63b8ff" d="M207.72,-173.13C183.95,-163.09 157.73,-152.02 134.84,-142.35"/>
<polygon fill="#63b8ff" stroke="#63b8ff" points="206.13,-176.26 216.7,-176.93 208.85,-169.81 206.13,-176.26"/>
</a>
</g>
</g>
<!-- Node3 -->
<g id="Node000003" class="node">
<title>Node3</title>
<g id="a_Node000003"><a xlink:href="main_8cpp.html" target="_top" xlink:title=" ">
<polygon fill="white" stroke="#666666" points="386.38,-47.38 236.88,-47.38 236.88,-5.62 386.38,-5.62 386.38,-47.38"/>
<text text-anchor="start" x="244.88" y="-33.88" font-family="Helvetica,sans-Serif" font-size="10.00">/Users/st1123/CLionProjects</text>
<text text-anchor="start" x="244.88" y="-22.62" font-family="Helvetica,sans-Serif" font-size="10.00">/advanced&#45;programming&#45;group</text>
<text text-anchor="middle" x="311.62" y="-11.38" font-family="Helvetica,sans-Serif" font-size="10.00">&#45;linear&#45;regression/src/main.cpp</text>
</a>
</g>
</g>
<!-- Node1&#45;&gt;Node3 -->
<g id="edge2_Node000001_Node000003" class="edge">
<title>Node1&#45;&gt;Node3</title>
<g id="a_edge2_Node000001_Node000003"><a xlink:title=" ">
<path fill="none" stroke="#63b8ff" d="M218.61,-170.61C208.93,-162.58 200.27,-153.05 194.62,-142 183.91,-121.02 182.45,-109.16 194.62,-89 205.9,-70.34 224.92,-57.06 244.38,-47.74"/>
<polygon fill="#63b8ff" stroke="#63b8ff" points="216.44,-173.36 226.51,-176.64 220.69,-167.79 216.44,-173.36"/>
</a>
</g>
</g>
<!-- Node4 -->
<g id="Node000004" class="node">
<title>Node4</title>
<g id="a_Node000004"><a xlink:href="projection_8cpp.html" target="_top" xlink:title="this file contains the implementation of all the projections methods that can be applied to a volume.">
<polygon fill="white" stroke="#666666" points="355.5,-142 203.75,-142 203.75,-89 355.5,-89 355.5,-142"/>
<text text-anchor="start" x="211.75" y="-128.5" font-family="Helvetica,sans-Serif" font-size="10.00">/Users/st1123/CLionProjects</text>
<text text-anchor="start" x="211.75" y="-117.25" font-family="Helvetica,sans-Serif" font-size="10.00">/advanced&#45;programming&#45;group</text>
<text text-anchor="start" x="211.75" y="-106" font-family="Helvetica,sans-Serif" font-size="10.00">&#45;linear&#45;regression/src/projection</text>
<text text-anchor="middle" x="279.62" y="-94.75" font-family="Helvetica,sans-Serif" font-size="10.00">/projection.cpp</text>
</a>
</g>
</g>
<!-- Node1&#45;&gt;Node4 -->
<g id="edge3_Node000001_Node000004" class="edge">
<title>Node1&#45;&gt;Node4</title>
<g id="a_edge3_Node000001_Node000004"><a xlink:title=" ">
<path fill="none" stroke="#63b8ff" d="M279.62,-166.61C279.62,-158.41 279.62,-149.89 279.62,-142.25"/>
<polygon fill="#63b8ff" stroke="#63b8ff" points="276.13,-166.35 279.63,-176.35 283.13,-166.35 276.13,-166.35"/>
</a>
</g>
</g>
<!-- Node5 -->
<g id="Node000005" class="node">
<title>Node5</title>
<g id="a_Node000005"><a xlink:href="test_8cpp.html" target="_top" xlink:title=" ">
<polygon fill="white" stroke="#666666" points="521.25,-136.38 374,-136.38 374,-94.62 521.25,-94.62 521.25,-136.38"/>
<text text-anchor="start" x="382" y="-122.88" font-family="Helvetica,sans-Serif" font-size="10.00">/Users/st1123/CLionProjects</text>
<text text-anchor="start" x="382" y="-111.62" font-family="Helvetica,sans-Serif" font-size="10.00">/advanced&#45;programming&#45;group</text>
<text text-anchor="middle" x="447.62" y="-100.38" font-family="Helvetica,sans-Serif" font-size="10.00">&#45;linear&#45;regression/src/test.cpp</text>
</a>
</g>
</g>
<!-- Node1&#45;&gt;Node5 -->
<g id="edge4_Node000001_Node000005" class="edge">
<title>Node1&#45;&gt;Node5</title>
<g id="a_edge4_Node000001_Node000005"><a xlink:title=" ">
<path fill="none" stroke="#63b8ff" d="M339.56,-172.46C362.49,-160.59 388.04,-147.36 408.53,-136.75"/>
<polygon fill="#63b8ff" stroke="#63b8ff" points="338.19,-169.23 330.92,-176.94 341.41,-175.45 338.19,-169.23"/>
</a>
</g>
</g>
<!-- Node6 -->
<g id="Node000006" class="node">
<title>Node6</title>
<g id="a_Node000006"><a xlink:href="utility_8h.html" target="_top" xlink:title="this header file contains the declarations of the Utility class that is used to help build the UI int...">
<polygon fill="white" stroke="#666666" points="686.25,-142 539,-142 539,-89 686.25,-89 686.25,-142"/>
<text text-anchor="start" x="547" y="-128.5" font-family="Helvetica,sans-Serif" font-size="10.00">/Users/st1123/CLionProjects</text>
<text text-anchor="start" x="547" y="-117.25" font-family="Helvetica,sans-Serif" font-size="10.00">/advanced&#45;programming&#45;group</text>
<text text-anchor="start" x="547" y="-106" font-family="Helvetica,sans-Serif" font-size="10.00">&#45;linear&#45;regression/src/utility</text>
<text text-anchor="middle" x="612.62" y="-94.75" font-family="Helvetica,sans-Serif" font-size="10.00">/utility.h</text>
</a>
</g>
</g>
<!-- Node1&#45;&gt;Node6 -->
<g id="edge5_Node000001_Node000006" class="edge">
<title>Node1&#45;&gt;Node6</title>
<g id="a_edge5_Node000001_Node000006"><a xlink:title=" ">
<path fill="none" stroke="#63b8ff" d="M364.66,-184.03C413.42,-172.53 475.68,-157.26 530.62,-142 533.35,-141.24 536.13,-140.46 538.93,-139.65"/>
<polygon fill="#63b8ff" stroke="#63b8ff" points="363.93,-180.61 354.99,-186.3 365.53,-187.42 363.93,-180.61"/>
</a>
</g>
</g>
<!-- Node6&#45;&gt;Node3 -->
<g id="edge6_Node000006_Node000003" class="edge">
<title>Node6&#45;&gt;Node3</title>
<g id="a_edge6_Node000006_Node000003"><a xlink:title=" ">
<path fill="none" stroke="#63b8ff" d="M528.05,-88.26C475.69,-72.85 425.74,-58.83 386.02,-47.84"/>
<polygon fill="#63b8ff" stroke="#63b8ff" points="526.86,-91.56 537.45,-91.04 528.85,-84.85 526.86,-91.56"/>
</a>
</g>
</g>
<!-- Node7 -->
<g id="Node000007" class="node">
<title>Node7</title>
<g id="a_Node000007"><a xlink:href="utility_8cpp.html" target="_top" xlink:title=" ">
<polygon fill="white" stroke="#666666" points="686.25,-53 539,-53 539,0 686.25,0 686.25,-53"/>
<text text-anchor="start" x="547" y="-39.5" font-family="Helvetica,sans-Serif" font-size="10.00">/Users/st1123/CLionProjects</text>
<text text-anchor="start" x="547" y="-28.25" font-family="Helvetica,sans-Serif" font-size="10.00">/advanced&#45;programming&#45;group</text>
<text text-anchor="start" x="547" y="-17" font-family="Helvetica,sans-Serif" font-size="10.00">&#45;linear&#45;regression/src/utility</text>
<text text-anchor="middle" x="612.62" y="-5.75" font-family="Helvetica,sans-Serif" font-size="10.00">/utility.cpp</text>
</a>
</g>
</g>
<!-- Node6&#45;&gt;Node7 -->
<g id="edge7_Node000006_Node000007" class="edge">
<title>Node6&#45;&gt;Node7</title>
<g id="a_edge7_Node000006_Node000007"><a xlink:title=" ">
<path fill="none" stroke="#63b8ff" d="M612.62,-77.61C612.62,-69.41 612.62,-60.89 612.62,-53.25"/>
<polygon fill="#63b8ff" stroke="#63b8ff" points="609.13,-77.35 612.63,-87.35 616.13,-77.35 609.13,-77.35"/>
</a>
</g>
</g>
</g>
</svg>
