<?xml version="1.0" encoding="UTF-8" standalone="no"?>
<!DOCTYPE svg PUBLIC "-//W3C//DTD SVG 1.1//EN"
 "http://www.w3.org/Graphics/SVG/1.1/DTD/svg11.dtd">
<!-- Generated by graphviz version 10.0.1 (20240210.2158)
 -->
<!-- Title: /Users/st1123/CLionProjects/advanced&#45;programming&#45;group&#45;linear&#45;regression/src/filter/filter.cpp Pages: 1 -->
<svg width="609pt" height="282pt"
 viewBox="0.00 0.00 609.38 282.00" xmlns="http://www.w3.org/2000/svg" xmlns:xlink="http://www.w3.org/1999/xlink">
<g id="graph0" class="graph" transform="scale(1 1) rotate(0) translate(4 278)">
<title>/Users/st1123/CLionProjects/advanced&#45;programming&#45;group&#45;linear&#45;regression/src/filter/filter.cpp</title>
<!-- Node1 -->
<g id="Node000001" class="node">
<title>Node1</title>
<g id="a_Node000001"><a xlink:title="this file will contain all the filters (2D / 3D) that can be applied to the image and volume data">
<polygon fill="#999999" stroke="#666666" points="327.62,-274 180.38,-274 180.38,-221 327.62,-221 327.62,-274"/>
<text text-anchor="start" x="188.38" y="-260.5" font-family="Helvetica,sans-Serif" font-size="10.00">/Users/st1123/CLionProjects</text>
<text text-anchor="start" x="188.38" y="-249.25" font-family="Helvetica,sans-Serif" font-size="10.00">/advanced&#45;programming&#45;group</text>
<text text-anchor="start" x="188.38" y="-238" font-family="Helvetica,sans-Serif" font-size="10.00">&#45;linear&#45;regression/src/filter</text>
<text text-anchor="middle" x="254" y="-226.75" font-family="Helvetica,sans-Serif" font-size="10.00">/filter.cpp</text>
</a>
</g>
</g>
<!-- Node2 -->
<g id="Node000002" class="node">
<title>Node2</title>
<g id="a_Node000002"><a xlink:href="filter_8h.html" target="_top" xlink:title="this header file will contain all the filters (2D / 3D) that can be applied to the image and volume d...">
<polygon fill="white" stroke="#666666" points="393.12,-185 350.88,-185 350.88,-165.75 393.12,-165.75 393.12,-185"/>
<text text-anchor="middle" x="372" y="-171.5" font-family="Helvetica,sans-Serif" font-size="10.00">filter.h</text>
</a>
</g>
</g>
<!-- Node1&#45;&gt;Node2 -->
<g id="edge1_Node000001_Node000002" class="edge">
<title>Node1&#45;&gt;Node2</title>
<g id="a_edge1_Node000001_Node000002"><a xlink:title=" ">
<path fill="none" stroke="#63b8ff" d="M297.6,-220.59C314.3,-210.67 332.76,-199.69 347.12,-191.16"/>
<polygon fill="#63b8ff" stroke="#63b8ff" points="348.65,-194.32 355.46,-186.2 345.07,-188.3 348.65,-194.32"/>
</a>
</g>
</g>
<!-- Node16 -->
<g id="Node000016" class="node">
<title>Node16</title>
<g id="a_Node000016"><a xlink:href="volume_8h.html" target="_top" xlink:title="this header file contains the declarations of the Volume class that handles a collection of images as...">
<polygon fill="white" stroke="#666666" points="153.62,-129.75 54.38,-129.75 54.38,-110.5 153.62,-110.5 153.62,-129.75"/>
<text text-anchor="middle" x="104" y="-116.25" font-family="Helvetica,sans-Serif" font-size="10.00">../volume/volume.h</text>
</a>
</g>
</g>
<!-- Node1&#45;&gt;Node16 -->
<g id="edge25_Node000001_Node000016" class="edge">
<title>Node1&#45;&gt;Node16</title>
<g id="a_edge25_Node000001_Node000016"><a xlink:title=" ">
<path fill="none" stroke="#63b8ff" d="M222.92,-220.52C192.94,-195.46 148.5,-158.32 123.3,-137.26"/>
<polygon fill="#63b8ff" stroke="#63b8ff" points="125.73,-134.73 115.81,-131 121.24,-140.1 125.73,-134.73"/>
</a>
</g>
</g>
<!-- Node3 -->
<g id="Node000003" class="node">
<title>Node3</title>
<g id="a_Node000003"><a xlink:title=" ">
<polygon fill="#e0e0e0" stroke="#999999" points="601.38,-19.25 542.62,-19.25 542.62,0 601.38,0 601.38,-19.25"/>
<text text-anchor="middle" x="572" y="-5.75" font-family="Helvetica,sans-Serif" font-size="10.00">stdexcept</text>
</a>
</g>
</g>
<!-- Node2&#45;&gt;Node3 -->
<g id="edge2_Node000002_Node000003" class="edge">
<title>Node2&#45;&gt;Node3</title>
<g id="a_edge2_Node000002_Node000003"><a xlink:title=" ">
<path fill="none" stroke="#63b8ff" d="M393.29,-172.64C438.94,-168.45 543.91,-156.11 566,-129.75 589.2,-102.06 583.57,-56.79 577.62,-30.76"/>
<polygon fill="#63b8ff" stroke="#63b8ff" points="581.04,-29.98 575.18,-21.15 574.25,-31.71 581.04,-29.98"/>
</a>
</g>
</g>
<!-- Node4 -->
<g id="Node000004" class="node">
<title>Node4</title>
<g id="a_Node000004"><a xlink:title=" ">
<polygon fill="#e0e0e0" stroke="#999999" points="227.88,-129.75 172.12,-129.75 172.12,-110.5 227.88,-110.5 227.88,-129.75"/>
<text text-anchor="middle" x="200" y="-116.25" font-family="Helvetica,sans-Serif" font-size="10.00">algorithm</text>
</a>
</g>
</g>
<!-- Node2&#45;&gt;Node4 -->
<g id="edge3_Node000002_Node000004" class="edge">
<title>Node2&#45;&gt;Node4</title>
<g id="a_edge3_Node000002_Node000004"><a xlink:title=" ">
<path fill="none" stroke="#63b8ff" d="M350.56,-167.74C322.69,-159.11 273.5,-143.88 238.95,-133.18"/>
<polygon fill="#63b8ff" stroke="#63b8ff" points="240.32,-129.94 229.73,-130.33 238.25,-136.63 240.32,-129.94"/>
</a>
</g>
</g>
<!-- Node5 -->
<g id="Node000005" class="node">
<title>Node5</title>
<g id="a_Node000005"><a xlink:title=" ">
<polygon fill="#e0e0e0" stroke="#999999" points="457.5,-19.25 414.5,-19.25 414.5,0 457.5,0 457.5,-19.25"/>
<text text-anchor="middle" x="436" y="-5.75" font-family="Helvetica,sans-Serif" font-size="10.00">vector</text>
</a>
</g>
</g>
<!-- Node2&#45;&gt;Node5 -->
<g id="edge4_Node000002_Node000005" class="edge">
<title>Node2&#45;&gt;Node5</title>
<g id="a_edge4_Node000002_Node000005"><a xlink:title=" ">
<path fill="none" stroke="#63b8ff" d="M393.47,-172.21C436.3,-167.39 529.91,-154.25 549,-129.75 580.89,-88.83 510.33,-45.88 466.86,-24.48"/>
<polygon fill="#63b8ff" stroke="#63b8ff" points="468.64,-21.44 458.11,-20.29 465.62,-27.76 468.64,-21.44"/>
</a>
</g>
</g>
<!-- Node6 -->
<g id="Node000006" class="node">
<title>Node6</title>
<g id="a_Node000006"><a xlink:title=" ">
<polygon fill="#e0e0e0" stroke="#999999" points="297.62,-129.75 246.38,-129.75 246.38,-110.5 297.62,-110.5 297.62,-129.75"/>
<text text-anchor="middle" x="272" y="-116.25" font-family="Helvetica,sans-Serif" font-size="10.00">memory</text>
</a>
</g>
</g>
<!-- Node2&#45;&gt;Node6 -->
<g id="edge5_Node000002_Node000006" class="edge">
<title>Node2&#45;&gt;Node6</title>
<g id="a_edge5_Node000002_Node000006"><a xlink:title=" ">
<path fill="none" stroke="#63b8ff" d="M355.04,-165.34C339.74,-157.19 316.97,-145.07 299.14,-135.58"/>
<polygon fill="#63b8ff" stroke="#63b8ff" points="300.85,-132.52 290.38,-130.91 297.56,-138.7 300.85,-132.52"/>
</a>
</g>
</g>
<!-- Node7 -->
<g id="Node000007" class="node">
<title>Node7</title>
<g id="a_Node000007"><a xlink:title=" ">
<polygon fill="#e0e0e0" stroke="#999999" points="364.12,-129.75 315.88,-129.75 315.88,-110.5 364.12,-110.5 364.12,-129.75"/>
<text text-anchor="middle" x="340" y="-116.25" font-family="Helvetica,sans-Serif" font-size="10.00">random</text>
</a>
</g>
</g>
<!-- Node2&#45;&gt;Node7 -->
<g id="edge6_Node000002_Node000007" class="edge">
<title>Node2&#45;&gt;Node7</title>
<g id="a_edge6_Node000002_Node000007"><a xlink:title=" ">
<path fill="none" stroke="#63b8ff" d="M366.72,-165.58C362.53,-158.61 356.52,-148.62 351.27,-139.87"/>
<polygon fill="#63b8ff" stroke="#63b8ff" points="354.33,-138.18 346.18,-131.41 348.33,-141.78 354.33,-138.18"/>
</a>
</g>
</g>
<!-- Node8 -->
<g id="Node000008" class="node">
<title>Node8</title>
<g id="a_Node000008"><a xlink:title=" ">
<polygon fill="#e0e0e0" stroke="#999999" points="427.62,-129.75 382.38,-129.75 382.38,-110.5 427.62,-110.5 427.62,-129.75"/>
<text text-anchor="middle" x="405" y="-116.25" font-family="Helvetica,sans-Serif" font-size="10.00">cstring</text>
</a>
</g>
</g>
<!-- Node2&#45;&gt;Node8 -->
<g id="edge7_Node000002_Node000008" class="edge">
<title>Node2&#45;&gt;Node8</title>
<g id="a_edge7_Node000002_Node000008"><a xlink:title=" ">
<path fill="none" stroke="#63b8ff" d="M377.45,-165.58C381.77,-158.61 387.96,-148.62 393.38,-139.87"/>
<polygon fill="#63b8ff" stroke="#63b8ff" points="396.34,-141.74 398.64,-131.4 390.39,-138.05 396.34,-141.74"/>
</a>
</g>
</g>
<!-- Node9 -->
<g id="Node000009" class="node">
<title>Node9</title>
<g id="a_Node000009"><a xlink:title=" ">
<polygon fill="#e0e0e0" stroke="#999999" points="522.75,-129.75 445.25,-129.75 445.25,-110.5 522.75,-110.5 522.75,-129.75"/>
<text text-anchor="middle" x="484" y="-116.25" font-family="Helvetica,sans-Serif" font-size="10.00">unordered_set</text>
</a>
</g>
</g>
<!-- Node2&#45;&gt;Node9 -->
<g id="edge8_Node000002_Node000009" class="edge">
<title>Node2&#45;&gt;Node9</title>
<g id="a_edge8_Node000002_Node000009"><a xlink:title=" ">
<path fill="none" stroke="#63b8ff" d="M391,-165.34C408.46,-157.04 434.6,-144.61 454.72,-135.04"/>
<polygon fill="#63b8ff" stroke="#63b8ff" points="456.01,-138.31 463.54,-130.85 453.01,-131.99 456.01,-138.31"/>
</a>
</g>
</g>
<!-- Node10 -->
<g id="Node000010" class="node">
<title>Node10</title>
<g id="a_Node000010"><a xlink:href="_image_8h.html" target="_top" xlink:title="this header file contains all required functions and definitions for the Image class,...">
<polygon fill="white" stroke="#666666" points="359.12,-74.5 268.88,-74.5 268.88,-55.25 359.12,-55.25 359.12,-74.5"/>
<text text-anchor="middle" x="314" y="-61" font-family="Helvetica,sans-Serif" font-size="10.00">../Image/Image.h</text>
</a>
</g>
</g>
<!-- Node2&#45;&gt;Node10 -->
<g id="edge9_Node000002_Node000010" class="edge">
<title>Node2&#45;&gt;Node10</title>
<g id="a_edge9_Node000002_Node000010"><a xlink:title=" ">
<path fill="none" stroke="#63b8ff" d="M393.52,-173.41C445.46,-170.33 570.67,-157.89 532,-110.5 511.96,-85.95 428.07,-74.54 370.4,-69.51"/>
<polygon fill="#63b8ff" stroke="#63b8ff" points="371.01,-66.05 360.75,-68.71 370.43,-73.02 371.01,-66.05"/>
</a>
</g>
</g>
<!-- Node2&#45;&gt;Node16 -->
<g id="edge17_Node000002_Node000016" class="edge">
<title>Node2&#45;&gt;Node16</title>
<g id="a_edge17_Node000002_Node000016"><a xlink:title=" ">
<path fill="none" stroke="#63b8ff" d="M350.52,-170.11C309.8,-162.02 220.14,-144.2 160.92,-132.43"/>
<polygon fill="#63b8ff" stroke="#63b8ff" points="161.84,-129.05 151.35,-130.53 160.48,-135.92 161.84,-129.05"/>
</a>
</g>
</g>
<!-- Node10&#45;&gt;Node3 -->
<g id="edge13_Node000010_Node000003" class="edge">
<title>Node10&#45;&gt;Node3</title>
<g id="a_edge13_Node000010_Node000003"><a xlink:title=" ">
<path fill="none" stroke="#63b8ff" d="M358.06,-54.78C406.59,-44.77 483.99,-28.79 531.19,-19.05"/>
<polygon fill="#63b8ff" stroke="#63b8ff" points="531.64,-22.53 540.73,-17.08 530.23,-15.67 531.64,-22.53"/>
</a>
</g>
</g>
<!-- Node10&#45;&gt;Node5 -->
<g id="edge12_Node000010_Node000005" class="edge">
<title>Node10&#45;&gt;Node5</title>
<g id="a_edge12_Node000010_Node000005"><a xlink:title=" ">
<path fill="none" stroke="#63b8ff" d="M334.7,-54.84C353.89,-46.47 382.71,-33.88 404.72,-24.28"/>
<polygon fill="#63b8ff" stroke="#63b8ff" points="406.05,-27.52 413.82,-20.31 403.25,-21.1 406.05,-27.52"/>
</a>
</g>
</g>
<!-- Node11 -->
<g id="Node000011" class="node">
<title>Node11</title>
<g id="a_Node000011"><a xlink:title=" ">
<polygon fill="#e0e0e0" stroke="#999999" points="329.75,-19.25 276.25,-19.25 276.25,0 329.75,0 329.75,-19.25"/>
<text text-anchor="middle" x="303" y="-5.75" font-family="Helvetica,sans-Serif" font-size="10.00">iostream</text>
</a>
</g>
</g>
<!-- Node10&#45;&gt;Node11 -->
<g id="edge10_Node000010_Node000011" class="edge">
<title>Node10&#45;&gt;Node11</title>
<g id="a_edge10_Node000010_Node000011"><a xlink:title=" ">
<path fill="none" stroke="#63b8ff" d="M312.18,-55.08C310.82,-48.49 308.9,-39.21 307.17,-30.82"/>
<polygon fill="#63b8ff" stroke="#63b8ff" points="310.61,-30.18 305.16,-21.09 303.76,-31.59 310.61,-30.18"/>
</a>
</g>
</g>
<!-- Node12 -->
<g id="Node000012" class="node">
<title>Node12</title>
<g id="a_Node000012"><a xlink:title=" ">
<polygon fill="#e0e0e0" stroke="#999999" points="40,-19.25 0,-19.25 0,0 40,0 40,-19.25"/>
<text text-anchor="middle" x="20" y="-5.75" font-family="Helvetica,sans-Serif" font-size="10.00">string</text>
</a>
</g>
</g>
<!-- Node10&#45;&gt;Node12 -->
<g id="edge11_Node000010_Node000012" class="edge">
<title>Node10&#45;&gt;Node12</title>
<g id="a_edge11_Node000010_Node000012"><a xlink:title=" ">
<path fill="none" stroke="#63b8ff" d="M268.44,-56.51C205.06,-46.23 94,-28.05 51.32,-19.39"/>
<polygon fill="#63b8ff" stroke="#63b8ff" points="52.19,-15.99 41.68,-17.3 50.71,-22.84 52.19,-15.99"/>
</a>
</g>
</g>
<!-- Node13 -->
<g id="Node000013" class="node">
<title>Node13</title>
<g id="a_Node000013"><a xlink:title=" ">
<polygon fill="#e0e0e0" stroke="#999999" points="396.12,-19.25 347.88,-19.25 347.88,0 396.12,0 396.12,-19.25"/>
<text text-anchor="middle" x="372" y="-5.75" font-family="Helvetica,sans-Serif" font-size="10.00">cassert</text>
</a>
</g>
</g>
<!-- Node10&#45;&gt;Node13 -->
<g id="edge14_Node000010_Node000013" class="edge">
<title>Node10&#45;&gt;Node13</title>
<g id="a_edge14_Node000010_Node000013"><a xlink:title=" ">
<path fill="none" stroke="#63b8ff" d="M323.84,-54.84C332.05,-47.3 343.98,-36.35 353.91,-27.23"/>
<polygon fill="#63b8ff" stroke="#63b8ff" points="356.19,-29.89 361.19,-20.55 351.46,-24.73 356.19,-29.89"/>
</a>
</g>
</g>
<!-- Node14 -->
<g id="Node000014" class="node">
<title>Node14</title>
<g id="a_Node000014"><a xlink:title=" ">
<polygon fill="#e0e0e0" stroke="#999999" points="136.12,-19.25 57.88,-19.25 57.88,0 136.12,0 136.12,-19.25"/>
<text text-anchor="middle" x="97" y="-5.75" font-family="Helvetica,sans-Serif" font-size="10.00">../stb_image.h</text>
</a>
</g>
</g>
<!-- Node10&#45;&gt;Node14 -->
<g id="edge15_Node000010_Node000014" class="edge">
<title>Node10&#45;&gt;Node14</title>
<g id="a_edge15_Node000010_Node000014"><a xlink:title=" ">
<path fill="none" stroke="#63b8ff" d="M277.19,-54.84C240.79,-45.91 184.92,-32.2 145.04,-22.41"/>
<polygon fill="#63b8ff" stroke="#63b8ff" points="146.01,-19.05 135.46,-20.06 144.34,-25.85 146.01,-19.05"/>
</a>
</g>
</g>
<!-- Node15 -->
<g id="Node000015" class="node">
<title>Node15</title>
<g id="a_Node000015"><a xlink:title=" ">
<polygon fill="#e0e0e0" stroke="#999999" points="258.25,-19.25 153.75,-19.25 153.75,0 258.25,0 258.25,-19.25"/>
<text text-anchor="middle" x="206" y="-5.75" font-family="Helvetica,sans-Serif" font-size="10.00">../stb_image_write.h</text>
</a>
</g>
</g>
<!-- Node10&#45;&gt;Node15 -->
<g id="edge16_Node000010_Node000015" class="edge">
<title>Node10&#45;&gt;Node15</title>
<g id="a_edge16_Node000010_Node000015"><a xlink:title=" ">
<path fill="none" stroke="#63b8ff" d="M295.68,-54.84C278.92,-46.58 253.87,-34.23 234.5,-24.68"/>
<polygon fill="#63b8ff" stroke="#63b8ff" points="236.28,-21.65 225.77,-20.37 233.19,-27.93 236.28,-21.65"/>
</a>
</g>
</g>
<!-- Node16&#45;&gt;Node5 -->
<g id="edge21_Node000016_Node000005" class="edge">
<title>Node16&#45;&gt;Node5</title>
<g id="a_edge21_Node000016_Node000005"><a xlink:title=" ">
<path fill="none" stroke="#63b8ff" d="M153.83,-111.46C227.66,-100 358.48,-79.23 368,-74.5 390.14,-63.51 410.04,-42.93 422.51,-28.1"/>
<polygon fill="#63b8ff" stroke="#63b8ff" points="425.07,-30.49 428.63,-20.51 419.63,-26.1 425.07,-30.49"/>
</a>
</g>
</g>
<!-- Node16&#45;&gt;Node10 -->
<g id="edge20_Node000016_Node000010" class="edge">
<title>Node16&#45;&gt;Node10</title>
<g id="a_edge20_Node000016_Node000010"><a xlink:title=" ">
<path fill="none" stroke="#63b8ff" d="M139.62,-110.09C174.77,-101.18 228.69,-87.51 267.26,-77.73"/>
<polygon fill="#63b8ff" stroke="#63b8ff" points="267.9,-81.18 276.73,-75.32 266.18,-74.39 267.9,-81.18"/>
</a>
</g>
</g>
<!-- Node16&#45;&gt;Node11 -->
<g id="edge24_Node000016_Node000011" class="edge">
<title>Node16&#45;&gt;Node11</title>
<g id="a_edge24_Node000016_Node000011"><a xlink:title=" ">
<path fill="none" stroke="#63b8ff" d="M112.71,-110.15C126.24,-96.64 153.59,-71 181,-55.25 207.62,-39.95 240.43,-28.3 265.32,-20.75"/>
<polygon fill="#63b8ff" stroke="#63b8ff" points="266.09,-24.17 274.7,-18 264.12,-17.46 266.09,-24.17"/>
</a>
</g>
</g>
<!-- Node16&#45;&gt;Node12 -->
<g id="edge22_Node000016_Node000012" class="edge">
<title>Node16&#45;&gt;Node12</title>
<g id="a_edge22_Node000016_Node000012"><a xlink:title=" ">
<path fill="none" stroke="#63b8ff" d="M97.13,-110.25C83.34,-92.44 52.1,-52.08 33.89,-28.56"/>
<polygon fill="#63b8ff" stroke="#63b8ff" points="36.78,-26.59 27.9,-20.82 31.25,-30.87 36.78,-26.59"/>
</a>
</g>
</g>
<!-- Node16&#45;&gt;Node14 -->
<g id="edge18_Node000016_Node000014" class="edge">
<title>Node16&#45;&gt;Node14</title>
<g id="a_edge18_Node000016_Node000014"><a xlink:title=" ">
<path fill="none" stroke="#63b8ff" d="M103.43,-110.25C102.31,-93 99.84,-54.58 98.3,-30.81"/>
<polygon fill="#63b8ff" stroke="#63b8ff" points="101.81,-30.89 97.68,-21.14 94.83,-31.34 101.81,-30.89"/>
</a>
</g>
</g>
<!-- Node16&#45;&gt;Node15 -->
<g id="edge19_Node000016_Node000015" class="edge">
<title>Node16&#45;&gt;Node15</title>
<g id="a_edge19_Node000016_Node000015"><a xlink:title=" ">
<path fill="none" stroke="#63b8ff" d="M108.75,-110.2C115.92,-97.21 130.46,-72.73 147,-55.25 157.38,-44.28 170.67,-33.98 182,-26.04"/>
<polygon fill="#63b8ff" stroke="#63b8ff" points="183.77,-29.07 190.09,-20.56 179.85,-23.27 183.77,-29.07"/>
</a>
</g>
</g>
<!-- Node17 -->
<g id="Node000017" class="node">
<title>Node17</title>
<g id="a_Node000017"><a xlink:title=" ">
<polygon fill="#e0e0e0" stroke="#999999" points="250.5,-74.5 189.5,-74.5 189.5,-55.25 250.5,-55.25 250.5,-74.5"/>
<text text-anchor="middle" x="220" y="-61" font-family="Helvetica,sans-Serif" font-size="10.00">filesystem</text>
</a>
</g>
</g>
<!-- Node16&#45;&gt;Node17 -->
<g id="edge23_Node000016_Node000017" class="edge">
<title>Node16&#45;&gt;Node17</title>
<g id="a_edge23_Node000016_Node000017"><a xlink:title=" ">
<path fill="none" stroke="#63b8ff" d="M123.68,-110.09C141.84,-101.75 169.08,-89.25 189.97,-79.66"/>
<polygon fill="#63b8ff" stroke="#63b8ff" points="191.22,-82.94 198.85,-75.58 188.3,-76.58 191.22,-82.94"/>
</a>
</g>
</g>
</g>
</svg>
