<?xml version="1.0" encoding="UTF-8" standalone="no"?>
<!DOCTYPE svg PUBLIC "-//W3C//DTD SVG 1.1//EN"
 "http://www.w3.org/Graphics/SVG/1.1/DTD/svg11.dtd">
<!-- Generated by graphviz version 10.0.1 (20240210.2158)
 -->
<!-- Title: /Users/st1123/CLionProjects/advanced&#45;programming&#45;group&#45;linear&#45;regression/src/filter/filter.h Pages: 1 -->
<svg width="682pt" height="227pt"
 viewBox="0.00 0.00 682.12 226.75" xmlns="http://www.w3.org/2000/svg" xmlns:xlink="http://www.w3.org/1999/xlink">
<g id="graph0" class="graph" transform="scale(1 1) rotate(0) translate(4 222.75)">
<title>/Users/st1123/CLionProjects/advanced&#45;programming&#45;group&#45;linear&#45;regression/src/filter/filter.h</title>
<!-- Node1 -->
<g id="Node000001" class="node">
<title>Node1</title>
<g id="a_Node000001"><a xlink:title="this header file will contain all the filters (2D / 3D) that can be applied to the image and volume d...">
<polygon fill="#999999" stroke="#666666" points="425,-218.75 277.75,-218.75 277.75,-165.75 425,-165.75 425,-218.75"/>
<text text-anchor="start" x="285.75" y="-205.25" font-family="Helvetica,sans-Serif" font-size="10.00">/Users/st1123/CLionProjects</text>
<text text-anchor="start" x="285.75" y="-194" font-family="Helvetica,sans-Serif" font-size="10.00">/advanced&#45;programming&#45;group</text>
<text text-anchor="start" x="285.75" y="-182.75" font-family="Helvetica,sans-Serif" font-size="10.00">&#45;linear&#45;regression/src/filter</text>
<text text-anchor="middle" x="351.38" y="-171.5" font-family="Helvetica,sans-Serif" font-size="10.00">/filter.h</text>
</a>
</g>
</g>
<!-- Node2 -->
<g id="Node000002" class="node">
<title>Node2</title>
<g id="a_Node000002"><a xlink:title=" ">
<polygon fill="#e0e0e0" stroke="#999999" points="58.75,-19.25 0,-19.25 0,0 58.75,0 58.75,-19.25"/>
<text text-anchor="middle" x="29.38" y="-5.75" font-family="Helvetica,sans-Serif" font-size="10.00">stdexcept</text>
</a>
</g>
</g>
<!-- Node1&#45;&gt;Node2 -->
<g id="edge1_Node000001_Node000002" class="edge">
<title>Node1&#45;&gt;Node2</title>
<g id="a_edge1_Node000001_Node000002"><a xlink:title=" ">
<path fill="none" stroke="#63b8ff" d="M277.27,-180.19C234.32,-171.34 180.56,-155.93 138.38,-129.75 95.67,-103.25 59.32,-55.43 41.37,-29.16"/>
<polygon fill="#63b8ff" stroke="#63b8ff" points="44.32,-27.28 35.86,-20.9 38.49,-31.16 44.32,-27.28"/>
</a>
</g>
</g>
<!-- Node3 -->
<g id="Node000003" class="node">
<title>Node3</title>
<g id="a_Node000003"><a xlink:title=" ">
<polygon fill="#e0e0e0" stroke="#999999" points="379.25,-129.75 323.5,-129.75 323.5,-110.5 379.25,-110.5 379.25,-129.75"/>
<text text-anchor="middle" x="351.38" y="-116.25" font-family="Helvetica,sans-Serif" font-size="10.00">algorithm</text>
</a>
</g>
</g>
<!-- Node1&#45;&gt;Node3 -->
<g id="edge2_Node000001_Node000003" class="edge">
<title>Node1&#45;&gt;Node3</title>
<g id="a_edge2_Node000001_Node000003"><a xlink:title=" ">
<path fill="none" stroke="#63b8ff" d="M351.38,-165.54C351.38,-157.62 351.38,-149.02 351.38,-141.52"/>
<polygon fill="#63b8ff" stroke="#63b8ff" points="354.88,-141.75 351.38,-131.75 347.88,-141.75 354.88,-141.75"/>
</a>
</g>
</g>
<!-- Node4 -->
<g id="Node000004" class="node">
<title>Node4</title>
<g id="a_Node000004"><a xlink:title=" ">
<polygon fill="#e0e0e0" stroke="#999999" points="119.88,-19.25 76.88,-19.25 76.88,0 119.88,0 119.88,-19.25"/>
<text text-anchor="middle" x="98.38" y="-5.75" font-family="Helvetica,sans-Serif" font-size="10.00">vector</text>
</a>
</g>
</g>
<!-- Node1&#45;&gt;Node4 -->
<g id="edge3_Node000001_Node000004" class="edge">
<title>Node1&#45;&gt;Node4</title>
<g id="a_edge3_Node000001_Node000004"><a xlink:title=" ">
<path fill="none" stroke="#63b8ff" d="M277.38,-177.86C220.29,-163.18 145.21,-133.38 109.38,-74.5 101.39,-61.39 98.8,-44.11 98.11,-30.84"/>
<polygon fill="#63b8ff" stroke="#63b8ff" points="101.61,-31.05 97.95,-21.11 94.61,-31.17 101.61,-31.05"/>
</a>
</g>
</g>
<!-- Node5 -->
<g id="Node000005" class="node">
<title>Node5</title>
<g id="a_Node000005"><a xlink:title=" ">
<polygon fill="#e0e0e0" stroke="#999999" points="449,-129.75 397.75,-129.75 397.75,-110.5 449,-110.5 449,-129.75"/>
<text text-anchor="middle" x="423.38" y="-116.25" font-family="Helvetica,sans-Serif" font-size="10.00">memory</text>
</a>
</g>
</g>
<!-- Node1&#45;&gt;Node5 -->
<g id="edge4_Node000001_Node000005" class="edge">
<title>Node1&#45;&gt;Node5</title>
<g id="a_edge4_Node000001_Node000005"><a xlink:title=" ">
<path fill="none" stroke="#63b8ff" d="M377.78,-165.54C387.19,-156.37 397.55,-146.28 406.01,-138.04"/>
<polygon fill="#63b8ff" stroke="#63b8ff" points="408.21,-140.78 412.94,-131.29 403.33,-135.76 408.21,-140.78"/>
</a>
</g>
</g>
<!-- Node6 -->
<g id="Node000006" class="node">
<title>Node6</title>
<g id="a_Node000006"><a xlink:title=" ">
<polygon fill="#e0e0e0" stroke="#999999" points="515.5,-129.75 467.25,-129.75 467.25,-110.5 515.5,-110.5 515.5,-129.75"/>
<text text-anchor="middle" x="491.38" y="-116.25" font-family="Helvetica,sans-Serif" font-size="10.00">random</text>
</a>
</g>
</g>
<!-- Node1&#45;&gt;Node6 -->
<g id="edge5_Node000001_Node000006" class="edge">
<title>Node1&#45;&gt;Node6</title>
<g id="a_edge5_Node000001_Node000006"><a xlink:title=" ">
<path fill="none" stroke="#63b8ff" d="M403.11,-165.34C423.49,-155.13 446.1,-143.8 463.33,-135.17"/>
<polygon fill="#63b8ff" stroke="#63b8ff" points="464.57,-138.47 471.94,-130.86 461.43,-132.21 464.57,-138.47"/>
</a>
</g>
</g>
<!-- Node7 -->
<g id="Node000007" class="node">
<title>Node7</title>
<g id="a_Node000007"><a xlink:title=" ">
<polygon fill="#e0e0e0" stroke="#999999" points="579,-129.75 533.75,-129.75 533.75,-110.5 579,-110.5 579,-129.75"/>
<text text-anchor="middle" x="556.38" y="-116.25" font-family="Helvetica,sans-Serif" font-size="10.00">cstring</text>
</a>
</g>
</g>
<!-- Node1&#45;&gt;Node7 -->
<g id="edge6_Node000001_Node000007" class="edge">
<title>Node1&#45;&gt;Node7</title>
<g id="a_edge6_Node000001_Node000007"><a xlink:title=" ">
<path fill="none" stroke="#63b8ff" d="M425.38,-165.93C458.7,-154.54 496.38,-141.65 522.75,-132.63"/>
<polygon fill="#63b8ff" stroke="#63b8ff" points="523.55,-136.05 531.87,-129.51 521.28,-129.43 523.55,-136.05"/>
</a>
</g>
</g>
<!-- Node8 -->
<g id="Node000008" class="node">
<title>Node8</title>
<g id="a_Node000008"><a xlink:title=" ">
<polygon fill="#e0e0e0" stroke="#999999" points="674.12,-129.75 596.62,-129.75 596.62,-110.5 674.12,-110.5 674.12,-129.75"/>
<text text-anchor="middle" x="635.38" y="-116.25" font-family="Helvetica,sans-Serif" font-size="10.00">unordered_set</text>
</a>
</g>
</g>
<!-- Node1&#45;&gt;Node8 -->
<g id="edge7_Node000001_Node000008" class="edge">
<title>Node1&#45;&gt;Node8</title>
<g id="a_edge7_Node000001_Node000008"><a xlink:title=" ">
<path fill="none" stroke="#63b8ff" d="M425.25,-173.01C476.5,-160.35 543.28,-143.87 587.65,-132.91"/>
<polygon fill="#63b8ff" stroke="#63b8ff" points="588.36,-136.34 597.23,-130.54 586.68,-129.54 588.36,-136.34"/>
</a>
</g>
</g>
<!-- Node9 -->
<g id="Node000009" class="node">
<title>Node9</title>
<g id="a_Node000009"><a xlink:href="_image_8h.html" target="_top" xlink:title="this header file contains all required functions and definitions for the Image class,...">
<polygon fill="white" stroke="#666666" points="225.5,-74.5 135.25,-74.5 135.25,-55.25 225.5,-55.25 225.5,-74.5"/>
<text text-anchor="middle" x="180.38" y="-61" font-family="Helvetica,sans-Serif" font-size="10.00">../Image/Image.h</text>
</a>
</g>
</g>
<!-- Node1&#45;&gt;Node9 -->
<g id="edge8_Node000001_Node000009" class="edge">
<title>Node1&#45;&gt;Node9</title>
<g id="a_edge8_Node000001_Node000009"><a xlink:title=" ">
<path fill="none" stroke="#63b8ff" d="M277.31,-177.19C248.35,-168.16 217.16,-153.49 196.38,-129.75 185.88,-117.77 182.07,-99.9 180.78,-86.11"/>
<polygon fill="#63b8ff" stroke="#63b8ff" points="184.29,-86.19 180.26,-76.39 177.3,-86.56 184.29,-86.19"/>
</a>
</g>
</g>
<!-- Node15 -->
<g id="Node000015" class="node">
<title>Node15</title>
<g id="a_Node000015"><a xlink:href="volume_8h.html" target="_top" xlink:title="this header file contains the declarations of the Volume class that handles a collection of images as...">
<polygon fill="white" stroke="#666666" points="305,-129.75 205.75,-129.75 205.75,-110.5 305,-110.5 305,-129.75"/>
<text text-anchor="middle" x="255.38" y="-116.25" font-family="Helvetica,sans-Serif" font-size="10.00">../volume/volume.h</text>
</a>
</g>
</g>
<!-- Node1&#45;&gt;Node15 -->
<g id="edge16_Node000001_Node000015" class="edge">
<title>Node1&#45;&gt;Node15</title>
<g id="a_edge16_Node000001_Node000015"><a xlink:title=" ">
<path fill="none" stroke="#63b8ff" d="M315.9,-165.34C302.85,-155.8 288.46,-145.3 276.99,-136.92"/>
<polygon fill="#63b8ff" stroke="#63b8ff" points="279.14,-134.15 269,-131.07 275.01,-139.8 279.14,-134.15"/>
</a>
</g>
</g>
<!-- Node9&#45;&gt;Node2 -->
<g id="edge12_Node000009_Node000002" class="edge">
<title>Node9&#45;&gt;Node2</title>
<g id="a_edge12_Node000009_Node000002"><a xlink:title=" ">
<path fill="none" stroke="#63b8ff" d="M154.76,-54.84C130.36,-46.24 93.36,-33.19 65.88,-23.5"/>
<polygon fill="#63b8ff" stroke="#63b8ff" points="67.14,-20.23 56.54,-20.21 64.81,-26.83 67.14,-20.23"/>
</a>
</g>
</g>
<!-- Node9&#45;&gt;Node4 -->
<g id="edge11_Node000009_Node000004" class="edge">
<title>Node9&#45;&gt;Node4</title>
<g id="a_edge11_Node000009_Node000004"><a xlink:title=" ">
<path fill="none" stroke="#63b8ff" d="M166.46,-54.84C154.21,-46.89 136.12,-35.14 121.66,-25.75"/>
<polygon fill="#63b8ff" stroke="#63b8ff" points="123.92,-23.04 113.62,-20.53 120.1,-28.91 123.92,-23.04"/>
</a>
</g>
</g>
<!-- Node10 -->
<g id="Node000010" class="node">
<title>Node10</title>
<g id="a_Node000010"><a xlink:title=" ">
<polygon fill="#e0e0e0" stroke="#999999" points="534.12,-19.25 480.62,-19.25 480.62,0 534.12,0 534.12,-19.25"/>
<text text-anchor="middle" x="507.38" y="-5.75" font-family="Helvetica,sans-Serif" font-size="10.00">iostream</text>
</a>
</g>
</g>
<!-- Node9&#45;&gt;Node10 -->
<g id="edge9_Node000009_Node000010" class="edge">
<title>Node9&#45;&gt;Node10</title>
<g id="a_edge9_Node000009_Node000010"><a xlink:title=" ">
<path fill="none" stroke="#63b8ff" d="M225.94,-58.08C281.15,-50.79 377.23,-37.28 469.12,-19.55"/>
<polygon fill="#63b8ff" stroke="#63b8ff" points="469.67,-23.01 478.82,-17.66 468.33,-16.14 469.67,-23.01"/>
</a>
</g>
</g>
<!-- Node11 -->
<g id="Node000011" class="node">
<title>Node11</title>
<g id="a_Node000011"><a xlink:title=" ">
<polygon fill="#e0e0e0" stroke="#999999" points="244.38,-19.25 204.38,-19.25 204.38,0 244.38,0 244.38,-19.25"/>
<text text-anchor="middle" x="224.38" y="-5.75" font-family="Helvetica,sans-Serif" font-size="10.00">string</text>
</a>
</g>
</g>
<!-- Node9&#45;&gt;Node11 -->
<g id="edge10_Node000009_Node000011" class="edge">
<title>Node9&#45;&gt;Node11</title>
<g id="a_edge10_Node000009_Node000011"><a xlink:title=" ">
<path fill="none" stroke="#63b8ff" d="M187.64,-55.08C193.66,-47.8 202.39,-37.23 209.83,-28.23"/>
<polygon fill="#63b8ff" stroke="#63b8ff" points="212.32,-30.71 215.99,-20.78 206.92,-26.26 212.32,-30.71"/>
</a>
</g>
</g>
<!-- Node12 -->
<g id="Node000012" class="node">
<title>Node12</title>
<g id="a_Node000012"><a xlink:title=" ">
<polygon fill="#e0e0e0" stroke="#999999" points="186.5,-19.25 138.25,-19.25 138.25,0 186.5,0 186.5,-19.25"/>
<text text-anchor="middle" x="162.38" y="-5.75" font-family="Helvetica,sans-Serif" font-size="10.00">cassert</text>
</a>
</g>
</g>
<!-- Node9&#45;&gt;Node12 -->
<g id="edge13_Node000009_Node000012" class="edge">
<title>Node9&#45;&gt;Node12</title>
<g id="a_edge13_Node000009_Node000012"><a xlink:title=" ">
<path fill="none" stroke="#63b8ff" d="M177.4,-55.08C175.12,-48.34 171.89,-38.77 169.01,-30.24"/>
<polygon fill="#63b8ff" stroke="#63b8ff" points="172.41,-29.4 165.9,-21.04 165.78,-31.64 172.41,-29.4"/>
</a>
</g>
</g>
<!-- Node13 -->
<g id="Node000013" class="node">
<title>Node13</title>
<g id="a_Node000013"><a xlink:title=" ">
<polygon fill="#e0e0e0" stroke="#999999" points="340.5,-19.25 262.25,-19.25 262.25,0 340.5,0 340.5,-19.25"/>
<text text-anchor="middle" x="301.38" y="-5.75" font-family="Helvetica,sans-Serif" font-size="10.00">../stb_image.h</text>
</a>
</g>
</g>
<!-- Node9&#45;&gt;Node13 -->
<g id="edge14_Node000009_Node000013" class="edge">
<title>Node9&#45;&gt;Node13</title>
<g id="a_edge14_Node000009_Node000013"><a xlink:title=" ">
<path fill="none" stroke="#63b8ff" d="M200.9,-54.84C219.94,-46.47 248.53,-33.88 270.35,-24.28"/>
<polygon fill="#63b8ff" stroke="#63b8ff" points="271.62,-27.54 279.36,-20.31 268.8,-21.14 271.62,-27.54"/>
</a>
</g>
</g>
<!-- Node14 -->
<g id="Node000014" class="node">
<title>Node14</title>
<g id="a_Node000014"><a xlink:title=" ">
<polygon fill="#e0e0e0" stroke="#999999" points="462.62,-19.25 358.12,-19.25 358.12,0 462.62,0 462.62,-19.25"/>
<text text-anchor="middle" x="410.38" y="-5.75" font-family="Helvetica,sans-Serif" font-size="10.00">../stb_image_write.h</text>
</a>
</g>
</g>
<!-- Node9&#45;&gt;Node14 -->
<g id="edge15_Node000009_Node000014" class="edge">
<title>Node9&#45;&gt;Node14</title>
<g id="a_edge15_Node000009_Node000014"><a xlink:title=" ">
<path fill="none" stroke="#63b8ff" d="M219.65,-54.78C258.44,-45.8 317.9,-32.03 360.11,-22.26"/>
<polygon fill="#63b8ff" stroke="#63b8ff" points="360.83,-25.69 369.79,-20.02 359.25,-18.87 360.83,-25.69"/>
</a>
</g>
</g>
<!-- Node15&#45;&gt;Node4 -->
<g id="edge20_Node000015_Node000004" class="edge">
<title>Node15&#45;&gt;Node4</title>
<g id="a_edge20_Node000015_Node000004"><a xlink:title=" ">
<path fill="none" stroke="#63b8ff" d="M205.39,-111.74C179.16,-105.61 148.06,-94.51 126.38,-74.5 113.71,-62.81 106.48,-44.38 102.54,-30.31"/>
<polygon fill="#63b8ff" stroke="#63b8ff" points="106,-29.72 100.25,-20.83 99.2,-31.37 106,-29.72"/>
</a>
</g>
</g>
<!-- Node15&#45;&gt;Node9 -->
<g id="edge19_Node000015_Node000009" class="edge">
<title>Node15&#45;&gt;Node9</title>
<g id="a_edge19_Node000015_Node000009"><a xlink:title=" ">
<path fill="none" stroke="#63b8ff" d="M242.65,-110.09C231.66,-102.29 215.53,-90.84 202.44,-81.54"/>
<polygon fill="#63b8ff" stroke="#63b8ff" points="204.57,-78.76 194.39,-75.83 200.52,-84.47 204.57,-78.76"/>
</a>
</g>
</g>
<!-- Node15&#45;&gt;Node10 -->
<g id="edge23_Node000015_Node000010" class="edge">
<title>Node15&#45;&gt;Node10</title>
<g id="a_edge23_Node000015_Node000010"><a xlink:title=" ">
<path fill="none" stroke="#63b8ff" d="M288.45,-110.01C316.17,-101.94 356.52,-89.19 390.38,-74.5 423.7,-60.04 460.14,-39.3 483.35,-25.41"/>
<polygon fill="#63b8ff" stroke="#63b8ff" points="484.98,-28.52 491.73,-20.35 481.36,-22.53 484.98,-28.52"/>
</a>
</g>
</g>
<!-- Node15&#45;&gt;Node11 -->
<g id="edge21_Node000015_Node000011" class="edge">
<title>Node15&#45;&gt;Node11</title>
<g id="a_edge21_Node000015_Node000011"><a xlink:title=" ">
<path fill="none" stroke="#63b8ff" d="M252.84,-110.25C247.89,-92.92 236.83,-54.23 230.05,-30.49"/>
<polygon fill="#63b8ff" stroke="#63b8ff" points="233.48,-29.74 227.36,-21.08 226.74,-31.66 233.48,-29.74"/>
</a>
</g>
</g>
<!-- Node15&#45;&gt;Node13 -->
<g id="edge17_Node000015_Node000013" class="edge">
<title>Node15&#45;&gt;Node13</title>
<g id="a_edge17_Node000015_Node000013"><a xlink:title=" ">
<path fill="none" stroke="#63b8ff" d="M298.82,-110.14C318.4,-103.69 339.71,-92.78 351.38,-74.5 362.49,-57.07 344.42,-38.62 326.97,-26.06"/>
<polygon fill="#63b8ff" stroke="#63b8ff" points="329.05,-23.24 318.79,-20.57 325.15,-29.05 329.05,-23.24"/>
</a>
</g>
</g>
<!-- Node15&#45;&gt;Node14 -->
<g id="edge18_Node000015_Node000014" class="edge">
<title>Node15&#45;&gt;Node14</title>
<g id="a_edge18_Node000015_Node000014"><a xlink:title=" ">
<path fill="none" stroke="#63b8ff" d="M293.61,-110.07C316.76,-103.17 345.87,-91.85 367.38,-74.5 382.32,-62.45 394.03,-43.82 401.43,-29.78"/>
<polygon fill="#63b8ff" stroke="#63b8ff" points="404.44,-31.59 405.75,-21.08 398.17,-28.48 404.44,-31.59"/>
</a>
</g>
</g>
<!-- Node16 -->
<g id="Node000016" class="node">
<title>Node16</title>
<g id="a_Node000016"><a xlink:title=" ">
<polygon fill="#e0e0e0" stroke="#999999" points="342.88,-74.5 281.88,-74.5 281.88,-55.25 342.88,-55.25 342.88,-74.5"/>
<text text-anchor="middle" x="312.38" y="-61" font-family="Helvetica,sans-Serif" font-size="10.00">filesystem</text>
</a>
</g>
</g>
<!-- Node15&#45;&gt;Node16 -->
<g id="edge22_Node000015_Node000016" class="edge">
<title>Node15&#45;&gt;Node16</title>
<g id="a_edge22_Node000015_Node000016"><a xlink:title=" ">
<path fill="none" stroke="#63b8ff" d="M265.04,-110.09C273.12,-102.55 284.84,-91.6 294.6,-82.48"/>
<polygon fill="#63b8ff" stroke="#63b8ff" points="296.82,-85.19 301.74,-75.81 292.05,-80.08 296.82,-85.19"/>
</a>
</g>
</g>
</g>
</svg>
