<?xml version="1.0" encoding="UTF-8" standalone="no"?>
<!DOCTYPE svg PUBLIC "-//W3C//DTD SVG 1.1//EN"
 "http://www.w3.org/Graphics/SVG/1.1/DTD/svg11.dtd">
<!-- Generated by graphviz version 10.0.1 (20240210.2158)
 -->
<!-- Title: /Users/st1123/CLionProjects/advanced&#45;programming&#45;group&#45;linear&#45;regression/src/main.cpp Pages: 1 -->
<svg width="1053pt" height="326pt"
 viewBox="0.00 0.00 1053.38 326.00" xmlns="http://www.w3.org/2000/svg" xmlns:xlink="http://www.w3.org/1999/xlink">
<g id="graph0" class="graph" transform="scale(1 1) rotate(0) translate(4 322)">
<title>/Users/st1123/CLionProjects/advanced&#45;programming&#45;group&#45;linear&#45;regression/src/main.cpp</title>
<!-- Node1 -->
<g id="Node000001" class="node">
<title>Node1</title>
<g id="a_Node000001"><a xlink:title=" ">
<polygon fill="#999999" stroke="#666666" points="416.38,-318 266.88,-318 266.88,-276.25 416.38,-276.25 416.38,-318"/>
<text text-anchor="start" x="274.88" y="-304.5" font-family="Helvetica,sans-Serif" font-size="10.00">/Users/st1123/CLionProjects</text>
<text text-anchor="start" x="274.88" y="-293.25" font-family="Helvetica,sans-Serif" font-size="10.00">/advanced&#45;programming&#45;group</text>
<text text-anchor="middle" x="341.62" y="-282" font-family="Helvetica,sans-Serif" font-size="10.00">&#45;linear&#45;regression/src/main.cpp</text>
</a>
</g>
</g>
<!-- Node2 -->
<g id="Node000002" class="node">
<title>Node2</title>
<g id="a_Node000002"><a xlink:title=" ">
<polygon fill="#e0e0e0" stroke="#999999" points="45.25,-240.25 0,-240.25 0,-221 45.25,-221 45.25,-240.25"/>
<text text-anchor="middle" x="22.62" y="-226.75" font-family="Helvetica,sans-Serif" font-size="10.00">stdio.h</text>
</a>
</g>
</g>
<!-- Node1&#45;&gt;Node2 -->
<g id="edge1_Node000001_Node000002" class="edge">
<title>Node1&#45;&gt;Node2</title>
<g id="a_edge1_Node000001_Node000002"><a xlink:title=" ">
<path fill="none" stroke="#63b8ff" d="M266.38,-283.22C210.69,-273.28 132.76,-258.56 56.36,-240.77"/>
<polygon fill="#63b8ff" stroke="#63b8ff" points="57.6,-237.46 47.07,-238.58 56,-244.28 57.6,-237.46"/>
</a>
</g>
</g>
<!-- Node3 -->
<g id="Node000003" class="node">
<title>Node3</title>
<g id="a_Node000003"><a xlink:title=" ">
<polygon fill="#e0e0e0" stroke="#999999" points="110.38,-240.25 62.88,-240.25 62.88,-221 110.38,-221 110.38,-240.25"/>
<text text-anchor="middle" x="86.62" y="-226.75" font-family="Helvetica,sans-Serif" font-size="10.00">stdlib.h</text>
</a>
</g>
</g>
<!-- Node1&#45;&gt;Node3 -->
<g id="edge2_Node000001_Node000003" class="edge">
<title>Node1&#45;&gt;Node3</title>
<g id="a_edge2_Node000001_Node000003"><a xlink:title=" ">
<path fill="none" stroke="#63b8ff" d="M266.5,-277.12C218.57,-265 158.69,-249.85 121.54,-240.46"/>
<polygon fill="#63b8ff" stroke="#63b8ff" points="122.81,-237.17 112.25,-238.11 121.09,-243.95 122.81,-237.17"/>
</a>
</g>
</g>
<!-- Node4 -->
<g id="Node000004" class="node">
<title>Node4</title>
<g id="a_Node000004"><a xlink:title=" ">
<polygon fill="#e0e0e0" stroke="#999999" points="168.38,-19.25 114.88,-19.25 114.88,0 168.38,0 168.38,-19.25"/>
<text text-anchor="middle" x="141.62" y="-5.75" font-family="Helvetica,sans-Serif" font-size="10.00">iostream</text>
</a>
</g>
</g>
<!-- Node1&#45;&gt;Node4 -->
<g id="edge3_Node000001_Node000004" class="edge">
<title>Node1&#45;&gt;Node4</title>
<g id="a_edge3_Node000001_Node000004"><a xlink:title=" ">
<path fill="none" stroke="#63b8ff" d="M266.61,-283.25C208.78,-268.52 138.62,-237.96 138.62,-176.38 138.62,-176.38 138.62,-176.38 138.62,-119.12 138.62,-88.39 139.84,-52.79 140.73,-30.99"/>
<polygon fill="#63b8ff" stroke="#63b8ff" points="144.22,-31.28 141.14,-21.14 137.22,-30.98 144.22,-31.28"/>
</a>
</g>
</g>
<!-- Node5 -->
<g id="Node000005" class="node">
<title>Node5</title>
<g id="a_Node000005"><a xlink:title=" ">
<polygon fill="#e0e0e0" stroke="#999999" points="687.12,-74.5 626.12,-74.5 626.12,-55.25 687.12,-55.25 687.12,-74.5"/>
<text text-anchor="middle" x="656.62" y="-61" font-family="Helvetica,sans-Serif" font-size="10.00">filesystem</text>
</a>
</g>
</g>
<!-- Node1&#45;&gt;Node5 -->
<g id="edge4_Node000001_Node000005" class="edge">
<title>Node1&#45;&gt;Node5</title>
<g id="a_edge4_Node000001_Node000005"><a xlink:title=" ">
<path fill="none" stroke="#63b8ff" d="M416.46,-292.2C517.99,-282.37 696.05,-248.18 777.62,-129.75 800.07,-97.16 742.05,-79.93 698.79,-71.88"/>
<polygon fill="#63b8ff" stroke="#63b8ff" points="699.56,-68.46 689.11,-70.19 698.36,-75.36 699.56,-68.46"/>
</a>
</g>
</g>
<!-- Node6 -->
<g id="Node000006" class="node">
<title>Node6</title>
<g id="a_Node000006"><a xlink:href="filter_8h.html" target="_top" xlink:title="this header file will contain all the filters (2D / 3D) that can be applied to the image and volume d...">
<polygon fill="white" stroke="#666666" points="553.62,-185 489.62,-185 489.62,-165.75 553.62,-165.75 553.62,-185"/>
<text text-anchor="middle" x="521.62" y="-171.5" font-family="Helvetica,sans-Serif" font-size="10.00">filter/filter.h</text>
</a>
</g>
</g>
<!-- Node1&#45;&gt;Node6 -->
<g id="edge5_Node000001_Node000006" class="edge">
<title>Node1&#45;&gt;Node6</title>
<g id="a_edge5_Node000001_Node000006"><a xlink:title=" ">
<path fill="none" stroke="#63b8ff" d="M372.16,-275.81C408,-251.97 466.61,-212.97 498.76,-191.59"/>
<polygon fill="#63b8ff" stroke="#63b8ff" points="500.55,-194.6 506.94,-186.14 496.68,-188.77 500.55,-194.6"/>
</a>
</g>
</g>
<!-- Node13 -->
<g id="Node000013" class="node">
<title>Node13</title>
<g id="a_Node000013"><a xlink:href="_image_8h.html" target="_top" xlink:title="this header file contains all required functions and definitions for the Image class,...">
<polygon fill="white" stroke="#666666" points="337.75,-74.5 247.5,-74.5 247.5,-55.25 337.75,-55.25 337.75,-74.5"/>
<text text-anchor="middle" x="292.62" y="-61" font-family="Helvetica,sans-Serif" font-size="10.00">../Image/Image.h</text>
</a>
</g>
</g>
<!-- Node1&#45;&gt;Node13 -->
<g id="edge37_Node000001_Node000013" class="edge">
<title>Node1&#45;&gt;Node13</title>
<g id="a_edge37_Node000001_Node000013"><a xlink:title=" ">
<path fill="none" stroke="#63b8ff" d="M311.78,-275.92C285.59,-256.23 249.31,-223.64 233.62,-185 218.45,-147.62 251.51,-105.75 274,-82.95"/>
<polygon fill="#63b8ff" stroke="#63b8ff" points="276.44,-85.46 281.18,-75.98 271.56,-80.43 276.44,-85.46"/>
</a>
</g>
</g>
<!-- Node19 -->
<g id="Node000019" class="node">
<title>Node19</title>
<g id="a_Node000019"><a xlink:href="utility_8h.html" target="_top" xlink:title="this header file contains the declarations of the Utility class that is used to help build the UI int...">
<polygon fill="white" stroke="#666666" points="377.75,-240.25 305.5,-240.25 305.5,-221 377.75,-221 377.75,-240.25"/>
<text text-anchor="middle" x="341.62" y="-226.75" font-family="Helvetica,sans-Serif" font-size="10.00">utility/utility.h</text>
</a>
</g>
</g>
<!-- Node1&#45;&gt;Node19 -->
<g id="edge28_Node000001_Node000019" class="edge">
<title>Node1&#45;&gt;Node19</title>
<g id="a_edge28_Node000001_Node000019"><a xlink:title=" ">
<path fill="none" stroke="#63b8ff" d="M341.62,-276.07C341.62,-268.4 341.62,-259.64 341.62,-251.95"/>
<polygon fill="#63b8ff" stroke="#63b8ff" points="345.13,-252.21 341.63,-242.21 338.13,-252.21 345.13,-252.21"/>
</a>
</g>
</g>
<!-- Node22 -->
<g id="Node000022" class="node">
<title>Node22</title>
<g id="a_Node000022"><a xlink:title=" ">
<polygon fill="#e0e0e0" stroke="#999999" points="932.25,-240.25 863,-240.25 863,-221 932.25,-221 932.25,-240.25"/>
<text text-anchor="middle" x="897.62" y="-226.75" font-family="Helvetica,sans-Serif" font-size="10.00">stb_image.h</text>
</a>
</g>
</g>
<!-- Node1&#45;&gt;Node22 -->
<g id="edge38_Node000001_Node000022" class="edge">
<title>Node1&#45;&gt;Node22</title>
<g id="a_edge38_Node000001_Node000022"><a xlink:title=" ">
<path fill="none" stroke="#63b8ff" d="M416.55,-289.39C515.66,-280.14 695.65,-262.12 848.62,-240.25 849.62,-240.11 850.62,-239.96 851.63,-239.81"/>
<polygon fill="#63b8ff" stroke="#63b8ff" points="851.78,-243.33 861.11,-238.31 850.69,-236.42 851.78,-243.33"/>
</a>
</g>
</g>
<!-- Node23 -->
<g id="Node000023" class="node">
<title>Node23</title>
<g id="a_Node000023"><a xlink:title=" ">
<polygon fill="#e0e0e0" stroke="#999999" points="1045.38,-240.25 949.88,-240.25 949.88,-221 1045.38,-221 1045.38,-240.25"/>
<text text-anchor="middle" x="997.62" y="-226.75" font-family="Helvetica,sans-Serif" font-size="10.00">stb_image_write.h</text>
</a>
</g>
</g>
<!-- Node1&#45;&gt;Node23 -->
<g id="edge39_Node000001_Node000023" class="edge">
<title>Node1&#45;&gt;Node23</title>
<g id="a_edge39_Node000001_Node000023"><a xlink:title=" ">
<path fill="none" stroke="#63b8ff" d="M416.61,-290.59C528.18,-282.04 744.73,-264.21 938.15,-240.62"/>
<polygon fill="#63b8ff" stroke="#63b8ff" points="938.39,-244.12 947.89,-239.43 937.53,-237.17 938.39,-244.12"/>
</a>
</g>
</g>
<!-- Node7 -->
<g id="Node000007" class="node">
<title>Node7</title>
<g id="a_Node000007"><a xlink:title=" ">
<polygon fill="#e0e0e0" stroke="#999999" points="738,-19.25 679.25,-19.25 679.25,0 738,0 738,-19.25"/>
<text text-anchor="middle" x="708.62" y="-5.75" font-family="Helvetica,sans-Serif" font-size="10.00">stdexcept</text>
</a>
</g>
</g>
<!-- Node6&#45;&gt;Node7 -->
<g id="edge6_Node000006_Node000007" class="edge">
<title>Node6&#45;&gt;Node7</title>
<g id="a_edge6_Node000006_Node000007"><a xlink:title=" ">
<path fill="none" stroke="#63b8ff" d="M553.96,-173.7C616.28,-171.64 749.39,-163.33 777.62,-129.75 805.52,-96.57 759.26,-50.61 729.91,-26.63"/>
<polygon fill="#63b8ff" stroke="#63b8ff" points="732.3,-24.06 722.28,-20.6 727.96,-29.55 732.3,-24.06"/>
</a>
</g>
</g>
<!-- Node8 -->
<g id="Node000008" class="node">
<title>Node8</title>
<g id="a_Node000008"><a xlink:title=" ">
<polygon fill="#e0e0e0" stroke="#999999" points="632.5,-129.75 576.75,-129.75 576.75,-110.5 632.5,-110.5 632.5,-129.75"/>
<text text-anchor="middle" x="604.62" y="-116.25" font-family="Helvetica,sans-Serif" font-size="10.00">algorithm</text>
</a>
</g>
</g>
<!-- Node6&#45;&gt;Node8 -->
<g id="edge7_Node000006_Node000008" class="edge">
<title>Node6&#45;&gt;Node8</title>
<g id="a_edge7_Node000006_Node000008"><a xlink:title=" ">
<path fill="none" stroke="#63b8ff" d="M535.7,-165.34C548.11,-157.39 566.42,-145.64 581.05,-136.25"/>
<polygon fill="#63b8ff" stroke="#63b8ff" points="582.68,-139.37 589.2,-131.02 578.9,-133.47 582.68,-139.37"/>
</a>
</g>
</g>
<!-- Node9 -->
<g id="Node000009" class="node">
<title>Node9</title>
<g id="a_Node000009"><a xlink:title=" ">
<polygon fill="#e0e0e0" stroke="#999999" points="572.12,-19.25 529.12,-19.25 529.12,0 572.12,0 572.12,-19.25"/>
<text text-anchor="middle" x="550.62" y="-5.75" font-family="Helvetica,sans-Serif" font-size="10.00">vector</text>
</a>
</g>
</g>
<!-- Node6&#45;&gt;Node9 -->
<g id="edge8_Node000006_Node000009" class="edge">
<title>Node6&#45;&gt;Node9</title>
<g id="a_edge8_Node000006_Node000009"><a xlink:title=" ">
<path fill="none" stroke="#63b8ff" d="M516.15,-165.36C509.37,-153.06 499.2,-130.29 503.62,-110.5 510.37,-80.34 527.26,-48.55 538.85,-29.15"/>
<polygon fill="#63b8ff" stroke="#63b8ff" points="541.73,-31.14 543.99,-20.79 535.77,-27.47 541.73,-31.14"/>
</a>
</g>
</g>
<!-- Node10 -->
<g id="Node000010" class="node">
<title>Node10</title>
<g id="a_Node000010"><a xlink:title=" ">
<polygon fill="#e0e0e0" stroke="#999999" points="702.25,-129.75 651,-129.75 651,-110.5 702.25,-110.5 702.25,-129.75"/>
<text text-anchor="middle" x="676.62" y="-116.25" font-family="Helvetica,sans-Serif" font-size="10.00">memory</text>
</a>
</g>
</g>
<!-- Node6&#45;&gt;Node10 -->
<g id="edge9_Node000006_Node000010" class="edge">
<title>Node6&#45;&gt;Node10</title>
<g id="a_edge9_Node000006_Node000010"><a xlink:title=" ">
<path fill="none" stroke="#63b8ff" d="M547.92,-165.34C573.23,-156.64 611.74,-143.42 640.04,-133.69"/>
<polygon fill="#63b8ff" stroke="#63b8ff" points="640.97,-137.08 649.29,-130.52 638.69,-130.46 640.97,-137.08"/>
</a>
</g>
</g>
<!-- Node11 -->
<g id="Node000011" class="node">
<title>Node11</title>
<g id="a_Node000011"><a xlink:title=" ">
<polygon fill="#e0e0e0" stroke="#999999" points="768.75,-129.75 720.5,-129.75 720.5,-110.5 768.75,-110.5 768.75,-129.75"/>
<text text-anchor="middle" x="744.62" y="-116.25" font-family="Helvetica,sans-Serif" font-size="10.00">random</text>
</a>
</g>
</g>
<!-- Node6&#45;&gt;Node11 -->
<g id="edge10_Node000006_Node000011" class="edge">
<title>Node6&#45;&gt;Node11</title>
<g id="a_edge10_Node000006_Node000011"><a xlink:title=" ">
<path fill="none" stroke="#63b8ff" d="M553.96,-167.04C589.67,-158.88 649.15,-145.13 709.3,-130.28"/>
<polygon fill="#63b8ff" stroke="#63b8ff" points="709.8,-133.76 718.66,-127.96 708.12,-126.97 709.8,-133.76"/>
</a>
</g>
</g>
<!-- Node12 -->
<g id="Node000012" class="node">
<title>Node12</title>
<g id="a_Node000012"><a xlink:title=" ">
<polygon fill="#e0e0e0" stroke="#999999" points="558.25,-129.75 513,-129.75 513,-110.5 558.25,-110.5 558.25,-129.75"/>
<text text-anchor="middle" x="535.62" y="-116.25" font-family="Helvetica,sans-Serif" font-size="10.00">cstring</text>
</a>
</g>
</g>
<!-- Node6&#45;&gt;Node12 -->
<g id="edge11_Node000006_Node000012" class="edge">
<title>Node6&#45;&gt;Node12</title>
<g id="a_edge11_Node000006_Node000012"><a xlink:title=" ">
<path fill="none" stroke="#63b8ff" d="M523.94,-165.58C525.69,-158.92 528.17,-149.49 530.39,-141.03"/>
<polygon fill="#63b8ff" stroke="#63b8ff" points="533.72,-142.13 532.88,-131.57 526.95,-140.35 533.72,-142.13"/>
</a>
</g>
</g>
<!-- Node6&#45;&gt;Node13 -->
<g id="edge12_Node000006_Node000013" class="edge">
<title>Node6&#45;&gt;Node13</title>
<g id="a_edge12_Node000006_Node000013"><a xlink:title=" ">
<path fill="none" stroke="#63b8ff" d="M489.21,-168.48C445.7,-160.15 371.14,-144.35 347.62,-129.75 329.22,-118.32 313.7,-98.75 303.89,-84.27"/>
<polygon fill="#63b8ff" stroke="#63b8ff" points="306.98,-82.6 298.62,-76.09 301.1,-86.39 306.98,-82.6"/>
</a>
</g>
</g>
<!-- Node18 -->
<g id="Node000018" class="node">
<title>Node18</title>
<g id="a_Node000018"><a xlink:href="volume_8h.html" target="_top" xlink:title="this header file contains the declarations of the Volume class that handles a collection of images as...">
<polygon fill="white" stroke="#666666" points="456.25,-129.75 357,-129.75 357,-110.5 456.25,-110.5 456.25,-129.75"/>
<text text-anchor="middle" x="406.62" y="-116.25" font-family="Helvetica,sans-Serif" font-size="10.00">../volume/volume.h</text>
</a>
</g>
</g>
<!-- Node6&#45;&gt;Node18 -->
<g id="edge20_Node000006_Node000018" class="edge">
<title>Node6&#45;&gt;Node18</title>
<g id="a_edge20_Node000006_Node000018"><a xlink:title=" ">
<path fill="none" stroke="#63b8ff" d="M502.12,-165.34C484.11,-157 457.1,-144.5 436.4,-134.91"/>
<polygon fill="#63b8ff" stroke="#63b8ff" points="438.15,-131.86 427.6,-130.84 435.21,-138.22 438.15,-131.86"/>
</a>
</g>
</g>
<!-- Node13&#45;&gt;Node4 -->
<g id="edge13_Node000013_Node000004" class="edge">
<title>Node13&#45;&gt;Node4</title>
<g id="a_edge13_Node000013_Node000004"><a xlink:title=" ">
<path fill="none" stroke="#63b8ff" d="M267.01,-54.84C242.61,-46.24 205.61,-33.19 178.13,-23.5"/>
<polygon fill="#63b8ff" stroke="#63b8ff" points="179.39,-20.23 168.79,-20.21 177.06,-26.83 179.39,-20.23"/>
</a>
</g>
</g>
<!-- Node13&#45;&gt;Node7 -->
<g id="edge16_Node000013_Node000007" class="edge">
<title>Node13&#45;&gt;Node7</title>
<g id="a_edge16_Node000013_Node000007"><a xlink:title=" ">
<path fill="none" stroke="#63b8ff" d="M337.94,-58.07C419.36,-47.65 589.21,-25.91 667.49,-15.89"/>
<polygon fill="#63b8ff" stroke="#63b8ff" points="667.82,-19.38 677.3,-14.64 666.93,-12.43 667.82,-19.38"/>
</a>
</g>
</g>
<!-- Node13&#45;&gt;Node9 -->
<g id="edge15_Node000013_Node000009" class="edge">
<title>Node13&#45;&gt;Node9</title>
<g id="a_edge15_Node000013_Node000009"><a xlink:title=" ">
<path fill="none" stroke="#63b8ff" d="M338.07,-56.01C381.72,-48.21 449.75,-35.45 517.75,-19.54"/>
<polygon fill="#63b8ff" stroke="#63b8ff" points="518.26,-23.02 527.19,-17.31 516.65,-16.2 518.26,-23.02"/>
</a>
</g>
</g>
<!-- Node14 -->
<g id="Node000014" class="node">
<title>Node14</title>
<g id="a_Node000014"><a xlink:title=" ">
<polygon fill="#e0e0e0" stroke="#999999" points="510.62,-19.25 470.62,-19.25 470.62,0 510.62,0 510.62,-19.25"/>
<text text-anchor="middle" x="490.62" y="-5.75" font-family="Helvetica,sans-Serif" font-size="10.00">string</text>
</a>
</g>
</g>
<!-- Node13&#45;&gt;Node14 -->
<g id="edge14_Node000013_Node000014" class="edge">
<title>Node13&#45;&gt;Node14</title>
<g id="a_edge14_Node000013_Node000014"><a xlink:title=" ">
<path fill="none" stroke="#63b8ff" d="M328.32,-54.79C360.31,-46.58 408.78,-33.94 459.51,-19.78"/>
<polygon fill="#63b8ff" stroke="#63b8ff" points="460.23,-23.22 468.91,-17.15 458.34,-16.48 460.23,-23.22"/>
</a>
</g>
</g>
<!-- Node15 -->
<g id="Node000015" class="node">
<title>Node15</title>
<g id="a_Node000015"><a xlink:title=" ">
<polygon fill="#e0e0e0" stroke="#999999" points="234.75,-19.25 186.5,-19.25 186.5,0 234.75,0 234.75,-19.25"/>
<text text-anchor="middle" x="210.62" y="-5.75" font-family="Helvetica,sans-Serif" font-size="10.00">cassert</text>
</a>
</g>
</g>
<!-- Node13&#45;&gt;Node15 -->
<g id="edge17_Node000013_Node000015" class="edge">
<title>Node13&#45;&gt;Node15</title>
<g id="a_edge17_Node000013_Node000015"><a xlink:title=" ">
<path fill="none" stroke="#63b8ff" d="M278.71,-54.84C266.46,-46.89 248.37,-35.14 233.91,-25.75"/>
<polygon fill="#63b8ff" stroke="#63b8ff" points="236.17,-23.04 225.87,-20.53 232.35,-28.91 236.17,-23.04"/>
</a>
</g>
</g>
<!-- Node16 -->
<g id="Node000016" class="node">
<title>Node16</title>
<g id="a_Node000016"><a xlink:title=" ">
<polygon fill="#e0e0e0" stroke="#999999" points="330.75,-19.25 252.5,-19.25 252.5,0 330.75,0 330.75,-19.25"/>
<text text-anchor="middle" x="291.62" y="-5.75" font-family="Helvetica,sans-Serif" font-size="10.00">../stb_image.h</text>
</a>
</g>
</g>
<!-- Node13&#45;&gt;Node16 -->
<g id="edge18_Node000013_Node000016" class="edge">
<title>Node13&#45;&gt;Node16</title>
<g id="a_edge18_Node000013_Node000016"><a xlink:title=" ">
<path fill="none" stroke="#63b8ff" d="M292.46,-55.08C292.34,-48.57 292.17,-39.42 292.01,-31.12"/>
<polygon fill="#63b8ff" stroke="#63b8ff" points="295.51,-31.05 291.82,-21.12 288.51,-31.19 295.51,-31.05"/>
</a>
</g>
</g>
<!-- Node17 -->
<g id="Node000017" class="node">
<title>Node17</title>
<g id="a_Node000017"><a xlink:title=" ">
<polygon fill="#e0e0e0" stroke="#999999" points="452.88,-19.25 348.38,-19.25 348.38,0 452.88,0 452.88,-19.25"/>
<text text-anchor="middle" x="400.62" y="-5.75" font-family="Helvetica,sans-Serif" font-size="10.00">../stb_image_write.h</text>
</a>
</g>
</g>
<!-- Node13&#45;&gt;Node17 -->
<g id="edge19_Node000013_Node000017" class="edge">
<title>Node13&#45;&gt;Node17</title>
<g id="a_edge19_Node000013_Node000017"><a xlink:title=" ">
<path fill="none" stroke="#63b8ff" d="M310.95,-54.84C327.7,-46.58 352.76,-34.23 372.13,-24.68"/>
<polygon fill="#63b8ff" stroke="#63b8ff" points="373.44,-27.93 380.86,-20.37 370.34,-21.65 373.44,-27.93"/>
</a>
</g>
</g>
<!-- Node18&#45;&gt;Node4 -->
<g id="edge27_Node000018_Node000004" class="edge">
<title>Node18&#45;&gt;Node4</title>
<g id="a_edge27_Node000018_Node000004"><a xlink:title=" ">
<path fill="none" stroke="#63b8ff" d="M356.68,-110.27C322.48,-103.16 276.63,-91.52 238.62,-74.5 210.08,-61.72 180.51,-40.97 161.64,-26.61"/>
<polygon fill="#63b8ff" stroke="#63b8ff" points="163.81,-23.86 153.77,-20.49 159.52,-29.39 163.81,-23.86"/>
</a>
</g>
</g>
<!-- Node18&#45;&gt;Node5 -->
<g id="edge26_Node000018_Node000005" class="edge">
<title>Node18&#45;&gt;Node5</title>
<g id="a_edge26_Node000018_Node000005"><a xlink:title=" ">
<path fill="none" stroke="#63b8ff" d="M449.32,-110.03C495.6,-100.17 568.98,-84.54 614.89,-74.76"/>
<polygon fill="#63b8ff" stroke="#63b8ff" points="615.4,-78.23 624.45,-72.73 613.94,-71.39 615.4,-78.23"/>
</a>
</g>
</g>
<!-- Node18&#45;&gt;Node9 -->
<g id="edge24_Node000018_Node000009" class="edge">
<title>Node18&#45;&gt;Node9</title>
<g id="a_edge24_Node000018_Node000009"><a xlink:title=" ">
<path fill="none" stroke="#63b8ff" d="M418.41,-110.25C442.77,-91.89 498.98,-49.54 529.68,-26.41"/>
<polygon fill="#63b8ff" stroke="#63b8ff" points="531.59,-29.35 537.47,-20.54 527.38,-23.76 531.59,-29.35"/>
</a>
</g>
</g>
<!-- Node18&#45;&gt;Node13 -->
<g id="edge23_Node000018_Node000013" class="edge">
<title>Node18&#45;&gt;Node13</title>
<g id="a_edge23_Node000018_Node000013"><a xlink:title=" ">
<path fill="none" stroke="#63b8ff" d="M387.29,-110.09C369.52,-101.79 342.91,-89.36 322.42,-79.79"/>
<polygon fill="#63b8ff" stroke="#63b8ff" points="323.97,-76.65 313.43,-75.59 321.01,-83 323.97,-76.65"/>
</a>
</g>
</g>
<!-- Node18&#45;&gt;Node14 -->
<g id="edge25_Node000018_Node000014" class="edge">
<title>Node18&#45;&gt;Node14</title>
<g id="a_edge25_Node000018_Node000014"><a xlink:title=" ">
<path fill="none" stroke="#63b8ff" d="M413.5,-110.25C427.28,-92.44 458.53,-52.08 476.74,-28.56"/>
<polygon fill="#63b8ff" stroke="#63b8ff" points="479.38,-30.87 482.73,-20.82 473.84,-26.59 479.38,-30.87"/>
</a>
</g>
</g>
<!-- Node18&#45;&gt;Node16 -->
<g id="edge21_Node000018_Node000016" class="edge">
<title>Node18&#45;&gt;Node16</title>
<g id="a_edge21_Node000018_Node000016"><a xlink:title=" ">
<path fill="none" stroke="#63b8ff" d="M398.83,-110.09C387.72,-97.37 366.46,-73.69 346.62,-55.25 335.73,-45.12 322.85,-34.6 312.3,-26.32"/>
<polygon fill="#63b8ff" stroke="#63b8ff" points="314.63,-23.7 304.58,-20.35 310.34,-29.23 314.63,-23.7"/>
</a>
</g>
</g>
<!-- Node18&#45;&gt;Node17 -->
<g id="edge22_Node000018_Node000017" class="edge">
<title>Node18&#45;&gt;Node17</title>
<g id="a_edge22_Node000018_Node000017"><a xlink:title=" ">
<path fill="none" stroke="#63b8ff" d="M406.13,-110.25C405.18,-93 403.06,-54.58 401.74,-30.81"/>
<polygon fill="#63b8ff" stroke="#63b8ff" points="405.25,-30.93 401.21,-21.14 398.26,-31.32 405.25,-30.93"/>
</a>
</g>
</g>
<!-- Node19&#45;&gt;Node4 -->
<g id="edge29_Node000019_Node000004" class="edge">
<title>Node19&#45;&gt;Node4</title>
<g id="a_edge29_Node000019_Node000004"><a xlink:title=" ">
<path fill="none" stroke="#63b8ff" d="M305.12,-221.35C282.37,-214.67 253.73,-203.3 233.62,-185 185.4,-141.09 158,-65.95 147.14,-30.39"/>
<polygon fill="#63b8ff" stroke="#63b8ff" points="150.57,-29.65 144.4,-21.03 143.85,-31.61 150.57,-29.65"/>
</a>
</g>
</g>
<!-- Node19&#45;&gt;Node6 -->
<g id="edge30_Node000019_Node000006" class="edge">
<title>Node19&#45;&gt;Node6</title>
<g id="a_edge30_Node000019_Node000006"><a xlink:title=" ">
<path fill="none" stroke="#63b8ff" d="M372.16,-220.59C401.9,-211.79 447.31,-198.36 480.28,-188.61"/>
<polygon fill="#63b8ff" stroke="#63b8ff" points="480.89,-192.07 489.49,-185.88 478.91,-185.36 480.89,-192.07"/>
</a>
</g>
</g>
<!-- Node20 -->
<g id="Node000020" class="node">
<title>Node20</title>
<g id="a_Node000020"><a xlink:href="projection_8h.html" target="_top" xlink:title="this header file contains all the declarations of projections methods that can be applied to a volume...">
<polygon fill="white" stroke="#666666" points="362.75,-185 242.5,-185 242.5,-165.75 362.75,-165.75 362.75,-185"/>
<text text-anchor="middle" x="302.62" y="-171.5" font-family="Helvetica,sans-Serif" font-size="10.00">../projection/projection.h</text>
</a>
</g>
</g>
<!-- Node19&#45;&gt;Node20 -->
<g id="edge31_Node000019_Node000020" class="edge">
<title>Node19&#45;&gt;Node20</title>
<g id="a_edge31_Node000019_Node000020"><a xlink:title=" ">
<path fill="none" stroke="#63b8ff" d="M335.18,-220.83C329.97,-213.71 322.44,-203.43 315.93,-194.55"/>
<polygon fill="#63b8ff" stroke="#63b8ff" points="318.83,-192.58 310.1,-186.58 313.18,-196.72 318.83,-192.58"/>
</a>
</g>
</g>
<!-- Node21 -->
<g id="Node000021" class="node">
<title>Node21</title>
<g id="a_Node000021"><a xlink:href="slice_8h.html" target="_top" xlink:title="this header file contains all the declarations of slicing methods that can be applied to a volume.">
<polygon fill="white" stroke="#666666" points="458,-185 381.25,-185 381.25,-165.75 458,-165.75 458,-185"/>
<text text-anchor="middle" x="419.62" y="-171.5" font-family="Helvetica,sans-Serif" font-size="10.00">../slice/slice.h</text>
</a>
</g>
</g>
<!-- Node19&#45;&gt;Node21 -->
<g id="edge34_Node000019_Node000021" class="edge">
<title>Node19&#45;&gt;Node21</title>
<g id="a_edge34_Node000019_Node000021"><a xlink:title=" ">
<path fill="none" stroke="#63b8ff" d="M354.86,-220.59C366.4,-212.71 383.39,-201.11 397.07,-191.77"/>
<polygon fill="#63b8ff" stroke="#63b8ff" points="398.79,-194.83 405.08,-186.31 394.85,-189.05 398.79,-194.83"/>
</a>
</g>
</g>
<!-- Node20&#45;&gt;Node13 -->
<g id="edge32_Node000020_Node000013" class="edge">
<title>Node20&#45;&gt;Node13</title>
<g id="a_edge32_Node000020_Node000013"><a xlink:title=" ">
<path fill="none" stroke="#63b8ff" d="M295.49,-165.45C289.13,-156.87 280.27,-143.25 276.62,-129.75 272.61,-114.88 277.25,-97.97 282.55,-85.28"/>
<polygon fill="#63b8ff" stroke="#63b8ff" points="285.66,-86.91 286.73,-76.37 279.32,-83.94 285.66,-86.91"/>
</a>
</g>
</g>
<!-- Node20&#45;&gt;Node18 -->
<g id="edge33_Node000020_Node000018" class="edge">
<title>Node20&#45;&gt;Node18</title>
<g id="a_edge33_Node000020_Node000018"><a xlink:title=" ">
<path fill="none" stroke="#63b8ff" d="M320.27,-165.34C336.25,-157.16 360.08,-144.96 378.66,-135.44"/>
<polygon fill="#63b8ff" stroke="#63b8ff" points="380.24,-138.57 387.55,-130.89 377.05,-132.33 380.24,-138.57"/>
</a>
</g>
</g>
<!-- Node21&#45;&gt;Node13 -->
<g id="edge36_Node000021_Node000013" class="edge">
<title>Node21&#45;&gt;Node13</title>
<g id="a_edge36_Node000021_Node000013"><a xlink:title=" ">
<path fill="none" stroke="#63b8ff" d="M380.86,-166.2C358.78,-159.71 332.12,-148.51 314.62,-129.75 303.48,-117.8 297.95,-99.93 295.22,-86.13"/>
<polygon fill="#63b8ff" stroke="#63b8ff" points="298.7,-85.7 293.67,-76.38 291.79,-86.81 298.7,-85.7"/>
</a>
</g>
</g>
<!-- Node21&#45;&gt;Node18 -->
<g id="edge35_Node000021_Node000018" class="edge">
<title>Node21&#45;&gt;Node18</title>
<g id="a_edge35_Node000021_Node000018"><a xlink:title=" ">
<path fill="none" stroke="#63b8ff" d="M417.48,-165.58C415.85,-158.92 413.55,-149.49 411.48,-141.03"/>
<polygon fill="#63b8ff" stroke="#63b8ff" points="414.95,-140.46 409.18,-131.58 408.15,-142.12 414.95,-140.46"/>
</a>
</g>
</g>
</g>
</svg>
