<?xml version="1.0" encoding="UTF-8" standalone="no"?>
<!DOCTYPE svg PUBLIC "-//W3C//DTD SVG 1.1//EN"
 "http://www.w3.org/Graphics/SVG/1.1/DTD/svg11.dtd">
<!-- Generated by graphviz version 10.0.1 (20240210.2158)
 -->
<!-- Title: /Users/st1123/CLionProjects/advanced&#45;programming&#45;group&#45;linear&#45;regression/src/main.cpp Pages: 1 -->
<svg width="1110pt" height="326pt"
 viewBox="0.00 0.00 1110.38 326.00" xmlns="http://www.w3.org/2000/svg" xmlns:xlink="http://www.w3.org/1999/xlink">
<g id="graph0" class="graph" transform="scale(1 1) rotate(0) translate(4 322)">
<title>/Users/st1123/CLionProjects/advanced&#45;programming&#45;group&#45;linear&#45;regression/src/main.cpp</title>
<!-- Node1 -->
<g id="Node000001" class="node">
<title>Node1</title>
<g id="a_Node000001"><a xlink:title=" ">
<polygon fill="#999999" stroke="#666666" points="427.38,-318 277.88,-318 277.88,-276.25 427.38,-276.25 427.38,-318"/>
<text text-anchor="start" x="285.88" y="-304.5" font-family="Helvetica,sans-Serif" font-size="10.00">/Users/st1123/CLionProjects</text>
<text text-anchor="start" x="285.88" y="-293.25" font-family="Helvetica,sans-Serif" font-size="10.00">/advanced&#45;programming&#45;group</text>
<text text-anchor="middle" x="352.62" y="-282" font-family="Helvetica,sans-Serif" font-size="10.00">&#45;linear&#45;regression/src/main.cpp</text>
</a>
</g>
</g>
<!-- Node2 -->
<g id="Node000002" class="node">
<title>Node2</title>
<g id="a_Node000002"><a xlink:title=" ">
<polygon fill="#e0e0e0" stroke="#999999" points="45.25,-240.25 0,-240.25 0,-221 45.25,-221 45.25,-240.25"/>
<text text-anchor="middle" x="22.62" y="-226.75" font-family="Helvetica,sans-Serif" font-size="10.00">stdio.h</text>
</a>
</g>
</g>
<!-- Node1&#45;&gt;Node2 -->
<g id="edge1_Node000001_Node000002" class="edge">
<title>Node1&#45;&gt;Node2</title>
<g id="a_edge1_Node000001_Node000002"><a xlink:title=" ">
<path fill="none" stroke="#63b8ff" d="M277.6,-283.96C219.51,-274.11 136.84,-259.18 56.41,-240.76"/>
<polygon fill="#63b8ff" stroke="#63b8ff" points="57.6,-237.44 47.07,-238.59 56.02,-244.26 57.6,-237.44"/>
</a>
</g>
</g>
<!-- Node3 -->
<g id="Node000003" class="node">
<title>Node3</title>
<g id="a_Node000003"><a xlink:title=" ">
<polygon fill="#e0e0e0" stroke="#999999" points="110.38,-240.25 62.88,-240.25 62.88,-221 110.38,-221 110.38,-240.25"/>
<text text-anchor="middle" x="86.62" y="-226.75" font-family="Helvetica,sans-Serif" font-size="10.00">stdlib.h</text>
</a>
</g>
</g>
<!-- Node1&#45;&gt;Node3 -->
<g id="edge2_Node000001_Node000003" class="edge">
<title>Node1&#45;&gt;Node3</title>
<g id="a_edge2_Node000001_Node000003"><a xlink:title=" ">
<path fill="none" stroke="#63b8ff" d="M277.47,-277.9C226.4,-265.52 161.2,-249.71 121.75,-240.14"/>
<polygon fill="#63b8ff" stroke="#63b8ff" points="122.63,-236.75 112.08,-237.8 120.98,-243.56 122.63,-236.75"/>
</a>
</g>
</g>
<!-- Node4 -->
<g id="Node000004" class="node">
<title>Node4</title>
<g id="a_Node000004"><a xlink:title=" ">
<polygon fill="#e0e0e0" stroke="#999999" points="189.38,-19.25 135.88,-19.25 135.88,0 189.38,0 189.38,-19.25"/>
<text text-anchor="middle" x="162.62" y="-5.75" font-family="Helvetica,sans-Serif" font-size="10.00">iostream</text>
</a>
</g>
</g>
<!-- Node1&#45;&gt;Node4 -->
<g id="edge3_Node000001_Node000004" class="edge">
<title>Node1&#45;&gt;Node4</title>
<g id="a_edge3_Node000001_Node000004"><a xlink:title=" ">
<path fill="none" stroke="#63b8ff" d="M277.48,-285.4C215.82,-271.86 138.62,-241.83 138.62,-176.38 138.62,-176.38 138.62,-176.38 138.62,-119.12 138.62,-87.37 148.55,-51.59 155.63,-30.09"/>
<polygon fill="#63b8ff" stroke="#63b8ff" points="158.85,-31.51 158.8,-20.91 152.23,-29.23 158.85,-31.51"/>
</a>
</g>
</g>
<!-- Node5 -->
<g id="Node000005" class="node">
<title>Node5</title>
<g id="a_Node000005"><a xlink:title=" ">
<polygon fill="#e0e0e0" stroke="#999999" points="785.12,-74.5 724.12,-74.5 724.12,-55.25 785.12,-55.25 785.12,-74.5"/>
<text text-anchor="middle" x="754.62" y="-61" font-family="Helvetica,sans-Serif" font-size="10.00">filesystem</text>
</a>
</g>
</g>
<!-- Node1&#45;&gt;Node5 -->
<g id="edge4_Node000001_Node000005" class="edge">
<title>Node1&#45;&gt;Node5</title>
<g id="a_edge4_Node000001_Node000005"><a xlink:title=" ">
<path fill="none" stroke="#63b8ff" d="M427.65,-283.2C558.47,-258.97 819.5,-202.53 872.62,-129.75 895.4,-98.55 839.18,-80.97 796.73,-72.46"/>
<polygon fill="#63b8ff" stroke="#63b8ff" points="797.44,-69.03 786.96,-70.62 796.14,-75.91 797.44,-69.03"/>
</a>
</g>
</g>
<!-- Node6 -->
<g id="Node000006" class="node">
<title>Node6</title>
<g id="a_Node000006"><a xlink:href="filter_8h.html" target="_top" xlink:title="this header file will contain all the filters (2D / 3D) that can be applied to the image and volume d...">
<polygon fill="white" stroke="#666666" points="611.62,-185 547.62,-185 547.62,-165.75 611.62,-165.75 611.62,-185"/>
<text text-anchor="middle" x="579.62" y="-171.5" font-family="Helvetica,sans-Serif" font-size="10.00">filter/filter.h</text>
</a>
</g>
</g>
<!-- Node1&#45;&gt;Node6 -->
<g id="edge5_Node000001_Node000006" class="edge">
<title>Node1&#45;&gt;Node6</title>
<g id="a_edge5_Node000001_Node000006"><a xlink:title=" ">
<path fill="none" stroke="#63b8ff" d="M391.13,-275.81C436.9,-251.67 512.12,-211.99 552.3,-190.79"/>
<polygon fill="#63b8ff" stroke="#63b8ff" points="553.87,-193.92 561.08,-186.16 550.61,-187.73 553.87,-193.92"/>
</a>
</g>
</g>
<!-- Node14 -->
<g id="Node000014" class="node">
<title>Node14</title>
<g id="a_Node000014"><a xlink:href="_image_8h.html" target="_top" xlink:title="this header file contains all required functions and definitions for the Image class,...">
<polygon fill="white" stroke="#666666" points="339.75,-74.5 249.5,-74.5 249.5,-55.25 339.75,-55.25 339.75,-74.5"/>
<text text-anchor="middle" x="294.62" y="-61" font-family="Helvetica,sans-Serif" font-size="10.00">../Image/Image.h</text>
</a>
</g>
</g>
<!-- Node1&#45;&gt;Node14 -->
<g id="edge38_Node000001_Node000014" class="edge">
<title>Node1&#45;&gt;Node14</title>
<g id="a_edge38_Node000001_Node000014"><a xlink:title=" ">
<path fill="none" stroke="#63b8ff" d="M326.92,-275.95C303.53,-255.81 270.58,-222.51 256.62,-185 243.5,-149.73 265.57,-107.61 281.2,-84.08"/>
<polygon fill="#63b8ff" stroke="#63b8ff" points="283.85,-86.39 286.71,-76.18 278.11,-82.38 283.85,-86.39"/>
</a>
</g>
</g>
<!-- Node20 -->
<g id="Node000020" class="node">
<title>Node20</title>
<g id="a_Node000020"><a xlink:href="utility_8h.html" target="_top" xlink:title="this header file contains the declarations of the Utility class that is used to help build the UI int...">
<polygon fill="white" stroke="#666666" points="388.75,-240.25 316.5,-240.25 316.5,-221 388.75,-221 388.75,-240.25"/>
<text text-anchor="middle" x="352.62" y="-226.75" font-family="Helvetica,sans-Serif" font-size="10.00">utility/utility.h</text>
</a>
</g>
</g>
<!-- Node1&#45;&gt;Node20 -->
<g id="edge29_Node000001_Node000020" class="edge">
<title>Node1&#45;&gt;Node20</title>
<g id="a_edge29_Node000001_Node000020"><a xlink:title=" ">
<path fill="none" stroke="#63b8ff" d="M352.62,-276.07C352.62,-268.4 352.62,-259.64 352.62,-251.95"/>
<polygon fill="#63b8ff" stroke="#63b8ff" points="356.13,-252.21 352.63,-242.21 349.13,-252.21 356.13,-252.21"/>
</a>
</g>
</g>
<!-- Node23 -->
<g id="Node000023" class="node">
<title>Node23</title>
<g id="a_Node000023"><a xlink:title=" ">
<polygon fill="#e0e0e0" stroke="#999999" points="989.25,-240.25 920,-240.25 920,-221 989.25,-221 989.25,-240.25"/>
<text text-anchor="middle" x="954.62" y="-226.75" font-family="Helvetica,sans-Serif" font-size="10.00">stb_image.h</text>
</a>
</g>
</g>
<!-- Node1&#45;&gt;Node23 -->
<g id="edge39_Node000001_Node000023" class="edge">
<title>Node1&#45;&gt;Node23</title>
<g id="a_edge39_Node000001_Node000023"><a xlink:title=" ">
<path fill="none" stroke="#63b8ff" d="M427.52,-290.32C534.03,-281.66 735.24,-263.82 905.62,-240.25 906.62,-240.11 907.62,-239.97 908.63,-239.82"/>
<polygon fill="#63b8ff" stroke="#63b8ff" points="908.77,-243.34 918.12,-238.34 907.7,-236.43 908.77,-243.34"/>
</a>
</g>
</g>
<!-- Node24 -->
<g id="Node000024" class="node">
<title>Node24</title>
<g id="a_Node000024"><a xlink:title=" ">
<polygon fill="#e0e0e0" stroke="#999999" points="1102.38,-240.25 1006.88,-240.25 1006.88,-221 1102.38,-221 1102.38,-240.25"/>
<text text-anchor="middle" x="1054.62" y="-226.75" font-family="Helvetica,sans-Serif" font-size="10.00">stb_image_write.h</text>
</a>
</g>
</g>
<!-- Node1&#45;&gt;Node24 -->
<g id="edge40_Node000001_Node000024" class="edge">
<title>Node1&#45;&gt;Node24</title>
<g id="a_edge40_Node000001_Node000024"><a xlink:title=" ">
<path fill="none" stroke="#63b8ff" d="M427.4,-291.28C545.78,-283.25 783.85,-265.65 995.08,-240.61"/>
<polygon fill="#63b8ff" stroke="#63b8ff" points="995.37,-244.1 1004.89,-239.44 994.54,-237.15 995.37,-244.1"/>
</a>
</g>
</g>
<!-- Node7 -->
<g id="Node000007" class="node">
<title>Node7</title>
<g id="a_Node000007"><a xlink:title=" ">
<polygon fill="#e0e0e0" stroke="#999999" points="609,-19.25 550.25,-19.25 550.25,0 609,0 609,-19.25"/>
<text text-anchor="middle" x="579.62" y="-5.75" font-family="Helvetica,sans-Serif" font-size="10.00">stdexcept</text>
</a>
</g>
</g>
<!-- Node6&#45;&gt;Node7 -->
<g id="edge6_Node000006_Node000007" class="edge">
<title>Node6&#45;&gt;Node7</title>
<g id="a_edge6_Node000006_Node000007"><a xlink:title=" ">
<path fill="none" stroke="#63b8ff" d="M579.62,-165.57C579.62,-140.25 579.62,-66.75 579.62,-30.84"/>
<polygon fill="#63b8ff" stroke="#63b8ff" points="583.13,-30.99 579.63,-20.99 576.13,-30.99 583.13,-30.99"/>
</a>
</g>
</g>
<!-- Node8 -->
<g id="Node000008" class="node">
<title>Node8</title>
<g id="a_Node000008"><a xlink:title=" ">
<polygon fill="#e0e0e0" stroke="#999999" points="663.5,-129.75 607.75,-129.75 607.75,-110.5 663.5,-110.5 663.5,-129.75"/>
<text text-anchor="middle" x="635.62" y="-116.25" font-family="Helvetica,sans-Serif" font-size="10.00">algorithm</text>
</a>
</g>
</g>
<!-- Node6&#45;&gt;Node8 -->
<g id="edge7_Node000006_Node000008" class="edge">
<title>Node6&#45;&gt;Node8</title>
<g id="a_edge7_Node000006_Node000008"><a xlink:title=" ">
<path fill="none" stroke="#63b8ff" d="M589.12,-165.34C597.06,-157.8 608.57,-146.85 618.16,-137.73"/>
<polygon fill="#63b8ff" stroke="#63b8ff" points="620.33,-140.49 625.17,-131.07 615.51,-135.42 620.33,-140.49"/>
</a>
</g>
</g>
<!-- Node9 -->
<g id="Node000009" class="node">
<title>Node9</title>
<g id="a_Node000009"><a xlink:title=" ">
<polygon fill="#e0e0e0" stroke="#999999" points="670.12,-19.25 627.12,-19.25 627.12,0 670.12,0 670.12,-19.25"/>
<text text-anchor="middle" x="648.62" y="-5.75" font-family="Helvetica,sans-Serif" font-size="10.00">vector</text>
</a>
</g>
</g>
<!-- Node6&#45;&gt;Node9 -->
<g id="edge8_Node000006_Node000009" class="edge">
<title>Node6&#45;&gt;Node9</title>
<g id="a_edge8_Node000006_Node000009"><a xlink:title=" ">
<path fill="none" stroke="#63b8ff" d="M612.03,-174.5C681.12,-173.99 839.3,-168.53 872.62,-129.75 930.8,-62.05 756.49,-26.88 681.33,-15.17"/>
<polygon fill="#63b8ff" stroke="#63b8ff" points="682.07,-11.74 671.66,-13.71 681.03,-18.66 682.07,-11.74"/>
</a>
</g>
</g>
<!-- Node10 -->
<g id="Node000010" class="node">
<title>Node10</title>
<g id="a_Node000010"><a xlink:title=" ">
<polygon fill="#e0e0e0" stroke="#999999" points="733.25,-129.75 682,-129.75 682,-110.5 733.25,-110.5 733.25,-129.75"/>
<text text-anchor="middle" x="707.62" y="-116.25" font-family="Helvetica,sans-Serif" font-size="10.00">memory</text>
</a>
</g>
</g>
<!-- Node6&#45;&gt;Node10 -->
<g id="edge9_Node000006_Node000010" class="edge">
<title>Node6&#45;&gt;Node10</title>
<g id="a_edge9_Node000006_Node000010"><a xlink:title=" ">
<path fill="none" stroke="#63b8ff" d="M601.34,-165.34C621.66,-156.89 652.27,-144.15 675.43,-134.52"/>
<polygon fill="#63b8ff" stroke="#63b8ff" points="676.52,-137.86 684.41,-130.78 673.83,-131.39 676.52,-137.86"/>
</a>
</g>
</g>
<!-- Node11 -->
<g id="Node000011" class="node">
<title>Node11</title>
<g id="a_Node000011"><a xlink:title=" ">
<polygon fill="#e0e0e0" stroke="#999999" points="799.75,-129.75 751.5,-129.75 751.5,-110.5 799.75,-110.5 799.75,-129.75"/>
<text text-anchor="middle" x="775.62" y="-116.25" font-family="Helvetica,sans-Serif" font-size="10.00">random</text>
</a>
</g>
</g>
<!-- Node6&#45;&gt;Node11 -->
<g id="edge10_Node000006_Node000011" class="edge">
<title>Node6&#45;&gt;Node11</title>
<g id="a_edge10_Node000006_Node000011"><a xlink:title=" ">
<path fill="none" stroke="#63b8ff" d="M611.99,-165.58C647.31,-155.99 703.68,-140.67 740.17,-130.76"/>
<polygon fill="#63b8ff" stroke="#63b8ff" points="741.08,-134.14 749.81,-128.14 739.24,-127.38 741.08,-134.14"/>
</a>
</g>
</g>
<!-- Node12 -->
<g id="Node000012" class="node">
<title>Node12</title>
<g id="a_Node000012"><a xlink:title=" ">
<polygon fill="#e0e0e0" stroke="#999999" points="863.25,-129.75 818,-129.75 818,-110.5 863.25,-110.5 863.25,-129.75"/>
<text text-anchor="middle" x="840.62" y="-116.25" font-family="Helvetica,sans-Serif" font-size="10.00">cstring</text>
</a>
</g>
</g>
<!-- Node6&#45;&gt;Node12 -->
<g id="edge11_Node000006_Node000012" class="edge">
<title>Node6&#45;&gt;Node12</title>
<g id="a_edge11_Node000006_Node000012"><a xlink:title=" ">
<path fill="none" stroke="#63b8ff" d="M612.01,-168.81C654.43,-161.36 731.33,-147.3 806.53,-130.1"/>
<polygon fill="#63b8ff" stroke="#63b8ff" points="807.17,-133.54 816.13,-127.88 805.6,-126.72 807.17,-133.54"/>
</a>
</g>
</g>
<!-- Node13 -->
<g id="Node000013" class="node">
<title>Node13</title>
<g id="a_Node000013"><a xlink:title=" ">
<polygon fill="#e0e0e0" stroke="#999999" points="551.38,-129.75 473.88,-129.75 473.88,-110.5 551.38,-110.5 551.38,-129.75"/>
<text text-anchor="middle" x="512.62" y="-116.25" font-family="Helvetica,sans-Serif" font-size="10.00">unordered_set</text>
</a>
</g>
</g>
<!-- Node6&#45;&gt;Node13 -->
<g id="edge12_Node000006_Node000013" class="edge">
<title>Node6&#45;&gt;Node13</title>
<g id="a_edge12_Node000006_Node000013"><a xlink:title=" ">
<path fill="none" stroke="#63b8ff" d="M568.26,-165.34C558.58,-157.65 544.43,-146.4 532.82,-137.18"/>
<polygon fill="#63b8ff" stroke="#63b8ff" points="535.01,-134.45 525.01,-130.97 530.66,-139.93 535.01,-134.45"/>
</a>
</g>
</g>
<!-- Node6&#45;&gt;Node14 -->
<g id="edge13_Node000006_Node000014" class="edge">
<title>Node6&#45;&gt;Node14</title>
<g id="a_edge13_Node000006_Node000014"><a xlink:title=" ">
<path fill="none" stroke="#63b8ff" d="M547.56,-170.91C492.13,-164.48 381.08,-149.53 347.62,-129.75 329.26,-118.89 314.41,-99.22 305.15,-84.57"/>
<polygon fill="#63b8ff" stroke="#63b8ff" points="308.34,-83.08 300.2,-76.29 302.33,-86.67 308.34,-83.08"/>
</a>
</g>
</g>
<!-- Node19 -->
<g id="Node000019" class="node">
<title>Node19</title>
<g id="a_Node000019"><a xlink:href="volume_8h.html" target="_top" xlink:title="this header file contains the declarations of the Volume class that handles a collection of images as...">
<polygon fill="white" stroke="#666666" points="456.25,-129.75 357,-129.75 357,-110.5 456.25,-110.5 456.25,-129.75"/>
<text text-anchor="middle" x="406.62" y="-116.25" font-family="Helvetica,sans-Serif" font-size="10.00">../volume/volume.h</text>
</a>
</g>
</g>
<!-- Node6&#45;&gt;Node19 -->
<g id="edge21_Node000006_Node000019" class="edge">
<title>Node6&#45;&gt;Node19</title>
<g id="a_edge21_Node000006_Node000019"><a xlink:title=" ">
<path fill="none" stroke="#63b8ff" d="M550.28,-165.34C521.82,-156.58 478.43,-143.23 446.78,-133.48"/>
<polygon fill="#63b8ff" stroke="#63b8ff" points="448.15,-130.24 437.56,-130.65 446.09,-136.93 448.15,-130.24"/>
</a>
</g>
</g>
<!-- Node14&#45;&gt;Node4 -->
<g id="edge14_Node000014_Node000004" class="edge">
<title>Node14&#45;&gt;Node4</title>
<g id="a_edge14_Node000014_Node000004"><a xlink:title=" ">
<path fill="none" stroke="#63b8ff" d="M272.23,-54.84C251.18,-46.35 219.42,-33.54 195.5,-23.89"/>
<polygon fill="#63b8ff" stroke="#63b8ff" points="197.11,-20.76 186.53,-20.27 194.49,-27.26 197.11,-20.76"/>
</a>
</g>
</g>
<!-- Node14&#45;&gt;Node7 -->
<g id="edge17_Node000014_Node000007" class="edge">
<title>Node14&#45;&gt;Node7</title>
<g id="a_edge17_Node000014_Node000007"><a xlink:title=" ">
<path fill="none" stroke="#63b8ff" d="M340.06,-56.17C387.19,-48.06 463.28,-34.62 538.72,-19.57"/>
<polygon fill="#63b8ff" stroke="#63b8ff" points="539.24,-23.03 548.36,-17.63 537.86,-16.17 539.24,-23.03"/>
</a>
</g>
</g>
<!-- Node14&#45;&gt;Node9 -->
<g id="edge16_Node000014_Node000009" class="edge">
<title>Node14&#45;&gt;Node9</title>
<g id="a_edge16_Node000014_Node000009"><a xlink:title=" ">
<path fill="none" stroke="#63b8ff" d="M340.15,-59.53C400.84,-53.31 511.74,-40.47 615.69,-19.39"/>
<polygon fill="#63b8ff" stroke="#63b8ff" points="616.13,-22.87 625.22,-17.42 614.72,-16.01 616.13,-22.87"/>
</a>
</g>
</g>
<!-- Node15 -->
<g id="Node000015" class="node">
<title>Node15</title>
<g id="a_Node000015"><a xlink:title=" ">
<polygon fill="#e0e0e0" stroke="#999999" points="313.62,-19.25 273.62,-19.25 273.62,0 313.62,0 313.62,-19.25"/>
<text text-anchor="middle" x="293.62" y="-5.75" font-family="Helvetica,sans-Serif" font-size="10.00">string</text>
</a>
</g>
</g>
<!-- Node14&#45;&gt;Node15 -->
<g id="edge15_Node000014_Node000015" class="edge">
<title>Node14&#45;&gt;Node15</title>
<g id="a_edge15_Node000014_Node000015"><a xlink:title=" ">
<path fill="none" stroke="#63b8ff" d="M294.46,-55.08C294.34,-48.57 294.17,-39.42 294.01,-31.12"/>
<polygon fill="#63b8ff" stroke="#63b8ff" points="297.51,-31.05 293.82,-21.12 290.51,-31.19 297.51,-31.05"/>
</a>
</g>
</g>
<!-- Node16 -->
<g id="Node000016" class="node">
<title>Node16</title>
<g id="a_Node000016"><a xlink:title=" ">
<polygon fill="#e0e0e0" stroke="#999999" points="255.75,-19.25 207.5,-19.25 207.5,0 255.75,0 255.75,-19.25"/>
<text text-anchor="middle" x="231.62" y="-5.75" font-family="Helvetica,sans-Serif" font-size="10.00">cassert</text>
</a>
</g>
</g>
<!-- Node14&#45;&gt;Node16 -->
<g id="edge18_Node000014_Node000016" class="edge">
<title>Node14&#45;&gt;Node16</title>
<g id="a_edge18_Node000014_Node000016"><a xlink:title=" ">
<path fill="none" stroke="#63b8ff" d="M283.94,-54.84C274.92,-47.22 261.79,-36.12 250.94,-26.95"/>
<polygon fill="#63b8ff" stroke="#63b8ff" points="253.21,-24.28 243.31,-20.5 248.69,-29.63 253.21,-24.28"/>
</a>
</g>
</g>
<!-- Node17 -->
<g id="Node000017" class="node">
<title>Node17</title>
<g id="a_Node000017"><a xlink:title=" ">
<polygon fill="#e0e0e0" stroke="#999999" points="409.75,-19.25 331.5,-19.25 331.5,0 409.75,0 409.75,-19.25"/>
<text text-anchor="middle" x="370.62" y="-5.75" font-family="Helvetica,sans-Serif" font-size="10.00">../stb_image.h</text>
</a>
</g>
</g>
<!-- Node14&#45;&gt;Node17 -->
<g id="edge19_Node000014_Node000017" class="edge">
<title>Node14&#45;&gt;Node17</title>
<g id="a_edge19_Node000014_Node000017"><a xlink:title=" ">
<path fill="none" stroke="#63b8ff" d="M307.52,-54.84C318.65,-47.04 335,-35.59 348.26,-26.29"/>
<polygon fill="#63b8ff" stroke="#63b8ff" points="350.25,-29.18 356.43,-20.57 346.23,-23.44 350.25,-29.18"/>
</a>
</g>
</g>
<!-- Node18 -->
<g id="Node000018" class="node">
<title>Node18</title>
<g id="a_Node000018"><a xlink:title=" ">
<polygon fill="#e0e0e0" stroke="#999999" points="531.88,-19.25 427.38,-19.25 427.38,0 531.88,0 531.88,-19.25"/>
<text text-anchor="middle" x="479.62" y="-5.75" font-family="Helvetica,sans-Serif" font-size="10.00">../stb_image_write.h</text>
</a>
</g>
</g>
<!-- Node14&#45;&gt;Node18 -->
<g id="edge20_Node000014_Node000018" class="edge">
<title>Node14&#45;&gt;Node18</title>
<g id="a_edge20_Node000014_Node000018"><a xlink:title=" ">
<path fill="none" stroke="#63b8ff" d="M326.01,-54.84C356.57,-46.04 403.25,-32.61 437.13,-22.86"/>
<polygon fill="#63b8ff" stroke="#63b8ff" points="437.99,-26.25 446.63,-20.12 436.06,-19.52 437.99,-26.25"/>
</a>
</g>
</g>
<!-- Node19&#45;&gt;Node4 -->
<g id="edge28_Node000019_Node000004" class="edge">
<title>Node19&#45;&gt;Node4</title>
<g id="a_edge28_Node000019_Node000004"><a xlink:title=" ">
<path fill="none" stroke="#63b8ff" d="M356.68,-111.41C322.64,-104.81 277.26,-93.31 240.62,-74.5 216.9,-62.32 193.78,-42.01 178.96,-27.56"/>
<polygon fill="#63b8ff" stroke="#63b8ff" points="181.47,-25.13 171.93,-20.52 176.52,-30.07 181.47,-25.13"/>
</a>
</g>
</g>
<!-- Node19&#45;&gt;Node5 -->
<g id="edge27_Node000019_Node000005" class="edge">
<title>Node19&#45;&gt;Node5</title>
<g id="a_edge27_Node000019_Node000005"><a xlink:title=" ">
<path fill="none" stroke="#63b8ff" d="M456.48,-111.5C525.31,-100.96 648.2,-82.16 712.61,-72.3"/>
<polygon fill="#63b8ff" stroke="#63b8ff" points="713.08,-75.77 722.43,-70.8 712.02,-68.85 713.08,-75.77"/>
</a>
</g>
</g>
<!-- Node19&#45;&gt;Node9 -->
<g id="edge25_Node000019_Node000009" class="edge">
<title>Node19&#45;&gt;Node9</title>
<g id="a_edge25_Node000019_Node000009"><a xlink:title=" ">
<path fill="none" stroke="#63b8ff" d="M426.84,-110.06C469.28,-91.03 567.87,-46.83 618.07,-24.33"/>
<polygon fill="#63b8ff" stroke="#63b8ff" points="619.22,-27.64 626.91,-20.36 616.36,-21.26 619.22,-27.64"/>
</a>
</g>
</g>
<!-- Node19&#45;&gt;Node14 -->
<g id="edge24_Node000019_Node000014" class="edge">
<title>Node19&#45;&gt;Node14</title>
<g id="a_edge24_Node000019_Node000014"><a xlink:title=" ">
<path fill="none" stroke="#63b8ff" d="M387.63,-110.09C370.17,-101.79 344.03,-89.36 323.9,-79.79"/>
<polygon fill="#63b8ff" stroke="#63b8ff" points="325.62,-76.74 315.08,-75.6 322.61,-83.06 325.62,-76.74"/>
</a>
</g>
</g>
<!-- Node19&#45;&gt;Node15 -->
<g id="edge26_Node000019_Node000015" class="edge">
<title>Node19&#45;&gt;Node15</title>
<g id="a_edge26_Node000019_Node000015"><a xlink:title=" ">
<path fill="none" stroke="#63b8ff" d="M399.15,-110.05C388.47,-97.3 368,-73.57 348.62,-55.25 337.96,-45.16 325.27,-34.77 314.77,-26.56"/>
<polygon fill="#63b8ff" stroke="#63b8ff" points="317.12,-23.95 307.07,-20.62 312.85,-29.5 317.12,-23.95"/>
</a>
</g>
</g>
<!-- Node19&#45;&gt;Node17 -->
<g id="edge22_Node000019_Node000017" class="edge">
<title>Node19&#45;&gt;Node17</title>
<g id="a_edge22_Node000019_Node000017"><a xlink:title=" ">
<path fill="none" stroke="#63b8ff" d="M403.68,-110.25C397.93,-92.92 385.09,-54.23 377.22,-30.49"/>
<polygon fill="#63b8ff" stroke="#63b8ff" points="380.56,-29.45 374.09,-21.06 373.92,-31.66 380.56,-29.45"/>
</a>
</g>
</g>
<!-- Node19&#45;&gt;Node18 -->
<g id="edge23_Node000019_Node000018" class="edge">
<title>Node19&#45;&gt;Node18</title>
<g id="a_edge23_Node000019_Node000018"><a xlink:title=" ">
<path fill="none" stroke="#63b8ff" d="M412.6,-110.25C424.52,-92.52 451.49,-52.44 467.34,-28.88"/>
<polygon fill="#63b8ff" stroke="#63b8ff" points="470.05,-31.13 472.72,-20.88 464.24,-27.23 470.05,-31.13"/>
</a>
</g>
</g>
<!-- Node20&#45;&gt;Node4 -->
<g id="edge30_Node000020_Node000004" class="edge">
<title>Node20&#45;&gt;Node4</title>
<g id="a_edge30_Node000020_Node000004"><a xlink:title=" ">
<path fill="none" stroke="#63b8ff" d="M320.66,-220.55C300.39,-213.5 274.68,-202.02 256.62,-185 208.94,-140.06 180.16,-65.42 168.57,-30.19"/>
<polygon fill="#63b8ff" stroke="#63b8ff" points="171.99,-29.4 165.63,-20.92 165.32,-31.51 171.99,-29.4"/>
</a>
</g>
</g>
<!-- Node20&#45;&gt;Node6 -->
<g id="edge31_Node000020_Node000006" class="edge">
<title>Node20&#45;&gt;Node6</title>
<g id="a_edge31_Node000020_Node000006"><a xlink:title=" ">
<path fill="none" stroke="#63b8ff" d="M389.1,-221.07C429.16,-211.67 493.48,-196.58 536.14,-186.58"/>
<polygon fill="#63b8ff" stroke="#63b8ff" points="536.88,-190 545.81,-184.31 535.28,-183.18 536.88,-190"/>
</a>
</g>
</g>
<!-- Node21 -->
<g id="Node000021" class="node">
<title>Node21</title>
<g id="a_Node000021"><a xlink:href="projection_8h.html" target="_top" xlink:title="this header file contains all the declarations of projections methods that can be applied to a volume...">
<polygon fill="white" stroke="#666666" points="480.75,-185 360.5,-185 360.5,-165.75 480.75,-165.75 480.75,-185"/>
<text text-anchor="middle" x="420.62" y="-171.5" font-family="Helvetica,sans-Serif" font-size="10.00">../projection/projection.h</text>
</a>
</g>
</g>
<!-- Node20&#45;&gt;Node21 -->
<g id="edge32_Node000020_Node000021" class="edge">
<title>Node20&#45;&gt;Node21</title>
<g id="a_edge32_Node000020_Node000021"><a xlink:title=" ">
<path fill="none" stroke="#63b8ff" d="M364.16,-220.59C374.09,-212.82 388.64,-201.42 400.48,-192.15"/>
<polygon fill="#63b8ff" stroke="#63b8ff" points="402.35,-195.13 408.07,-186.21 398.04,-189.62 402.35,-195.13"/>
</a>
</g>
</g>
<!-- Node22 -->
<g id="Node000022" class="node">
<title>Node22</title>
<g id="a_Node000022"><a xlink:href="slice_8h.html" target="_top" xlink:title="this header file contains all the declarations of slicing methods that can be applied to a volume.">
<polygon fill="white" stroke="#666666" points="342,-185 265.25,-185 265.25,-165.75 342,-165.75 342,-185"/>
<text text-anchor="middle" x="303.62" y="-171.5" font-family="Helvetica,sans-Serif" font-size="10.00">../slice/slice.h</text>
</a>
</g>
</g>
<!-- Node20&#45;&gt;Node22 -->
<g id="edge35_Node000020_Node000022" class="edge">
<title>Node20&#45;&gt;Node22</title>
<g id="a_edge35_Node000020_Node000022"><a xlink:title=" ">
<path fill="none" stroke="#63b8ff" d="M344.53,-220.83C337.77,-213.48 327.9,-202.76 319.56,-193.69"/>
<polygon fill="#63b8ff" stroke="#63b8ff" points="322.26,-191.46 312.92,-186.47 317.11,-196.2 322.26,-191.46"/>
</a>
</g>
</g>
<!-- Node21&#45;&gt;Node14 -->
<g id="edge33_Node000021_Node000014" class="edge">
<title>Node21&#45;&gt;Node14</title>
<g id="a_edge33_Node000021_Node000014"><a xlink:title=" ">
<path fill="none" stroke="#63b8ff" d="M377.37,-165.31C355.85,-158.75 331.01,-147.77 314.62,-129.75 303.73,-117.77 298.77,-99.91 296.51,-86.11"/>
<polygon fill="#63b8ff" stroke="#63b8ff" points="300.01,-85.87 295.29,-76.38 293.06,-86.74 300.01,-85.87"/>
</a>
</g>
</g>
<!-- Node21&#45;&gt;Node19 -->
<g id="edge34_Node000021_Node000019" class="edge">
<title>Node21&#45;&gt;Node19</title>
<g id="a_edge34_Node000021_Node000019"><a xlink:title=" ">
<path fill="none" stroke="#63b8ff" d="M418.31,-165.58C416.56,-158.92 414.08,-149.49 411.86,-141.03"/>
<polygon fill="#63b8ff" stroke="#63b8ff" points="415.3,-140.35 409.37,-131.57 408.53,-142.13 415.3,-140.35"/>
</a>
</g>
</g>
<!-- Node22&#45;&gt;Node14 -->
<g id="edge37_Node000022_Node000014" class="edge">
<title>Node22&#45;&gt;Node14</title>
<g id="a_edge37_Node000022_Node000014"><a xlink:title=" ">
<path fill="none" stroke="#63b8ff" d="M296.22,-165.5C289.62,-156.95 280.42,-143.36 276.62,-129.75 272.41,-114.64 277.77,-97.54 283.71,-84.84"/>
<polygon fill="#63b8ff" stroke="#63b8ff" points="286.64,-86.8 288.15,-76.31 280.43,-83.56 286.64,-86.8"/>
</a>
</g>
</g>
<!-- Node22&#45;&gt;Node19 -->
<g id="edge36_Node000022_Node000019" class="edge">
<title>Node22&#45;&gt;Node19</title>
<g id="a_edge36_Node000022_Node000019"><a xlink:title=" ">
<path fill="none" stroke="#63b8ff" d="M321.1,-165.34C336.93,-157.16 360.53,-144.96 378.93,-135.44"/>
<polygon fill="#63b8ff" stroke="#63b8ff" points="380.45,-138.6 387.72,-130.9 377.23,-132.38 380.45,-138.6"/>
</a>
</g>
</g>
</g>
</svg>
