<?xml version="1.0" encoding="UTF-8" standalone="no"?>
<!DOCTYPE svg PUBLIC "-//W3C//DTD SVG 1.1//EN"
 "http://www.w3.org/Graphics/SVG/1.1/DTD/svg11.dtd">
<!-- Generated by graphviz version 10.0.1 (20240210.2158)
 -->
<!-- Title: /Users/st1123/CLionProjects/advanced&#45;programming&#45;group&#45;linear&#45;regression/src/projection/projection.h Pages: 1 -->
<svg width="544pt" height="227pt"
 viewBox="0.00 0.00 543.62 226.75" xmlns="http://www.w3.org/2000/svg" xmlns:xlink="http://www.w3.org/1999/xlink">
<g id="graph0" class="graph" transform="scale(1 1) rotate(0) translate(4 222.75)">
<title>/Users/st1123/CLionProjects/advanced&#45;programming&#45;group&#45;linear&#45;regression/src/projection/projection.h</title>
<!-- Node1 -->
<g id="Node000001" class="node">
<title>Node1</title>
<g id="a_Node000001"><a xlink:title="this header file contains all the declarations of projections methods that can be applied to a volume...">
<polygon fill="#999999" stroke="#666666" points="362,-218.75 210.25,-218.75 210.25,-165.75 362,-165.75 362,-218.75"/>
<text text-anchor="start" x="218.25" y="-205.25" font-family="Helvetica,sans-Serif" font-size="10.00">/Users/st1123/CLionProjects</text>
<text text-anchor="start" x="218.25" y="-194" font-family="Helvetica,sans-Serif" font-size="10.00">/advanced&#45;programming&#45;group</text>
<text text-anchor="start" x="218.25" y="-182.75" font-family="Helvetica,sans-Serif" font-size="10.00">&#45;linear&#45;regression/src/projection</text>
<text text-anchor="middle" x="286.12" y="-171.5" font-family="Helvetica,sans-Serif" font-size="10.00">/projection.h</text>
</a>
</g>
</g>
<!-- Node2 -->
<g id="Node000002" class="node">
<title>Node2</title>
<g id="a_Node000002"><a xlink:href="_image_8h.html" target="_top" xlink:title="this header file contains all required functions and definitions for the Image class,...">
<polygon fill="white" stroke="#666666" points="265.25,-74.5 175,-74.5 175,-55.25 265.25,-55.25 265.25,-74.5"/>
<text text-anchor="middle" x="220.12" y="-61" font-family="Helvetica,sans-Serif" font-size="10.00">../Image/Image.h</text>
</a>
</g>
</g>
<!-- Node1&#45;&gt;Node2 -->
<g id="edge1_Node000001_Node000002" class="edge">
<title>Node1&#45;&gt;Node2</title>
<g id="a_edge1_Node000001_Node000002"><a xlink:title=" ">
<path fill="none" stroke="#63b8ff" d="M272.45,-165.27C259.84,-141.32 241.42,-106.32 230.13,-84.88"/>
<polygon fill="#63b8ff" stroke="#63b8ff" points="233.27,-83.33 225.52,-76.12 227.08,-86.6 233.27,-83.33"/>
</a>
</g>
</g>
<!-- Node10 -->
<g id="Node000010" class="node">
<title>Node10</title>
<g id="a_Node000010"><a xlink:href="volume_8h.html" target="_top" xlink:title="this header file contains the declarations of the Volume class that handles a collection of images as...">
<polygon fill="white" stroke="#666666" points="387.75,-129.75 288.5,-129.75 288.5,-110.5 387.75,-110.5 387.75,-129.75"/>
<text text-anchor="middle" x="338.12" y="-116.25" font-family="Helvetica,sans-Serif" font-size="10.00">../volume/volume.h</text>
</a>
</g>
</g>
<!-- Node1&#45;&gt;Node10 -->
<g id="edge9_Node000001_Node000010" class="edge">
<title>Node1&#45;&gt;Node10</title>
<g id="a_edge9_Node000001_Node000010"><a xlink:title=" ">
<path fill="none" stroke="#63b8ff" d="M305.19,-165.54C311.63,-156.85 318.69,-147.34 324.61,-139.36"/>
<polygon fill="#63b8ff" stroke="#63b8ff" points="327.32,-141.57 330.47,-131.45 321.7,-137.4 327.32,-141.57"/>
</a>
</g>
</g>
<!-- Node3 -->
<g id="Node000003" class="node">
<title>Node3</title>
<g id="a_Node000003"><a xlink:title=" ">
<polygon fill="#e0e0e0" stroke="#999999" points="415.88,-19.25 362.38,-19.25 362.38,0 415.88,0 415.88,-19.25"/>
<text text-anchor="middle" x="389.12" y="-5.75" font-family="Helvetica,sans-Serif" font-size="10.00">iostream</text>
</a>
</g>
</g>
<!-- Node2&#45;&gt;Node3 -->
<g id="edge2_Node000002_Node000003" class="edge">
<title>Node2&#45;&gt;Node3</title>
<g id="a_edge2_Node000002_Node000003"><a xlink:title=" ">
<path fill="none" stroke="#63b8ff" d="M248.79,-54.84C276.97,-45.96 320.15,-32.36 351.17,-22.58"/>
<polygon fill="#63b8ff" stroke="#63b8ff" points="352.07,-25.97 360.55,-19.63 349.96,-19.3 352.07,-25.97"/>
</a>
</g>
</g>
<!-- Node4 -->
<g id="Node000004" class="node">
<title>Node4</title>
<g id="a_Node000004"><a xlink:title=" ">
<polygon fill="#e0e0e0" stroke="#999999" points="474.12,-19.25 434.12,-19.25 434.12,0 474.12,0 474.12,-19.25"/>
<text text-anchor="middle" x="454.12" y="-5.75" font-family="Helvetica,sans-Serif" font-size="10.00">string</text>
</a>
</g>
</g>
<!-- Node2&#45;&gt;Node4 -->
<g id="edge3_Node000002_Node000004" class="edge">
<title>Node2&#45;&gt;Node4</title>
<g id="a_edge3_Node000002_Node000004"><a xlink:title=" ">
<path fill="none" stroke="#63b8ff" d="M265.55,-55C304.8,-47.11 363.27,-34.81 422.78,-19.7"/>
<polygon fill="#63b8ff" stroke="#63b8ff" points="423.62,-23.1 432.43,-17.23 421.88,-16.32 423.62,-23.1"/>
</a>
</g>
</g>
<!-- Node5 -->
<g id="Node000005" class="node">
<title>Node5</title>
<g id="a_Node000005"><a xlink:title=" ">
<polygon fill="#e0e0e0" stroke="#999999" points="535.62,-19.25 492.62,-19.25 492.62,0 535.62,0 535.62,-19.25"/>
<text text-anchor="middle" x="514.12" y="-5.75" font-family="Helvetica,sans-Serif" font-size="10.00">vector</text>
</a>
</g>
</g>
<!-- Node2&#45;&gt;Node5 -->
<g id="edge4_Node000002_Node000005" class="edge">
<title>Node2&#45;&gt;Node5</title>
<g id="a_edge4_Node000002_Node000005"><a xlink:title=" ">
<path fill="none" stroke="#63b8ff" d="M265.54,-57.62C315.93,-50.37 399.82,-37.34 481.23,-19.47"/>
<polygon fill="#63b8ff" stroke="#63b8ff" points="481.7,-22.95 490.7,-17.36 480.18,-16.12 481.7,-22.95"/>
</a>
</g>
</g>
<!-- Node6 -->
<g id="Node000006" class="node">
<title>Node6</title>
<g id="a_Node000006"><a xlink:title=" ">
<polygon fill="#e0e0e0" stroke="#999999" points="155.5,-19.25 96.75,-19.25 96.75,0 155.5,0 155.5,-19.25"/>
<text text-anchor="middle" x="126.12" y="-5.75" font-family="Helvetica,sans-Serif" font-size="10.00">stdexcept</text>
</a>
</g>
</g>
<!-- Node2&#45;&gt;Node6 -->
<g id="edge5_Node000002_Node000006" class="edge">
<title>Node2&#45;&gt;Node6</title>
<g id="a_edge5_Node000002_Node000006"><a xlink:title=" ">
<path fill="none" stroke="#63b8ff" d="M204.18,-54.84C189.86,-46.73 168.59,-34.68 151.87,-25.21"/>
<polygon fill="#63b8ff" stroke="#63b8ff" points="153.89,-22.33 143.47,-20.45 150.44,-28.42 153.89,-22.33"/>
</a>
</g>
</g>
<!-- Node7 -->
<g id="Node000007" class="node">
<title>Node7</title>
<g id="a_Node000007"><a xlink:title=" ">
<polygon fill="#e0e0e0" stroke="#999999" points="222.25,-19.25 174,-19.25 174,0 222.25,0 222.25,-19.25"/>
<text text-anchor="middle" x="198.12" y="-5.75" font-family="Helvetica,sans-Serif" font-size="10.00">cassert</text>
</a>
</g>
</g>
<!-- Node2&#45;&gt;Node7 -->
<g id="edge6_Node000002_Node000007" class="edge">
<title>Node2&#45;&gt;Node7</title>
<g id="a_edge6_Node000002_Node000007"><a xlink:title=" ">
<path fill="none" stroke="#63b8ff" d="M216.49,-55.08C213.71,-48.34 209.75,-38.77 206.23,-30.24"/>
<polygon fill="#63b8ff" stroke="#63b8ff" points="209.47,-28.91 202.41,-21.01 203,-31.59 209.47,-28.91"/>
</a>
</g>
</g>
<!-- Node8 -->
<g id="Node000008" class="node">
<title>Node8</title>
<g id="a_Node000008"><a xlink:title=" ">
<polygon fill="#e0e0e0" stroke="#999999" points="78.25,-19.25 0,-19.25 0,0 78.25,0 78.25,-19.25"/>
<text text-anchor="middle" x="39.12" y="-5.75" font-family="Helvetica,sans-Serif" font-size="10.00">../stb_image.h</text>
</a>
</g>
</g>
<!-- Node2&#45;&gt;Node8 -->
<g id="edge7_Node000002_Node000008" class="edge">
<title>Node2&#45;&gt;Node8</title>
<g id="a_edge7_Node000002_Node000008"><a xlink:title=" ">
<path fill="none" stroke="#63b8ff" d="M189.42,-54.84C159.52,-46.04 113.85,-32.61 80.7,-22.86"/>
<polygon fill="#63b8ff" stroke="#63b8ff" points="82.01,-19.59 71.43,-20.13 80.04,-26.31 82.01,-19.59"/>
</a>
</g>
</g>
<!-- Node9 -->
<g id="Node000009" class="node">
<title>Node9</title>
<g id="a_Node000009"><a xlink:title=" ">
<polygon fill="#e0e0e0" stroke="#999999" points="344.38,-19.25 239.88,-19.25 239.88,0 344.38,0 344.38,-19.25"/>
<text text-anchor="middle" x="292.12" y="-5.75" font-family="Helvetica,sans-Serif" font-size="10.00">../stb_image_write.h</text>
</a>
</g>
</g>
<!-- Node2&#45;&gt;Node9 -->
<g id="edge8_Node000002_Node000009" class="edge">
<title>Node2&#45;&gt;Node9</title>
<g id="a_edge8_Node000002_Node000009"><a xlink:title=" ">
<path fill="none" stroke="#63b8ff" d="M232.34,-54.84C242.95,-46.99 258.56,-35.45 271.17,-26.12"/>
<polygon fill="#63b8ff" stroke="#63b8ff" points="272.92,-29.19 278.87,-20.42 268.75,-23.56 272.92,-29.19"/>
</a>
</g>
</g>
<!-- Node10&#45;&gt;Node2 -->
<g id="edge12_Node000010_Node000002" class="edge">
<title>Node10&#45;&gt;Node2</title>
<g id="a_edge12_Node000010_Node000002"><a xlink:title=" ">
<path fill="none" stroke="#63b8ff" d="M318.11,-110.09C299.63,-101.75 271.92,-89.25 250.68,-79.66"/>
<polygon fill="#63b8ff" stroke="#63b8ff" points="252.17,-76.5 241.62,-75.58 249.3,-82.88 252.17,-76.5"/>
</a>
</g>
</g>
<!-- Node10&#45;&gt;Node3 -->
<g id="edge16_Node000010_Node000003" class="edge">
<title>Node10&#45;&gt;Node3</title>
<g id="a_edge16_Node000010_Node000003"><a xlink:title=" ">
<path fill="none" stroke="#63b8ff" d="M355.8,-110.07C368.51,-102.48 384.66,-90.34 392.12,-74.5 398.58,-60.8 397.3,-43.56 394.7,-30.45"/>
<polygon fill="#63b8ff" stroke="#63b8ff" points="398.13,-29.75 392.37,-20.86 391.33,-31.41 398.13,-29.75"/>
</a>
</g>
</g>
<!-- Node10&#45;&gt;Node4 -->
<g id="edge14_Node000010_Node000004" class="edge">
<title>Node10&#45;&gt;Node4</title>
<g id="a_edge14_Node000010_Node000004"><a xlink:title=" ">
<path fill="none" stroke="#63b8ff" d="M356.11,-110.15C371.08,-102.12 392.41,-89.35 408.12,-74.5 422.23,-61.17 434.85,-42.97 443.28,-29.41"/>
<polygon fill="#63b8ff" stroke="#63b8ff" points="446.18,-31.38 448.32,-21 440.17,-27.78 446.18,-31.38"/>
</a>
</g>
</g>
<!-- Node10&#45;&gt;Node5 -->
<g id="edge13_Node000010_Node000005" class="edge">
<title>Node10&#45;&gt;Node5</title>
<g id="a_edge13_Node000010_Node000005"><a xlink:title=" ">
<path fill="none" stroke="#63b8ff" d="M359.32,-110.1C378.15,-101.77 406.18,-88.58 429.12,-74.5 452.8,-59.98 478.01,-40.46 494.77,-26.84"/>
<polygon fill="#63b8ff" stroke="#63b8ff" points="496.92,-29.6 502.42,-20.54 492.47,-24.19 496.92,-29.6"/>
</a>
</g>
</g>
<!-- Node10&#45;&gt;Node8 -->
<g id="edge10_Node000010_Node000008" class="edge">
<title>Node10&#45;&gt;Node8</title>
<g id="a_edge10_Node000010_Node000008"><a xlink:title=" ">
<path fill="none" stroke="#63b8ff" d="M292.41,-110.04C257.27,-102.39 207.85,-90.2 166.12,-74.5 129.34,-60.66 89.18,-39.32 64.07,-25.17"/>
<polygon fill="#63b8ff" stroke="#63b8ff" points="66.02,-22.25 55.6,-20.34 62.55,-28.33 66.02,-22.25"/>
</a>
</g>
</g>
<!-- Node10&#45;&gt;Node9 -->
<g id="edge11_Node000010_Node000009" class="edge">
<title>Node10&#45;&gt;Node9</title>
<g id="a_edge11_Node000010_Node000009"><a xlink:title=" ">
<path fill="none" stroke="#63b8ff" d="M332.42,-110.16C326.97,-101.33 318.77,-87.34 313.12,-74.5 306.79,-60.08 301.3,-43.13 297.52,-30.31"/>
<polygon fill="#63b8ff" stroke="#63b8ff" points="300.97,-29.62 294.87,-20.96 294.23,-31.53 300.97,-29.62"/>
</a>
</g>
</g>
<!-- Node11 -->
<g id="Node000011" class="node">
<title>Node11</title>
<g id="a_Node000011"><a xlink:title=" ">
<polygon fill="#e0e0e0" stroke="#999999" points="382.62,-74.5 321.62,-74.5 321.62,-55.25 382.62,-55.25 382.62,-74.5"/>
<text text-anchor="middle" x="352.12" y="-61" font-family="Helvetica,sans-Serif" font-size="10.00">filesystem</text>
</a>
</g>
</g>
<!-- Node10&#45;&gt;Node11 -->
<g id="edge15_Node000010_Node000011" class="edge">
<title>Node10&#45;&gt;Node11</title>
<g id="a_edge15_Node000010_Node000011"><a xlink:title=" ">
<path fill="none" stroke="#63b8ff" d="M340.44,-110.33C342.19,-103.67 344.67,-94.24 346.89,-85.78"/>
<polygon fill="#63b8ff" stroke="#63b8ff" points="350.22,-86.88 349.38,-76.32 343.45,-85.1 350.22,-86.88"/>
</a>
</g>
</g>
</g>
</svg>
