<?xml version="1.0" encoding="UTF-8" standalone="no"?>
<!DOCTYPE svg PUBLIC "-//W3C//DTD SVG 1.1//EN"
 "http://www.w3.org/Graphics/SVG/1.1/DTD/svg11.dtd">
<!-- Generated by graphviz version 10.0.1 (20240210.2158)
 -->
<!-- Title: /Users/st1123/CLionProjects/advanced&#45;programming&#45;group&#45;linear&#45;regression/src/projection/projection.cpp Pages: 1 -->
<svg width="653pt" height="282pt"
 viewBox="0.00 0.00 652.88 282.00" xmlns="http://www.w3.org/2000/svg" xmlns:xlink="http://www.w3.org/1999/xlink">
<g id="graph0" class="graph" transform="scale(1 1) rotate(0) translate(4 278)">
<title>/Users/st1123/CLionProjects/advanced&#45;programming&#45;group&#45;linear&#45;regression/src/projection/projection.cpp</title>
<!-- Node1 -->
<g id="Node000001" class="node">
<title>Node1</title>
<g id="a_Node000001"><a xlink:title="this file contains the implementation of all the projections methods that can be applied to a volume.">
<polygon fill="#999999" stroke="#666666" points="392,-274 240.25,-274 240.25,-221 392,-221 392,-274"/>
<text text-anchor="start" x="248.25" y="-260.5" font-family="Helvetica,sans-Serif" font-size="10.00">/Users/st1123/CLionProjects</text>
<text text-anchor="start" x="248.25" y="-249.25" font-family="Helvetica,sans-Serif" font-size="10.00">/advanced&#45;programming&#45;group</text>
<text text-anchor="start" x="248.25" y="-238" font-family="Helvetica,sans-Serif" font-size="10.00">&#45;linear&#45;regression/src/projection</text>
<text text-anchor="middle" x="316.12" y="-226.75" font-family="Helvetica,sans-Serif" font-size="10.00">/projection.cpp</text>
</a>
</g>
</g>
<!-- Node2 -->
<g id="Node000002" class="node">
<title>Node2</title>
<g id="a_Node000002"><a xlink:href="projection_8h.html" target="_top" xlink:title="this header file contains all the declarations of projections methods that can be applied to a volume...">
<polygon fill="white" stroke="#666666" points="431.25,-185 365,-185 365,-165.75 431.25,-165.75 431.25,-185"/>
<text text-anchor="middle" x="398.12" y="-171.5" font-family="Helvetica,sans-Serif" font-size="10.00">projection.h</text>
</a>
</g>
</g>
<!-- Node1&#45;&gt;Node2 -->
<g id="edge1_Node000001_Node000002" class="edge">
<title>Node1&#45;&gt;Node2</title>
<g id="a_edge1_Node000001_Node000002"><a xlink:title=" ">
<path fill="none" stroke="#63b8ff" d="M346.19,-220.79C357.14,-211.43 369.21,-201.11 378.95,-192.77"/>
<polygon fill="#63b8ff" stroke="#63b8ff" points="381,-195.63 386.32,-186.47 376.45,-190.31 381,-195.63"/>
</a>
</g>
</g>
<!-- Node13 -->
<g id="Node000013" class="node">
<title>Node13</title>
<g id="a_Node000013"><a xlink:href="filter_8h.html" target="_top" xlink:title="this header file will contain all the filters (2D / 3D) that can be applied to the image and volume d...">
<polygon fill="white" stroke="#666666" points="270.62,-185 197.62,-185 197.62,-165.75 270.62,-165.75 270.62,-185"/>
<text text-anchor="middle" x="234.12" y="-171.5" font-family="Helvetica,sans-Serif" font-size="10.00">../filter/filter.h</text>
</a>
</g>
</g>
<!-- Node1&#45;&gt;Node13 -->
<g id="edge18_Node000001_Node000013" class="edge">
<title>Node1&#45;&gt;Node13</title>
<g id="a_edge18_Node000001_Node000013"><a xlink:title=" ">
<path fill="none" stroke="#63b8ff" d="M286.06,-220.79C275.11,-211.43 263.04,-201.11 253.3,-192.77"/>
<polygon fill="#63b8ff" stroke="#63b8ff" points="255.8,-190.31 245.93,-186.47 251.25,-195.63 255.8,-190.31"/>
</a>
</g>
</g>
<!-- Node3 -->
<g id="Node000003" class="node">
<title>Node3</title>
<g id="a_Node000003"><a xlink:href="_image_8h.html" target="_top" xlink:title="this header file contains all required functions and definitions for the Image class,...">
<polygon fill="white" stroke="#666666" points="337.25,-74.5 247,-74.5 247,-55.25 337.25,-55.25 337.25,-74.5"/>
<text text-anchor="middle" x="292.12" y="-61" font-family="Helvetica,sans-Serif" font-size="10.00">../Image/Image.h</text>
</a>
</g>
</g>
<!-- Node2&#45;&gt;Node3 -->
<g id="edge2_Node000002_Node000003" class="edge">
<title>Node2&#45;&gt;Node3</title>
<g id="a_edge2_Node000002_Node000003"><a xlink:title=" ">
<path fill="none" stroke="#63b8ff" d="M397.65,-165.51C396.51,-152.15 392.58,-126.7 379.12,-110.5 367.29,-96.25 349.75,-86.04 333.5,-79.02"/>
<polygon fill="#63b8ff" stroke="#63b8ff" points="335.08,-75.88 324.49,-75.41 332.48,-82.38 335.08,-75.88"/>
</a>
</g>
</g>
<!-- Node11 -->
<g id="Node000011" class="node">
<title>Node11</title>
<g id="a_Node000011"><a xlink:href="volume_8h.html" target="_top" xlink:title="this header file contains the declarations of the Volume class that handles a collection of images as...">
<polygon fill="white" stroke="#666666" points="525.75,-129.75 426.5,-129.75 426.5,-110.5 525.75,-110.5 525.75,-129.75"/>
<text text-anchor="middle" x="476.12" y="-116.25" font-family="Helvetica,sans-Serif" font-size="10.00">../volume/volume.h</text>
</a>
</g>
</g>
<!-- Node2&#45;&gt;Node11 -->
<g id="edge10_Node000002_Node000011" class="edge">
<title>Node2&#45;&gt;Node11</title>
<g id="a_edge10_Node000002_Node000011"><a xlink:title=" ">
<path fill="none" stroke="#63b8ff" d="M411.36,-165.34C422.9,-157.46 439.89,-145.86 453.57,-136.52"/>
<polygon fill="#63b8ff" stroke="#63b8ff" points="455.29,-139.58 461.58,-131.06 451.35,-133.8 455.29,-139.58"/>
</a>
</g>
</g>
<!-- Node4 -->
<g id="Node000004" class="node">
<title>Node4</title>
<g id="a_Node000004"><a xlink:title=" ">
<polygon fill="#e0e0e0" stroke="#999999" points="644.88,-19.25 591.38,-19.25 591.38,0 644.88,0 644.88,-19.25"/>
<text text-anchor="middle" x="618.12" y="-5.75" font-family="Helvetica,sans-Serif" font-size="10.00">iostream</text>
</a>
</g>
</g>
<!-- Node3&#45;&gt;Node4 -->
<g id="edge3_Node000003_Node000004" class="edge">
<title>Node3&#45;&gt;Node4</title>
<g id="a_edge3_Node000003_Node000004"><a xlink:title=" ">
<path fill="none" stroke="#63b8ff" d="M337.53,-58.07C392.56,-50.77 488.3,-37.24 579.9,-19.54"/>
<polygon fill="#63b8ff" stroke="#63b8ff" points="580.42,-23.01 589.57,-17.65 579.08,-16.14 580.42,-23.01"/>
</a>
</g>
</g>
<!-- Node5 -->
<g id="Node000005" class="node">
<title>Node5</title>
<g id="a_Node000005"><a xlink:title=" ">
<polygon fill="#e0e0e0" stroke="#999999" points="355.12,-19.25 315.12,-19.25 315.12,0 355.12,0 355.12,-19.25"/>
<text text-anchor="middle" x="335.12" y="-5.75" font-family="Helvetica,sans-Serif" font-size="10.00">string</text>
</a>
</g>
</g>
<!-- Node3&#45;&gt;Node5 -->
<g id="edge4_Node000003_Node000005" class="edge">
<title>Node3&#45;&gt;Node5</title>
<g id="a_edge4_Node000003_Node000005"><a xlink:title=" ">
<path fill="none" stroke="#63b8ff" d="M299.23,-55.08C305.04,-47.88 313.46,-37.46 320.68,-28.51"/>
<polygon fill="#63b8ff" stroke="#63b8ff" points="323.36,-30.77 326.92,-20.79 317.91,-26.37 323.36,-30.77"/>
</a>
</g>
</g>
<!-- Node6 -->
<g id="Node000006" class="node">
<title>Node6</title>
<g id="a_Node000006"><a xlink:title=" ">
<polygon fill="#e0e0e0" stroke="#999999" points="230.62,-19.25 187.62,-19.25 187.62,0 230.62,0 230.62,-19.25"/>
<text text-anchor="middle" x="209.12" y="-5.75" font-family="Helvetica,sans-Serif" font-size="10.00">vector</text>
</a>
</g>
</g>
<!-- Node3&#45;&gt;Node6 -->
<g id="edge5_Node000003_Node000006" class="edge">
<title>Node3&#45;&gt;Node6</title>
<g id="a_edge5_Node000003_Node000006"><a xlink:title=" ">
<path fill="none" stroke="#63b8ff" d="M278.05,-54.84C265.64,-46.89 247.33,-35.14 232.7,-25.75"/>
<polygon fill="#63b8ff" stroke="#63b8ff" points="234.85,-22.97 224.55,-20.52 231.07,-28.87 234.85,-22.97"/>
</a>
</g>
</g>
<!-- Node7 -->
<g id="Node000007" class="node">
<title>Node7</title>
<g id="a_Node000007"><a xlink:title=" ">
<polygon fill="#e0e0e0" stroke="#999999" points="169.5,-19.25 110.75,-19.25 110.75,0 169.5,0 169.5,-19.25"/>
<text text-anchor="middle" x="140.12" y="-5.75" font-family="Helvetica,sans-Serif" font-size="10.00">stdexcept</text>
</a>
</g>
</g>
<!-- Node3&#45;&gt;Node7 -->
<g id="edge6_Node000003_Node000007" class="edge">
<title>Node3&#45;&gt;Node7</title>
<g id="a_edge6_Node000003_Node000007"><a xlink:title=" ">
<path fill="none" stroke="#63b8ff" d="M266.34,-54.84C241.77,-46.24 204.54,-33.19 176.87,-23.5"/>
<polygon fill="#63b8ff" stroke="#63b8ff" points="178.06,-20.21 167.46,-20.2 175.75,-26.81 178.06,-20.21"/>
</a>
</g>
</g>
<!-- Node8 -->
<g id="Node000008" class="node">
<title>Node8</title>
<g id="a_Node000008"><a xlink:title=" ">
<polygon fill="#e0e0e0" stroke="#999999" points="297.25,-19.25 249,-19.25 249,0 297.25,0 297.25,-19.25"/>
<text text-anchor="middle" x="273.12" y="-5.75" font-family="Helvetica,sans-Serif" font-size="10.00">cassert</text>
</a>
</g>
</g>
<!-- Node3&#45;&gt;Node8 -->
<g id="edge7_Node000003_Node000008" class="edge">
<title>Node3&#45;&gt;Node8</title>
<g id="a_edge7_Node000003_Node000008"><a xlink:title=" ">
<path fill="none" stroke="#63b8ff" d="M288.99,-55.08C286.58,-48.34 283.17,-38.77 280.12,-30.24"/>
<polygon fill="#63b8ff" stroke="#63b8ff" points="283.5,-29.28 276.84,-21.03 276.9,-31.63 283.5,-29.28"/>
</a>
</g>
</g>
<!-- Node9 -->
<g id="Node000009" class="node">
<title>Node9</title>
<g id="a_Node000009"><a xlink:title=" ">
<polygon fill="#e0e0e0" stroke="#999999" points="451.25,-19.25 373,-19.25 373,0 451.25,0 451.25,-19.25"/>
<text text-anchor="middle" x="412.12" y="-5.75" font-family="Helvetica,sans-Serif" font-size="10.00">../stb_image.h</text>
</a>
</g>
</g>
<!-- Node3&#45;&gt;Node9 -->
<g id="edge8_Node000003_Node000009" class="edge">
<title>Node3&#45;&gt;Node9</title>
<g id="a_edge8_Node000003_Node000009"><a xlink:title=" ">
<path fill="none" stroke="#63b8ff" d="M312.48,-54.84C331.36,-46.47 359.71,-33.88 381.35,-24.28"/>
<polygon fill="#63b8ff" stroke="#63b8ff" points="382.56,-27.57 390.29,-20.32 379.73,-21.17 382.56,-27.57"/>
</a>
</g>
</g>
<!-- Node10 -->
<g id="Node000010" class="node">
<title>Node10</title>
<g id="a_Node000010"><a xlink:title=" ">
<polygon fill="#e0e0e0" stroke="#999999" points="573.38,-19.25 468.88,-19.25 468.88,0 573.38,0 573.38,-19.25"/>
<text text-anchor="middle" x="521.12" y="-5.75" font-family="Helvetica,sans-Serif" font-size="10.00">../stb_image_write.h</text>
</a>
</g>
</g>
<!-- Node3&#45;&gt;Node10 -->
<g id="edge9_Node000003_Node000010" class="edge">
<title>Node3&#45;&gt;Node10</title>
<g id="a_edge9_Node000003_Node000010"><a xlink:title=" ">
<path fill="none" stroke="#63b8ff" d="M331.23,-54.78C369.85,-45.8 429.06,-32.03 471.08,-22.26"/>
<polygon fill="#63b8ff" stroke="#63b8ff" points="471.76,-25.7 480.71,-20.02 470.17,-18.88 471.76,-25.7"/>
</a>
</g>
</g>
<!-- Node11&#45;&gt;Node3 -->
<g id="edge13_Node000011_Node000003" class="edge">
<title>Node11&#45;&gt;Node3</title>
<g id="a_edge13_Node000011_Node000003"><a xlink:title=" ">
<path fill="none" stroke="#63b8ff" d="M444.91,-110.09C414.51,-101.29 368.09,-87.86 334.39,-78.11"/>
<polygon fill="#63b8ff" stroke="#63b8ff" points="335.52,-74.79 324.95,-75.37 333.58,-81.52 335.52,-74.79"/>
</a>
</g>
</g>
<!-- Node11&#45;&gt;Node4 -->
<g id="edge17_Node000011_Node000004" class="edge">
<title>Node11&#45;&gt;Node4</title>
<g id="a_edge17_Node000011_Node000004"><a xlink:title=" ">
<path fill="none" stroke="#63b8ff" d="M487.75,-110.25C511.77,-91.89 567.2,-49.54 597.47,-26.41"/>
<polygon fill="#63b8ff" stroke="#63b8ff" points="599.32,-29.4 605.14,-20.55 595.07,-23.84 599.32,-29.4"/>
</a>
</g>
</g>
<!-- Node11&#45;&gt;Node5 -->
<g id="edge15_Node000011_Node000005" class="edge">
<title>Node11&#45;&gt;Node5</title>
<g id="a_edge15_Node000011_Node000005"><a xlink:title=" ">
<path fill="none" stroke="#63b8ff" d="M449.67,-110.09C430.2,-102.59 403.8,-90.54 384.12,-74.5 368.41,-61.69 354.78,-42.89 345.91,-29.01"/>
<polygon fill="#63b8ff" stroke="#63b8ff" points="349.1,-27.51 340.89,-20.81 343.13,-31.17 349.1,-27.51"/>
</a>
</g>
</g>
<!-- Node11&#45;&gt;Node6 -->
<g id="edge14_Node000011_Node000006" class="edge">
<title>Node11&#45;&gt;Node6</title>
<g id="a_edge14_Node000011_Node000006"><a xlink:title=" ">
<path fill="none" stroke="#63b8ff" d="M426.05,-115.15C365.09,-109.39 266.7,-96.91 238.12,-74.5 224.35,-63.7 216.9,-44.89 213.02,-30.47"/>
<polygon fill="#63b8ff" stroke="#63b8ff" points="216.52,-30.1 210.87,-21.13 209.7,-31.66 216.52,-30.1"/>
</a>
</g>
</g>
<!-- Node11&#45;&gt;Node9 -->
<g id="edge11_Node000011_Node000009" class="edge">
<title>Node11&#45;&gt;Node9</title>
<g id="a_edge11_Node000011_Node000009"><a xlink:title=" ">
<path fill="none" stroke="#63b8ff" d="M476.27,-110.23C476.09,-97.27 474.28,-72.84 464.12,-55.25 457.45,-43.7 446.65,-33.7 436.61,-26.11"/>
<polygon fill="#63b8ff" stroke="#63b8ff" points="438.81,-23.38 428.62,-20.48 434.77,-29.1 438.81,-23.38"/>
</a>
</g>
</g>
<!-- Node11&#45;&gt;Node10 -->
<g id="edge12_Node000011_Node000010" class="edge">
<title>Node11&#45;&gt;Node10</title>
<g id="a_edge12_Node000011_Node000010"><a xlink:title=" ">
<path fill="none" stroke="#63b8ff" d="M480.52,-110.33C484.92,-101.4 491.79,-87.12 497.12,-74.5 503.34,-59.78 509.67,-42.84 514.27,-30.1"/>
<polygon fill="#63b8ff" stroke="#63b8ff" points="517.52,-31.41 517.58,-20.82 510.92,-29.06 517.52,-31.41"/>
</a>
</g>
</g>
<!-- Node12 -->
<g id="Node000012" class="node">
<title>Node12</title>
<g id="a_Node000012"><a xlink:title=" ">
<polygon fill="#e0e0e0" stroke="#999999" points="454.62,-74.5 393.62,-74.5 393.62,-55.25 454.62,-55.25 454.62,-74.5"/>
<text text-anchor="middle" x="424.12" y="-61" font-family="Helvetica,sans-Serif" font-size="10.00">filesystem</text>
</a>
</g>
</g>
<!-- Node11&#45;&gt;Node12 -->
<g id="edge16_Node000011_Node000012" class="edge">
<title>Node11&#45;&gt;Node12</title>
<g id="a_edge16_Node000011_Node000012"><a xlink:title=" ">
<path fill="none" stroke="#63b8ff" d="M467.54,-110.33C460.28,-102.9 449.67,-92.04 440.76,-82.91"/>
<polygon fill="#63b8ff" stroke="#63b8ff" points="443.45,-80.65 433.96,-75.94 438.44,-85.54 443.45,-80.65"/>
</a>
</g>
</g>
<!-- Node13&#45;&gt;Node3 -->
<g id="edge25_Node000013_Node000003" class="edge">
<title>Node13&#45;&gt;Node3</title>
<g id="a_edge25_Node000013_Node000003"><a xlink:title=" ">
<path fill="none" stroke="#63b8ff" d="M243.17,-165.56C251.45,-157.06 263.53,-143.49 271.12,-129.75 278.74,-115.97 284.16,-98.98 287.59,-85.98"/>
<polygon fill="#63b8ff" stroke="#63b8ff" points="290.94,-87 289.91,-76.46 284.14,-85.35 290.94,-87"/>
</a>
</g>
</g>
<!-- Node13&#45;&gt;Node6 -->
<g id="edge21_Node000013_Node000006" class="edge">
<title>Node13&#45;&gt;Node6</title>
<g id="a_edge21_Node000013_Node000006"><a xlink:title=" ">
<path fill="none" stroke="#63b8ff" d="M223.34,-165.39C214.39,-157.17 202.31,-144.14 197.12,-129.75 185.06,-96.3 194.48,-54.35 202.06,-30.2"/>
<polygon fill="#63b8ff" stroke="#63b8ff" points="205.27,-31.65 205.15,-21.05 198.63,-29.41 205.27,-31.65"/>
</a>
</g>
</g>
<!-- Node13&#45;&gt;Node7 -->
<g id="edge19_Node000013_Node000007" class="edge">
<title>Node13&#45;&gt;Node7</title>
<g id="a_edge19_Node000013_Node000007"><a xlink:title=" ">
<path fill="none" stroke="#63b8ff" d="M222.88,-165.47C212.92,-157.12 198.55,-143.83 189.12,-129.75 167.73,-97.8 152.97,-55.02 145.59,-30.38"/>
<polygon fill="#63b8ff" stroke="#63b8ff" points="149.03,-29.68 142.89,-21.04 142.3,-31.62 149.03,-29.68"/>
</a>
</g>
</g>
<!-- Node13&#45;&gt;Node11 -->
<g id="edge26_Node000013_Node000011" class="edge">
<title>Node13&#45;&gt;Node11</title>
<g id="a_edge26_Node000013_Node000011"><a xlink:title=" ">
<path fill="none" stroke="#63b8ff" d="M270.88,-166.29C311.68,-157.31 377.85,-142.75 423.99,-132.6"/>
<polygon fill="#63b8ff" stroke="#63b8ff" points="424.47,-136.07 433.49,-130.51 422.97,-129.24 424.47,-136.07"/>
</a>
</g>
</g>
<!-- Node14 -->
<g id="Node000014" class="node">
<title>Node14</title>
<g id="a_Node000014"><a xlink:title=" ">
<polygon fill="#e0e0e0" stroke="#999999" points="262,-129.75 206.25,-129.75 206.25,-110.5 262,-110.5 262,-129.75"/>
<text text-anchor="middle" x="234.12" y="-116.25" font-family="Helvetica,sans-Serif" font-size="10.00">algorithm</text>
</a>
</g>
</g>
<!-- Node13&#45;&gt;Node14 -->
<g id="edge20_Node000013_Node000014" class="edge">
<title>Node13&#45;&gt;Node14</title>
<g id="a_edge20_Node000013_Node000014"><a xlink:title=" ">
<path fill="none" stroke="#63b8ff" d="M234.12,-165.58C234.12,-159.07 234.12,-149.92 234.12,-141.62"/>
<polygon fill="#63b8ff" stroke="#63b8ff" points="237.63,-141.62 234.13,-131.62 230.63,-141.62 237.63,-141.62"/>
</a>
</g>
</g>
<!-- Node15 -->
<g id="Node000015" class="node">
<title>Node15</title>
<g id="a_Node000015"><a xlink:title=" ">
<polygon fill="#e0e0e0" stroke="#999999" points="369.75,-129.75 318.5,-129.75 318.5,-110.5 369.75,-110.5 369.75,-129.75"/>
<text text-anchor="middle" x="344.12" y="-116.25" font-family="Helvetica,sans-Serif" font-size="10.00">memory</text>
</a>
</g>
</g>
<!-- Node13&#45;&gt;Node15 -->
<g id="edge22_Node000013_Node000015" class="edge">
<title>Node13&#45;&gt;Node15</title>
<g id="a_edge22_Node000013_Node000015"><a xlink:title=" ">
<path fill="none" stroke="#63b8ff" d="M252.79,-165.34C269.85,-157.08 295.37,-144.73 315.1,-135.18"/>
<polygon fill="#63b8ff" stroke="#63b8ff" points="316.54,-138.37 324.01,-130.86 313.49,-132.07 316.54,-138.37"/>
</a>
</g>
</g>
<!-- Node16 -->
<g id="Node000016" class="node">
<title>Node16</title>
<g id="a_Node000016"><a xlink:title=" ">
<polygon fill="#e0e0e0" stroke="#999999" points="48.25,-129.75 0,-129.75 0,-110.5 48.25,-110.5 48.25,-129.75"/>
<text text-anchor="middle" x="24.12" y="-116.25" font-family="Helvetica,sans-Serif" font-size="10.00">random</text>
</a>
</g>
</g>
<!-- Node13&#45;&gt;Node16 -->
<g id="edge23_Node000013_Node000016" class="edge">
<title>Node13&#45;&gt;Node16</title>
<g id="a_edge23_Node000013_Node000016"><a xlink:title=" ">
<path fill="none" stroke="#63b8ff" d="M197.83,-165.32C164.34,-156.95 112.94,-144.04 59.66,-130.39"/>
<polygon fill="#63b8ff" stroke="#63b8ff" points="60.65,-127.03 50.09,-127.93 58.91,-133.81 60.65,-127.03"/>
</a>
</g>
</g>
<!-- Node17 -->
<g id="Node000017" class="node">
<title>Node17</title>
<g id="a_Node000017"><a xlink:title=" ">
<polygon fill="#e0e0e0" stroke="#999999" points="111.75,-129.75 66.5,-129.75 66.5,-110.5 111.75,-110.5 111.75,-129.75"/>
<text text-anchor="middle" x="89.12" y="-116.25" font-family="Helvetica,sans-Serif" font-size="10.00">cstring</text>
</a>
</g>
</g>
<!-- Node13&#45;&gt;Node17 -->
<g id="edge24_Node000013_Node000017" class="edge">
<title>Node13&#45;&gt;Node17</title>
<g id="a_edge24_Node000013_Node000017"><a xlink:title=" ">
<path fill="none" stroke="#63b8ff" d="M209.53,-165.34C185.63,-156.57 149.17,-143.18 122.63,-133.43"/>
<polygon fill="#63b8ff" stroke="#63b8ff" points="123.94,-130.18 113.35,-130.02 121.53,-136.75 123.94,-130.18"/>
</a>
</g>
</g>
</g>
</svg>
