<?xml version="1.0" encoding="UTF-8" standalone="no"?>
<!DOCTYPE svg PUBLIC "-//W3C//DTD SVG 1.1//EN"
 "http://www.w3.org/Graphics/SVG/1.1/DTD/svg11.dtd">
<!-- Generated by graphviz version 10.0.1 (20240210.2158)
 -->
<!-- Title: /Users/st1123/CLionProjects/advanced&#45;programming&#45;group&#45;linear&#45;regression/src/projection/projection.cpp Pages: 1 -->
<svg width="740pt" height="282pt"
 viewBox="0.00 0.00 739.88 282.00" xmlns="http://www.w3.org/2000/svg" xmlns:xlink="http://www.w3.org/1999/xlink">
<g id="graph0" class="graph" transform="scale(1 1) rotate(0) translate(4 278)">
<title>/Users/st1123/CLionProjects/advanced&#45;programming&#45;group&#45;linear&#45;regression/src/projection/projection.cpp</title>
<!-- Node1 -->
<g id="Node000001" class="node">
<title>Node1</title>
<g id="a_Node000001"><a xlink:title="this file contains the implementation of all the projections methods that can be applied to a volume.">
<polygon fill="#999999" stroke="#666666" points="412.62,-274 260.88,-274 260.88,-221 412.62,-221 412.62,-274"/>
<text text-anchor="start" x="268.88" y="-260.5" font-family="Helvetica,sans-Serif" font-size="10.00">/Users/st1123/CLionProjects</text>
<text text-anchor="start" x="268.88" y="-249.25" font-family="Helvetica,sans-Serif" font-size="10.00">/advanced&#45;programming&#45;group</text>
<text text-anchor="start" x="268.88" y="-238" font-family="Helvetica,sans-Serif" font-size="10.00">&#45;linear&#45;regression/src/projection</text>
<text text-anchor="middle" x="336.75" y="-226.75" font-family="Helvetica,sans-Serif" font-size="10.00">/projection.cpp</text>
</a>
</g>
</g>
<!-- Node2 -->
<g id="Node000002" class="node">
<title>Node2</title>
<g id="a_Node000002"><a xlink:href="projection_8h.html" target="_top" xlink:title="this header file contains all the declarations of projections methods that can be applied to a volume...">
<polygon fill="white" stroke="#666666" points="271.88,-185 205.62,-185 205.62,-165.75 271.88,-165.75 271.88,-185"/>
<text text-anchor="middle" x="238.75" y="-171.5" font-family="Helvetica,sans-Serif" font-size="10.00">projection.h</text>
</a>
</g>
</g>
<!-- Node1&#45;&gt;Node2 -->
<g id="edge1_Node000001_Node000002" class="edge">
<title>Node1&#45;&gt;Node2</title>
<g id="a_edge1_Node000001_Node000002"><a xlink:title=" ">
<path fill="none" stroke="#63b8ff" d="M300.54,-220.59C287.08,-210.96 272.23,-200.33 260.47,-191.91"/>
<polygon fill="#63b8ff" stroke="#63b8ff" points="262.81,-189.29 252.64,-186.31 258.73,-194.98 262.81,-189.29"/>
</a>
</g>
</g>
<!-- Node13 -->
<g id="Node000013" class="node">
<title>Node13</title>
<g id="a_Node000013"><a xlink:href="filter_8h.html" target="_top" xlink:title="this header file will contain all the filters (2D / 3D) that can be applied to the image and volume d...">
<polygon fill="white" stroke="#666666" points="491.25,-185 418.25,-185 418.25,-165.75 491.25,-165.75 491.25,-185"/>
<text text-anchor="middle" x="454.75" y="-171.5" font-family="Helvetica,sans-Serif" font-size="10.00">../filter/filter.h</text>
</a>
</g>
</g>
<!-- Node1&#45;&gt;Node13 -->
<g id="edge18_Node000001_Node000013" class="edge">
<title>Node1&#45;&gt;Node13</title>
<g id="a_edge18_Node000001_Node000013"><a xlink:title=" ">
<path fill="none" stroke="#63b8ff" d="M380.35,-220.59C397.05,-210.67 415.51,-199.69 429.87,-191.16"/>
<polygon fill="#63b8ff" stroke="#63b8ff" points="431.4,-194.32 438.21,-186.2 427.82,-188.3 431.4,-194.32"/>
</a>
</g>
</g>
<!-- Node3 -->
<g id="Node000003" class="node">
<title>Node3</title>
<g id="a_Node000003"><a xlink:href="_image_8h.html" target="_top" xlink:title="this header file contains all required functions and definitions for the Image class,...">
<polygon fill="white" stroke="#666666" points="331.88,-74.5 241.62,-74.5 241.62,-55.25 331.88,-55.25 331.88,-74.5"/>
<text text-anchor="middle" x="286.75" y="-61" font-family="Helvetica,sans-Serif" font-size="10.00">../Image/Image.h</text>
</a>
</g>
</g>
<!-- Node2&#45;&gt;Node3 -->
<g id="edge2_Node000002_Node000003" class="edge">
<title>Node2&#45;&gt;Node3</title>
<g id="a_edge2_Node000002_Node000003"><a xlink:title=" ">
<path fill="none" stroke="#63b8ff" d="M240.56,-165.41C243.3,-152.77 249.11,-129.2 257.75,-110.5 261.95,-101.4 267.8,-92 273.14,-84.19"/>
<polygon fill="#63b8ff" stroke="#63b8ff" points="275.87,-86.4 278.82,-76.23 270.17,-82.34 275.87,-86.4"/>
</a>
</g>
</g>
<!-- Node11 -->
<g id="Node000011" class="node">
<title>Node11</title>
<g id="a_Node000011"><a xlink:href="volume_8h.html" target="_top" xlink:title="this header file contains the declarations of the Volume class that handles a collection of images as...">
<polygon fill="white" stroke="#666666" points="210.38,-129.75 111.12,-129.75 111.12,-110.5 210.38,-110.5 210.38,-129.75"/>
<text text-anchor="middle" x="160.75" y="-116.25" font-family="Helvetica,sans-Serif" font-size="10.00">../volume/volume.h</text>
</a>
</g>
</g>
<!-- Node2&#45;&gt;Node11 -->
<g id="edge10_Node000002_Node000011" class="edge">
<title>Node2&#45;&gt;Node11</title>
<g id="a_edge10_Node000002_Node000011"><a xlink:title=" ">
<path fill="none" stroke="#63b8ff" d="M225.52,-165.34C213.98,-157.46 196.98,-145.86 183.3,-136.52"/>
<polygon fill="#63b8ff" stroke="#63b8ff" points="185.53,-133.8 175.3,-131.06 181.58,-139.58 185.53,-133.8"/>
</a>
</g>
</g>
<!-- Node4 -->
<g id="Node000004" class="node">
<title>Node4</title>
<g id="a_Node000004"><a xlink:title=" ">
<polygon fill="#e0e0e0" stroke="#999999" points="53.5,-19.25 0,-19.25 0,0 53.5,0 53.5,-19.25"/>
<text text-anchor="middle" x="26.75" y="-5.75" font-family="Helvetica,sans-Serif" font-size="10.00">iostream</text>
</a>
</g>
</g>
<!-- Node3&#45;&gt;Node4 -->
<g id="edge3_Node000003_Node000004" class="edge">
<title>Node3&#45;&gt;Node4</title>
<g id="a_edge3_Node000003_Node000004"><a xlink:title=" ">
<path fill="none" stroke="#63b8ff" d="M242.35,-54.78C192.48,-44.57 112.35,-28.16 65.1,-18.48"/>
<polygon fill="#63b8ff" stroke="#63b8ff" points="65.81,-15.05 55.31,-16.48 64.41,-21.91 65.81,-15.05"/>
</a>
</g>
</g>
<!-- Node5 -->
<g id="Node000005" class="node">
<title>Node5</title>
<g id="a_Node000005"><a xlink:title=" ">
<polygon fill="#e0e0e0" stroke="#999999" points="118.75,-19.25 78.75,-19.25 78.75,0 118.75,0 118.75,-19.25"/>
<text text-anchor="middle" x="98.75" y="-5.75" font-family="Helvetica,sans-Serif" font-size="10.00">string</text>
</a>
</g>
</g>
<!-- Node3&#45;&gt;Node5 -->
<g id="edge4_Node000003_Node000005" class="edge">
<title>Node3&#45;&gt;Node5</title>
<g id="a_edge4_Node000003_Node000005"><a xlink:title=" ">
<path fill="none" stroke="#63b8ff" d="M253.82,-54.79C223.9,-46.51 178.26,-33.78 130.01,-19.87"/>
<polygon fill="#63b8ff" stroke="#63b8ff" points="131.05,-16.53 120.47,-17.12 129.11,-23.25 131.05,-16.53"/>
</a>
</g>
</g>
<!-- Node6 -->
<g id="Node000006" class="node">
<title>Node6</title>
<g id="a_Node000006"><a xlink:title=" ">
<polygon fill="#e0e0e0" stroke="#999999" points="464.25,-19.25 421.25,-19.25 421.25,0 464.25,0 464.25,-19.25"/>
<text text-anchor="middle" x="442.75" y="-5.75" font-family="Helvetica,sans-Serif" font-size="10.00">vector</text>
</a>
</g>
</g>
<!-- Node3&#45;&gt;Node6 -->
<g id="edge5_Node000003_Node000006" class="edge">
<title>Node3&#45;&gt;Node6</title>
<g id="a_edge5_Node000003_Node000006"><a xlink:title=" ">
<path fill="none" stroke="#63b8ff" d="M313.21,-54.84C340.07,-45.67 381.69,-31.47 410.47,-21.64"/>
<polygon fill="#63b8ff" stroke="#63b8ff" points="411.42,-25.02 419.76,-18.47 409.16,-18.39 411.42,-25.02"/>
</a>
</g>
</g>
<!-- Node7 -->
<g id="Node000007" class="node">
<title>Node7</title>
<g id="a_Node000007"><a xlink:title=" ">
<polygon fill="#e0e0e0" stroke="#999999" points="541.12,-19.25 482.38,-19.25 482.38,0 541.12,0 541.12,-19.25"/>
<text text-anchor="middle" x="511.75" y="-5.75" font-family="Helvetica,sans-Serif" font-size="10.00">stdexcept</text>
</a>
</g>
</g>
<!-- Node3&#45;&gt;Node7 -->
<g id="edge6_Node000003_Node000007" class="edge">
<title>Node3&#45;&gt;Node7</title>
<g id="a_edge6_Node000003_Node000007"><a xlink:title=" ">
<path fill="none" stroke="#63b8ff" d="M325.17,-54.78C365.79,-45.17 429.59,-30.07 471.04,-20.26"/>
<polygon fill="#63b8ff" stroke="#63b8ff" points="471.71,-23.7 480.63,-17.99 470.1,-16.89 471.71,-23.7"/>
</a>
</g>
</g>
<!-- Node8 -->
<g id="Node000008" class="node">
<title>Node8</title>
<g id="a_Node000008"><a xlink:title=" ">
<polygon fill="#e0e0e0" stroke="#999999" points="402.88,-19.25 354.62,-19.25 354.62,0 402.88,0 402.88,-19.25"/>
<text text-anchor="middle" x="378.75" y="-5.75" font-family="Helvetica,sans-Serif" font-size="10.00">cassert</text>
</a>
</g>
</g>
<!-- Node3&#45;&gt;Node8 -->
<g id="edge7_Node000003_Node000008" class="edge">
<title>Node3&#45;&gt;Node8</title>
<g id="a_edge7_Node000003_Node000008"><a xlink:title=" ">
<path fill="none" stroke="#63b8ff" d="M302.36,-54.84C316.37,-46.73 337.18,-34.68 353.55,-25.21"/>
<polygon fill="#63b8ff" stroke="#63b8ff" points="354.86,-28.5 361.76,-20.46 351.35,-22.44 354.86,-28.5"/>
</a>
</g>
</g>
<!-- Node9 -->
<g id="Node000009" class="node">
<title>Node9</title>
<g id="a_Node000009"><a xlink:title=" ">
<polygon fill="#e0e0e0" stroke="#999999" points="214.88,-19.25 136.62,-19.25 136.62,0 214.88,0 214.88,-19.25"/>
<text text-anchor="middle" x="175.75" y="-5.75" font-family="Helvetica,sans-Serif" font-size="10.00">../stb_image.h</text>
</a>
</g>
</g>
<!-- Node3&#45;&gt;Node9 -->
<g id="edge8_Node000003_Node000009" class="edge">
<title>Node3&#45;&gt;Node9</title>
<g id="a_edge8_Node000003_Node000009"><a xlink:title=" ">
<path fill="none" stroke="#63b8ff" d="M267.92,-54.84C250.7,-46.58 224.95,-34.23 205.04,-24.68"/>
<polygon fill="#63b8ff" stroke="#63b8ff" points="206.57,-21.53 196.04,-20.36 203.54,-27.84 206.57,-21.53"/>
</a>
</g>
</g>
<!-- Node10 -->
<g id="Node000010" class="node">
<title>Node10</title>
<g id="a_Node000010"><a xlink:title=" ">
<polygon fill="#e0e0e0" stroke="#999999" points="337,-19.25 232.5,-19.25 232.5,0 337,0 337,-19.25"/>
<text text-anchor="middle" x="284.75" y="-5.75" font-family="Helvetica,sans-Serif" font-size="10.00">../stb_image_write.h</text>
</a>
</g>
</g>
<!-- Node3&#45;&gt;Node10 -->
<g id="edge9_Node000003_Node000010" class="edge">
<title>Node3&#45;&gt;Node10</title>
<g id="a_edge9_Node000003_Node000010"><a xlink:title=" ">
<path fill="none" stroke="#63b8ff" d="M286.42,-55.08C286.17,-48.49 285.82,-39.21 285.51,-30.82"/>
<polygon fill="#63b8ff" stroke="#63b8ff" points="289.02,-30.98 285.14,-21.12 282.02,-31.25 289.02,-30.98"/>
</a>
</g>
</g>
<!-- Node11&#45;&gt;Node3 -->
<g id="edge13_Node000011_Node000003" class="edge">
<title>Node11&#45;&gt;Node3</title>
<g id="a_edge13_Node000011_Node000003"><a xlink:title=" ">
<path fill="none" stroke="#63b8ff" d="M182.12,-110.09C202.04,-101.68 231.99,-89.02 254.75,-79.4"/>
<polygon fill="#63b8ff" stroke="#63b8ff" points="256.03,-82.66 263.88,-75.54 253.3,-76.21 256.03,-82.66"/>
</a>
</g>
</g>
<!-- Node11&#45;&gt;Node4 -->
<g id="edge17_Node000011_Node000004" class="edge">
<title>Node11&#45;&gt;Node4</title>
<g id="a_edge17_Node000011_Node000004"><a xlink:title=" ">
<path fill="none" stroke="#63b8ff" d="M110.7,-112.64C85.55,-106.79 56.68,-95.66 38.75,-74.5 28.59,-62.5 25.93,-44.64 25.62,-30.86"/>
<polygon fill="#63b8ff" stroke="#63b8ff" points="29.12,-31.21 25.82,-21.14 22.12,-31.06 29.12,-31.21"/>
</a>
</g>
</g>
<!-- Node11&#45;&gt;Node5 -->
<g id="edge15_Node000011_Node000005" class="edge">
<title>Node11&#45;&gt;Node5</title>
<g id="a_edge15_Node000011_Node000005"><a xlink:title=" ">
<path fill="none" stroke="#63b8ff" d="M155.68,-110.25C145.64,-92.68 123.06,-53.16 109.54,-29.52"/>
<polygon fill="#63b8ff" stroke="#63b8ff" points="112.65,-27.89 104.64,-20.94 106.57,-31.36 112.65,-27.89"/>
</a>
</g>
</g>
<!-- Node11&#45;&gt;Node6 -->
<g id="edge14_Node000011_Node000006" class="edge">
<title>Node11&#45;&gt;Node6</title>
<g id="a_edge14_Node000011_Node000006"><a xlink:title=" ">
<path fill="none" stroke="#63b8ff" d="M210.62,-111.15C247.53,-104.22 298.51,-92.42 340.75,-74.5 370.86,-61.72 402.29,-40.69 422.16,-26.27"/>
<polygon fill="#63b8ff" stroke="#63b8ff" points="424.01,-29.26 429.97,-20.5 419.85,-23.63 424.01,-29.26"/>
</a>
</g>
</g>
<!-- Node11&#45;&gt;Node9 -->
<g id="edge11_Node000011_Node000009" class="edge">
<title>Node11&#45;&gt;Node9</title>
<g id="a_edge11_Node000011_Node000009"><a xlink:title=" ">
<path fill="none" stroke="#63b8ff" d="M161.98,-110.25C164.36,-93 169.67,-54.58 172.96,-30.81"/>
<polygon fill="#63b8ff" stroke="#63b8ff" points="176.4,-31.51 174.3,-21.13 169.46,-30.55 176.4,-31.51"/>
</a>
</g>
</g>
<!-- Node11&#45;&gt;Node10 -->
<g id="edge12_Node000011_Node000010" class="edge">
<title>Node11&#45;&gt;Node10</title>
<g id="a_edge12_Node000011_Node000010"><a xlink:title=" ">
<path fill="none" stroke="#63b8ff" d="M170.49,-110.4C184.28,-98.05 210.34,-74.81 232.75,-55.25 243.62,-45.77 255.86,-35.26 265.73,-26.82"/>
<polygon fill="#63b8ff" stroke="#63b8ff" points="267.86,-29.6 273.2,-20.45 263.32,-24.28 267.86,-29.6"/>
</a>
</g>
</g>
<!-- Node12 -->
<g id="Node000012" class="node">
<title>Node12</title>
<g id="a_Node000012"><a xlink:title=" ">
<polygon fill="#e0e0e0" stroke="#999999" points="109.25,-74.5 48.25,-74.5 48.25,-55.25 109.25,-55.25 109.25,-74.5"/>
<text text-anchor="middle" x="78.75" y="-61" font-family="Helvetica,sans-Serif" font-size="10.00">filesystem</text>
</a>
</g>
</g>
<!-- Node11&#45;&gt;Node12 -->
<g id="edge16_Node000011_Node000012" class="edge">
<title>Node11&#45;&gt;Node12</title>
<g id="a_edge16_Node000011_Node000012"><a xlink:title=" ">
<path fill="none" stroke="#63b8ff" d="M146.84,-110.09C134.59,-102.14 116.5,-90.39 102.04,-81"/>
<polygon fill="#63b8ff" stroke="#63b8ff" points="104.29,-78.29 94,-75.78 100.48,-84.16 104.29,-78.29"/>
</a>
</g>
</g>
<!-- Node13&#45;&gt;Node3 -->
<g id="edge26_Node000013_Node000003" class="edge">
<title>Node13&#45;&gt;Node3</title>
<g id="a_edge26_Node000013_Node000003"><a xlink:title=" ">
<path fill="none" stroke="#63b8ff" d="M451.8,-165.61C446.75,-151.92 435.18,-125.47 416.75,-110.5 395.71,-93.4 367.75,-82.69 343.14,-76.07"/>
<polygon fill="#63b8ff" stroke="#63b8ff" points="344.13,-72.71 333.58,-73.67 342.43,-79.5 344.13,-72.71"/>
</a>
</g>
</g>
<!-- Node13&#45;&gt;Node6 -->
<g id="edge21_Node000013_Node000006" class="edge">
<title>Node13&#45;&gt;Node6</title>
<g id="a_edge21_Node000013_Node000006"><a xlink:title=" ">
<path fill="none" stroke="#63b8ff" d="M454.1,-165.57C452.25,-140.25 446.86,-66.75 444.23,-30.84"/>
<polygon fill="#63b8ff" stroke="#63b8ff" points="447.73,-30.7 443.51,-20.98 440.75,-31.21 447.73,-30.7"/>
</a>
</g>
</g>
<!-- Node13&#45;&gt;Node7 -->
<g id="edge19_Node000013_Node000007" class="edge">
<title>Node13&#45;&gt;Node7</title>
<g id="a_edge19_Node000013_Node000007"><a xlink:title=" ">
<path fill="none" stroke="#63b8ff" d="M457.81,-165.57C466.71,-140.03 492.66,-65.45 505.04,-29.9"/>
<polygon fill="#63b8ff" stroke="#63b8ff" points="508.19,-31.5 508.17,-20.9 501.58,-29.2 508.19,-31.5"/>
</a>
</g>
</g>
<!-- Node13&#45;&gt;Node11 -->
<g id="edge27_Node000013_Node000011" class="edge">
<title>Node13&#45;&gt;Node11</title>
<g id="a_edge27_Node000013_Node000011"><a xlink:title=" ">
<path fill="none" stroke="#63b8ff" d="M417.81,-167.68C368.62,-158.78 280.96,-142.9 221.85,-132.19"/>
<polygon fill="#63b8ff" stroke="#63b8ff" points="222.75,-128.8 212.29,-130.46 221.5,-135.69 222.75,-128.8"/>
</a>
</g>
</g>
<!-- Node14 -->
<g id="Node000014" class="node">
<title>Node14</title>
<g id="a_Node000014"><a xlink:title=" ">
<polygon fill="#e0e0e0" stroke="#999999" points="595.62,-129.75 539.88,-129.75 539.88,-110.5 595.62,-110.5 595.62,-129.75"/>
<text text-anchor="middle" x="567.75" y="-116.25" font-family="Helvetica,sans-Serif" font-size="10.00">algorithm</text>
</a>
</g>
</g>
<!-- Node13&#45;&gt;Node14 -->
<g id="edge20_Node000013_Node000014" class="edge">
<title>Node13&#45;&gt;Node14</title>
<g id="a_edge20_Node000013_Node000014"><a xlink:title=" ">
<path fill="none" stroke="#63b8ff" d="M473.92,-165.34C491.53,-157.04 517.91,-144.61 538.21,-135.04"/>
<polygon fill="#63b8ff" stroke="#63b8ff" points="539.56,-138.28 547.12,-130.85 536.58,-131.94 539.56,-138.28"/>
</a>
</g>
</g>
<!-- Node15 -->
<g id="Node000015" class="node">
<title>Node15</title>
<g id="a_Node000015"><a xlink:title=" ">
<polygon fill="#e0e0e0" stroke="#999999" points="665.38,-129.75 614.12,-129.75 614.12,-110.5 665.38,-110.5 665.38,-129.75"/>
<text text-anchor="middle" x="639.75" y="-116.25" font-family="Helvetica,sans-Serif" font-size="10.00">memory</text>
</a>
</g>
</g>
<!-- Node13&#45;&gt;Node15 -->
<g id="edge22_Node000013_Node000015" class="edge">
<title>Node13&#45;&gt;Node15</title>
<g id="a_edge22_Node000013_Node000015"><a xlink:title=" ">
<path fill="none" stroke="#63b8ff" d="M486.13,-165.34C518.46,-156.04 568.8,-141.55 602.98,-131.71"/>
<polygon fill="#63b8ff" stroke="#63b8ff" points="603.8,-135.12 612.44,-128.99 601.86,-128.39 603.8,-135.12"/>
</a>
</g>
</g>
<!-- Node16 -->
<g id="Node000016" class="node">
<title>Node16</title>
<g id="a_Node000016"><a xlink:title=" ">
<polygon fill="#e0e0e0" stroke="#999999" points="731.88,-129.75 683.62,-129.75 683.62,-110.5 731.88,-110.5 731.88,-129.75"/>
<text text-anchor="middle" x="707.75" y="-116.25" font-family="Helvetica,sans-Serif" font-size="10.00">random</text>
</a>
</g>
</g>
<!-- Node13&#45;&gt;Node16 -->
<g id="edge23_Node000013_Node000016" class="edge">
<title>Node13&#45;&gt;Node16</title>
<g id="a_edge23_Node000013_Node000016"><a xlink:title=" ">
<path fill="none" stroke="#63b8ff" d="M491.48,-167.57C533.04,-159.73 603.02,-146.1 672.19,-130.25"/>
<polygon fill="#63b8ff" stroke="#63b8ff" points="672.85,-133.69 681.8,-128.02 671.27,-126.87 672.85,-133.69"/>
</a>
</g>
</g>
<!-- Node17 -->
<g id="Node000017" class="node">
<title>Node17</title>
<g id="a_Node000017"><a xlink:title=" ">
<polygon fill="#e0e0e0" stroke="#999999" points="312.38,-129.75 267.12,-129.75 267.12,-110.5 312.38,-110.5 312.38,-129.75"/>
<text text-anchor="middle" x="289.75" y="-116.25" font-family="Helvetica,sans-Serif" font-size="10.00">cstring</text>
</a>
</g>
</g>
<!-- Node13&#45;&gt;Node17 -->
<g id="edge24_Node000013_Node000017" class="edge">
<title>Node13&#45;&gt;Node17</title>
<g id="a_edge24_Node000013_Node000017"><a xlink:title=" ">
<path fill="none" stroke="#63b8ff" d="M426.76,-165.34C398.31,-156.16 354.2,-141.92 323.75,-132.1"/>
<polygon fill="#63b8ff" stroke="#63b8ff" points="324.84,-128.77 314.25,-129.03 322.69,-135.43 324.84,-128.77"/>
</a>
</g>
</g>
<!-- Node18 -->
<g id="Node000018" class="node">
<title>Node18</title>
<g id="a_Node000018"><a xlink:title=" ">
<polygon fill="#e0e0e0" stroke="#999999" points="407.5,-129.75 330,-129.75 330,-110.5 407.5,-110.5 407.5,-129.75"/>
<text text-anchor="middle" x="368.75" y="-116.25" font-family="Helvetica,sans-Serif" font-size="10.00">unordered_set</text>
</a>
</g>
</g>
<!-- Node13&#45;&gt;Node18 -->
<g id="edge25_Node000013_Node000018" class="edge">
<title>Node13&#45;&gt;Node18</title>
<g id="a_edge25_Node000013_Node000018"><a xlink:title=" ">
<path fill="none" stroke="#63b8ff" d="M440.16,-165.34C427.31,-157.39 408.34,-145.64 393.18,-136.25"/>
<polygon fill="#63b8ff" stroke="#63b8ff" points="395.04,-133.29 384.7,-131 391.36,-139.24 395.04,-133.29"/>
</a>
</g>
</g>
</g>
</svg>
