<?xml version="1.0" encoding="UTF-8" standalone="no"?>
<!DOCTYPE svg PUBLIC "-//W3C//DTD SVG 1.1//EN"
 "http://www.w3.org/Graphics/SVG/1.1/DTD/svg11.dtd">
<!-- Generated by graphviz version 10.0.1 (20240210.2158)
 -->
<!-- Title: /Users/st1123/CLionProjects/advanced&#45;programming&#45;group&#45;linear&#45;regression/src/slice/slice.cpp Pages: 1 -->
<svg width="543pt" height="282pt"
 viewBox="0.00 0.00 542.75 282.00" xmlns="http://www.w3.org/2000/svg" xmlns:xlink="http://www.w3.org/1999/xlink">
<g id="graph0" class="graph" transform="scale(1 1) rotate(0) translate(4 278)">
<title>/Users/st1123/CLionProjects/advanced&#45;programming&#45;group&#45;linear&#45;regression/src/slice/slice.cpp</title>
<!-- Node1 -->
<g id="Node000001" class="node">
<title>Node1</title>
<g id="a_Node000001"><a xlink:title="this header file contains all the implementations of slicing methods that can be applied to a volume.">
<polygon fill="#999999" stroke="#666666" points="304.62,-274 157.38,-274 157.38,-221 304.62,-221 304.62,-274"/>
<text text-anchor="start" x="165.38" y="-260.5" font-family="Helvetica,sans-Serif" font-size="10.00">/Users/st1123/CLionProjects</text>
<text text-anchor="start" x="165.38" y="-249.25" font-family="Helvetica,sans-Serif" font-size="10.00">/advanced&#45;programming&#45;group</text>
<text text-anchor="start" x="165.38" y="-238" font-family="Helvetica,sans-Serif" font-size="10.00">&#45;linear&#45;regression/src/slice</text>
<text text-anchor="middle" x="231" y="-226.75" font-family="Helvetica,sans-Serif" font-size="10.00">/slice.cpp</text>
</a>
</g>
</g>
<!-- Node2 -->
<g id="Node000002" class="node">
<title>Node2</title>
<g id="a_Node000002"><a xlink:href="slice_8h.html" target="_top" xlink:title="this header file contains all the declarations of slicing methods that can be applied to a volume.">
<polygon fill="white" stroke="#666666" points="253.25,-185 208.75,-185 208.75,-165.75 253.25,-165.75 253.25,-185"/>
<text text-anchor="middle" x="231" y="-171.5" font-family="Helvetica,sans-Serif" font-size="10.00">slice.h</text>
</a>
</g>
</g>
<!-- Node1&#45;&gt;Node2 -->
<g id="edge1_Node000001_Node000002" class="edge">
<title>Node1&#45;&gt;Node2</title>
<g id="a_edge1_Node000001_Node000002"><a xlink:title=" ">
<path fill="none" stroke="#63b8ff" d="M231,-220.79C231,-212.87 231,-204.27 231,-196.77"/>
<polygon fill="#63b8ff" stroke="#63b8ff" points="234.5,-197 231,-187 227.5,-197 234.5,-197"/>
</a>
</g>
</g>
<!-- Node3 -->
<g id="Node000003" class="node">
<title>Node3</title>
<g id="a_Node000003"><a xlink:href="volume_8h.html" target="_top" xlink:title="this header file contains the declarations of the Volume class that handles a collection of images as...">
<polygon fill="white" stroke="#666666" points="332.62,-129.75 233.38,-129.75 233.38,-110.5 332.62,-110.5 332.62,-129.75"/>
<text text-anchor="middle" x="283" y="-116.25" font-family="Helvetica,sans-Serif" font-size="10.00">../volume/volume.h</text>
</a>
</g>
</g>
<!-- Node2&#45;&gt;Node3 -->
<g id="edge2_Node000002_Node000003" class="edge">
<title>Node2&#45;&gt;Node3</title>
<g id="a_edge2_Node000002_Node000003"><a xlink:title=" ">
<path fill="none" stroke="#63b8ff" d="M239.59,-165.58C246.84,-158.15 257.45,-147.29 266.37,-138.16"/>
<polygon fill="#63b8ff" stroke="#63b8ff" points="268.69,-140.79 273.17,-131.19 263.68,-135.9 268.69,-140.79"/>
</a>
</g>
</g>
<!-- Node6 -->
<g id="Node000006" class="node">
<title>Node6</title>
<g id="a_Node000006"><a xlink:href="_image_8h.html" target="_top" xlink:title="this header file contains all required functions and definitions for the Image class,...">
<polygon fill="white" stroke="#666666" points="210.12,-74.5 119.88,-74.5 119.88,-55.25 210.12,-55.25 210.12,-74.5"/>
<text text-anchor="middle" x="165" y="-61" font-family="Helvetica,sans-Serif" font-size="10.00">../Image/Image.h</text>
</a>
</g>
</g>
<!-- Node2&#45;&gt;Node6 -->
<g id="edge17_Node000002_Node000006" class="edge">
<title>Node2&#45;&gt;Node6</title>
<g id="a_edge17_Node000002_Node000006"><a xlink:title=" ">
<path fill="none" stroke="#63b8ff" d="M225.6,-165.5C214.87,-147.85 190.66,-108.05 176.3,-84.45"/>
<polygon fill="#63b8ff" stroke="#63b8ff" points="179.45,-82.89 171.26,-76.17 173.47,-86.53 179.45,-82.89"/>
</a>
</g>
</g>
<!-- Node4 -->
<g id="Node000004" class="node">
<title>Node4</title>
<g id="a_Node000004"><a xlink:title=" ">
<polygon fill="#e0e0e0" stroke="#999999" points="341.12,-19.25 262.88,-19.25 262.88,0 341.12,0 341.12,-19.25"/>
<text text-anchor="middle" x="302" y="-5.75" font-family="Helvetica,sans-Serif" font-size="10.00">../stb_image.h</text>
</a>
</g>
</g>
<!-- Node3&#45;&gt;Node4 -->
<g id="edge3_Node000003_Node000004" class="edge">
<title>Node3&#45;&gt;Node4</title>
<g id="a_edge3_Node000003_Node000004"><a xlink:title=" ">
<path fill="none" stroke="#63b8ff" d="M300.68,-110.07C313.39,-102.48 329.54,-90.34 337,-74.5 344.7,-58.14 332.88,-40.13 320.94,-27.41"/>
<polygon fill="#63b8ff" stroke="#63b8ff" points="323.57,-25.09 313.98,-20.6 318.68,-30.09 323.57,-25.09"/>
</a>
</g>
</g>
<!-- Node5 -->
<g id="Node000005" class="node">
<title>Node5</title>
<g id="a_Node000005"><a xlink:title=" ">
<polygon fill="#e0e0e0" stroke="#999999" points="463.25,-19.25 358.75,-19.25 358.75,0 463.25,0 463.25,-19.25"/>
<text text-anchor="middle" x="411" y="-5.75" font-family="Helvetica,sans-Serif" font-size="10.00">../stb_image_write.h</text>
</a>
</g>
</g>
<!-- Node3&#45;&gt;Node5 -->
<g id="edge4_Node000003_Node000005" class="edge">
<title>Node3&#45;&gt;Node5</title>
<g id="a_edge4_Node000003_Node000005"><a xlink:title=" ">
<path fill="none" stroke="#63b8ff" d="M299.41,-110.09C313.92,-101.75 335.3,-88.55 352,-74.5 368.73,-60.42 385.42,-41.83 396.75,-28.33"/>
<polygon fill="#63b8ff" stroke="#63b8ff" points="399.37,-30.66 403.02,-20.71 393.97,-26.21 399.37,-30.66"/>
</a>
</g>
</g>
<!-- Node3&#45;&gt;Node6 -->
<g id="edge5_Node000003_Node000006" class="edge">
<title>Node3&#45;&gt;Node6</title>
<g id="a_edge5_Node000003_Node000006"><a xlink:title=" ">
<path fill="none" stroke="#63b8ff" d="M262.98,-110.09C244.51,-101.75 216.79,-89.25 195.55,-79.66"/>
<polygon fill="#63b8ff" stroke="#63b8ff" points="197.05,-76.5 186.49,-75.58 194.17,-82.88 197.05,-76.5"/>
</a>
</g>
</g>
<!-- Node7 -->
<g id="Node000007" class="node">
<title>Node7</title>
<g id="a_Node000007"><a xlink:title=" ">
<polygon fill="#e0e0e0" stroke="#999999" points="534.75,-19.25 481.25,-19.25 481.25,0 534.75,0 534.75,-19.25"/>
<text text-anchor="middle" x="508" y="-5.75" font-family="Helvetica,sans-Serif" font-size="10.00">iostream</text>
</a>
</g>
</g>
<!-- Node3&#45;&gt;Node7 -->
<g id="edge16_Node000003_Node000007" class="edge">
<title>Node3&#45;&gt;Node7</title>
<g id="a_edge16_Node000003_Node000007"><a xlink:title=" ">
<path fill="none" stroke="#63b8ff" d="M301.8,-110.06C341.09,-91.11 432.15,-47.2 479,-24.61"/>
<polygon fill="#63b8ff" stroke="#63b8ff" points="480.25,-27.89 487.74,-20.4 477.21,-21.59 480.25,-27.89"/>
</a>
</g>
</g>
<!-- Node8 -->
<g id="Node000008" class="node">
<title>Node8</title>
<g id="a_Node000008"><a xlink:title=" ">
<polygon fill="#e0e0e0" stroke="#999999" points="40,-19.25 0,-19.25 0,0 40,0 40,-19.25"/>
<text text-anchor="middle" x="20" y="-5.75" font-family="Helvetica,sans-Serif" font-size="10.00">string</text>
</a>
</g>
</g>
<!-- Node3&#45;&gt;Node8 -->
<g id="edge14_Node000003_Node000008" class="edge">
<title>Node3&#45;&gt;Node8</title>
<g id="a_edge14_Node000003_Node000008"><a xlink:title=" ">
<path fill="none" stroke="#63b8ff" d="M233.21,-111.1C197.97,-104.27 150.2,-92.62 111,-74.5 83.95,-62 56.42,-41.34 38.84,-26.91"/>
<polygon fill="#63b8ff" stroke="#63b8ff" points="41.23,-24.35 31.32,-20.6 36.73,-29.71 41.23,-24.35"/>
</a>
</g>
</g>
<!-- Node9 -->
<g id="Node000009" class="node">
<title>Node9</title>
<g id="a_Node000009"><a xlink:title=" ">
<polygon fill="#e0e0e0" stroke="#999999" points="244.5,-19.25 201.5,-19.25 201.5,0 244.5,0 244.5,-19.25"/>
<text text-anchor="middle" x="223" y="-5.75" font-family="Helvetica,sans-Serif" font-size="10.00">vector</text>
</a>
</g>
</g>
<!-- Node3&#45;&gt;Node9 -->
<g id="edge13_Node000003_Node000009" class="edge">
<title>Node3&#45;&gt;Node9</title>
<g id="a_edge13_Node000003_Node000009"><a xlink:title=" ">
<path fill="none" stroke="#63b8ff" d="M277.99,-110.25C272.93,-101.25 264.89,-86.93 258,-74.5 249.66,-59.44 240.29,-42.34 233.35,-29.62"/>
<polygon fill="#63b8ff" stroke="#63b8ff" points="236.54,-28.17 228.68,-21.07 230.4,-31.52 236.54,-28.17"/>
</a>
</g>
</g>
<!-- Node12 -->
<g id="Node000012" class="node">
<title>Node12</title>
<g id="a_Node000012"><a xlink:title=" ">
<polygon fill="#e0e0e0" stroke="#999999" points="327.5,-74.5 266.5,-74.5 266.5,-55.25 327.5,-55.25 327.5,-74.5"/>
<text text-anchor="middle" x="297" y="-61" font-family="Helvetica,sans-Serif" font-size="10.00">filesystem</text>
</a>
</g>
</g>
<!-- Node3&#45;&gt;Node12 -->
<g id="edge15_Node000003_Node000012" class="edge">
<title>Node3&#45;&gt;Node12</title>
<g id="a_edge15_Node000003_Node000012"><a xlink:title=" ">
<path fill="none" stroke="#63b8ff" d="M285.31,-110.33C287.06,-103.67 289.54,-94.24 291.77,-85.78"/>
<polygon fill="#63b8ff" stroke="#63b8ff" points="295.1,-86.88 294.25,-76.32 288.33,-85.1 295.1,-86.88"/>
</a>
</g>
</g>
<!-- Node6&#45;&gt;Node4 -->
<g id="edge11_Node000006_Node000004" class="edge">
<title>Node6&#45;&gt;Node4</title>
<g id="a_edge11_Node000006_Node000004"><a xlink:title=" ">
<path fill="none" stroke="#63b8ff" d="M188.24,-54.84C210.19,-46.31 243.35,-33.42 268.21,-23.76"/>
<polygon fill="#63b8ff" stroke="#63b8ff" points="269.18,-27.14 277.24,-20.25 266.65,-20.61 269.18,-27.14"/>
</a>
</g>
</g>
<!-- Node6&#45;&gt;Node5 -->
<g id="edge12_Node000006_Node000005" class="edge">
<title>Node6&#45;&gt;Node5</title>
<g id="a_edge12_Node000006_Node000005"><a xlink:title=" ">
<path fill="none" stroke="#63b8ff" d="M207.01,-54.78C248.76,-45.74 312.91,-31.86 358.11,-22.07"/>
<polygon fill="#63b8ff" stroke="#63b8ff" points="358.65,-25.54 367.68,-20 357.17,-18.7 358.65,-25.54"/>
</a>
</g>
</g>
<!-- Node6&#45;&gt;Node7 -->
<g id="edge6_Node000006_Node000007" class="edge">
<title>Node6&#45;&gt;Node7</title>
<g id="a_edge6_Node000006_Node000007"><a xlink:title=" ">
<path fill="none" stroke="#63b8ff" d="M210.47,-58.58C268.36,-51.54 371.67,-38.03 469.63,-19.55"/>
<polygon fill="#63b8ff" stroke="#63b8ff" points="470.28,-22.99 479.44,-17.67 468.96,-16.11 470.28,-22.99"/>
</a>
</g>
</g>
<!-- Node6&#45;&gt;Node8 -->
<g id="edge7_Node000006_Node000008" class="edge">
<title>Node6&#45;&gt;Node8</title>
<g id="a_edge7_Node000006_Node000008"><a xlink:title=" ">
<path fill="none" stroke="#63b8ff" d="M140.4,-54.84C115.8,-45.81 77.87,-31.88 51.18,-22.07"/>
<polygon fill="#63b8ff" stroke="#63b8ff" points="52.51,-18.83 41.91,-18.67 50.09,-25.4 52.51,-18.83"/>
</a>
</g>
</g>
<!-- Node6&#45;&gt;Node9 -->
<g id="edge8_Node000006_Node000009" class="edge">
<title>Node6&#45;&gt;Node9</title>
<g id="a_edge8_Node000006_Node000009"><a xlink:title=" ">
<path fill="none" stroke="#63b8ff" d="M174.84,-54.84C183.05,-47.3 194.98,-36.35 204.91,-27.23"/>
<polygon fill="#63b8ff" stroke="#63b8ff" points="207.19,-29.89 212.19,-20.55 202.46,-24.73 207.19,-29.89"/>
</a>
</g>
</g>
<!-- Node10 -->
<g id="Node000010" class="node">
<title>Node10</title>
<g id="a_Node000010"><a xlink:title=" ">
<polygon fill="#e0e0e0" stroke="#999999" points="116.38,-19.25 57.62,-19.25 57.62,0 116.38,0 116.38,-19.25"/>
<text text-anchor="middle" x="87" y="-5.75" font-family="Helvetica,sans-Serif" font-size="10.00">stdexcept</text>
</a>
</g>
</g>
<!-- Node6&#45;&gt;Node10 -->
<g id="edge9_Node000006_Node000010" class="edge">
<title>Node6&#45;&gt;Node10</title>
<g id="a_edge9_Node000006_Node000010"><a xlink:title=" ">
<path fill="none" stroke="#63b8ff" d="M151.77,-54.84C140.23,-46.96 123.23,-35.36 109.55,-26.02"/>
<polygon fill="#63b8ff" stroke="#63b8ff" points="111.78,-23.3 101.55,-20.56 107.83,-29.08 111.78,-23.3"/>
</a>
</g>
</g>
<!-- Node11 -->
<g id="Node000011" class="node">
<title>Node11</title>
<g id="a_Node000011"><a xlink:title=" ">
<polygon fill="#e0e0e0" stroke="#999999" points="183.12,-19.25 134.88,-19.25 134.88,0 183.12,0 183.12,-19.25"/>
<text text-anchor="middle" x="159" y="-5.75" font-family="Helvetica,sans-Serif" font-size="10.00">cassert</text>
</a>
</g>
</g>
<!-- Node6&#45;&gt;Node11 -->
<g id="edge10_Node000006_Node000011" class="edge">
<title>Node6&#45;&gt;Node11</title>
<g id="a_edge10_Node000006_Node000011"><a xlink:title=" ">
<path fill="none" stroke="#63b8ff" d="M164.01,-55.08C163.27,-48.49 162.22,-39.21 161.28,-30.82"/>
<polygon fill="#63b8ff" stroke="#63b8ff" points="164.78,-30.66 160.18,-21.11 157.82,-31.44 164.78,-30.66"/>
</a>
</g>
</g>
</g>
</svg>
