<?xml version="1.0" encoding="UTF-8" standalone="no"?>
<!DOCTYPE svg PUBLIC "-//W3C//DTD SVG 1.1//EN"
 "http://www.w3.org/Graphics/SVG/1.1/DTD/svg11.dtd">
<!-- Generated by graphviz version 10.0.1 (20240210.2158)
 -->
<!-- Title: /Users/st1123/CLionProjects/advanced&#45;programming&#45;group&#45;linear&#45;regression/src/utility/utility.h Pages: 1 -->
<svg width="759pt" height="282pt"
 viewBox="0.00 0.00 758.80 282.00" xmlns="http://www.w3.org/2000/svg" xmlns:xlink="http://www.w3.org/1999/xlink">
<g id="graph0" class="graph" transform="scale(1 1) rotate(0) translate(4 278)">
<title>/Users/st1123/CLionProjects/advanced&#45;programming&#45;group&#45;linear&#45;regression/src/utility/utility.h</title>
<!-- Node1 -->
<g id="Node000001" class="node">
<title>Node1</title>
<g id="a_Node000001"><a xlink:title="this header file contains the declarations of the Utility class that is used to help build the UI int...">
<polygon fill="#999999" stroke="#666666" points="291.38,-274 144.12,-274 144.12,-221 291.38,-221 291.38,-274"/>
<text text-anchor="start" x="152.12" y="-260.5" font-family="Helvetica,sans-Serif" font-size="10.00">/Users/st1123/CLionProjects</text>
<text text-anchor="start" x="152.12" y="-249.25" font-family="Helvetica,sans-Serif" font-size="10.00">/advanced&#45;programming&#45;group</text>
<text text-anchor="start" x="152.12" y="-238" font-family="Helvetica,sans-Serif" font-size="10.00">&#45;linear&#45;regression/src/utility</text>
<text text-anchor="middle" x="217.75" y="-226.75" font-family="Helvetica,sans-Serif" font-size="10.00">/utility.h</text>
</a>
</g>
</g>
<!-- Node2 -->
<g id="Node000002" class="node">
<title>Node2</title>
<g id="a_Node000002"><a xlink:title=" ">
<polygon fill="#e0e0e0" stroke="#999999" points="53.5,-19.25 0,-19.25 0,0 53.5,0 53.5,-19.25"/>
<text text-anchor="middle" x="26.75" y="-5.75" font-family="Helvetica,sans-Serif" font-size="10.00">iostream</text>
</a>
</g>
</g>
<!-- Node1&#45;&gt;Node2 -->
<g id="edge1_Node000001_Node000002" class="edge">
<title>Node1&#45;&gt;Node2</title>
<g id="a_edge1_Node000001_Node000002"><a xlink:title=" ">
<path fill="none" stroke="#63b8ff" d="M162.2,-220.57C145.12,-210.94 127.07,-198.92 112.75,-185 71.23,-144.64 66.78,-127.62 43.75,-74.5 37.66,-60.44 33.29,-43.68 30.52,-30.85"/>
<polygon fill="#63b8ff" stroke="#63b8ff" points="33.95,-30.18 28.56,-21.07 27.09,-31.56 33.95,-30.18"/>
</a>
</g>
</g>
<!-- Node3 -->
<g id="Node000003" class="node">
<title>Node3</title>
<g id="a_Node000003"><a xlink:href="filter_8h.html" target="_top" xlink:title="this header file will contain all the filters (2D / 3D) that can be applied to the image and volume d...">
<polygon fill="white" stroke="#666666" points="505.25,-185 432.25,-185 432.25,-165.75 505.25,-165.75 505.25,-185"/>
<text text-anchor="middle" x="468.75" y="-171.5" font-family="Helvetica,sans-Serif" font-size="10.00">../filter/filter.h</text>
</a>
</g>
</g>
<!-- Node1&#45;&gt;Node3 -->
<g id="edge2_Node000001_Node000003" class="edge">
<title>Node1&#45;&gt;Node3</title>
<g id="a_edge2_Node000001_Node000003"><a xlink:title=" ">
<path fill="none" stroke="#63b8ff" d="M291.7,-225.84C335.21,-213.68 388.72,-198.73 425.46,-188.47"/>
<polygon fill="#63b8ff" stroke="#63b8ff" points="426.14,-191.91 434.83,-185.85 424.26,-185.17 426.14,-191.91"/>
</a>
</g>
</g>
<!-- Node18 -->
<g id="Node000018" class="node">
<title>Node18</title>
<g id="a_Node000018"><a xlink:href="projection_8h.html" target="_top" xlink:title="this header file contains all the declarations of projections methods that can be applied to a volume...">
<polygon fill="white" stroke="#666666" points="336.88,-185 216.62,-185 216.62,-165.75 336.88,-165.75 336.88,-185"/>
<text text-anchor="middle" x="276.75" y="-171.5" font-family="Helvetica,sans-Serif" font-size="10.00">../projection/projection.h</text>
</a>
</g>
</g>
<!-- Node1&#45;&gt;Node18 -->
<g id="edge26_Node000001_Node000018" class="edge">
<title>Node1&#45;&gt;Node18</title>
<g id="a_edge26_Node000001_Node000018"><a xlink:title=" ">
<path fill="none" stroke="#63b8ff" d="M239.38,-220.79C246.85,-211.91 255.05,-202.17 261.86,-194.08"/>
<polygon fill="#63b8ff" stroke="#63b8ff" points="264.35,-196.55 268.11,-186.64 258.99,-192.04 264.35,-196.55"/>
</a>
</g>
</g>
<!-- Node19 -->
<g id="Node000019" class="node">
<title>Node19</title>
<g id="a_Node000019"><a xlink:href="slice_8h.html" target="_top" xlink:title="this header file contains all the declarations of slicing methods that can be applied to a volume.">
<polygon fill="white" stroke="#666666" points="198.12,-185 121.38,-185 121.38,-165.75 198.12,-165.75 198.12,-185"/>
<text text-anchor="middle" x="159.75" y="-171.5" font-family="Helvetica,sans-Serif" font-size="10.00">../slice/slice.h</text>
</a>
</g>
</g>
<!-- Node1&#45;&gt;Node19 -->
<g id="edge29_Node000001_Node000019" class="edge">
<title>Node1&#45;&gt;Node19</title>
<g id="a_edge29_Node000001_Node000019"><a xlink:title=" ">
<path fill="none" stroke="#63b8ff" d="M196.48,-220.79C189.22,-212 181.26,-202.38 174.61,-194.34"/>
<polygon fill="#63b8ff" stroke="#63b8ff" points="177.32,-192.13 168.25,-186.65 171.93,-196.59 177.32,-192.13"/>
</a>
</g>
</g>
<!-- Node4 -->
<g id="Node000004" class="node">
<title>Node4</title>
<g id="a_Node000004"><a xlink:title=" ">
<polygon fill="#e0e0e0" stroke="#999999" points="662.12,-19.25 603.38,-19.25 603.38,0 662.12,0 662.12,-19.25"/>
<text text-anchor="middle" x="632.75" y="-5.75" font-family="Helvetica,sans-Serif" font-size="10.00">stdexcept</text>
</a>
</g>
</g>
<!-- Node3&#45;&gt;Node4 -->
<g id="edge3_Node000003_Node000004" class="edge">
<title>Node3&#45;&gt;Node4</title>
<g id="a_edge3_Node000003_Node000004"><a xlink:title=" ">
<path fill="none" stroke="#63b8ff" d="M505.55,-174C572.9,-172.44 711.86,-164.93 741.75,-129.75 774.88,-90.76 705.35,-46.81 662.72,-24.79"/>
<polygon fill="#63b8ff" stroke="#63b8ff" points="664.4,-21.72 653.89,-20.36 661.26,-27.98 664.4,-21.72"/>
</a>
</g>
</g>
<!-- Node5 -->
<g id="Node000005" class="node">
<title>Node5</title>
<g id="a_Node000005"><a xlink:title=" ">
<polygon fill="#e0e0e0" stroke="#999999" points="732.62,-129.75 676.88,-129.75 676.88,-110.5 732.62,-110.5 732.62,-129.75"/>
<text text-anchor="middle" x="704.75" y="-116.25" font-family="Helvetica,sans-Serif" font-size="10.00">algorithm</text>
</a>
</g>
</g>
<!-- Node3&#45;&gt;Node5 -->
<g id="edge4_Node000003_Node000005" class="edge">
<title>Node3&#45;&gt;Node5</title>
<g id="a_edge4_Node000003_Node000005"><a xlink:title=" ">
<path fill="none" stroke="#63b8ff" d="M505.45,-166.24C543.13,-157.87 603.78,-144.34 665.37,-130.28"/>
<polygon fill="#63b8ff" stroke="#63b8ff" points="666.03,-133.72 675,-128.08 664.47,-126.9 666.03,-133.72"/>
</a>
</g>
</g>
<!-- Node6 -->
<g id="Node000006" class="node">
<title>Node6</title>
<g id="a_Node000006"><a xlink:title=" ">
<polygon fill="#e0e0e0" stroke="#999999" points="457.25,-19.25 414.25,-19.25 414.25,0 457.25,0 457.25,-19.25"/>
<text text-anchor="middle" x="435.75" y="-5.75" font-family="Helvetica,sans-Serif" font-size="10.00">vector</text>
</a>
</g>
</g>
<!-- Node3&#45;&gt;Node6 -->
<g id="edge5_Node000003_Node000006" class="edge">
<title>Node3&#45;&gt;Node6</title>
<g id="a_edge5_Node000003_Node000006"><a xlink:title=" ">
<path fill="none" stroke="#63b8ff" d="M491.84,-165.33C506.75,-158.13 524.95,-146.46 533.75,-129.75 537.74,-122.18 536.99,-118.42 533.75,-110.5 518.73,-73.74 482.93,-43.2 459.01,-25.93"/>
<polygon fill="#63b8ff" stroke="#63b8ff" points="461.34,-23.28 451.13,-20.43 457.33,-29.02 461.34,-23.28"/>
</a>
</g>
</g>
<!-- Node7 -->
<g id="Node000007" class="node">
<title>Node7</title>
<g id="a_Node000007"><a xlink:title=" ">
<polygon fill="#e0e0e0" stroke="#999999" points="394.38,-129.75 343.12,-129.75 343.12,-110.5 394.38,-110.5 394.38,-129.75"/>
<text text-anchor="middle" x="368.75" y="-116.25" font-family="Helvetica,sans-Serif" font-size="10.00">memory</text>
</a>
</g>
</g>
<!-- Node3&#45;&gt;Node7 -->
<g id="edge6_Node000003_Node000007" class="edge">
<title>Node3&#45;&gt;Node7</title>
<g id="a_edge6_Node000003_Node000007"><a xlink:title=" ">
<path fill="none" stroke="#63b8ff" d="M451.79,-165.34C436.49,-157.19 413.72,-145.07 395.89,-135.58"/>
<polygon fill="#63b8ff" stroke="#63b8ff" points="397.6,-132.52 387.13,-130.91 394.31,-138.7 397.6,-132.52"/>
</a>
</g>
</g>
<!-- Node8 -->
<g id="Node000008" class="node">
<title>Node8</title>
<g id="a_Node000008"><a xlink:title=" ">
<polygon fill="#e0e0e0" stroke="#999999" points="460.88,-129.75 412.62,-129.75 412.62,-110.5 460.88,-110.5 460.88,-129.75"/>
<text text-anchor="middle" x="436.75" y="-116.25" font-family="Helvetica,sans-Serif" font-size="10.00">random</text>
</a>
</g>
</g>
<!-- Node3&#45;&gt;Node8 -->
<g id="edge7_Node000003_Node000008" class="edge">
<title>Node3&#45;&gt;Node8</title>
<g id="a_edge7_Node000003_Node000008"><a xlink:title=" ">
<path fill="none" stroke="#63b8ff" d="M463.47,-165.58C459.28,-158.61 453.27,-148.62 448.02,-139.87"/>
<polygon fill="#63b8ff" stroke="#63b8ff" points="451.08,-138.18 442.93,-131.41 445.08,-141.78 451.08,-138.18"/>
</a>
</g>
</g>
<!-- Node9 -->
<g id="Node000009" class="node">
<title>Node9</title>
<g id="a_Node000009"><a xlink:title=" ">
<polygon fill="#e0e0e0" stroke="#999999" points="524.38,-129.75 479.12,-129.75 479.12,-110.5 524.38,-110.5 524.38,-129.75"/>
<text text-anchor="middle" x="501.75" y="-116.25" font-family="Helvetica,sans-Serif" font-size="10.00">cstring</text>
</a>
</g>
</g>
<!-- Node3&#45;&gt;Node9 -->
<g id="edge8_Node000003_Node000009" class="edge">
<title>Node3&#45;&gt;Node9</title>
<g id="a_edge8_Node000003_Node000009"><a xlink:title=" ">
<path fill="none" stroke="#63b8ff" d="M474.2,-165.58C478.52,-158.61 484.71,-148.62 490.13,-139.87"/>
<polygon fill="#63b8ff" stroke="#63b8ff" points="493.09,-141.74 495.39,-131.4 487.14,-138.05 493.09,-141.74"/>
</a>
</g>
</g>
<!-- Node10 -->
<g id="Node000010" class="node">
<title>Node10</title>
<g id="a_Node000010"><a xlink:title=" ">
<polygon fill="#e0e0e0" stroke="#999999" points="658.5,-129.75 581,-129.75 581,-110.5 658.5,-110.5 658.5,-129.75"/>
<text text-anchor="middle" x="619.75" y="-116.25" font-family="Helvetica,sans-Serif" font-size="10.00">unordered_set</text>
</a>
</g>
</g>
<!-- Node3&#45;&gt;Node10 -->
<g id="edge9_Node000003_Node000010" class="edge">
<title>Node3&#45;&gt;Node10</title>
<g id="a_edge9_Node000003_Node000010"><a xlink:title=" ">
<path fill="none" stroke="#63b8ff" d="M494.37,-165.34C518.77,-156.74 555.76,-143.69 583.25,-134"/>
<polygon fill="#63b8ff" stroke="#63b8ff" points="584.32,-137.33 592.58,-130.71 581.99,-130.73 584.32,-137.33"/>
</a>
</g>
</g>
<!-- Node11 -->
<g id="Node000011" class="node">
<title>Node11</title>
<g id="a_Node000011"><a xlink:href="_image_8h.html" target="_top" xlink:title="this header file contains all required functions and definitions for the Image class,...">
<polygon fill="white" stroke="#666666" points="354.88,-74.5 264.62,-74.5 264.62,-55.25 354.88,-55.25 354.88,-74.5"/>
<text text-anchor="middle" x="309.75" y="-61" font-family="Helvetica,sans-Serif" font-size="10.00">../Image/Image.h</text>
</a>
</g>
</g>
<!-- Node3&#45;&gt;Node11 -->
<g id="edge10_Node000003_Node000011" class="edge">
<title>Node3&#45;&gt;Node11</title>
<g id="a_edge10_Node000003_Node000011"><a xlink:title=" ">
<path fill="none" stroke="#63b8ff" d="M431.91,-170.91C401.93,-166.24 360.36,-155.32 333.75,-129.75 321.59,-118.07 315.53,-99.64 312.55,-85.57"/>
<polygon fill="#63b8ff" stroke="#63b8ff" points="316.07,-85.35 310.91,-76.1 309.17,-86.55 316.07,-85.35"/>
</a>
</g>
</g>
<!-- Node16 -->
<g id="Node000016" class="node">
<title>Node16</title>
<g id="a_Node000016"><a xlink:href="volume_8h.html" target="_top" xlink:title="this header file contains the declarations of the Volume class that handles a collection of images as...">
<polygon fill="white" stroke="#666666" points="210.38,-129.75 111.12,-129.75 111.12,-110.5 210.38,-110.5 210.38,-129.75"/>
<text text-anchor="middle" x="160.75" y="-116.25" font-family="Helvetica,sans-Serif" font-size="10.00">../volume/volume.h</text>
</a>
</g>
</g>
<!-- Node3&#45;&gt;Node16 -->
<g id="edge18_Node000003_Node000016" class="edge">
<title>Node3&#45;&gt;Node16</title>
<g id="a_edge18_Node000003_Node000016"><a xlink:title=" ">
<path fill="none" stroke="#63b8ff" d="M431.9,-168C379.97,-159.03 284.59,-142.54 221.93,-131.7"/>
<polygon fill="#63b8ff" stroke="#63b8ff" points="222.56,-128.26 212.11,-130.01 221.37,-135.16 222.56,-128.26"/>
</a>
</g>
</g>
<!-- Node11&#45;&gt;Node2 -->
<g id="edge11_Node000011_Node000002" class="edge">
<title>Node11&#45;&gt;Node2</title>
<g id="a_edge11_Node000011_Node000002"><a xlink:title=" ">
<path fill="none" stroke="#63b8ff" d="M264.53,-56.49C217.21,-48.59 140.52,-35.3 64.97,-19.62"/>
<polygon fill="#63b8ff" stroke="#63b8ff" points="65.83,-16.22 55.32,-17.6 64.39,-23.07 65.83,-16.22"/>
</a>
</g>
</g>
<!-- Node11&#45;&gt;Node4 -->
<g id="edge14_Node000011_Node000004" class="edge">
<title>Node11&#45;&gt;Node4</title>
<g id="a_edge14_Node000011_Node000004"><a xlink:title=" ">
<path fill="none" stroke="#63b8ff" d="M355.34,-56.36C418.57,-45.94 531.88,-27.25 592.26,-17.3"/>
<polygon fill="#63b8ff" stroke="#63b8ff" points="592.46,-20.81 601.76,-15.73 591.32,-13.91 592.46,-20.81"/>
</a>
</g>
</g>
<!-- Node11&#45;&gt;Node6 -->
<g id="edge13_Node000011_Node000006" class="edge">
<title>Node11&#45;&gt;Node6</title>
<g id="a_edge13_Node000011_Node000006"><a xlink:title=" ">
<path fill="none" stroke="#63b8ff" d="M331.12,-54.84C351.04,-46.43 380.99,-33.77 403.75,-24.15"/>
<polygon fill="#63b8ff" stroke="#63b8ff" points="405.03,-27.41 412.88,-20.29 402.3,-20.96 405.03,-27.41"/>
</a>
</g>
</g>
<!-- Node12 -->
<g id="Node000012" class="node">
<title>Node12</title>
<g id="a_Node000012"><a xlink:title=" ">
<polygon fill="#e0e0e0" stroke="#999999" points="329.75,-19.25 289.75,-19.25 289.75,0 329.75,0 329.75,-19.25"/>
<text text-anchor="middle" x="309.75" y="-5.75" font-family="Helvetica,sans-Serif" font-size="10.00">string</text>
</a>
</g>
</g>
<!-- Node11&#45;&gt;Node12 -->
<g id="edge12_Node000011_Node000012" class="edge">
<title>Node11&#45;&gt;Node12</title>
<g id="a_edge12_Node000011_Node000012"><a xlink:title=" ">
<path fill="none" stroke="#63b8ff" d="M309.75,-55.08C309.75,-48.57 309.75,-39.42 309.75,-31.12"/>
<polygon fill="#63b8ff" stroke="#63b8ff" points="313.25,-31.12 309.75,-21.12 306.25,-31.12 313.25,-31.12"/>
</a>
</g>
</g>
<!-- Node13 -->
<g id="Node000013" class="node">
<title>Node13</title>
<g id="a_Node000013"><a xlink:title=" ">
<polygon fill="#e0e0e0" stroke="#999999" points="395.88,-19.25 347.62,-19.25 347.62,0 395.88,0 395.88,-19.25"/>
<text text-anchor="middle" x="371.75" y="-5.75" font-family="Helvetica,sans-Serif" font-size="10.00">cassert</text>
</a>
</g>
</g>
<!-- Node11&#45;&gt;Node13 -->
<g id="edge15_Node000011_Node000013" class="edge">
<title>Node11&#45;&gt;Node13</title>
<g id="a_edge15_Node000011_Node000013"><a xlink:title=" ">
<path fill="none" stroke="#63b8ff" d="M320.27,-54.84C329.14,-47.22 342.06,-36.12 352.74,-26.95"/>
<polygon fill="#63b8ff" stroke="#63b8ff" points="354.93,-29.68 360.24,-20.51 350.37,-24.37 354.93,-29.68"/>
</a>
</g>
</g>
<!-- Node14 -->
<g id="Node000014" class="node">
<title>Node14</title>
<g id="a_Node000014"><a xlink:title=" ">
<polygon fill="#e0e0e0" stroke="#999999" points="149.88,-19.25 71.62,-19.25 71.62,0 149.88,0 149.88,-19.25"/>
<text text-anchor="middle" x="110.75" y="-5.75" font-family="Helvetica,sans-Serif" font-size="10.00">../stb_image.h</text>
</a>
</g>
</g>
<!-- Node11&#45;&gt;Node14 -->
<g id="edge16_Node000011_Node000014" class="edge">
<title>Node11&#45;&gt;Node14</title>
<g id="a_edge16_Node000011_Node000014"><a xlink:title=" ">
<path fill="none" stroke="#63b8ff" d="M275.99,-54.84C242.83,-45.97 192.03,-32.37 155.51,-22.6"/>
<polygon fill="#63b8ff" stroke="#63b8ff" points="156.7,-19.3 146.14,-20.09 154.89,-26.06 156.7,-19.3"/>
</a>
</g>
</g>
<!-- Node15 -->
<g id="Node000015" class="node">
<title>Node15</title>
<g id="a_Node000015"><a xlink:title=" ">
<polygon fill="#e0e0e0" stroke="#999999" points="272,-19.25 167.5,-19.25 167.5,0 272,0 272,-19.25"/>
<text text-anchor="middle" x="219.75" y="-5.75" font-family="Helvetica,sans-Serif" font-size="10.00">../stb_image_write.h</text>
</a>
</g>
</g>
<!-- Node11&#45;&gt;Node15 -->
<g id="edge17_Node000011_Node000015" class="edge">
<title>Node11&#45;&gt;Node15</title>
<g id="a_edge17_Node000011_Node000015"><a xlink:title=" ">
<path fill="none" stroke="#63b8ff" d="M294.48,-54.84C280.91,-46.81 260.8,-34.91 244.85,-25.48"/>
<polygon fill="#63b8ff" stroke="#63b8ff" points="246.78,-22.55 236.39,-20.47 243.22,-28.58 246.78,-22.55"/>
</a>
</g>
</g>
<!-- Node16&#45;&gt;Node2 -->
<g id="edge25_Node000016_Node000002" class="edge">
<title>Node16&#45;&gt;Node2</title>
<g id="a_edge25_Node000016_Node000002"><a xlink:title=" ">
<path fill="none" stroke="#63b8ff" d="M127.36,-110.07C106.55,-103.08 80.29,-91.66 61.75,-74.5 48.55,-62.29 39.22,-43.94 33.53,-30.03"/>
<polygon fill="#63b8ff" stroke="#63b8ff" points="36.94,-29.17 30.13,-21.05 30.39,-31.64 36.94,-29.17"/>
</a>
</g>
</g>
<!-- Node16&#45;&gt;Node6 -->
<g id="edge22_Node000016_Node000006" class="edge">
<title>Node16&#45;&gt;Node6</title>
<g id="a_edge22_Node000016_Node000006"><a xlink:title=" ">
<path fill="none" stroke="#63b8ff" d="M210.68,-115.24C253.29,-110.31 315.2,-99.23 363.75,-74.5 386.44,-62.95 407.63,-42.52 421.06,-27.87"/>
<polygon fill="#63b8ff" stroke="#63b8ff" points="423.35,-30.57 427.37,-20.76 418.11,-25.92 423.35,-30.57"/>
</a>
</g>
</g>
<!-- Node16&#45;&gt;Node11 -->
<g id="edge21_Node000016_Node000011" class="edge">
<title>Node16&#45;&gt;Node11</title>
<g id="a_edge21_Node000016_Node000011"><a xlink:title=" ">
<path fill="none" stroke="#63b8ff" d="M186.03,-110.09C210.11,-101.49 246.61,-88.44 273.73,-78.75"/>
<polygon fill="#63b8ff" stroke="#63b8ff" points="274.69,-82.12 282.92,-75.46 272.33,-75.53 274.69,-82.12"/>
</a>
</g>
</g>
<!-- Node16&#45;&gt;Node12 -->
<g id="edge23_Node000016_Node000012" class="edge">
<title>Node16&#45;&gt;Node12</title>
<g id="a_edge23_Node000016_Node000012"><a xlink:title=" ">
<path fill="none" stroke="#63b8ff" d="M173.2,-110.06C198.57,-91.59 256.53,-49.38 288.17,-26.34"/>
<polygon fill="#63b8ff" stroke="#63b8ff" points="290.2,-29.19 296.22,-20.48 286.08,-23.54 290.2,-29.19"/>
</a>
</g>
</g>
<!-- Node16&#45;&gt;Node14 -->
<g id="edge19_Node000016_Node000014" class="edge">
<title>Node16&#45;&gt;Node14</title>
<g id="a_edge19_Node000016_Node000014"><a xlink:title=" ">
<path fill="none" stroke="#63b8ff" d="M158.8,-110.14C155.88,-97.49 149.7,-73.9 140.75,-55.25 136.37,-46.12 130.31,-36.72 124.79,-28.91"/>
<polygon fill="#63b8ff" stroke="#63b8ff" points="127.67,-26.92 118.92,-20.94 122.03,-31.07 127.67,-26.92"/>
</a>
</g>
</g>
<!-- Node16&#45;&gt;Node15 -->
<g id="edge20_Node000016_Node000015" class="edge">
<title>Node16&#45;&gt;Node15</title>
<g id="a_edge20_Node000016_Node000015"><a xlink:title=" ">
<path fill="none" stroke="#63b8ff" d="M165.58,-110.25C175.13,-92.68 196.62,-53.16 209.48,-29.52"/>
<polygon fill="#63b8ff" stroke="#63b8ff" points="212.43,-31.41 214.13,-20.96 206.28,-28.07 212.43,-31.41"/>
</a>
</g>
</g>
<!-- Node17 -->
<g id="Node000017" class="node">
<title>Node17</title>
<g id="a_Node000017"><a xlink:title=" ">
<polygon fill="#e0e0e0" stroke="#999999" points="132.25,-74.5 71.25,-74.5 71.25,-55.25 132.25,-55.25 132.25,-74.5"/>
<text text-anchor="middle" x="101.75" y="-61" font-family="Helvetica,sans-Serif" font-size="10.00">filesystem</text>
</a>
</g>
</g>
<!-- Node16&#45;&gt;Node17 -->
<g id="edge24_Node000016_Node000017" class="edge">
<title>Node16&#45;&gt;Node17</title>
<g id="a_edge24_Node000016_Node000017"><a xlink:title=" ">
<path fill="none" stroke="#63b8ff" d="M150.74,-110.09C142.38,-102.55 130.25,-91.6 120.15,-82.48"/>
<polygon fill="#63b8ff" stroke="#63b8ff" points="122.5,-79.89 112.73,-75.79 117.81,-85.09 122.5,-79.89"/>
</a>
</g>
</g>
<!-- Node18&#45;&gt;Node11 -->
<g id="edge27_Node000018_Node000011" class="edge">
<title>Node18&#45;&gt;Node11</title>
<g id="a_edge27_Node000018_Node000011"><a xlink:title=" ">
<path fill="none" stroke="#63b8ff" d="M279.45,-165.5C284.72,-148.17 296.49,-109.48 303.71,-85.74"/>
<polygon fill="#63b8ff" stroke="#63b8ff" points="307.01,-86.91 306.57,-76.32 300.31,-84.87 307.01,-86.91"/>
</a>
</g>
</g>
<!-- Node18&#45;&gt;Node16 -->
<g id="edge28_Node000018_Node000016" class="edge">
<title>Node18&#45;&gt;Node16</title>
<g id="a_edge28_Node000018_Node000016"><a xlink:title=" ">
<path fill="none" stroke="#63b8ff" d="M257.07,-165.34C238.91,-157 211.67,-144.5 190.78,-134.91"/>
<polygon fill="#63b8ff" stroke="#63b8ff" points="192.45,-131.83 181.9,-130.83 189.53,-138.19 192.45,-131.83"/>
</a>
</g>
</g>
<!-- Node19&#45;&gt;Node11 -->
<g id="edge31_Node000019_Node000011" class="edge">
<title>Node19&#45;&gt;Node11</title>
<g id="a_edge31_Node000019_Node000011"><a xlink:title=" ">
<path fill="none" stroke="#63b8ff" d="M172.28,-165.31C197.93,-146.76 256.68,-104.26 288.44,-81.29"/>
<polygon fill="#63b8ff" stroke="#63b8ff" points="290.08,-84.42 296.13,-75.72 285.98,-78.75 290.08,-84.42"/>
</a>
</g>
</g>
<!-- Node19&#45;&gt;Node16 -->
<g id="edge30_Node000019_Node000016" class="edge">
<title>Node19&#45;&gt;Node16</title>
<g id="a_edge30_Node000019_Node000016"><a xlink:title=" ">
<path fill="none" stroke="#63b8ff" d="M159.92,-165.58C160.04,-159.07 160.21,-149.92 160.37,-141.62"/>
<polygon fill="#63b8ff" stroke="#63b8ff" points="163.86,-141.69 160.55,-131.62 156.87,-141.55 163.86,-141.69"/>
</a>
</g>
</g>
</g>
</svg>
