<?xml version="1.0" encoding="UTF-8" standalone="no"?>
<!DOCTYPE svg PUBLIC "-//W3C//DTD SVG 1.1//EN"
 "http://www.w3.org/Graphics/SVG/1.1/DTD/svg11.dtd">
<!-- Generated by graphviz version 10.0.1 (20240210.2158)
 -->
<!-- Title: /Users/st1123/CLionProjects/advanced&#45;programming&#45;group&#45;linear&#45;regression/src/utility/utility.cpp Pages: 1 -->
<svg width="669pt" height="337pt"
 viewBox="0.00 0.00 669.04 337.25" xmlns="http://www.w3.org/2000/svg" xmlns:xlink="http://www.w3.org/1999/xlink">
<g id="graph0" class="graph" transform="scale(1 1) rotate(0) translate(4 333.25)">
<title>/Users/st1123/CLionProjects/advanced&#45;programming&#45;group&#45;linear&#45;regression/src/utility/utility.cpp</title>
<!-- Node1 -->
<g id="Node000001" class="node">
<title>Node1</title>
<g id="a_Node000001"><a xlink:title=" ">
<polygon fill="#999999" stroke="#666666" points="298.38,-329.25 151.12,-329.25 151.12,-276.25 298.38,-276.25 298.38,-329.25"/>
<text text-anchor="start" x="159.12" y="-315.75" font-family="Helvetica,sans-Serif" font-size="10.00">/Users/st1123/CLionProjects</text>
<text text-anchor="start" x="159.12" y="-304.5" font-family="Helvetica,sans-Serif" font-size="10.00">/advanced&#45;programming&#45;group</text>
<text text-anchor="start" x="159.12" y="-293.25" font-family="Helvetica,sans-Serif" font-size="10.00">&#45;linear&#45;regression/src/utility</text>
<text text-anchor="middle" x="224.75" y="-282" font-family="Helvetica,sans-Serif" font-size="10.00">/utility.cpp</text>
</a>
</g>
</g>
<!-- Node2 -->
<g id="Node000002" class="node">
<title>Node2</title>
<g id="a_Node000002"><a xlink:href="utility_8h.html" target="_top" xlink:title="this header file contains the declarations of the Utility class that is used to help build the UI int...">
<polygon fill="white" stroke="#666666" points="247.75,-240.25 201.75,-240.25 201.75,-221 247.75,-221 247.75,-240.25"/>
<text text-anchor="middle" x="224.75" y="-226.75" font-family="Helvetica,sans-Serif" font-size="10.00">utility.h</text>
</a>
</g>
</g>
<!-- Node1&#45;&gt;Node2 -->
<g id="edge1_Node000001_Node000002" class="edge">
<title>Node1&#45;&gt;Node2</title>
<g id="a_edge1_Node000001_Node000002"><a xlink:title=" ">
<path fill="none" stroke="#63b8ff" d="M224.75,-276.04C224.75,-268.12 224.75,-259.52 224.75,-252.02"/>
<polygon fill="#63b8ff" stroke="#63b8ff" points="228.25,-252.25 224.75,-242.25 221.25,-252.25 228.25,-252.25"/>
</a>
</g>
</g>
<!-- Node3 -->
<g id="Node000003" class="node">
<title>Node3</title>
<g id="a_Node000003"><a xlink:title=" ">
<polygon fill="#e0e0e0" stroke="#999999" points="53.5,-19.25 0,-19.25 0,0 53.5,0 53.5,-19.25"/>
<text text-anchor="middle" x="26.75" y="-5.75" font-family="Helvetica,sans-Serif" font-size="10.00">iostream</text>
</a>
</g>
</g>
<!-- Node2&#45;&gt;Node3 -->
<g id="edge2_Node000002_Node000003" class="edge">
<title>Node2&#45;&gt;Node3</title>
<g id="a_edge2_Node000002_Node000003"><a xlink:title=" ">
<path fill="none" stroke="#63b8ff" d="M201.62,-227.25C173.63,-223.21 126.69,-212.56 97.75,-185 52.85,-142.24 35.51,-67.1 29.53,-31.05"/>
<polygon fill="#63b8ff" stroke="#63b8ff" points="33,-30.53 28.04,-21.16 26.07,-31.57 33,-30.53"/>
</a>
</g>
</g>
<!-- Node4 -->
<g id="Node000004" class="node">
<title>Node4</title>
<g id="a_Node000004"><a xlink:href="filter_8h.html" target="_top" xlink:title="this header file will contain all the filters (2D / 3D) that can be applied to the image and volume d...">
<polygon fill="white" stroke="#666666" points="479.25,-185 406.25,-185 406.25,-165.75 479.25,-165.75 479.25,-185"/>
<text text-anchor="middle" x="442.75" y="-171.5" font-family="Helvetica,sans-Serif" font-size="10.00">../filter/filter.h</text>
</a>
</g>
</g>
<!-- Node2&#45;&gt;Node4 -->
<g id="edge3_Node000002_Node000004" class="edge">
<title>Node2&#45;&gt;Node4</title>
<g id="a_edge3_Node000002_Node000004"><a xlink:title=" ">
<path fill="none" stroke="#63b8ff" d="M248.08,-223.93C282.91,-215.42 349.28,-199.21 394.75,-188.1"/>
<polygon fill="#63b8ff" stroke="#63b8ff" points="395.48,-191.53 404.36,-185.75 393.82,-184.73 395.48,-191.53"/>
</a>
</g>
</g>
<!-- Node18 -->
<g id="Node000018" class="node">
<title>Node18</title>
<g id="a_Node000018"><a xlink:href="projection_8h.html" target="_top" xlink:title="this header file contains all the declarations of projections methods that can be applied to a volume...">
<polygon fill="white" stroke="#666666" points="226.88,-185 106.62,-185 106.62,-165.75 226.88,-165.75 226.88,-185"/>
<text text-anchor="middle" x="166.75" y="-171.5" font-family="Helvetica,sans-Serif" font-size="10.00">../projection/projection.h</text>
</a>
</g>
</g>
<!-- Node2&#45;&gt;Node18 -->
<g id="edge26_Node000002_Node000018" class="edge">
<title>Node2&#45;&gt;Node18</title>
<g id="a_edge26_Node000002_Node000018"><a xlink:title=" ">
<path fill="none" stroke="#63b8ff" d="M214.91,-220.59C206.7,-213.05 194.77,-202.1 184.84,-192.98"/>
<polygon fill="#63b8ff" stroke="#63b8ff" points="187.29,-190.48 177.56,-186.3 182.56,-195.64 187.29,-190.48"/>
</a>
</g>
</g>
<!-- Node19 -->
<g id="Node000019" class="node">
<title>Node19</title>
<g id="a_Node000019"><a xlink:href="slice_8h.html" target="_top" xlink:title="this header file contains all the declarations of slicing methods that can be applied to a volume.">
<polygon fill="white" stroke="#666666" points="322.12,-185 245.38,-185 245.38,-165.75 322.12,-165.75 322.12,-185"/>
<text text-anchor="middle" x="283.75" y="-171.5" font-family="Helvetica,sans-Serif" font-size="10.00">../slice/slice.h</text>
</a>
</g>
</g>
<!-- Node2&#45;&gt;Node19 -->
<g id="edge29_Node000002_Node000019" class="edge">
<title>Node2&#45;&gt;Node19</title>
<g id="a_edge29_Node000002_Node000019"><a xlink:title=" ">
<path fill="none" stroke="#63b8ff" d="M234.76,-220.59C243.12,-213.05 255.25,-202.1 265.35,-192.98"/>
<polygon fill="#63b8ff" stroke="#63b8ff" points="267.69,-195.59 272.77,-186.29 263,-190.39 267.69,-195.59"/>
</a>
</g>
</g>
<!-- Node5 -->
<g id="Node000005" class="node">
<title>Node5</title>
<g id="a_Node000005"><a xlink:title=" ">
<polygon fill="#e0e0e0" stroke="#999999" points="473.12,-19.25 414.38,-19.25 414.38,0 473.12,0 473.12,-19.25"/>
<text text-anchor="middle" x="443.75" y="-5.75" font-family="Helvetica,sans-Serif" font-size="10.00">stdexcept</text>
</a>
</g>
</g>
<!-- Node4&#45;&gt;Node5 -->
<g id="edge4_Node000004_Node000005" class="edge">
<title>Node4&#45;&gt;Node5</title>
<g id="a_edge4_Node000004_Node000005"><a xlink:title=" ">
<path fill="none" stroke="#63b8ff" d="M479.69,-167.61C501.17,-161.57 526.55,-150.35 539.75,-129.75 565.55,-89.48 507.56,-46.92 470.89,-25.22"/>
<polygon fill="#63b8ff" stroke="#63b8ff" points="472.93,-22.35 462.51,-20.42 469.45,-28.43 472.93,-22.35"/>
</a>
</g>
</g>
<!-- Node6 -->
<g id="Node000006" class="node">
<title>Node6</title>
<g id="a_Node000006"><a xlink:title=" ">
<polygon fill="#e0e0e0" stroke="#999999" points="642.62,-129.75 586.88,-129.75 586.88,-110.5 642.62,-110.5 642.62,-129.75"/>
<text text-anchor="middle" x="614.75" y="-116.25" font-family="Helvetica,sans-Serif" font-size="10.00">algorithm</text>
</a>
</g>
</g>
<!-- Node4&#45;&gt;Node6 -->
<g id="edge5_Node000004_Node000006" class="edge">
<title>Node4&#45;&gt;Node6</title>
<g id="a_edge5_Node000004_Node000006"><a xlink:title=" ">
<path fill="none" stroke="#63b8ff" d="M471.93,-165.34C500.56,-156.48 544.41,-142.9 575.97,-133.13"/>
<polygon fill="#63b8ff" stroke="#63b8ff" points="576.61,-136.6 585.13,-130.3 574.54,-129.91 576.61,-136.6"/>
</a>
</g>
</g>
<!-- Node7 -->
<g id="Node000007" class="node">
<title>Node7</title>
<g id="a_Node000007"><a xlink:title=" ">
<polygon fill="#e0e0e0" stroke="#999999" points="534.25,-19.25 491.25,-19.25 491.25,0 534.25,0 534.25,-19.25"/>
<text text-anchor="middle" x="512.75" y="-5.75" font-family="Helvetica,sans-Serif" font-size="10.00">vector</text>
</a>
</g>
</g>
<!-- Node4&#45;&gt;Node7 -->
<g id="edge6_Node000004_Node000007" class="edge">
<title>Node4&#45;&gt;Node7</title>
<g id="a_edge6_Node000004_Node000007"><a xlink:title=" ">
<path fill="none" stroke="#63b8ff" d="M479.72,-171.92C533.84,-167.48 630.51,-156 651.75,-129.75 689.28,-83.37 597.02,-40.95 545.14,-21.63"/>
<polygon fill="#63b8ff" stroke="#63b8ff" points="546.46,-18.38 535.87,-18.27 544.08,-24.96 546.46,-18.38"/>
</a>
</g>
</g>
<!-- Node8 -->
<g id="Node000008" class="node">
<title>Node8</title>
<g id="a_Node000008"><a xlink:title=" ">
<polygon fill="#e0e0e0" stroke="#999999" points="400.38,-129.75 349.12,-129.75 349.12,-110.5 400.38,-110.5 400.38,-129.75"/>
<text text-anchor="middle" x="374.75" y="-116.25" font-family="Helvetica,sans-Serif" font-size="10.00">memory</text>
</a>
</g>
</g>
<!-- Node4&#45;&gt;Node8 -->
<g id="edge7_Node000004_Node000008" class="edge">
<title>Node4&#45;&gt;Node8</title>
<g id="a_edge7_Node000004_Node000008"><a xlink:title=" ">
<path fill="none" stroke="#63b8ff" d="M431.21,-165.34C421.29,-157.57 406.74,-146.17 394.89,-136.9"/>
<polygon fill="#63b8ff" stroke="#63b8ff" points="397.34,-134.37 387.31,-130.96 393.02,-139.88 397.34,-134.37"/>
</a>
</g>
</g>
<!-- Node9 -->
<g id="Node000009" class="node">
<title>Node9</title>
<g id="a_Node000009"><a xlink:title=" ">
<polygon fill="#e0e0e0" stroke="#999999" points="466.88,-129.75 418.62,-129.75 418.62,-110.5 466.88,-110.5 466.88,-129.75"/>
<text text-anchor="middle" x="442.75" y="-116.25" font-family="Helvetica,sans-Serif" font-size="10.00">random</text>
</a>
</g>
</g>
<!-- Node4&#45;&gt;Node9 -->
<g id="edge8_Node000004_Node000009" class="edge">
<title>Node4&#45;&gt;Node9</title>
<g id="a_edge8_Node000004_Node000009"><a xlink:title=" ">
<path fill="none" stroke="#63b8ff" d="M442.75,-165.58C442.75,-159.07 442.75,-149.92 442.75,-141.62"/>
<polygon fill="#63b8ff" stroke="#63b8ff" points="446.25,-141.62 442.75,-131.62 439.25,-141.62 446.25,-141.62"/>
</a>
</g>
</g>
<!-- Node10 -->
<g id="Node000010" class="node">
<title>Node10</title>
<g id="a_Node000010"><a xlink:title=" ">
<polygon fill="#e0e0e0" stroke="#999999" points="530.38,-129.75 485.12,-129.75 485.12,-110.5 530.38,-110.5 530.38,-129.75"/>
<text text-anchor="middle" x="507.75" y="-116.25" font-family="Helvetica,sans-Serif" font-size="10.00">cstring</text>
</a>
</g>
</g>
<!-- Node4&#45;&gt;Node10 -->
<g id="edge9_Node000004_Node000010" class="edge">
<title>Node4&#45;&gt;Node10</title>
<g id="a_edge9_Node000004_Node000010"><a xlink:title=" ">
<path fill="none" stroke="#63b8ff" d="M453.78,-165.34C463.17,-157.65 476.9,-146.4 488.16,-137.18"/>
<polygon fill="#63b8ff" stroke="#63b8ff" points="490.2,-140.03 495.72,-130.98 485.76,-134.61 490.2,-140.03"/>
</a>
</g>
</g>
<!-- Node11 -->
<g id="Node000011" class="node">
<title>Node11</title>
<g id="a_Node000011"><a xlink:href="_image_8h.html" target="_top" xlink:title="this header file contains all required functions and definitions for the Image class,...">
<polygon fill="white" stroke="#666666" points="365.88,-74.5 275.62,-74.5 275.62,-55.25 365.88,-55.25 365.88,-74.5"/>
<text text-anchor="middle" x="320.75" y="-61" font-family="Helvetica,sans-Serif" font-size="10.00">../Image/Image.h</text>
</a>
</g>
</g>
<!-- Node4&#45;&gt;Node11 -->
<g id="edge10_Node000004_Node000011" class="edge">
<title>Node4&#45;&gt;Node11</title>
<g id="a_edge10_Node000004_Node000011"><a xlink:title=" ">
<path fill="none" stroke="#63b8ff" d="M406.18,-166.8C384.08,-160.43 356.95,-149.14 339.75,-129.75 329.05,-117.69 324.37,-99.83 322.33,-86.06"/>
<polygon fill="#63b8ff" stroke="#63b8ff" points="325.83,-85.91 321.26,-76.36 318.87,-86.68 325.83,-85.91"/>
</a>
</g>
</g>
<!-- Node16 -->
<g id="Node000016" class="node">
<title>Node16</title>
<g id="a_Node000016"><a xlink:href="volume_8h.html" target="_top" xlink:title="this header file contains the declarations of the Volume class that handles a collection of images as...">
<polygon fill="white" stroke="#666666" points="216.38,-129.75 117.12,-129.75 117.12,-110.5 216.38,-110.5 216.38,-129.75"/>
<text text-anchor="middle" x="166.75" y="-116.25" font-family="Helvetica,sans-Serif" font-size="10.00">../volume/volume.h</text>
</a>
</g>
</g>
<!-- Node4&#45;&gt;Node16 -->
<g id="edge18_Node000004_Node000016" class="edge">
<title>Node4&#45;&gt;Node16</title>
<g id="a_edge18_Node000004_Node000016"><a xlink:title=" ">
<path fill="none" stroke="#63b8ff" d="M405.81,-167.25C359.46,-158.31 279.44,-142.87 224.85,-132.34"/>
<polygon fill="#63b8ff" stroke="#63b8ff" points="225.58,-128.91 215.1,-130.45 224.25,-135.78 225.58,-128.91"/>
</a>
</g>
</g>
<!-- Node11&#45;&gt;Node3 -->
<g id="edge11_Node000011_Node000003" class="edge">
<title>Node11&#45;&gt;Node3</title>
<g id="a_edge11_Node000011_Node000003"><a xlink:title=" ">
<path fill="none" stroke="#63b8ff" d="M275.32,-56.38C216.96,-46.69 117.78,-30.01 64.98,-19.57"/>
<polygon fill="#63b8ff" stroke="#63b8ff" points="65.81,-16.17 55.32,-17.61 64.43,-23.03 65.81,-16.17"/>
</a>
</g>
</g>
<!-- Node11&#45;&gt;Node5 -->
<g id="edge14_Node000011_Node000005" class="edge">
<title>Node11&#45;&gt;Node5</title>
<g id="a_edge14_Node000011_Node000005"><a xlink:title=" ">
<path fill="none" stroke="#63b8ff" d="M341.62,-54.84C361.05,-46.43 390.29,-33.77 412.51,-24.15"/>
<polygon fill="#63b8ff" stroke="#63b8ff" points="413.61,-27.49 421.39,-20.3 410.83,-21.06 413.61,-27.49"/>
</a>
</g>
</g>
<!-- Node11&#45;&gt;Node7 -->
<g id="edge13_Node000011_Node000007" class="edge">
<title>Node11&#45;&gt;Node7</title>
<g id="a_edge13_Node000011_Node000007"><a xlink:title=" ">
<path fill="none" stroke="#63b8ff" d="M353.44,-54.82C383.74,-46.43 430.38,-33.51 480.09,-19.71"/>
<polygon fill="#63b8ff" stroke="#63b8ff" points="480.91,-23.11 489.61,-17.06 479.04,-16.37 480.91,-23.11"/>
</a>
</g>
</g>
<!-- Node12 -->
<g id="Node000012" class="node">
<title>Node12</title>
<g id="a_Node000012"><a xlink:title=" ">
<polygon fill="#e0e0e0" stroke="#999999" points="111.75,-19.25 71.75,-19.25 71.75,0 111.75,0 111.75,-19.25"/>
<text text-anchor="middle" x="91.75" y="-5.75" font-family="Helvetica,sans-Serif" font-size="10.00">string</text>
</a>
</g>
</g>
<!-- Node11&#45;&gt;Node12 -->
<g id="edge12_Node000011_Node000012" class="edge">
<title>Node11&#45;&gt;Node12</title>
<g id="a_edge12_Node000011_Node000012"><a xlink:title=" ">
<path fill="none" stroke="#63b8ff" d="M276.05,-54.83C237.76,-46.88 180.92,-34.58 122.84,-19.65"/>
<polygon fill="#63b8ff" stroke="#63b8ff" points="124,-16.34 113.45,-17.22 122.25,-23.12 124,-16.34"/>
</a>
</g>
</g>
<!-- Node13 -->
<g id="Node000013" class="node">
<title>Node13</title>
<g id="a_Node000013"><a xlink:title=" ">
<polygon fill="#e0e0e0" stroke="#999999" points="395.88,-19.25 347.62,-19.25 347.62,0 395.88,0 395.88,-19.25"/>
<text text-anchor="middle" x="371.75" y="-5.75" font-family="Helvetica,sans-Serif" font-size="10.00">cassert</text>
</a>
</g>
</g>
<!-- Node11&#45;&gt;Node13 -->
<g id="edge15_Node000011_Node000013" class="edge">
<title>Node11&#45;&gt;Node13</title>
<g id="a_edge15_Node000011_Node000013"><a xlink:title=" ">
<path fill="none" stroke="#63b8ff" d="M329.17,-55.08C336.29,-47.65 346.69,-36.79 355.44,-27.66"/>
<polygon fill="#63b8ff" stroke="#63b8ff" points="357.71,-30.35 362.1,-20.7 352.65,-25.5 357.71,-30.35"/>
</a>
</g>
</g>
<!-- Node14 -->
<g id="Node000014" class="node">
<title>Node14</title>
<g id="a_Node000014"><a xlink:title=" ">
<polygon fill="#e0e0e0" stroke="#999999" points="207.88,-19.25 129.62,-19.25 129.62,0 207.88,0 207.88,-19.25"/>
<text text-anchor="middle" x="168.75" y="-5.75" font-family="Helvetica,sans-Serif" font-size="10.00">../stb_image.h</text>
</a>
</g>
</g>
<!-- Node11&#45;&gt;Node14 -->
<g id="edge16_Node000011_Node000014" class="edge">
<title>Node11&#45;&gt;Node14</title>
<g id="a_edge16_Node000011_Node000014"><a xlink:title=" ">
<path fill="none" stroke="#63b8ff" d="M294.97,-54.84C270.4,-46.24 233.16,-33.19 205.49,-23.5"/>
<polygon fill="#63b8ff" stroke="#63b8ff" points="206.68,-20.21 196.09,-20.2 204.37,-26.81 206.68,-20.21"/>
</a>
</g>
</g>
<!-- Node15 -->
<g id="Node000015" class="node">
<title>Node15</title>
<g id="a_Node000015"><a xlink:title=" ">
<polygon fill="#e0e0e0" stroke="#999999" points="330,-19.25 225.5,-19.25 225.5,0 330,0 330,-19.25"/>
<text text-anchor="middle" x="277.75" y="-5.75" font-family="Helvetica,sans-Serif" font-size="10.00">../stb_image_write.h</text>
</a>
</g>
</g>
<!-- Node11&#45;&gt;Node15 -->
<g id="edge17_Node000011_Node000015" class="edge">
<title>Node11&#45;&gt;Node15</title>
<g id="a_edge17_Node000011_Node000015"><a xlink:title=" ">
<path fill="none" stroke="#63b8ff" d="M313.65,-55.08C307.83,-47.88 299.42,-37.46 292.19,-28.51"/>
<polygon fill="#63b8ff" stroke="#63b8ff" points="294.96,-26.37 285.96,-20.79 289.52,-30.77 294.96,-26.37"/>
</a>
</g>
</g>
<!-- Node16&#45;&gt;Node3 -->
<g id="edge25_Node000016_Node000003" class="edge">
<title>Node16&#45;&gt;Node3</title>
<g id="a_edge25_Node000016_Node000003"><a xlink:title=" ">
<path fill="none" stroke="#63b8ff" d="M155.29,-110.25C131.6,-91.89 76.96,-49.54 47.11,-26.41"/>
<polygon fill="#63b8ff" stroke="#63b8ff" points="49.61,-23.91 39.56,-20.55 45.32,-29.45 49.61,-23.91"/>
</a>
</g>
</g>
<!-- Node16&#45;&gt;Node7 -->
<g id="edge22_Node000016_Node000007" class="edge">
<title>Node16&#45;&gt;Node7</title>
<g id="a_edge22_Node000016_Node000007"><a xlink:title=" ">
<path fill="none" stroke="#63b8ff" d="M216.75,-111.61C259.41,-104.44 322.03,-92.11 374.75,-74.5 414.98,-61.06 459.07,-39.33 486.33,-25.01"/>
<polygon fill="#63b8ff" stroke="#63b8ff" points="487.73,-28.23 494.91,-20.45 484.44,-22.05 487.73,-28.23"/>
</a>
</g>
</g>
<!-- Node16&#45;&gt;Node11 -->
<g id="edge21_Node000016_Node000011" class="edge">
<title>Node16&#45;&gt;Node11</title>
<g id="a_edge21_Node000016_Node000011"><a xlink:title=" ">
<path fill="none" stroke="#63b8ff" d="M192.87,-110.09C217.87,-101.45 255.83,-88.32 283.9,-78.62"/>
<polygon fill="#63b8ff" stroke="#63b8ff" points="284.76,-82.02 293.07,-75.45 282.47,-75.41 284.76,-82.02"/>
</a>
</g>
</g>
<!-- Node16&#45;&gt;Node12 -->
<g id="edge23_Node000016_Node000012" class="edge">
<title>Node16&#45;&gt;Node12</title>
<g id="a_edge23_Node000016_Node000012"><a xlink:title=" ">
<path fill="none" stroke="#63b8ff" d="M160.61,-110.25C148.36,-92.52 120.66,-52.44 104.37,-28.88"/>
<polygon fill="#63b8ff" stroke="#63b8ff" points="107.4,-27.11 98.83,-20.87 101.64,-31.09 107.4,-27.11"/>
</a>
</g>
</g>
<!-- Node16&#45;&gt;Node14 -->
<g id="edge19_Node000016_Node000014" class="edge">
<title>Node16&#45;&gt;Node14</title>
<g id="a_edge19_Node000016_Node000014"><a xlink:title=" ">
<path fill="none" stroke="#63b8ff" d="M162.79,-110.07C157.89,-97.73 150.53,-74.91 153.75,-55.25 155.12,-46.89 157.84,-37.98 160.59,-30.34"/>
<polygon fill="#63b8ff" stroke="#63b8ff" points="163.84,-31.63 164.21,-21.04 157.32,-29.1 163.84,-31.63"/>
</a>
</g>
</g>
<!-- Node16&#45;&gt;Node15 -->
<g id="edge20_Node000016_Node000015" class="edge">
<title>Node16&#45;&gt;Node15</title>
<g id="a_edge20_Node000016_Node000015"><a xlink:title=" ">
<path fill="none" stroke="#63b8ff" d="M167.35,-110.22C168.68,-96.81 172.98,-71.3 186.75,-55.25 199.18,-40.76 217.42,-30.54 234.31,-23.57"/>
<polygon fill="#63b8ff" stroke="#63b8ff" points="235.08,-27.02 243.17,-20.18 232.58,-20.48 235.08,-27.02"/>
</a>
</g>
</g>
<!-- Node17 -->
<g id="Node000017" class="node">
<title>Node17</title>
<g id="a_Node000017"><a xlink:title=" ">
<polygon fill="#e0e0e0" stroke="#999999" points="257.25,-74.5 196.25,-74.5 196.25,-55.25 257.25,-55.25 257.25,-74.5"/>
<text text-anchor="middle" x="226.75" y="-61" font-family="Helvetica,sans-Serif" font-size="10.00">filesystem</text>
</a>
</g>
</g>
<!-- Node16&#45;&gt;Node17 -->
<g id="edge24_Node000016_Node000017" class="edge">
<title>Node16&#45;&gt;Node17</title>
<g id="a_edge24_Node000016_Node000017"><a xlink:title=" ">
<path fill="none" stroke="#63b8ff" d="M176.93,-110.09C185.51,-102.47 198.02,-91.37 208.35,-82.2"/>
<polygon fill="#63b8ff" stroke="#63b8ff" points="210.43,-85.04 215.59,-75.78 205.79,-79.8 210.43,-85.04"/>
</a>
</g>
</g>
<!-- Node18&#45;&gt;Node11 -->
<g id="edge27_Node000018_Node000011" class="edge">
<title>Node18&#45;&gt;Node11</title>
<g id="a_edge27_Node000018_Node000011"><a xlink:title=" ">
<path fill="none" stroke="#63b8ff" d="M179.62,-165.31C205.95,-146.76 266.27,-104.26 298.87,-81.29"/>
<polygon fill="#63b8ff" stroke="#63b8ff" points="300.63,-84.33 306.79,-75.71 296.6,-78.61 300.63,-84.33"/>
</a>
</g>
</g>
<!-- Node18&#45;&gt;Node16 -->
<g id="edge28_Node000018_Node000016" class="edge">
<title>Node18&#45;&gt;Node16</title>
<g id="a_edge28_Node000018_Node000016"><a xlink:title=" ">
<path fill="none" stroke="#63b8ff" d="M166.75,-165.58C166.75,-159.07 166.75,-149.92 166.75,-141.62"/>
<polygon fill="#63b8ff" stroke="#63b8ff" points="170.25,-141.62 166.75,-131.62 163.25,-141.62 170.25,-141.62"/>
</a>
</g>
</g>
<!-- Node19&#45;&gt;Node11 -->
<g id="edge31_Node000019_Node000011" class="edge">
<title>Node19&#45;&gt;Node11</title>
<g id="a_edge31_Node000019_Node000011"><a xlink:title=" ">
<path fill="none" stroke="#63b8ff" d="M286.78,-165.5C292.69,-148.17 305.88,-109.48 313.98,-85.74"/>
<polygon fill="#63b8ff" stroke="#63b8ff" points="317.28,-86.9 317.19,-76.31 310.65,-84.64 317.28,-86.9"/>
</a>
</g>
</g>
<!-- Node19&#45;&gt;Node16 -->
<g id="edge30_Node000019_Node000016" class="edge">
<title>Node19&#45;&gt;Node16</title>
<g id="a_edge30_Node000019_Node000016"><a xlink:title=" ">
<path fill="none" stroke="#63b8ff" d="M263.9,-165.34C245.58,-157 218.1,-144.5 197.04,-134.91"/>
<polygon fill="#63b8ff" stroke="#63b8ff" points="198.62,-131.79 188.07,-130.83 195.72,-138.16 198.62,-131.79"/>
</a>
</g>
</g>
</g>
</svg>
