<?xml version="1.0" encoding="UTF-8" standalone="no"?>
<!DOCTYPE svg PUBLIC "-//W3C//DTD SVG 1.1//EN"
 "http://www.w3.org/Graphics/SVG/1.1/DTD/svg11.dtd">
<!-- Generated by graphviz version 10.0.1 (20240210.2158)
 -->
<!-- Title: /Users/st1123/CLionProjects/advanced&#45;programming&#45;group&#45;linear&#45;regression/src/volume/volume.h Pages: 1 -->
<svg width="772pt" height="328pt"
 viewBox="0.00 0.00 772.25 328.00" xmlns="http://www.w3.org/2000/svg" xmlns:xlink="http://www.w3.org/1999/xlink">
<g id="graph0" class="graph" transform="scale(1 1) rotate(0) translate(4 324)">
<title>/Users/st1123/CLionProjects/advanced&#45;programming&#45;group&#45;linear&#45;regression/src/volume/volume.h</title>
<!-- Node1 -->
<g id="Node000001" class="node">
<title>Node1</title>
<g id="a_Node000001"><a xlink:title="this header file contains the declarations of the Volume class that handles a collection of images as...">
<polygon fill="#999999" stroke="#666666" points="417.25,-320 270,-320 270,-267 417.25,-267 417.25,-320"/>
<text text-anchor="start" x="278" y="-306.5" font-family="Helvetica,sans-Serif" font-size="10.00">/Users/st1123/CLionProjects</text>
<text text-anchor="start" x="278" y="-295.25" font-family="Helvetica,sans-Serif" font-size="10.00">/advanced&#45;programming&#45;group</text>
<text text-anchor="start" x="278" y="-284" font-family="Helvetica,sans-Serif" font-size="10.00">&#45;linear&#45;regression/src/volume</text>
<text text-anchor="middle" x="343.62" y="-272.75" font-family="Helvetica,sans-Serif" font-size="10.00">/volume.h</text>
</a>
</g>
</g>
<!-- Node2 -->
<g id="Node000002" class="node">
<title>Node2</title>
<g id="a_Node000002"><a xlink:href="filter_8cpp.html" target="_top" xlink:title="this file will contain all the filters (2D / 3D) that can be applied to the image and volume data">
<polygon fill="white" stroke="#666666" points="147.25,-142 0,-142 0,-89 147.25,-89 147.25,-142"/>
<text text-anchor="start" x="8" y="-128.5" font-family="Helvetica,sans-Serif" font-size="10.00">/Users/st1123/CLionProjects</text>
<text text-anchor="start" x="8" y="-117.25" font-family="Helvetica,sans-Serif" font-size="10.00">/advanced&#45;programming&#45;group</text>
<text text-anchor="start" x="8" y="-106" font-family="Helvetica,sans-Serif" font-size="10.00">&#45;linear&#45;regression/src/filter</text>
<text text-anchor="middle" x="73.62" y="-94.75" font-family="Helvetica,sans-Serif" font-size="10.00">/filter.cpp</text>
</a>
</g>
</g>
<!-- Node1&#45;&gt;Node2 -->
<g id="edge1_Node000001_Node000002" class="edge">
<title>Node1&#45;&gt;Node2</title>
<g id="a_edge1_Node000001_Node000002"><a xlink:title=" ">
<path fill="none" stroke="#63b8ff" d="M258.27,-281.73C194.65,-271.91 115.07,-255.21 92.62,-231 70.57,-207.21 68.74,-168.05 70.42,-142.27"/>
<polygon fill="#63b8ff" stroke="#63b8ff" points="257.63,-285.18 268.04,-283.2 258.67,-278.25 257.63,-285.18"/>
</a>
</g>
</g>
<!-- Node3 -->
<g id="Node000003" class="node">
<title>Node3</title>
<g id="a_Node000003"><a xlink:href="filter_8h.html" target="_top" xlink:title="this header file will contain all the filters (2D / 3D) that can be applied to the image and volume d...">
<polygon fill="white" stroke="#666666" points="249.25,-231 102,-231 102,-178 249.25,-178 249.25,-231"/>
<text text-anchor="start" x="110" y="-217.5" font-family="Helvetica,sans-Serif" font-size="10.00">/Users/st1123/CLionProjects</text>
<text text-anchor="start" x="110" y="-206.25" font-family="Helvetica,sans-Serif" font-size="10.00">/advanced&#45;programming&#45;group</text>
<text text-anchor="start" x="110" y="-195" font-family="Helvetica,sans-Serif" font-size="10.00">&#45;linear&#45;regression/src/filter</text>
<text text-anchor="middle" x="175.62" y="-183.75" font-family="Helvetica,sans-Serif" font-size="10.00">/filter.h</text>
</a>
</g>
</g>
<!-- Node1&#45;&gt;Node3 -->
<g id="edge2_Node000001_Node000003" class="edge">
<title>Node1&#45;&gt;Node3</title>
<g id="a_edge2_Node000001_Node000003"><a xlink:title=" ">
<path fill="none" stroke="#63b8ff" d="M283.64,-261.43C264.65,-251.6 243.88,-240.85 225.67,-231.42"/>
<polygon fill="#63b8ff" stroke="#63b8ff" points="281.84,-264.45 292.33,-265.94 285.06,-258.23 281.84,-264.45"/>
</a>
</g>
</g>
<!-- Node8 -->
<g id="Node000008" class="node">
<title>Node8</title>
<g id="a_Node000008"><a xlink:href="projection_8h.html" target="_top" xlink:title="this header file contains all the declarations of projections methods that can be applied to a volume...">
<polygon fill="white" stroke="#666666" points="419.5,-231 267.75,-231 267.75,-178 419.5,-178 419.5,-231"/>
<text text-anchor="start" x="275.75" y="-217.5" font-family="Helvetica,sans-Serif" font-size="10.00">/Users/st1123/CLionProjects</text>
<text text-anchor="start" x="275.75" y="-206.25" font-family="Helvetica,sans-Serif" font-size="10.00">/advanced&#45;programming&#45;group</text>
<text text-anchor="start" x="275.75" y="-195" font-family="Helvetica,sans-Serif" font-size="10.00">&#45;linear&#45;regression/src/projection</text>
<text text-anchor="middle" x="343.62" y="-183.75" font-family="Helvetica,sans-Serif" font-size="10.00">/projection.h</text>
</a>
</g>
</g>
<!-- Node1&#45;&gt;Node8 -->
<g id="edge9_Node000001_Node000008" class="edge">
<title>Node1&#45;&gt;Node8</title>
<g id="a_edge9_Node000001_Node000008"><a xlink:title=" ">
<path fill="none" stroke="#63b8ff" d="M343.62,-255.61C343.62,-247.41 343.62,-238.89 343.62,-231.25"/>
<polygon fill="#63b8ff" stroke="#63b8ff" points="340.13,-255.35 343.63,-265.35 347.13,-255.35 340.13,-255.35"/>
</a>
</g>
</g>
<!-- Node9 -->
<g id="Node000009" class="node">
<title>Node9</title>
<g id="a_Node000009"><a xlink:href="slice_8h.html" target="_top" xlink:title="this header file contains all the declarations of slicing methods that can be applied to a volume.">
<polygon fill="white" stroke="#666666" points="599.38,-225.38 437.88,-225.38 437.88,-183.62 599.38,-183.62 599.38,-225.38"/>
<text text-anchor="start" x="445.88" y="-211.88" font-family="Helvetica,sans-Serif" font-size="10.00">/Users/st1123/CLionProjects</text>
<text text-anchor="start" x="445.88" y="-200.62" font-family="Helvetica,sans-Serif" font-size="10.00">/advanced&#45;programming&#45;group</text>
<text text-anchor="middle" x="518.62" y="-189.38" font-family="Helvetica,sans-Serif" font-size="10.00">&#45;linear&#45;regression/src/slice/slice.h</text>
</a>
</g>
</g>
<!-- Node1&#45;&gt;Node9 -->
<g id="edge12_Node000001_Node000009" class="edge">
<title>Node1&#45;&gt;Node9</title>
<g id="a_edge12_Node000001_Node000009"><a xlink:title=" ">
<path fill="none" stroke="#63b8ff" d="M405.74,-261.62C429.71,-249.71 456.46,-236.41 477.9,-225.75"/>
<polygon fill="#63b8ff" stroke="#63b8ff" points="404.41,-258.37 397.01,-265.96 407.52,-264.64 404.41,-258.37"/>
</a>
</g>
</g>
<!-- Node11 -->
<g id="Node000011" class="node">
<title>Node11</title>
<g id="a_Node000011"><a xlink:href="volume_8cpp.html" target="_top" xlink:title="this header file contains the implementation of the Volume class that handles a collection of images ...">
<polygon fill="white" stroke="#666666" points="764.25,-231 617,-231 617,-178 764.25,-178 764.25,-231"/>
<text text-anchor="start" x="625" y="-217.5" font-family="Helvetica,sans-Serif" font-size="10.00">/Users/st1123/CLionProjects</text>
<text text-anchor="start" x="625" y="-206.25" font-family="Helvetica,sans-Serif" font-size="10.00">/advanced&#45;programming&#45;group</text>
<text text-anchor="start" x="625" y="-195" font-family="Helvetica,sans-Serif" font-size="10.00">&#45;linear&#45;regression/src/volume</text>
<text text-anchor="middle" x="690.62" y="-183.75" font-family="Helvetica,sans-Serif" font-size="10.00">/volume.cpp</text>
</a>
</g>
</g>
<!-- Node1&#45;&gt;Node11 -->
<g id="edge15_Node000001_Node000011" class="edge">
<title>Node1&#45;&gt;Node11</title>
<g id="a_edge15_Node000001_Node000011"><a xlink:title=" ">
<path fill="none" stroke="#63b8ff" d="M428.88,-274.38C481.03,-262.89 548.96,-247.18 608.62,-231 611.22,-230.3 613.85,-229.57 616.5,-228.82"/>
<polygon fill="#63b8ff" stroke="#63b8ff" points="428.16,-270.96 419.15,-276.52 429.66,-277.8 428.16,-270.96"/>
</a>
</g>
</g>
<!-- Node3&#45;&gt;Node2 -->
<g id="edge3_Node000003_Node000002" class="edge">
<title>Node3&#45;&gt;Node2</title>
<g id="a_edge3_Node000003_Node000002"><a xlink:title=" ">
<path fill="none" stroke="#63b8ff" d="M136.8,-170.38C125.94,-161.12 114.3,-151.2 104.01,-142.42"/>
<polygon fill="#63b8ff" stroke="#63b8ff" points="134.27,-172.82 144.15,-176.65 138.81,-167.5 134.27,-172.82"/>
</a>
</g>
</g>
<!-- Node4 -->
<g id="Node000004" class="node">
<title>Node4</title>
<g id="a_Node000004"><a xlink:href="main_8cpp.html" target="_top" xlink:title=" ">
<polygon fill="white" stroke="#666666" points="303.38,-47.38 153.88,-47.38 153.88,-5.62 303.38,-5.62 303.38,-47.38"/>
<text text-anchor="start" x="161.88" y="-33.88" font-family="Helvetica,sans-Serif" font-size="10.00">/Users/st1123/CLionProjects</text>
<text text-anchor="start" x="161.88" y="-22.62" font-family="Helvetica,sans-Serif" font-size="10.00">/advanced&#45;programming&#45;group</text>
<text text-anchor="middle" x="228.62" y="-11.38" font-family="Helvetica,sans-Serif" font-size="10.00">&#45;linear&#45;regression/src/main.cpp</text>
</a>
</g>
</g>
<!-- Node3&#45;&gt;Node4 -->
<g id="edge4_Node000003_Node000004" class="edge">
<title>Node3&#45;&gt;Node4</title>
<g id="a_edge4_Node000003_Node000004"><a xlink:title=" ">
<path fill="none" stroke="#63b8ff" d="M178.53,-166.61C181.11,-143.78 185.89,-114.12 194.62,-89 199.68,-74.48 207.99,-59.36 215.13,-47.74"/>
<polygon fill="#63b8ff" stroke="#63b8ff" points="175.07,-166.06 177.53,-176.37 182.03,-166.78 175.07,-166.06"/>
</a>
</g>
</g>
<!-- Node5 -->
<g id="Node000005" class="node">
<title>Node5</title>
<g id="a_Node000005"><a xlink:href="projection_8cpp.html" target="_top" xlink:title="this file contains the implementation of all the projections methods that can be applied to a volume.">
<polygon fill="white" stroke="#666666" points="355.5,-142 203.75,-142 203.75,-89 355.5,-89 355.5,-142"/>
<text text-anchor="start" x="211.75" y="-128.5" font-family="Helvetica,sans-Serif" font-size="10.00">/Users/st1123/CLionProjects</text>
<text text-anchor="start" x="211.75" y="-117.25" font-family="Helvetica,sans-Serif" font-size="10.00">/advanced&#45;programming&#45;group</text>
<text text-anchor="start" x="211.75" y="-106" font-family="Helvetica,sans-Serif" font-size="10.00">&#45;linear&#45;regression/src/projection</text>
<text text-anchor="middle" x="279.62" y="-94.75" font-family="Helvetica,sans-Serif" font-size="10.00">/projection.cpp</text>
</a>
</g>
</g>
<!-- Node3&#45;&gt;Node5 -->
<g id="edge5_Node000003_Node000005" class="edge">
<title>Node3&#45;&gt;Node5</title>
<g id="a_edge5_Node000003_Node000005"><a xlink:title=" ">
<path fill="none" stroke="#63b8ff" d="M215.21,-170.38C226.28,-161.12 238.15,-151.2 248.64,-142.42"/>
<polygon fill="#63b8ff" stroke="#63b8ff" points="213.13,-167.56 207.71,-176.66 217.62,-172.93 213.13,-167.56"/>
</a>
</g>
</g>
<!-- Node6 -->
<g id="Node000006" class="node">
<title>Node6</title>
<g id="a_Node000006"><a xlink:href="utility_8h.html" target="_top" xlink:title="this header file contains the declarations of the Utility class that is used to help build the UI int...">
<polygon fill="white" stroke="#666666" points="521.25,-142 374,-142 374,-89 521.25,-89 521.25,-142"/>
<text text-anchor="start" x="382" y="-128.5" font-family="Helvetica,sans-Serif" font-size="10.00">/Users/st1123/CLionProjects</text>
<text text-anchor="start" x="382" y="-117.25" font-family="Helvetica,sans-Serif" font-size="10.00">/advanced&#45;programming&#45;group</text>
<text text-anchor="start" x="382" y="-106" font-family="Helvetica,sans-Serif" font-size="10.00">&#45;linear&#45;regression/src/utility</text>
<text text-anchor="middle" x="447.62" y="-94.75" font-family="Helvetica,sans-Serif" font-size="10.00">/utility.h</text>
</a>
</g>
</g>
<!-- Node3&#45;&gt;Node6 -->
<g id="edge6_Node000003_Node000006" class="edge">
<title>Node3&#45;&gt;Node6</title>
<g id="a_edge6_Node000003_Node000006"><a xlink:title=" ">
<path fill="none" stroke="#63b8ff" d="M260.17,-176.46C296.51,-164.83 338.6,-151.37 373.67,-140.15"/>
<polygon fill="#63b8ff" stroke="#63b8ff" points="259.49,-173 251.03,-179.38 261.62,-179.67 259.49,-173"/>
</a>
</g>
</g>
<!-- Node6&#45;&gt;Node4 -->
<g id="edge7_Node000006_Node000004" class="edge">
<title>Node6&#45;&gt;Node4</title>
<g id="a_edge7_Node000006_Node000004"><a xlink:title=" ">
<path fill="none" stroke="#63b8ff" d="M371.65,-84.32C341.29,-72.26 307.13,-58.69 279.8,-47.83"/>
<polygon fill="#63b8ff" stroke="#63b8ff" points="370.22,-87.52 380.81,-87.96 372.81,-81.01 370.22,-87.52"/>
</a>
</g>
</g>
<!-- Node7 -->
<g id="Node000007" class="node">
<title>Node7</title>
<g id="a_Node000007"><a xlink:href="utility_8cpp.html" target="_top" xlink:title=" ">
<polygon fill="white" stroke="#666666" points="521.25,-53 374,-53 374,0 521.25,0 521.25,-53"/>
<text text-anchor="start" x="382" y="-39.5" font-family="Helvetica,sans-Serif" font-size="10.00">/Users/st1123/CLionProjects</text>
<text text-anchor="start" x="382" y="-28.25" font-family="Helvetica,sans-Serif" font-size="10.00">/advanced&#45;programming&#45;group</text>
<text text-anchor="start" x="382" y="-17" font-family="Helvetica,sans-Serif" font-size="10.00">&#45;linear&#45;regression/src/utility</text>
<text text-anchor="middle" x="447.62" y="-5.75" font-family="Helvetica,sans-Serif" font-size="10.00">/utility.cpp</text>
</a>
</g>
</g>
<!-- Node6&#45;&gt;Node7 -->
<g id="edge8_Node000006_Node000007" class="edge">
<title>Node6&#45;&gt;Node7</title>
<g id="a_edge8_Node000006_Node000007"><a xlink:title=" ">
<path fill="none" stroke="#63b8ff" d="M447.62,-77.61C447.62,-69.41 447.62,-60.89 447.62,-53.25"/>
<polygon fill="#63b8ff" stroke="#63b8ff" points="444.13,-77.35 447.63,-87.35 451.13,-77.35 444.13,-77.35"/>
</a>
</g>
</g>
<!-- Node8&#45;&gt;Node5 -->
<g id="edge10_Node000008_Node000005" class="edge">
<title>Node8&#45;&gt;Node5</title>
<g id="a_edge10_Node000008_Node000005"><a xlink:title=" ">
<path fill="none" stroke="#63b8ff" d="M318.15,-168.87C311.62,-159.99 304.7,-150.59 298.57,-142.25"/>
<polygon fill="#63b8ff" stroke="#63b8ff" points="315.13,-170.67 323.87,-176.65 320.77,-166.52 315.13,-170.67"/>
</a>
</g>
</g>
<!-- Node8&#45;&gt;Node6 -->
<g id="edge11_Node000008_Node000006" class="edge">
<title>Node8&#45;&gt;Node6</title>
<g id="a_edge11_Node000008_Node000006"><a xlink:title=" ">
<path fill="none" stroke="#63b8ff" d="M383.21,-170.38C394.28,-161.12 406.15,-151.2 416.64,-142.42"/>
<polygon fill="#63b8ff" stroke="#63b8ff" points="381.13,-167.56 375.71,-176.66 385.62,-172.93 381.13,-167.56"/>
</a>
</g>
</g>
<!-- Node9&#45;&gt;Node6 -->
<g id="edge14_Node000009_Node000006" class="edge">
<title>Node9&#45;&gt;Node6</title>
<g id="a_edge14_Node000009_Node000006"><a xlink:title=" ">
<path fill="none" stroke="#63b8ff" d="M494.98,-174.53C486.45,-164.07 476.88,-152.35 468.59,-142.19"/>
<polygon fill="#63b8ff" stroke="#63b8ff" points="492.17,-176.61 501.2,-182.15 497.59,-172.19 492.17,-176.61"/>
</a>
</g>
</g>
<!-- Node10 -->
<g id="Node000010" class="node">
<title>Node10</title>
<g id="a_Node000010"><a xlink:href="slice_8cpp.html" target="_top" xlink:title="this header file contains all the implementations of slicing methods that can be applied to a volume.">
<polygon fill="white" stroke="#666666" points="686.25,-142 539,-142 539,-89 686.25,-89 686.25,-142"/>
<text text-anchor="start" x="547" y="-128.5" font-family="Helvetica,sans-Serif" font-size="10.00">/Users/st1123/CLionProjects</text>
<text text-anchor="start" x="547" y="-117.25" font-family="Helvetica,sans-Serif" font-size="10.00">/advanced&#45;programming&#45;group</text>
<text text-anchor="start" x="547" y="-106" font-family="Helvetica,sans-Serif" font-size="10.00">&#45;linear&#45;regression/src/slice</text>
<text text-anchor="middle" x="612.62" y="-94.75" font-family="Helvetica,sans-Serif" font-size="10.00">/slice.cpp</text>
</a>
</g>
</g>
<!-- Node9&#45;&gt;Node10 -->
<g id="edge13_Node000009_Node000010" class="edge">
<title>Node9&#45;&gt;Node10</title>
<g id="a_edge13_Node000009_Node000010"><a xlink:title=" ">
<path fill="none" stroke="#63b8ff" d="M548.56,-175.79C560.2,-165.02 573.45,-152.76 584.87,-142.19"/>
<polygon fill="#63b8ff" stroke="#63b8ff" points="546.5,-172.93 541.54,-182.29 551.25,-178.07 546.5,-172.93"/>
</a>
</g>
</g>
</g>
</svg>
