<?xml version="1.0" encoding="UTF-8" standalone="no"?>
<!DOCTYPE svg PUBLIC "-//W3C//DTD SVG 1.1//EN"
 "http://www.w3.org/Graphics/SVG/1.1/DTD/svg11.dtd">
<!-- Generated by graphviz version 10.0.1 (20240210.2158)
 -->
<!-- Title: /Users/st1123/CLionProjects/advanced&#45;programming&#45;group&#45;linear&#45;regression/src/volume/volume.cpp Pages: 1 -->
<svg width="543pt" height="227pt"
 viewBox="0.00 0.00 542.62 226.75" xmlns="http://www.w3.org/2000/svg" xmlns:xlink="http://www.w3.org/1999/xlink">
<g id="graph0" class="graph" transform="scale(1 1) rotate(0) translate(4 222.75)">
<title>/Users/st1123/CLionProjects/advanced&#45;programming&#45;group&#45;linear&#45;regression/src/volume/volume.cpp</title>
<!-- Node1 -->
<g id="Node000001" class="node">
<title>Node1</title>
<g id="a_Node000001"><a xlink:title="this header file contains the implementation of the Volume class that handles a collection of images ...">
<polygon fill="#999999" stroke="#666666" points="352.75,-218.75 205.5,-218.75 205.5,-165.75 352.75,-165.75 352.75,-218.75"/>
<text text-anchor="start" x="213.5" y="-205.25" font-family="Helvetica,sans-Serif" font-size="10.00">/Users/st1123/CLionProjects</text>
<text text-anchor="start" x="213.5" y="-194" font-family="Helvetica,sans-Serif" font-size="10.00">/advanced&#45;programming&#45;group</text>
<text text-anchor="start" x="213.5" y="-182.75" font-family="Helvetica,sans-Serif" font-size="10.00">&#45;linear&#45;regression/src/volume</text>
<text text-anchor="middle" x="279.12" y="-171.5" font-family="Helvetica,sans-Serif" font-size="10.00">/volume.cpp</text>
</a>
</g>
</g>
<!-- Node2 -->
<g id="Node000002" class="node">
<title>Node2</title>
<g id="a_Node000002"><a xlink:title=" ">
<polygon fill="#e0e0e0" stroke="#999999" points="270,-129.75 214.25,-129.75 214.25,-110.5 270,-110.5 270,-129.75"/>
<text text-anchor="middle" x="242.12" y="-116.25" font-family="Helvetica,sans-Serif" font-size="10.00">algorithm</text>
</a>
</g>
</g>
<!-- Node1&#45;&gt;Node2 -->
<g id="edge1_Node000001_Node000002" class="edge">
<title>Node1&#45;&gt;Node2</title>
<g id="a_edge1_Node000001_Node000002"><a xlink:title=" ">
<path fill="none" stroke="#63b8ff" d="M265.56,-165.54C261.13,-157.14 256.29,-147.97 252.17,-140.16"/>
<polygon fill="#63b8ff" stroke="#63b8ff" points="255.4,-138.79 247.64,-131.58 249.21,-142.05 255.4,-138.79"/>
</a>
</g>
</g>
<!-- Node3 -->
<g id="Node000003" class="node">
<title>Node3</title>
<g id="a_Node000003"><a xlink:href="volume_8h.html" target="_top" xlink:title="this header file contains the declarations of the Volume class that handles a collection of images as...">
<polygon fill="white" stroke="#666666" points="344,-129.75 288.25,-129.75 288.25,-110.5 344,-110.5 344,-129.75"/>
<text text-anchor="middle" x="316.12" y="-116.25" font-family="Helvetica,sans-Serif" font-size="10.00">volume.h</text>
</a>
</g>
</g>
<!-- Node1&#45;&gt;Node3 -->
<g id="edge2_Node000001_Node000003" class="edge">
<title>Node1&#45;&gt;Node3</title>
<g id="a_edge2_Node000001_Node000003"><a xlink:title=" ">
<path fill="none" stroke="#63b8ff" d="M292.69,-165.54C297.12,-157.14 301.96,-147.97 306.08,-140.16"/>
<polygon fill="#63b8ff" stroke="#63b8ff" points="309.04,-142.05 310.61,-131.58 302.85,-138.79 309.04,-142.05"/>
</a>
</g>
</g>
<!-- Node4 -->
<g id="Node000004" class="node">
<title>Node4</title>
<g id="a_Node000004"><a xlink:title=" ">
<polygon fill="#e0e0e0" stroke="#999999" points="78.25,-19.25 0,-19.25 0,0 78.25,0 78.25,-19.25"/>
<text text-anchor="middle" x="39.12" y="-5.75" font-family="Helvetica,sans-Serif" font-size="10.00">../stb_image.h</text>
</a>
</g>
</g>
<!-- Node3&#45;&gt;Node4 -->
<g id="edge3_Node000003_Node000004" class="edge">
<title>Node3&#45;&gt;Node4</title>
<g id="a_edge3_Node000003_Node000004"><a xlink:title=" ">
<path fill="none" stroke="#63b8ff" d="M292.98,-110.06C244.1,-90.91 130.14,-46.28 73.02,-23.9"/>
<polygon fill="#63b8ff" stroke="#63b8ff" points="74.39,-20.68 63.8,-20.29 71.84,-27.2 74.39,-20.68"/>
</a>
</g>
</g>
<!-- Node5 -->
<g id="Node000005" class="node">
<title>Node5</title>
<g id="a_Node000005"><a xlink:title=" ">
<polygon fill="#e0e0e0" stroke="#999999" points="200.38,-19.25 95.88,-19.25 95.88,0 200.38,0 200.38,-19.25"/>
<text text-anchor="middle" x="148.12" y="-5.75" font-family="Helvetica,sans-Serif" font-size="10.00">../stb_image_write.h</text>
</a>
</g>
</g>
<!-- Node3&#45;&gt;Node5 -->
<g id="edge4_Node000003_Node000005" class="edge">
<title>Node3&#45;&gt;Node5</title>
<g id="a_edge4_Node000003_Node000005"><a xlink:title=" ">
<path fill="none" stroke="#63b8ff" d="M302.09,-110.06C273.24,-91.43 207,-48.65 171.54,-25.75"/>
<polygon fill="#63b8ff" stroke="#63b8ff" points="173.57,-22.89 163.27,-20.41 169.77,-28.77 173.57,-22.89"/>
</a>
</g>
</g>
<!-- Node6 -->
<g id="Node000006" class="node">
<title>Node6</title>
<g id="a_Node000006"><a xlink:href="_image_8h.html" target="_top" xlink:title="this header file contains all required functions and definitions for the Image class,...">
<polygon fill="white" stroke="#666666" points="361.25,-74.5 271,-74.5 271,-55.25 361.25,-55.25 361.25,-74.5"/>
<text text-anchor="middle" x="316.12" y="-61" font-family="Helvetica,sans-Serif" font-size="10.00">../Image/Image.h</text>
</a>
</g>
</g>
<!-- Node3&#45;&gt;Node6 -->
<g id="edge5_Node000003_Node000006" class="edge">
<title>Node3&#45;&gt;Node6</title>
<g id="a_edge5_Node000003_Node000006"><a xlink:title=" ">
<path fill="none" stroke="#63b8ff" d="M316.12,-110.33C316.12,-103.82 316.12,-94.67 316.12,-86.37"/>
<polygon fill="#63b8ff" stroke="#63b8ff" points="319.63,-86.37 316.13,-76.37 312.63,-86.37 319.63,-86.37"/>
</a>
</g>
</g>
<!-- Node7 -->
<g id="Node000007" class="node">
<title>Node7</title>
<g id="a_Node000007"><a xlink:title=" ">
<polygon fill="#e0e0e0" stroke="#999999" points="271.88,-19.25 218.38,-19.25 218.38,0 271.88,0 271.88,-19.25"/>
<text text-anchor="middle" x="245.12" y="-5.75" font-family="Helvetica,sans-Serif" font-size="10.00">iostream</text>
</a>
</g>
</g>
<!-- Node3&#45;&gt;Node7 -->
<g id="edge16_Node000003_Node000007" class="edge">
<title>Node3&#45;&gt;Node7</title>
<g id="a_edge16_Node000003_Node000007"><a xlink:title=" ">
<path fill="none" stroke="#63b8ff" d="M300.59,-110.09C288.37,-102.2 271.84,-89.65 262.12,-74.5 253.68,-61.32 249.4,-44.05 247.26,-30.79"/>
<polygon fill="#63b8ff" stroke="#63b8ff" points="250.75,-30.53 245.98,-21.07 243.81,-31.45 250.75,-30.53"/>
</a>
</g>
</g>
<!-- Node8 -->
<g id="Node000008" class="node">
<title>Node8</title>
<g id="a_Node000008"><a xlink:title=" ">
<polygon fill="#e0e0e0" stroke="#999999" points="473.12,-19.25 433.12,-19.25 433.12,0 473.12,0 473.12,-19.25"/>
<text text-anchor="middle" x="453.12" y="-5.75" font-family="Helvetica,sans-Serif" font-size="10.00">string</text>
</a>
</g>
</g>
<!-- Node3&#45;&gt;Node8 -->
<g id="edge14_Node000003_Node000008" class="edge">
<title>Node3&#45;&gt;Node8</title>
<g id="a_edge14_Node000003_Node000008"><a xlink:title=" ">
<path fill="none" stroke="#63b8ff" d="M327.34,-110.25C350.42,-91.97 403.53,-49.9 432.82,-26.71"/>
<polygon fill="#63b8ff" stroke="#63b8ff" points="434.91,-29.52 440.57,-20.57 430.56,-24.03 434.91,-29.52"/>
</a>
</g>
</g>
<!-- Node9 -->
<g id="Node000009" class="node">
<title>Node9</title>
<g id="a_Node000009"><a xlink:title=" ">
<polygon fill="#e0e0e0" stroke="#999999" points="534.62,-19.25 491.62,-19.25 491.62,0 534.62,0 534.62,-19.25"/>
<text text-anchor="middle" x="513.12" y="-5.75" font-family="Helvetica,sans-Serif" font-size="10.00">vector</text>
</a>
</g>
</g>
<!-- Node3&#45;&gt;Node9 -->
<g id="edge13_Node000003_Node000009" class="edge">
<title>Node3&#45;&gt;Node9</title>
<g id="a_edge13_Node000003_Node000009"><a xlink:title=" ">
<path fill="none" stroke="#63b8ff" d="M333.02,-110.15C349.83,-101.2 376.32,-87.02 399.12,-74.5 429.51,-57.82 464.24,-38.29 487.3,-25.26"/>
<polygon fill="#63b8ff" stroke="#63b8ff" points="489.02,-28.31 496,-20.34 485.57,-22.22 489.02,-28.31"/>
</a>
</g>
</g>
<!-- Node12 -->
<g id="Node000012" class="node">
<title>Node12</title>
<g id="a_Node000012"><a xlink:title=" ">
<polygon fill="#e0e0e0" stroke="#999999" points="516.62,-74.5 455.62,-74.5 455.62,-55.25 516.62,-55.25 516.62,-74.5"/>
<text text-anchor="middle" x="486.12" y="-61" font-family="Helvetica,sans-Serif" font-size="10.00">filesystem</text>
</a>
</g>
</g>
<!-- Node3&#45;&gt;Node12 -->
<g id="edge15_Node000003_Node000012" class="edge">
<title>Node3&#45;&gt;Node12</title>
<g id="a_edge15_Node000003_Node000012"><a xlink:title=" ">
<path fill="none" stroke="#63b8ff" d="M344.2,-110.33C372,-101.62 414.84,-88.21 446.18,-78.39"/>
<polygon fill="#63b8ff" stroke="#63b8ff" points="447.22,-81.73 455.71,-75.4 445.12,-75.05 447.22,-81.73"/>
</a>
</g>
</g>
<!-- Node6&#45;&gt;Node4 -->
<g id="edge11_Node000006_Node000004" class="edge">
<title>Node6&#45;&gt;Node4</title>
<g id="a_edge11_Node000006_Node000004"><a xlink:title=" ">
<path fill="none" stroke="#63b8ff" d="M270.69,-55.14C221.04,-45.6 141.67,-30.34 89.97,-20.4"/>
<polygon fill="#63b8ff" stroke="#63b8ff" points="90.71,-16.98 80.23,-18.53 89.39,-23.85 90.71,-16.98"/>
</a>
</g>
</g>
<!-- Node6&#45;&gt;Node5 -->
<g id="edge12_Node000006_Node000005" class="edge">
<title>Node6&#45;&gt;Node5</title>
<g id="a_edge12_Node000006_Node000005"><a xlink:title=" ">
<path fill="none" stroke="#63b8ff" d="M287.63,-54.84C260.11,-46.12 218.22,-32.84 187.52,-23.11"/>
<polygon fill="#63b8ff" stroke="#63b8ff" points="188.8,-19.84 178.21,-20.16 186.68,-26.52 188.8,-19.84"/>
</a>
</g>
</g>
<!-- Node6&#45;&gt;Node7 -->
<g id="edge6_Node000006_Node000007" class="edge">
<title>Node6&#45;&gt;Node7</title>
<g id="a_edge6_Node000006_Node000007"><a xlink:title=" ">
<path fill="none" stroke="#63b8ff" d="M304.08,-54.84C293.72,-47.07 278.52,-35.67 266.16,-26.4"/>
<polygon fill="#63b8ff" stroke="#63b8ff" points="268.3,-23.63 258.2,-20.43 264.1,-29.23 268.3,-23.63"/>
</a>
</g>
</g>
<!-- Node6&#45;&gt;Node8 -->
<g id="edge7_Node000006_Node000008" class="edge">
<title>Node6&#45;&gt;Node8</title>
<g id="a_edge7_Node000006_Node000008"><a xlink:title=" ">
<path fill="none" stroke="#63b8ff" d="M339.37,-54.84C362.24,-45.95 397.31,-32.32 422.46,-22.54"/>
<polygon fill="#63b8ff" stroke="#63b8ff" points="423.44,-25.92 431.49,-19.03 420.9,-19.39 423.44,-25.92"/>
</a>
</g>
</g>
<!-- Node6&#45;&gt;Node9 -->
<g id="edge8_Node000006_Node000009" class="edge">
<title>Node6&#45;&gt;Node9</title>
<g id="a_edge8_Node000006_Node000009"><a xlink:title=" ">
<path fill="none" stroke="#63b8ff" d="M350.17,-54.82C381.51,-46.46 429.58,-33.58 480.54,-19.67"/>
<polygon fill="#63b8ff" stroke="#63b8ff" points="481.27,-23.09 489.99,-17.08 479.42,-16.34 481.27,-23.09"/>
</a>
</g>
</g>
<!-- Node10 -->
<g id="Node000010" class="node">
<title>Node10</title>
<g id="a_Node000010"><a xlink:title=" ">
<polygon fill="#e0e0e0" stroke="#999999" points="415.5,-19.25 356.75,-19.25 356.75,0 415.5,0 415.5,-19.25"/>
<text text-anchor="middle" x="386.12" y="-5.75" font-family="Helvetica,sans-Serif" font-size="10.00">stdexcept</text>
</a>
</g>
</g>
<!-- Node6&#45;&gt;Node10 -->
<g id="edge9_Node000006_Node000010" class="edge">
<title>Node6&#45;&gt;Node10</title>
<g id="a_edge9_Node000006_Node000010"><a xlink:title=" ">
<path fill="none" stroke="#63b8ff" d="M328,-54.84C338.22,-47.07 353.2,-35.67 365.39,-26.4"/>
<polygon fill="#63b8ff" stroke="#63b8ff" points="367.38,-29.28 373.22,-20.44 363.14,-23.71 367.38,-29.28"/>
</a>
</g>
</g>
<!-- Node11 -->
<g id="Node000011" class="node">
<title>Node11</title>
<g id="a_Node000011"><a xlink:title=" ">
<polygon fill="#e0e0e0" stroke="#999999" points="338.25,-19.25 290,-19.25 290,0 338.25,0 338.25,-19.25"/>
<text text-anchor="middle" x="314.12" y="-5.75" font-family="Helvetica,sans-Serif" font-size="10.00">cassert</text>
</a>
</g>
</g>
<!-- Node6&#45;&gt;Node11 -->
<g id="edge10_Node000006_Node000011" class="edge">
<title>Node6&#45;&gt;Node11</title>
<g id="a_edge10_Node000006_Node000011"><a xlink:title=" ">
<path fill="none" stroke="#63b8ff" d="M315.79,-55.08C315.55,-48.49 315.2,-39.21 314.88,-30.82"/>
<polygon fill="#63b8ff" stroke="#63b8ff" points="318.39,-30.98 314.52,-21.12 311.4,-31.25 318.39,-30.98"/>
</a>
</g>
</g>
</g>
</svg>
