<?xml version="1.0" encoding="UTF-8" standalone="no"?>
<!DOCTYPE svg PUBLIC "-//W3C//DTD SVG 1.1//EN"
 "http://www.w3.org/Graphics/SVG/1.1/DTD/svg11.dtd">
<!-- Generated by graphviz version 10.0.1 (20240210.2158)
 -->
<!-- Title: /Users/st1123/CLionProjects/advanced&#45;programming&#45;group&#45;linear&#45;regression/src/volume/volume.h Pages: 1 -->
<svg width="543pt" height="172pt"
 viewBox="0.00 0.00 542.62 171.50" xmlns="http://www.w3.org/2000/svg" xmlns:xlink="http://www.w3.org/1999/xlink">
<g id="graph0" class="graph" transform="scale(1 1) rotate(0) translate(4 167.5)">
<title>/Users/st1123/CLionProjects/advanced&#45;programming&#45;group&#45;linear&#45;regression/src/volume/volume.h</title>
<!-- Node1 -->
<g id="Node000001" class="node">
<title>Node1</title>
<g id="a_Node000001"><a xlink:title="this header file contains the declarations of the Volume class that handles a collection of images as...">
<polygon fill="#999999" stroke="#666666" points="389.75,-163.5 242.5,-163.5 242.5,-110.5 389.75,-110.5 389.75,-163.5"/>
<text text-anchor="start" x="250.5" y="-150" font-family="Helvetica,sans-Serif" font-size="10.00">/Users/st1123/CLionProjects</text>
<text text-anchor="start" x="250.5" y="-138.75" font-family="Helvetica,sans-Serif" font-size="10.00">/advanced&#45;programming&#45;group</text>
<text text-anchor="start" x="250.5" y="-127.5" font-family="Helvetica,sans-Serif" font-size="10.00">&#45;linear&#45;regression/src/volume</text>
<text text-anchor="middle" x="316.12" y="-116.25" font-family="Helvetica,sans-Serif" font-size="10.00">/volume.h</text>
</a>
</g>
</g>
<!-- Node2 -->
<g id="Node000002" class="node">
<title>Node2</title>
<g id="a_Node000002"><a xlink:title=" ">
<polygon fill="#e0e0e0" stroke="#999999" points="78.25,-19.25 0,-19.25 0,0 78.25,0 78.25,-19.25"/>
<text text-anchor="middle" x="39.12" y="-5.75" font-family="Helvetica,sans-Serif" font-size="10.00">../stb_image.h</text>
</a>
</g>
</g>
<!-- Node1&#45;&gt;Node2 -->
<g id="edge1_Node000001_Node000002" class="edge">
<title>Node1&#45;&gt;Node2</title>
<g id="a_edge1_Node000001_Node000002"><a xlink:title=" ">
<path fill="none" stroke="#63b8ff" d="M258.73,-110.02C201.2,-83.98 114.83,-44.89 69.46,-24.35"/>
<polygon fill="#63b8ff" stroke="#63b8ff" points="71.04,-21.23 60.49,-20.29 68.15,-27.61 71.04,-21.23"/>
</a>
</g>
</g>
<!-- Node3 -->
<g id="Node000003" class="node">
<title>Node3</title>
<g id="a_Node000003"><a xlink:title=" ">
<polygon fill="#e0e0e0" stroke="#999999" points="200.38,-19.25 95.88,-19.25 95.88,0 200.38,0 200.38,-19.25"/>
<text text-anchor="middle" x="148.12" y="-5.75" font-family="Helvetica,sans-Serif" font-size="10.00">../stb_image_write.h</text>
</a>
</g>
</g>
<!-- Node1&#45;&gt;Node3 -->
<g id="edge2_Node000001_Node000003" class="edge">
<title>Node1&#45;&gt;Node3</title>
<g id="a_edge2_Node000001_Node000003"><a xlink:title=" ">
<path fill="none" stroke="#63b8ff" d="M281.32,-110.02C247.44,-84.74 197.09,-47.17 169,-26.2"/>
<polygon fill="#63b8ff" stroke="#63b8ff" points="171.37,-23.61 161.27,-20.43 167.19,-29.22 171.37,-23.61"/>
</a>
</g>
</g>
<!-- Node4 -->
<g id="Node000004" class="node">
<title>Node4</title>
<g id="a_Node000004"><a xlink:href="_image_8h.html" target="_top" xlink:title="this header file contains all required functions and definitions for the Image class,...">
<polygon fill="white" stroke="#666666" points="361.25,-74.5 271,-74.5 271,-55.25 361.25,-55.25 361.25,-74.5"/>
<text text-anchor="middle" x="316.12" y="-61" font-family="Helvetica,sans-Serif" font-size="10.00">../Image/Image.h</text>
</a>
</g>
</g>
<!-- Node1&#45;&gt;Node4 -->
<g id="edge3_Node000001_Node000004" class="edge">
<title>Node1&#45;&gt;Node4</title>
<g id="a_edge3_Node000001_Node000004"><a xlink:title=" ">
<path fill="none" stroke="#63b8ff" d="M316.12,-110.29C316.12,-102.37 316.12,-93.77 316.12,-86.27"/>
<polygon fill="#63b8ff" stroke="#63b8ff" points="319.63,-86.5 316.13,-76.5 312.63,-86.5 319.63,-86.5"/>
</a>
</g>
</g>
<!-- Node5 -->
<g id="Node000005" class="node">
<title>Node5</title>
<g id="a_Node000005"><a xlink:title=" ">
<polygon fill="#e0e0e0" stroke="#999999" points="271.88,-19.25 218.38,-19.25 218.38,0 271.88,0 271.88,-19.25"/>
<text text-anchor="middle" x="245.12" y="-5.75" font-family="Helvetica,sans-Serif" font-size="10.00">iostream</text>
</a>
</g>
</g>
<!-- Node1&#45;&gt;Node5 -->
<g id="edge14_Node000001_Node000005" class="edge">
<title>Node1&#45;&gt;Node5</title>
<g id="a_edge14_Node000001_Node000005"><a xlink:title=" ">
<path fill="none" stroke="#63b8ff" d="M288.7,-110.19C279.1,-99.89 269.02,-87.41 262.12,-74.5 254.75,-60.69 250.41,-43.46 247.96,-30.38"/>
<polygon fill="#63b8ff" stroke="#63b8ff" points="251.47,-30.15 246.4,-20.85 244.56,-31.28 251.47,-30.15"/>
</a>
</g>
</g>
<!-- Node6 -->
<g id="Node000006" class="node">
<title>Node6</title>
<g id="a_Node000006"><a xlink:title=" ">
<polygon fill="#e0e0e0" stroke="#999999" points="473.12,-19.25 433.12,-19.25 433.12,0 473.12,0 473.12,-19.25"/>
<text text-anchor="middle" x="453.12" y="-5.75" font-family="Helvetica,sans-Serif" font-size="10.00">string</text>
</a>
</g>
</g>
<!-- Node1&#45;&gt;Node6 -->
<g id="edge12_Node000001_Node000006" class="edge">
<title>Node1&#45;&gt;Node6</title>
<g id="a_edge12_Node000001_Node000006"><a xlink:title=" ">
<path fill="none" stroke="#63b8ff" d="M344.51,-110.02C371.77,-85.07 412.12,-48.15 435.19,-27.03"/>
<polygon fill="#63b8ff" stroke="#63b8ff" points="437.27,-29.88 442.28,-20.55 432.54,-24.72 437.27,-29.88"/>
</a>
</g>
</g>
<!-- Node7 -->
<g id="Node000007" class="node">
<title>Node7</title>
<g id="a_Node000007"><a xlink:title=" ">
<polygon fill="#e0e0e0" stroke="#999999" points="534.62,-19.25 491.62,-19.25 491.62,0 534.62,0 534.62,-19.25"/>
<text text-anchor="middle" x="513.12" y="-5.75" font-family="Helvetica,sans-Serif" font-size="10.00">vector</text>
</a>
</g>
</g>
<!-- Node1&#45;&gt;Node7 -->
<g id="edge11_Node000001_Node000007" class="edge">
<title>Node1&#45;&gt;Node7</title>
<g id="a_edge11_Node000001_Node000007"><a xlink:title=" ">
<path fill="none" stroke="#63b8ff" d="M356.94,-110.02C397.01,-84.52 456.74,-46.51 489.51,-25.66"/>
<polygon fill="#63b8ff" stroke="#63b8ff" points="491.3,-28.66 497.86,-20.34 487.54,-22.76 491.3,-28.66"/>
</a>
</g>
</g>
<!-- Node10 -->
<g id="Node000010" class="node">
<title>Node10</title>
<g id="a_Node000010"><a xlink:title=" ">
<polygon fill="#e0e0e0" stroke="#999999" points="516.62,-74.5 455.62,-74.5 455.62,-55.25 516.62,-55.25 516.62,-74.5"/>
<text text-anchor="middle" x="486.12" y="-61" font-family="Helvetica,sans-Serif" font-size="10.00">filesystem</text>
</a>
</g>
</g>
<!-- Node1&#45;&gt;Node10 -->
<g id="edge13_Node000001_Node000010" class="edge">
<title>Node1&#45;&gt;Node10</title>
<g id="a_edge13_Node000001_Node000010"><a xlink:title=" ">
<path fill="none" stroke="#63b8ff" d="M378.94,-110.09C404.28,-99.64 432.44,-88.02 453.54,-79.32"/>
<polygon fill="#63b8ff" stroke="#63b8ff" points="454.86,-82.56 462.77,-75.51 452.19,-76.09 454.86,-82.56"/>
</a>
</g>
</g>
<!-- Node4&#45;&gt;Node2 -->
<g id="edge9_Node000004_Node000002" class="edge">
<title>Node4&#45;&gt;Node2</title>
<g id="a_edge9_Node000004_Node000002"><a xlink:title=" ">
<path fill="none" stroke="#63b8ff" d="M270.69,-55.14C221.04,-45.6 141.67,-30.34 89.97,-20.4"/>
<polygon fill="#63b8ff" stroke="#63b8ff" points="90.71,-16.98 80.23,-18.53 89.39,-23.85 90.71,-16.98"/>
</a>
</g>
</g>
<!-- Node4&#45;&gt;Node3 -->
<g id="edge10_Node000004_Node000003" class="edge">
<title>Node4&#45;&gt;Node3</title>
<g id="a_edge10_Node000004_Node000003"><a xlink:title=" ">
<path fill="none" stroke="#63b8ff" d="M287.63,-54.84C260.11,-46.12 218.22,-32.84 187.52,-23.11"/>
<polygon fill="#63b8ff" stroke="#63b8ff" points="188.8,-19.84 178.21,-20.16 186.68,-26.52 188.8,-19.84"/>
</a>
</g>
</g>
<!-- Node4&#45;&gt;Node5 -->
<g id="edge4_Node000004_Node000005" class="edge">
<title>Node4&#45;&gt;Node5</title>
<g id="a_edge4_Node000004_Node000005"><a xlink:title=" ">
<path fill="none" stroke="#63b8ff" d="M304.08,-54.84C293.72,-47.07 278.52,-35.67 266.16,-26.4"/>
<polygon fill="#63b8ff" stroke="#63b8ff" points="268.3,-23.63 258.2,-20.43 264.1,-29.23 268.3,-23.63"/>
</a>
</g>
</g>
<!-- Node4&#45;&gt;Node6 -->
<g id="edge5_Node000004_Node000006" class="edge">
<title>Node4&#45;&gt;Node6</title>
<g id="a_edge5_Node000004_Node000006"><a xlink:title=" ">
<path fill="none" stroke="#63b8ff" d="M339.37,-54.84C362.24,-45.95 397.31,-32.32 422.46,-22.54"/>
<polygon fill="#63b8ff" stroke="#63b8ff" points="423.44,-25.92 431.49,-19.03 420.9,-19.39 423.44,-25.92"/>
</a>
</g>
</g>
<!-- Node4&#45;&gt;Node7 -->
<g id="edge6_Node000004_Node000007" class="edge">
<title>Node4&#45;&gt;Node7</title>
<g id="a_edge6_Node000004_Node000007"><a xlink:title=" ">
<path fill="none" stroke="#63b8ff" d="M350.17,-54.82C381.51,-46.46 429.58,-33.58 480.54,-19.67"/>
<polygon fill="#63b8ff" stroke="#63b8ff" points="481.27,-23.09 489.99,-17.08 479.42,-16.34 481.27,-23.09"/>
</a>
</g>
</g>
<!-- Node8 -->
<g id="Node000008" class="node">
<title>Node8</title>
<g id="a_Node000008"><a xlink:title=" ">
<polygon fill="#e0e0e0" stroke="#999999" points="415.5,-19.25 356.75,-19.25 356.75,0 415.5,0 415.5,-19.25"/>
<text text-anchor="middle" x="386.12" y="-5.75" font-family="Helvetica,sans-Serif" font-size="10.00">stdexcept</text>
</a>
</g>
</g>
<!-- Node4&#45;&gt;Node8 -->
<g id="edge7_Node000004_Node000008" class="edge">
<title>Node4&#45;&gt;Node8</title>
<g id="a_edge7_Node000004_Node000008"><a xlink:title=" ">
<path fill="none" stroke="#63b8ff" d="M328,-54.84C338.22,-47.07 353.2,-35.67 365.39,-26.4"/>
<polygon fill="#63b8ff" stroke="#63b8ff" points="367.38,-29.28 373.22,-20.44 363.14,-23.71 367.38,-29.28"/>
</a>
</g>
</g>
<!-- Node9 -->
<g id="Node000009" class="node">
<title>Node9</title>
<g id="a_Node000009"><a xlink:title=" ">
<polygon fill="#e0e0e0" stroke="#999999" points="338.25,-19.25 290,-19.25 290,0 338.25,0 338.25,-19.25"/>
<text text-anchor="middle" x="314.12" y="-5.75" font-family="Helvetica,sans-Serif" font-size="10.00">cassert</text>
</a>
</g>
</g>
<!-- Node4&#45;&gt;Node9 -->
<g id="edge8_Node000004_Node000009" class="edge">
<title>Node4&#45;&gt;Node9</title>
<g id="a_edge8_Node000004_Node000009"><a xlink:title=" ">
<path fill="none" stroke="#63b8ff" d="M315.79,-55.08C315.55,-48.49 315.2,-39.21 314.88,-30.82"/>
<polygon fill="#63b8ff" stroke="#63b8ff" points="318.39,-30.98 314.52,-21.12 311.4,-31.25 318.39,-30.98"/>
</a>
</g>
</g>
</g>
</svg>
