<?xml version="1.0" encoding="UTF-8" standalone="no"?>
<!DOCTYPE svg PUBLIC "-//W3C//DTD SVG 1.1//EN"
 "http://www.w3.org/Graphics/SVG/1.1/DTD/svg11.dtd">
<!-- Generated by graphviz version 10.0.1 (20240210.2158)
 -->
<!-- Title: /Users/st1123/CLionProjects/advanced&#45;programming&#45;group&#45;linear&#45;regression/src/volume/volume.h Pages: 1 -->
<svg width="870pt" height="328pt"
 viewBox="0.00 0.00 870.25 328.00" xmlns="http://www.w3.org/2000/svg" xmlns:xlink="http://www.w3.org/1999/xlink">
<g id="graph0" class="graph" transform="scale(1 1) rotate(0) translate(4 324)">
<title>/Users/st1123/CLionProjects/advanced&#45;programming&#45;group&#45;linear&#45;regression/src/volume/volume.h</title>
<!-- Node1 -->
<g id="Node000001" class="node">
<title>Node1</title>
<g id="a_Node000001"><a xlink:title="this header file contains the declarations of the Volume class that handles a collection of images as...">
<polygon fill="#999999" stroke="#666666" points="463.25,-320 316,-320 316,-267 463.25,-267 463.25,-320"/>
<text text-anchor="start" x="324" y="-306.5" font-family="Helvetica,sans-Serif" font-size="10.00">/Users/st1123/CLionProjects</text>
<text text-anchor="start" x="324" y="-295.25" font-family="Helvetica,sans-Serif" font-size="10.00">/advanced&#45;programming&#45;group</text>
<text text-anchor="start" x="324" y="-284" font-family="Helvetica,sans-Serif" font-size="10.00">&#45;linear&#45;regression/src/volume</text>
<text text-anchor="middle" x="389.62" y="-272.75" font-family="Helvetica,sans-Serif" font-size="10.00">/volume.h</text>
</a>
</g>
</g>
<!-- Node2 -->
<g id="Node000002" class="node">
<title>Node2</title>
<g id="a_Node000002"><a xlink:href="filter_8cpp.html" target="_top" xlink:title="this file will contain all the filters (2D / 3D) that can be applied to the image and volume data">
<polygon fill="white" stroke="#666666" points="147.25,-142 0,-142 0,-89 147.25,-89 147.25,-142"/>
<text text-anchor="start" x="8" y="-128.5" font-family="Helvetica,sans-Serif" font-size="10.00">/Users/st1123/CLionProjects</text>
<text text-anchor="start" x="8" y="-117.25" font-family="Helvetica,sans-Serif" font-size="10.00">/advanced&#45;programming&#45;group</text>
<text text-anchor="start" x="8" y="-106" font-family="Helvetica,sans-Serif" font-size="10.00">&#45;linear&#45;regression/src/filter</text>
<text text-anchor="middle" x="73.62" y="-94.75" font-family="Helvetica,sans-Serif" font-size="10.00">/filter.cpp</text>
</a>
</g>
</g>
<!-- Node1&#45;&gt;Node2 -->
<g id="edge1_Node000001_Node000002" class="edge">
<title>Node1&#45;&gt;Node2</title>
<g id="a_edge1_Node000001_Node000002"><a xlink:title=" ">
<path fill="none" stroke="#63b8ff" d="M304.29,-285.1C256.24,-277.5 197.13,-262.13 152.62,-231 120.57,-208.58 97.45,-168.68 84.79,-142.41"/>
<polygon fill="#63b8ff" stroke="#63b8ff" points="303.72,-288.55 314.13,-286.56 304.75,-281.63 303.72,-288.55"/>
</a>
</g>
</g>
<!-- Node3 -->
<g id="Node000003" class="node">
<title>Node3</title>
<g id="a_Node000003"><a xlink:href="filter_8h.html" target="_top" xlink:title="this header file will contain all the filters (2D / 3D) that can be applied to the image and volume d...">
<polygon fill="white" stroke="#666666" points="309.25,-231 162,-231 162,-178 309.25,-178 309.25,-231"/>
<text text-anchor="start" x="170" y="-217.5" font-family="Helvetica,sans-Serif" font-size="10.00">/Users/st1123/CLionProjects</text>
<text text-anchor="start" x="170" y="-206.25" font-family="Helvetica,sans-Serif" font-size="10.00">/advanced&#45;programming&#45;group</text>
<text text-anchor="start" x="170" y="-195" font-family="Helvetica,sans-Serif" font-size="10.00">&#45;linear&#45;regression/src/filter</text>
<text text-anchor="middle" x="235.62" y="-183.75" font-family="Helvetica,sans-Serif" font-size="10.00">/filter.h</text>
</a>
</g>
</g>
<!-- Node1&#45;&gt;Node3 -->
<g id="edge2_Node000001_Node000003" class="edge">
<title>Node1&#45;&gt;Node3</title>
<g id="a_edge2_Node000001_Node000003"><a xlink:title=" ">
<path fill="none" stroke="#63b8ff" d="M333.91,-261.03C316.71,-251.31 297.96,-240.72 281.5,-231.42"/>
<polygon fill="#63b8ff" stroke="#63b8ff" points="332.09,-264.02 342.52,-265.89 335.53,-257.92 332.09,-264.02"/>
</a>
</g>
</g>
<!-- Node6 -->
<g id="Node000006" class="node">
<title>Node6</title>
<g id="a_Node000006"><a xlink:href="test_8cpp.html" target="_top" xlink:title=" ">
<polygon fill="white" stroke="#666666" points="351.25,-136.38 204,-136.38 204,-94.62 351.25,-94.62 351.25,-136.38"/>
<text text-anchor="start" x="212" y="-122.88" font-family="Helvetica,sans-Serif" font-size="10.00">/Users/st1123/CLionProjects</text>
<text text-anchor="start" x="212" y="-111.62" font-family="Helvetica,sans-Serif" font-size="10.00">/advanced&#45;programming&#45;group</text>
<text text-anchor="middle" x="277.62" y="-100.38" font-family="Helvetica,sans-Serif" font-size="10.00">&#45;linear&#45;regression/src/test.cpp</text>
</a>
</g>
</g>
<!-- Node1&#45;&gt;Node6 -->
<g id="edge17_Node000001_Node000006" class="edge">
<title>Node1&#45;&gt;Node6</title>
<g id="a_edge17_Node000001_Node000006"><a xlink:title=" ">
<path fill="none" stroke="#63b8ff" d="M368.22,-257.31C354.28,-234.56 335.6,-204.39 318.62,-178 309.67,-164.08 299.33,-148.57 291.27,-136.61"/>
<polygon fill="#63b8ff" stroke="#63b8ff" points="365.08,-258.89 373.28,-265.59 371.05,-255.23 365.08,-258.89"/>
</a>
</g>
</g>
<!-- Node9 -->
<g id="Node000009" class="node">
<title>Node9</title>
<g id="a_Node000009"><a xlink:href="projection_8h.html" target="_top" xlink:title="this header file contains all the declarations of projections methods that can be applied to a volume...">
<polygon fill="white" stroke="#666666" points="517.5,-231 365.75,-231 365.75,-178 517.5,-178 517.5,-231"/>
<text text-anchor="start" x="373.75" y="-217.5" font-family="Helvetica,sans-Serif" font-size="10.00">/Users/st1123/CLionProjects</text>
<text text-anchor="start" x="373.75" y="-206.25" font-family="Helvetica,sans-Serif" font-size="10.00">/advanced&#45;programming&#45;group</text>
<text text-anchor="start" x="373.75" y="-195" font-family="Helvetica,sans-Serif" font-size="10.00">&#45;linear&#45;regression/src/projection</text>
<text text-anchor="middle" x="441.62" y="-183.75" font-family="Helvetica,sans-Serif" font-size="10.00">/projection.h</text>
</a>
</g>
</g>
<!-- Node1&#45;&gt;Node9 -->
<g id="edge10_Node000001_Node000009" class="edge">
<title>Node1&#45;&gt;Node9</title>
<g id="a_edge10_Node000001_Node000009"><a xlink:title=" ">
<path fill="none" stroke="#63b8ff" d="M410.83,-257.02C415.99,-248.39 421.41,-239.33 426.23,-231.25"/>
<polygon fill="#63b8ff" stroke="#63b8ff" points="407.85,-255.19 405.72,-265.57 413.86,-258.78 407.85,-255.19"/>
</a>
</g>
</g>
<!-- Node10 -->
<g id="Node000010" class="node">
<title>Node10</title>
<g id="a_Node000010"><a xlink:href="slice_8h.html" target="_top" xlink:title="this header file contains all the declarations of slicing methods that can be applied to a volume.">
<polygon fill="white" stroke="#666666" points="697.38,-225.38 535.88,-225.38 535.88,-183.62 697.38,-183.62 697.38,-225.38"/>
<text text-anchor="start" x="543.88" y="-211.88" font-family="Helvetica,sans-Serif" font-size="10.00">/Users/st1123/CLionProjects</text>
<text text-anchor="start" x="543.88" y="-200.62" font-family="Helvetica,sans-Serif" font-size="10.00">/advanced&#45;programming&#45;group</text>
<text text-anchor="middle" x="616.62" y="-189.38" font-family="Helvetica,sans-Serif" font-size="10.00">&#45;linear&#45;regression/src/slice/slice.h</text>
</a>
</g>
</g>
<!-- Node1&#45;&gt;Node10 -->
<g id="edge14_Node000001_Node000010" class="edge">
<title>Node1&#45;&gt;Node10</title>
<g id="a_edge14_Node000001_Node000010"><a xlink:title=" ">
<path fill="none" stroke="#63b8ff" d="M467.96,-262.48C499.53,-250.38 535.13,-236.73 563.58,-225.83"/>
<polygon fill="#63b8ff" stroke="#63b8ff" points="466.92,-259.13 458.84,-265.97 469.43,-265.66 466.92,-259.13"/>
</a>
</g>
</g>
<!-- Node12 -->
<g id="Node000012" class="node">
<title>Node12</title>
<g id="a_Node000012"><a xlink:href="volume_8cpp.html" target="_top" xlink:title="this header file contains the implementation of the Volume class that handles a collection of images ...">
<polygon fill="white" stroke="#666666" points="862.25,-231 715,-231 715,-178 862.25,-178 862.25,-231"/>
<text text-anchor="start" x="723" y="-217.5" font-family="Helvetica,sans-Serif" font-size="10.00">/Users/st1123/CLionProjects</text>
<text text-anchor="start" x="723" y="-206.25" font-family="Helvetica,sans-Serif" font-size="10.00">/advanced&#45;programming&#45;group</text>
<text text-anchor="start" x="723" y="-195" font-family="Helvetica,sans-Serif" font-size="10.00">&#45;linear&#45;regression/src/volume</text>
<text text-anchor="middle" x="788.62" y="-183.75" font-family="Helvetica,sans-Serif" font-size="10.00">/volume.cpp</text>
</a>
</g>
</g>
<!-- Node1&#45;&gt;Node12 -->
<g id="edge18_Node000001_Node000012" class="edge">
<title>Node1&#45;&gt;Node12</title>
<g id="a_edge18_Node000001_Node000012"><a xlink:title=" ">
<path fill="none" stroke="#63b8ff" d="M474.74,-278.6C538.89,-267.5 628.8,-250.59 706.62,-231 709.23,-230.35 711.87,-229.66 714.53,-228.94"/>
<polygon fill="#63b8ff" stroke="#63b8ff" points="474.23,-275.14 464.97,-280.28 475.41,-282.04 474.23,-275.14"/>
</a>
</g>
</g>
<!-- Node3&#45;&gt;Node2 -->
<g id="edge3_Node000003_Node000002" class="edge">
<title>Node3&#45;&gt;Node2</title>
<g id="a_edge3_Node000003_Node000002"><a xlink:title=" ">
<path fill="none" stroke="#63b8ff" d="M177.53,-172.3C159.29,-162.5 139.36,-151.8 121.89,-142.42"/>
<polygon fill="#63b8ff" stroke="#63b8ff" points="175.66,-175.27 186.12,-176.92 178.97,-169.1 175.66,-175.27"/>
</a>
</g>
</g>
<!-- Node4 -->
<g id="Node000004" class="node">
<title>Node4</title>
<g id="a_Node000004"><a xlink:href="main_8cpp.html" target="_top" xlink:title=" ">
<polygon fill="white" stroke="#666666" points="386.38,-47.38 236.88,-47.38 236.88,-5.62 386.38,-5.62 386.38,-47.38"/>
<text text-anchor="start" x="244.88" y="-33.88" font-family="Helvetica,sans-Serif" font-size="10.00">/Users/st1123/CLionProjects</text>
<text text-anchor="start" x="244.88" y="-22.62" font-family="Helvetica,sans-Serif" font-size="10.00">/advanced&#45;programming&#45;group</text>
<text text-anchor="middle" x="311.62" y="-11.38" font-family="Helvetica,sans-Serif" font-size="10.00">&#45;linear&#45;regression/src/main.cpp</text>
</a>
</g>
</g>
<!-- Node3&#45;&gt;Node4 -->
<g id="edge4_Node000003_Node000004" class="edge">
<title>Node3&#45;&gt;Node4</title>
<g id="a_edge4_Node000003_Node000004"><a xlink:title=" ">
<path fill="none" stroke="#63b8ff" d="M207.62,-168.38C192.48,-144.86 179.66,-113.78 194.62,-89 205.9,-70.34 224.92,-57.06 244.38,-47.74"/>
<polygon fill="#63b8ff" stroke="#63b8ff" points="204.56,-170.11 213.09,-176.39 210.34,-166.16 204.56,-170.11"/>
</a>
</g>
</g>
<!-- Node5 -->
<g id="Node000005" class="node">
<title>Node5</title>
<g id="a_Node000005"><a xlink:href="projection_8cpp.html" target="_top" xlink:title="this file contains the implementation of all the projections methods that can be applied to a volume.">
<polygon fill="white" stroke="#666666" points="521.5,-142 369.75,-142 369.75,-89 521.5,-89 521.5,-142"/>
<text text-anchor="start" x="377.75" y="-128.5" font-family="Helvetica,sans-Serif" font-size="10.00">/Users/st1123/CLionProjects</text>
<text text-anchor="start" x="377.75" y="-117.25" font-family="Helvetica,sans-Serif" font-size="10.00">/advanced&#45;programming&#45;group</text>
<text text-anchor="start" x="377.75" y="-106" font-family="Helvetica,sans-Serif" font-size="10.00">&#45;linear&#45;regression/src/projection</text>
<text text-anchor="middle" x="445.62" y="-94.75" font-family="Helvetica,sans-Serif" font-size="10.00">/projection.cpp</text>
</a>
</g>
</g>
<!-- Node3&#45;&gt;Node5 -->
<g id="edge5_Node000003_Node000005" class="edge">
<title>Node3&#45;&gt;Node5</title>
<g id="a_edge5_Node000003_Node000005"><a xlink:title=" ">
<path fill="none" stroke="#63b8ff" d="M308.92,-173.13C333.16,-163.09 359.88,-152.02 383.23,-142.35"/>
<polygon fill="#63b8ff" stroke="#63b8ff" points="307.64,-169.87 299.75,-176.94 310.32,-176.34 307.64,-169.87"/>
</a>
</g>
</g>
<!-- Node3&#45;&gt;Node6 -->
<g id="edge6_Node000003_Node000006" class="edge">
<title>Node3&#45;&gt;Node6</title>
<g id="a_edge6_Node000003_Node000006"><a xlink:title=" ">
<path fill="none" stroke="#63b8ff" d="M252.95,-167.62C258.04,-157.07 263.43,-145.91 267.87,-136.71"/>
<polygon fill="#63b8ff" stroke="#63b8ff" points="249.85,-165.98 248.66,-176.5 256.16,-169.02 249.85,-165.98"/>
</a>
</g>
</g>
<!-- Node7 -->
<g id="Node000007" class="node">
<title>Node7</title>
<g id="a_Node000007"><a xlink:href="utility_8h.html" target="_top" xlink:title="this header file contains the declarations of the Utility class that is used to help build the UI int...">
<polygon fill="white" stroke="#666666" points="687.25,-142 540,-142 540,-89 687.25,-89 687.25,-142"/>
<text text-anchor="start" x="548" y="-128.5" font-family="Helvetica,sans-Serif" font-size="10.00">/Users/st1123/CLionProjects</text>
<text text-anchor="start" x="548" y="-117.25" font-family="Helvetica,sans-Serif" font-size="10.00">/advanced&#45;programming&#45;group</text>
<text text-anchor="start" x="548" y="-106" font-family="Helvetica,sans-Serif" font-size="10.00">&#45;linear&#45;regression/src/utility</text>
<text text-anchor="middle" x="613.62" y="-94.75" font-family="Helvetica,sans-Serif" font-size="10.00">/utility.h</text>
</a>
</g>
</g>
<!-- Node3&#45;&gt;Node7 -->
<g id="edge7_Node000003_Node000007" class="edge">
<title>Node3&#45;&gt;Node7</title>
<g id="a_edge7_Node000003_Node000007"><a xlink:title=" ">
<path fill="none" stroke="#63b8ff" d="M320.56,-185.56C332.66,-183.01 344.96,-180.44 356.62,-178 433.93,-161.86 454.13,-161.62 530.62,-142 533.55,-141.25 536.52,-140.46 539.51,-139.65"/>
<polygon fill="#63b8ff" stroke="#63b8ff" points="320.07,-182.09 311,-187.57 321.51,-188.94 320.07,-182.09"/>
</a>
</g>
</g>
<!-- Node7&#45;&gt;Node4 -->
<g id="edge8_Node000007_Node000004" class="edge">
<title>Node7&#45;&gt;Node4</title>
<g id="a_edge8_Node000007_Node000004"><a xlink:title=" ">
<path fill="none" stroke="#63b8ff" d="M529.17,-88.6C475.77,-72.96 425.58,-58.87 385.75,-47.83"/>
<polygon fill="#63b8ff" stroke="#63b8ff" points="527.85,-91.86 538.43,-91.32 529.83,-85.14 527.85,-91.86"/>
</a>
</g>
</g>
<!-- Node8 -->
<g id="Node000008" class="node">
<title>Node8</title>
<g id="a_Node000008"><a xlink:href="utility_8cpp.html" target="_top" xlink:title=" ">
<polygon fill="white" stroke="#666666" points="687.25,-53 540,-53 540,0 687.25,0 687.25,-53"/>
<text text-anchor="start" x="548" y="-39.5" font-family="Helvetica,sans-Serif" font-size="10.00">/Users/st1123/CLionProjects</text>
<text text-anchor="start" x="548" y="-28.25" font-family="Helvetica,sans-Serif" font-size="10.00">/advanced&#45;programming&#45;group</text>
<text text-anchor="start" x="548" y="-17" font-family="Helvetica,sans-Serif" font-size="10.00">&#45;linear&#45;regression/src/utility</text>
<text text-anchor="middle" x="613.62" y="-5.75" font-family="Helvetica,sans-Serif" font-size="10.00">/utility.cpp</text>
</a>
</g>
</g>
<!-- Node7&#45;&gt;Node8 -->
<g id="edge9_Node000007_Node000008" class="edge">
<title>Node7&#45;&gt;Node8</title>
<g id="a_edge9_Node000007_Node000008"><a xlink:title=" ">
<path fill="none" stroke="#63b8ff" d="M613.62,-77.61C613.62,-69.41 613.62,-60.89 613.62,-53.25"/>
<polygon fill="#63b8ff" stroke="#63b8ff" points="610.13,-77.35 613.63,-87.35 617.13,-77.35 610.13,-77.35"/>
</a>
</g>
</g>
<!-- Node9&#45;&gt;Node5 -->
<g id="edge11_Node000009_Node000005" class="edge">
<title>Node9&#45;&gt;Node5</title>
<g id="a_edge11_Node000009_Node000005"><a xlink:title=" ">
<path fill="none" stroke="#63b8ff" d="M443.32,-166.61C443.7,-158.41 444.09,-149.89 444.44,-142.25"/>
<polygon fill="#63b8ff" stroke="#63b8ff" points="439.84,-166.21 442.87,-176.36 446.83,-166.53 439.84,-166.21"/>
</a>
</g>
</g>
<!-- Node9&#45;&gt;Node6 -->
<g id="edge12_Node000009_Node000006" class="edge">
<title>Node9&#45;&gt;Node6</title>
<g id="a_edge12_Node000009_Node000006"><a xlink:title=" ">
<path fill="none" stroke="#63b8ff" d="M382.82,-172.3C360.51,-160.47 335.71,-147.31 315.79,-136.75"/>
<polygon fill="#63b8ff" stroke="#63b8ff" points="381.05,-175.33 391.53,-176.92 384.33,-169.15 381.05,-175.33"/>
</a>
</g>
</g>
<!-- Node9&#45;&gt;Node7 -->
<g id="edge13_Node000009_Node000007" class="edge">
<title>Node9&#45;&gt;Node7</title>
<g id="a_edge13_Node000009_Node000007"><a xlink:title=" ">
<path fill="none" stroke="#63b8ff" d="M502.77,-172.57C522.28,-162.7 543.66,-151.89 562.39,-142.42"/>
<polygon fill="#63b8ff" stroke="#63b8ff" points="501.46,-169.31 494.12,-176.95 504.62,-175.56 501.46,-169.31"/>
</a>
</g>
</g>
<!-- Node10&#45;&gt;Node7 -->
<g id="edge16_Node000010_Node000007" class="edge">
<title>Node10&#45;&gt;Node7</title>
<g id="a_edge16_Node000010_Node000007"><a xlink:title=" ">
<path fill="none" stroke="#63b8ff" d="M615.54,-171.97C615.2,-162.19 614.83,-151.53 614.51,-142.19"/>
<polygon fill="#63b8ff" stroke="#63b8ff" points="612.03,-171.94 615.88,-181.81 619.03,-171.69 612.03,-171.94"/>
</a>
</g>
</g>
<!-- Node11 -->
<g id="Node000011" class="node">
<title>Node11</title>
<g id="a_Node000011"><a xlink:href="slice_8cpp.html" target="_top" xlink:title="this header file contains all the implementations of slicing methods that can be applied to a volume.">
<polygon fill="white" stroke="#666666" points="852.25,-142 705,-142 705,-89 852.25,-89 852.25,-142"/>
<text text-anchor="start" x="713" y="-128.5" font-family="Helvetica,sans-Serif" font-size="10.00">/Users/st1123/CLionProjects</text>
<text text-anchor="start" x="713" y="-117.25" font-family="Helvetica,sans-Serif" font-size="10.00">/advanced&#45;programming&#45;group</text>
<text text-anchor="start" x="713" y="-106" font-family="Helvetica,sans-Serif" font-size="10.00">&#45;linear&#45;regression/src/slice</text>
<text text-anchor="middle" x="778.62" y="-94.75" font-family="Helvetica,sans-Serif" font-size="10.00">/slice.cpp</text>
</a>
</g>
</g>
<!-- Node10&#45;&gt;Node11 -->
<g id="edge15_Node000010_Node000011" class="edge">
<title>Node10&#45;&gt;Node11</title>
<g id="a_edge15_Node000010_Node000011"><a xlink:title=" ">
<path fill="none" stroke="#63b8ff" d="M664.13,-177.99C685.02,-166.77 709.52,-153.61 730.49,-142.35"/>
<polygon fill="#63b8ff" stroke="#63b8ff" points="662.69,-174.79 655.53,-182.61 666,-180.96 662.69,-174.79"/>
</a>
</g>
</g>
</g>
</svg>
